<svg width="8959" height="2744" viewBox="0 0 8959 2744" fill="none" xmlns="http://www.w3.org/2000/svg">
<g clip-path="url(#clip0_20_1444)">
<path fill-rule="evenodd" clip-rule="evenodd" d="M2440.07 2735.43V2337.93H2572.1V2256.77H2217.97V2337.93H2349.98V2735.43H2440.07ZM2969.39 2735.43V2654.75H2720.45V2524.41H2944.39V2444.13H2720.45V2337.93H2960.76V2256.77H2630.47V2735.43H2969.39ZM3293.91 2636.5C3276.71 2652.94 3256.14 2661.06 3232.28 2661.06C3199.81 2661.06 3173.28 2648.29 3153.2 2622.61C3132.91 2596.91 3122.71 2553.8 3122.71 2493.38C3122.72 2436.21 3133 2394.96 3153.59 2369.64C3174.09 2344.2 3200.91 2331.57 3234.03 2331.57C3257.79 2331.57 3278.17 2338.69 3295.05 2353.03C3311.9 2367.34 3322.77 2386.85 3327.91 2411.74L3417.14 2388.94C3406.93 2350.71 3391.84 2321.27 3371.57 2300.59C3337.4 2265.93 3293.09 2248.61 3238.76 2248.61C3176.12 2248.61 3125.67 2270.62 3087.27 2314.7C3048.83 2358.78 3029.68 2420.65 3029.68 2500.16C3029.69 2575.64 3048.79 2635.06 3087.02 2678.43C3125.29 2721.86 3174.09 2743.6 3233.21 2743.6C3281.03 2743.6 3320.51 2730.92 3351.65 2705.61C3382.8 2680.14 3405.09 2641.38 3418.41 2589.05L3330.9 2559.4C3323.52 2594.43 3311.2 2620.04 3293.91 2636.5ZM3585.77 2735.43V2526.21H3762.47V2735.43H3852.57V2256.77H3762.47V2445.09H3585.77V2256.77H3495.68V2735.43H3585.77ZM4030.09 2735.43V2423.63L4209.74 2735.43H4300.35V2256.77H4216.59V2576.4L4033.92 2256.77H3946.4V2735.43H4030.09ZM4435.84 2678.43C4474.79 2721.86 4527.55 2743.6 4593.83 2743.6C4659.52 2743.6 4711.91 2721.86 4751.07 2678.23C4790.1 2634.57 4809.62 2574.2 4809.62 2497.04C4809.62 2419.01 4789.96 2358.01 4750.4 2314.15C4710.86 2270.49 4658.23 2248.61 4592.62 2248.61C4556.37 2248.61 4524.24 2255.02 4496.49 2267.76C4475.6 2277.19 4456.31 2291.55 4438.69 2310.82C4421.2 2330.17 4407.48 2351.99 4397.57 2376.22C4383.91 2409.39 4377.23 2450.42 4377.23 2499.34C4377.23 2575.29 4396.62 2635.06 4435.84 2678.43ZM4503.83 2372.37C4526.44 2345.19 4556.44 2331.57 4593.83 2331.57C4630.84 2331.57 4660.64 2344.97 4683.1 2371.9C4705.4 2398.7 4716.57 2439.77 4716.57 2494.74C4716.57 2550.04 4705.02 2591.66 4681.91 2619.36C4658.92 2647.23 4629.53 2661.06 4593.83 2661.06C4557.91 2661.06 4528.17 2647.14 4504.83 2619.11C4481.59 2591.18 4469.79 2550.04 4469.79 2495.67C4469.79 2440.7 4481.09 2399.57 4503.83 2372.37ZM5196.2 2735.43V2654.75H4972.23V2260.9H4882.23V2735.43H5196.2ZM5301.07 2678.43C5340.2 2721.86 5392.91 2743.6 5459.1 2743.6C5524.79 2743.6 5577.2 2721.86 5616.28 2678.23C5655.52 2634.57 5674.93 2574.2 5674.93 2497.04C5674.95 2419.01 5655.26 2358.01 5615.73 2314.15C5576.19 2270.49 5523.65 2248.61 5457.91 2248.61C5421.65 2248.61 5389.68 2255.02 5361.91 2267.76C5340.91 2277.19 5321.64 2291.55 5304.05 2310.82C5286.51 2330.17 5272.74 2351.99 5263.02 2376.22C5249.35 2409.39 5242.48 2450.42 5242.48 2499.34C5242.48 2575.29 5262.05 2635.06 5301.07 2678.43ZM5369.05 2372.37C5391.65 2345.19 5421.86 2331.57 5459.1 2331.57C5496.24 2331.57 5526 2344.97 5548.38 2371.9C5570.76 2398.7 5581.9 2439.77 5581.9 2494.74C5581.9 2550.04 5570.36 2591.66 5547.29 2619.36C5524.15 2647.23 5494.86 2661.06 5459.1 2661.06C5423.19 2661.06 5393.49 2647.14 5370.05 2619.11C5346.77 2591.18 5335.1 2550.04 5335.1 2495.67C5335.1 2440.7 5346.43 2399.57 5369.05 2372.37ZM6055.96 2559.4V2620.04C6042.38 2631.32 6026.08 2640.99 6007.24 2649C5988.09 2657.06 5969.23 2661.06 5950.24 2661.06C5912.36 2661.06 5881.52 2646.92 5858.04 2618.52C5834.55 2590.1 5822.85 2547.48 5822.85 2490.63C5822.85 2438.09 5834.47 2398.43 5857.65 2371.73C5880.9 2344.84 5911.97 2331.57 5951.05 2331.57C5977.16 2331.57 5998.84 2338.38 6016.15 2351.77C6033.72 2365.34 6045.49 2383.84 6051.83 2407.2L6140.93 2389.51C6132.24 2345.41 6112.28 2310.91 6081.12 2286.01C6049.83 2261.06 6006.63 2248.61 5951.05 2248.61C5908.6 2248.61 5873.08 2256.66 5844.51 2272.79C5807.04 2293.43 5778.59 2323.15 5759.12 2361.86C5739.6 2400.69 5729.72 2444.99 5729.72 2494.74C5729.73 2540.65 5738.56 2583.06 5755.81 2622.13C5773.38 2661.17 5799.31 2691.22 5834.04 2712.18C5868.76 2733.13 5909.49 2743.6 5956.24 2743.6C5992.76 2743.6 6028.88 2736.19 6064.81 2721.29C6100.51 2706.41 6127.97 2689.12 6146.95 2669.29V2478.76H5952.77V2559.4H6055.96ZM6437.04 2735.43V2534.91L6600.64 2256.77H6496.97L6394.23 2446.43L6289.23 2256.77H6183.91L6346.97 2533.95V2735.43H6437.04Z" fill="#334E68"/>
<path fill-rule="evenodd" clip-rule="evenodd" d="M1410.91 1780.56C1232.34 1799.76 1228.07 1642.43 1228.07 1642.43C1236.5 1521.22 1361.97 1495.67 1361.97 1495.67C1381.12 1487.22 1804.16 1406.44 1804.16 1406.44C1691.5 1793.33 1410.91 1780.56 1410.91 1780.56ZM2291.02 624.042C2291.02 624.042 1680.86 445.495 1160.07 696.386C1160.07 696.386 964.442 813.255 902.859 998.188L1448.47 1062.03C1448.47 1062.03 1546.96 898.281 1717 901.531C1717 901.531 1930.67 884.469 1938.17 1015.24C1938.19 1015.24 1945.59 1065.2 1906.21 1122.59C1906.21 1122.59 1489.53 1181.05 1255.7 1195.95C1255.7 1195.95 1019.67 1203.35 817.698 1355.38C817.698 1355.38 665.469 1448.27 644.51 1688.15C644.51 1688.15 627.739 1971.89 907.036 2054.14C907.036 2054.14 1073.64 2113.65 1291.51 2062.61C1291.51 2062.6 1391.8 2064.01 1676.6 1903.89L1675.17 2061.11H2267.61C2267.61 2061.11 2248.4 1814.55 2308.05 1674.27L2510.02 1049.2C2510.02 1049.2 2607.77 728.266 2291.02 624.042Z" fill="#334E68"/>
<path fill-rule="evenodd" clip-rule="evenodd" d="M7844.63 1754.57C7666.23 1773.7 7661.96 1616.36 7661.96 1616.36C7670.39 1495.16 7796 1469.72 7796 1469.72C7815.02 1461.17 8238.04 1380.44 8238.04 1380.44C8125.39 1767.28 7844.63 1754.57 7844.63 1754.57ZM8724.79 598.068C8724.79 598.068 8114.67 419.479 7593.83 670.292C7593.84 670.292 7398.31 787.24 7336.65 972.188L7882.28 1036.03C7882.28 1036.03 7980.76 872.281 8150.9 875.438C8150.91 875.438 8364.56 858.495 8371.9 989.214C8371.9 989.214 8379.31 1039.17 8340.12 1096.59C8340.12 1096.59 7923.36 1155 7689.64 1169.91C7689.64 1169.91 7453.56 1177.31 7251.6 1329.32C7251.6 1329.32 7099.24 1422.21 7078.4 1662.01C7078.4 1662.01 7061.69 1945.82 7340.84 2028.09C7340.85 2028.09 7507.43 2087.61 7725.31 2036.59C7725.31 2036.59 7825.6 2037.96 8110.36 1877.79L8109.04 2035.11H8701.44C8701.44 2035.11 8682.29 1788.56 8741.77 1648.29L8943.72 1023.17C8943.72 1023.17 9041.6 702.172 8724.79 598.068Z" fill="#334E68"/>
<path fill-rule="evenodd" clip-rule="evenodd" d="M3419.27 2061.11H4014.47L4297.23 1249.1C4297.23 1249.1 4373.72 1047.09 4522.51 972.708C4522.51 972.708 4715.97 904.64 4730.92 1068.37C4730.92 1068.37 4752.17 1168.25 4650.1 1436.15L4443.85 2061.11L5022.15 2050.52L5385.67 1006.69C5385.67 1006.69 5502.52 594.291 5051.79 575.161C5051.79 575.161 4667.1 534.718 4445.98 783.479L4707.51 45.8018H4103.77L3419.27 2061.11Z" fill="#334E68"/>
<path fill-rule="evenodd" clip-rule="evenodd" d="M5673.48 585.693H6266.65L5975.45 1429.69C5975.45 1429.69 5903.15 1618.86 6064.81 1661.38C6064.81 1661.38 6196.47 1686.88 6343.17 1476.47C6343.17 1476.47 6415.44 1394.49 6502.76 1124L6709 585.693H7301.97L6791.83 2031.3H6226.24L6296.39 1833.53C6296.39 1833.53 6056.19 2063.21 5731 2061.11C5731.02 2061.11 5563.03 2084.43 5431.17 1992.99C5431.17 1992.99 5241.98 1882.46 5339.76 1597.59L5673.48 585.693Z" fill="#334E68"/>
<path fill-rule="evenodd" clip-rule="evenodd" d="M2086.95 2305.75L2085.62 2443.89L1921.08 2512.18C1921.08 2512.18 1656.33 2656.68 1311.05 2692.03C1311.05 2692.03 917.088 2746.98 664.13 2653.8C-246.636 2399.04 -106.927 1319.04 409.531 725.974C1143.26 -116.588 2779.56 -417.573 3054.33 880.958L3320.59 45.3334H3899.26L3452.16 1352.27C3300.33 1885.77 3127.27 2120.85 2419.64 2073.72C2948.73 1889.65 3271.72 683.651 2440.15 282.948C2440.15 282.948 1758.51 -46.453 953.245 545.547C452.219 914.573 -18.5938 1740.14 598.479 2324.84C1060.02 2650.42 1619.49 2578.28 2086.95 2305.75Z" fill="#334E68"/>
</g>
<defs>
<clipPath id="clip0_20_1444">
<rect width="8958.67" height="2744" fill="white"/>
</clipPath>
</defs>
</svg>
