<svg width="195" height="61" viewBox="0 0 195 61" fill="none" xmlns="http://www.w3.org/2000/svg">
<g clip-path="url(#clip0_20_1421)">
<path d="M63.1819 10.0208C63.9892 15.1198 57.3173 22.5573 49.4632 25.3646C48.2861 20.7969 45.4684 16.5938 41.3121 13.6146C40.7288 13.2448 40.1246 12.9167 39.4996 12.6458V5.46356C40.8955 5.03647 42.458 4.68751 44.1871 4.42189C53.4528 3.21876 62.01 3.96356 63.1819 10.0208ZM39.4996 26.4271C40.7028 26.6042 41.984 26.6667 43.3121 26.5938C42.8017 23.7188 41.5048 21.3021 39.4996 19.6302V26.4271ZM39.4996 18.5052C42.0153 20.3333 43.6194 23.1406 44.2028 26.5261C44.9371 26.4531 45.6871 26.349 46.4475 26.1927C47.0517 26.0781 47.6507 25.9323 48.2496 25.7604C47.1819 21.4792 44.5361 17.5573 40.5621 14.7136C40.2184 14.4948 39.8642 14.2917 39.4996 14.1094V18.5052ZM39.4996 12.6458C37.7392 11.8698 35.8069 11.4792 33.734 11.4792C32.7496 11.4792 31.7444 11.5729 30.7496 11.7448C32.1559 9.02085 34.9632 6.84376 39.4996 5.46356V12.6458ZM39.4996 14.1094V18.5052C39.1403 18.25 38.7653 18.0104 38.3746 17.7917C36.7653 16.8906 35.0361 16.4375 33.2288 16.4375C32.01 16.4375 30.8121 16.6458 29.6507 17.0313C29.6038 15.6927 29.76 14.4219 30.135 13.2344C31.3434 12.9531 32.5569 12.8073 33.734 12.8073C35.8382 12.8073 37.7757 13.2448 39.4996 14.1094ZM39.4996 19.6302C39.0205 19.2292 38.4996 18.8698 37.9423 18.5625C36.4684 17.7448 34.8798 17.3281 33.2288 17.3281C32.0309 17.3281 30.8538 17.5417 29.7132 17.9427C29.734 18.1198 29.7548 18.2969 29.7809 18.474C30.458 22.6563 34.2757 25.6563 39.4996 26.4271V19.6302Z" fill="#334E68"/>
<path d="M23.604 47.3334C26.0832 48.4063 28.8801 49.0105 31.6769 49.0105C31.7915 49.0105 31.9061 49.0105 32.0207 49.0053C30.1821 51.0261 27.4426 52.6407 23.604 54.0521V47.3334ZM23.604 45.8803C26.0363 47.0261 28.854 47.6823 31.6769 47.6823C32.1561 47.6823 32.6301 47.6615 33.0988 47.6251C33.8644 46.4636 34.3905 45.1823 34.703 43.7501C34.0311 43.8594 33.3332 43.9219 32.6092 43.9219C30.229 43.9219 27.7759 43.2605 25.5207 42.0261C24.8228 41.599 24.1873 41.1303 23.604 40.6251V45.8803ZM23.604 39.4376V34.5938C29.7082 35.3803 35.0571 37.9584 34.8644 42.8126C34.1405 42.9584 33.3905 43.0313 32.6092 43.0313C30.3748 43.0313 28.0728 42.4167 25.9634 41.2605C25.078 40.7136 24.2915 40.099 23.604 39.4376ZM18.8384 55.5573C6.93735 58.9896 1.47381 53.8126 0.135265 48.9219C-0.927236 42.5313 4.26547 36.9323 12.7655 35.0105C13.1196 34.9271 13.4842 34.8594 13.8592 34.7917C14.453 37.9376 15.8957 40.6771 17.5051 42.9063L17.5311 42.9376C19.0415 44.7657 21.1665 46.2761 23.604 47.3334V54.0521C22.1717 54.5782 20.5884 55.0782 18.8384 55.5573ZM23.604 34.5938C22.6092 34.4636 21.5884 34.3803 20.5676 34.349C21.0623 36.2344 22.0884 37.9688 23.604 39.4376V34.5938ZM23.604 40.6251C21.5884 38.8751 20.2603 36.7084 19.6873 34.3282C18.1457 34.3126 16.6248 34.4011 15.1926 34.5886C15.6665 37.1303 16.7967 39.6511 18.5728 42.1042C19.8436 43.6407 21.5936 44.9271 23.604 45.8803V40.6251Z" fill="#334E68"/>
<path d="M21.1768 16.2553C23.0206 14.7032 25.156 13.4741 27.3956 12.6564C27.1091 9.16157 26.3331 6.01573 25.031 4.10948C23.9321 2.4949 22.6196 1.34386 21.1768 0.677191V16.2553ZM21.1768 31.9636V26.8699C21.2654 26.6407 21.3643 26.4168 21.4685 26.1876C22.8852 23.0574 24.9685 20.6095 27.3852 19.0834C27.0102 23.7918 25.8175 28.1668 23.8956 30.1928C23.0518 31.0834 22.1352 31.6564 21.1768 31.9636ZM21.1768 24.7657V18.0314C22.9633 16.3386 25.1612 14.9689 27.4789 14.0626C27.5414 15.3595 27.531 16.6928 27.4581 18.0105C24.9477 19.4272 22.7498 21.7553 21.1768 24.7657ZM9.66643 25.5834C10.8227 27.2761 12.1977 28.7761 13.6664 29.922C14.0727 26.2397 15.7602 22.172 19.505 17.8334C20.0258 17.2761 20.5883 16.7501 21.1768 16.2553V0.677191C17.6404 -0.94781 13.2758 0.333441 9.0883 4.91677C3.18205 11.3907 5.88518 20.0314 9.66643 25.5834ZM21.1768 18.0314V24.7657C20.9946 25.1095 20.8227 25.4584 20.656 25.8178C19.6768 27.9845 19.2602 30.1668 19.3748 32.2345C17.9164 32.2293 16.406 31.7084 14.9529 30.823C15.2029 26.7814 17.0518 22.7032 20.4893 18.7189C20.7081 18.4845 20.9373 18.2553 21.1768 18.0314ZM21.1768 26.8699V31.9636C20.8643 32.0626 20.5466 32.1303 20.2341 32.1772C20.1456 30.4741 20.4529 28.6824 21.1768 26.8699Z" fill="#334E68"/>
<mask id="mask0_20_1421" style="mask-type:luminance" maskUnits="userSpaceOnUse" x="37" y="26" width="23" height="35">
<path d="M37.333 26.6667H59.9997V60.1042H37.333V26.6667Z" fill="white"/>
</mask>
<g mask="url(#mask0_20_1421)">
<path d="M54.838 33.474C53.4526 31.6928 51.7964 30.1876 50.0516 29.1876C50.1766 31.448 49.9057 33.7397 49.2026 35.9688C47.8589 39.6615 45.8432 42.6511 43.312 44.8334V59.2553C47.0985 61.3595 51.8901 59.5626 56.3068 53.8282C61.8485 46.6251 58.838 38.6095 54.838 33.474ZM43.312 43.0105V36.4376L43.3224 36.4011C44.2547 33.4376 44.5932 30.5886 44.3849 28.0157C45.786 27.724 47.2651 27.9376 48.713 28.5313C48.9214 30.8438 48.6766 33.2188 47.9474 35.5417C46.8432 38.5574 45.2703 41.0678 43.312 43.0105ZM43.312 32.6355V28.3542C43.3797 28.3282 43.4526 28.2969 43.5203 28.2709C43.6193 29.6511 43.5464 31.1147 43.312 32.6355ZM43.312 44.8334C41.687 46.2292 39.8485 47.2917 37.8328 48.0001C38.2443 51.7084 39.1818 55.0209 40.6297 56.8855C41.4422 57.9272 42.3432 58.7188 43.312 59.2553V44.8334ZM43.312 28.3542V32.6355C43.1297 33.7657 42.8589 34.9272 42.4839 36.1095C41.4787 38.7292 39.7912 40.6824 37.6245 41.8386C37.812 37.1563 38.7912 32.7397 40.5672 30.5157C41.3953 29.474 42.3224 28.7709 43.312 28.3542ZM43.312 36.4376V43.0105C41.687 44.6147 39.8016 45.8334 37.7078 46.6199C37.6141 45.3803 37.5776 44.1095 37.5985 42.849C40.1505 41.6407 42.1401 39.448 43.312 36.4376Z" fill="#334E68"/>
</g>
<mask id="mask1_20_1421" style="mask-type:luminance" maskUnits="userSpaceOnUse" x="168" y="17" width="27" height="26">
<path d="M168 17.3335H194.255V42.6668H168V17.3335Z" fill="white"/>
</mask>
<g mask="url(#mask1_20_1421)">
<path d="M170.443 36.9584C171.49 35.8751 186.193 22.1407 186.193 22.1407H169.807V18.2292H193.828C193.828 20.0313 193.911 21.2813 193.526 22.1459C193.526 22.1459 193.187 22.823 191.99 23.8386C190.604 25.2657 176.661 38.2188 176.661 38.2188H194.25V41.8751H168.963C168.906 39.0365 169.115 38.422 170.443 36.9584Z" fill="#334E68"/>
</g>
<path d="M101.682 36.9584C102.734 35.8751 117.437 22.1407 117.437 22.1407H101.047V18.2292H125.068C125.068 20.0313 125.151 21.2813 124.766 22.1459C124.766 22.1459 124.427 22.823 123.229 23.8386C121.849 25.2657 107.901 38.2188 107.901 38.2188H125.495V41.8751H100.203C100.146 39.0365 100.359 38.422 101.682 36.9584Z" fill="#334E68"/>
<path d="M159.641 18.2292H165.969V41.8751H159.641V18.2292Z" fill="#334E68"/>
<path d="M91.6979 18.2085H84.1198V22.1512H89.4115C90.6146 22.1512 91.5469 22.2762 91.5469 23.8543V28.297H84.1198V32.2293H97.4219V23.2918C97.4219 20.0106 95.9271 18.2085 91.6979 18.2085ZM84.1198 41.9012H97.3021V37.9845H84.1198V41.9012ZM84.1198 18.2085H76.0052C72.8594 18.2085 70.5625 19.6043 70.5625 23.2658V35.896C70.5625 39.4533 71.5208 41.9012 76.3854 41.9012H84.1198V37.9845H80.1823C77.151 37.9845 76.6927 36.9481 76.6927 35.7502V32.2293H84.1198V28.297H76.6927V23.8543C76.6927 22.9793 77.2917 22.1512 78.7656 22.1512H84.1198V18.2085Z" fill="#334E68"/>
<path d="M145.182 40.547L157.708 18.2292H151.385L140.646 36.8803L133.942 18.2292H127.614L136.109 40.5626C136.39 41.0157 137.099 41.8751 138.437 41.8751H142.849C144.198 41.8751 144.906 41.0053 145.182 40.547Z" fill="#334E68"/>
</g>
<defs>
<clipPath id="clip0_20_1421">
<rect width="194.253" height="60.1067" fill="white"/>
</clipPath>
</defs>
</svg>
