<svg width="512" height="168" viewBox="0 0 512 168" fill="none" xmlns="http://www.w3.org/2000/svg">
<g clip-path="url(#clip0_22_23)">
<path d="M496.052 102.672L510.256 112.141C505.646 118.931 494.62 130.58 475.557 130.58C451.885 130.58 434.256 112.265 434.256 88.9671C434.256 64.1737 452.072 47.354 473.564 47.354C495.18 47.354 505.77 64.5474 509.197 73.8294L511.065 78.5638L455.374 101.613C459.61 109.961 466.213 114.197 475.557 114.197C484.902 114.197 491.38 109.587 496.052 102.672ZM452.384 87.6589L489.574 72.2098C487.518 67.0393 481.413 63.3638 474.124 63.3638C464.843 63.3638 451.947 71.5868 452.384 87.6589Z" fill="#334E68"/>
<path d="M407.406 4.93115H425.348V126.78H407.406V4.93115Z" fill="#334E68"/>
<path d="M379.125 50.5931H396.443V124.6C396.443 155.311 378.315 167.957 356.885 167.957C336.702 167.957 324.554 154.377 320.006 143.351L335.892 136.747C338.757 143.537 345.672 151.573 356.885 151.573C370.652 151.573 379.125 143.039 379.125 127.092V121.111H378.502C374.39 126.095 366.541 130.58 356.574 130.58C335.767 130.58 316.705 112.452 316.705 89.0915C316.705 65.6063 335.767 47.2915 356.574 47.2915C366.479 47.2915 374.39 51.7145 378.502 56.5735H379.125V50.5931ZM380.37 89.0915C380.37 74.3899 370.59 63.6751 358.131 63.6751C345.547 63.6751 334.957 74.3899 334.957 89.0915C334.957 103.606 345.547 114.134 358.131 114.134C370.59 114.196 380.37 103.606 380.37 89.0915Z" fill="#334E68"/>
<path d="M218.216 88.7799C218.216 112.764 199.528 130.393 176.603 130.393C153.679 130.393 134.99 112.701 134.99 88.7799C134.99 64.6717 153.679 47.1045 176.603 47.1045C199.528 47.1045 218.216 64.6717 218.216 88.7799ZM200.026 88.7799C200.026 73.8291 189.187 63.5504 176.603 63.5504C164.02 63.5504 153.18 73.8291 153.18 88.7799C153.18 103.606 164.02 114.009 176.603 114.009C189.187 114.009 200.026 103.606 200.026 88.7799Z" fill="#334E68"/>
<path d="M309.105 88.9671C309.105 112.951 290.416 130.58 267.492 130.58C244.567 130.58 225.879 112.951 225.879 88.9671C225.879 64.8589 244.567 47.354 267.492 47.354C290.416 47.354 309.105 64.7966 309.105 88.9671ZM290.852 88.9671C290.852 74.0163 280.013 63.7376 267.429 63.7376C254.846 63.7376 244.007 74.0163 244.007 88.9671C244.007 103.793 254.846 114.197 267.429 114.197C280.075 114.197 290.852 103.731 290.852 88.9671Z" fill="#334E68"/>
<path d="M66.5901 112.328C40.4884 112.328 20.0556 91.2719 20.0556 65.1703C20.0556 39.0686 40.4884 18.0129 66.5901 18.0129C80.6687 18.0129 90.9474 23.5572 98.5474 30.6588L111.069 18.1375C100.479 7.98338 86.3376 0.258789 66.5901 0.258789C30.8327 0.258789 0.744141 29.4129 0.744141 65.1703C0.744141 100.928 30.8327 130.082 66.5901 130.082C85.9015 130.082 100.479 123.728 111.879 111.892C123.59 100.18 127.203 83.7342 127.203 70.4031C127.203 66.2293 126.705 61.9309 126.144 58.7539H66.5901V76.0719H109.013C107.767 86.9113 104.341 94.3244 99.295 99.3703C93.1901 105.538 83.5343 112.328 66.5901 112.328Z" fill="#334E68"/>
</g>
<defs>
<clipPath id="clip0_22_23">
<rect width="512" height="168" fill="white"/>
</clipPath>
</defs>
</svg>
