<svg width="2500" height="334" viewBox="0 0 2500 334" fill="none" xmlns="http://www.w3.org/2000/svg">
<path d="M1814.46 1.60306C1766.57 1.15719e-05 1714.8 27.5572 1690.25 79.44C1675.01 108.727 1663.38 141.323 1655.64 173.333C1654.95 176.143 1654.31 178.963 1653.71 181.793C1652.94 186.348 1652.88 192.188 1653.29 198.142C1655.18 223.333 1677.55 253.791 1714.42 255.521H1758.13C1806.01 257.111 1857.75 229.541 1882.33 177.659C1897.57 148.371 1909.19 115.75 1916.93 83.7657C1917.61 80.9158 1918.27 78.0914 1918.86 75.2924C1919.66 70.725 1919.71 64.9108 1919.28 58.9439C1917.4 33.7404 1895.02 3.30789 1858.16 1.59034H1814.45L1814.46 1.60306ZM993.43 3.91858L1013.01 253.053H1052.27H1052.04H1054.36C1058.12 252.931 1061.81 251.912 1065.1 250.079C1068.39 248.247 1071.2 245.655 1073.29 242.518H1073.31L1233.39 3.9313H1191.99L1077.32 175.178L1063.86 3.94402H993.417L993.43 3.91858ZM1262 3.91858L1170.13 253.053H1240.66L1332.49 3.9313H1262V3.91858ZM1427.46 3.91858C1364.12 4.68193 1336.13 75.1652 1370.73 120.305C1388.29 141.743 1413.35 163.969 1427.51 187.442C1436.48 200.139 1426.89 221.31 1409.75 221.513H1297.91L1286.33 253.053H1427.93C1483.44 252.887 1521 187.531 1483.75 137.404C1466.56 112.01 1439.29 94.6689 1423.16 69.8599C1413.58 56.921 1423.21 35.6742 1440.54 35.4452H1544.64L1556.23 3.91858H1427.46ZM1605.03 3.91858L1513.22 253.065H1583.72L1675.57 3.9313H1605.03V3.91858ZM1985.67 3.91858L1893.43 253.053H1929.76L1993.32 81.3484L1993.64 84.4272L2050.74 238.625C2052.47 242.71 2055.3 246.228 2058.93 248.779C2062.55 251.33 2066.82 252.81 2071.25 253.053H2104.47L2196.73 3.9313H2160.41L2098.07 172.302L2031.67 3.9313H1985.65L1985.67 3.91858ZM1830.56 27.3536C1843.86 28.3714 1854.42 39.5546 1854.42 53.1169C1854.52 56.4502 1853.95 59.7454 1852.7 62.7606L1806.11 189.63C1796.71 213.982 1774.87 228.905 1748.91 229.669H1742.03C1735.54 229.151 1729.49 226.213 1725.07 221.437C1720.65 216.662 1718.19 210.399 1718.17 203.893C1718.06 200.582 1718.65 197.286 1719.92 194.223L1766.48 67.3535C1775.9 43.0024 1797.74 28.117 1823.73 27.3663H1830.56V27.3536Z" fill="#334E68"/>
<path d="M339.946 3.93121L248.088 253.065H322.961L366.892 133.918H456.027L412.096 253.065H470.581C480.48 253.065 488.978 246.819 492.426 238.104C492.464 237.976 492.502 237.938 492.553 237.875L578.813 3.91848H503.94L468.571 99.847H379.437L414.805 3.91848H339.946V3.93121ZM626.382 3.93121L534.551 253.065H609.385L701.242 3.93121H626.382ZM752.171 3.93121L660.326 253.065H735.173L770.39 157.519L789.092 143.155L838.748 239.414L838.774 239.287L838.901 239.516C840.95 243.77 844.224 247.315 848.302 249.695C852.38 252.075 857.077 253.183 861.789 252.874C861.611 252.874 861.407 253.002 861.216 253.002H924.778L845.707 99.6561L970.427 3.90576H914.486L792.476 97.5823L827.018 3.90576H752.171V3.93121Z" fill="#334E68"/>
<path d="M2251.91 25.9541C2251.91 39.8345 2241.02 50.7123 2226.85 50.7123C2212.83 50.7123 2201.66 39.8345 2201.66 25.9541C2201.66 12.3664 2212.83 1.47583 2226.85 1.47583C2241.02 1.47583 2251.91 12.3664 2251.91 25.9541ZM2207.92 25.9541C2207.92 36.8447 2215.96 45.4961 2227 45.4961C2237.75 45.4961 2245.65 36.8447 2245.65 26.0941C2245.65 15.2162 2237.75 6.39948 2226.85 6.39948C2215.95 6.39948 2207.92 15.2162 2207.92 25.9541ZM2222.97 38.7785H2217.31V14.3257C2220.41 13.7716 2223.57 13.516 2226.72 13.5623C2231.33 13.5623 2233.43 14.3257 2235.21 15.3689C2235.98 16.0277 2236.6 16.8525 2237.01 17.7819C2237.42 18.7114 2237.62 19.7217 2237.59 20.7379C2237.59 23.4351 2235.5 25.5088 2232.51 26.3994V26.7048C2234.9 27.5953 2236.25 29.402 2237 32.6844C2237.75 36.4121 2238.2 37.9007 2238.78 38.7912H2232.68C2231.92 37.9007 2231.48 35.6615 2230.73 32.8371C2230.28 30.1399 2228.79 28.9567 2225.67 28.9567H2222.97V38.7912V38.7785ZM2223.12 24.9109H2225.79C2228.93 24.9109 2231.48 23.8676 2231.48 21.3231C2231.48 19.0966 2229.84 17.6081 2226.25 17.6081C2224.77 17.6081 2223.72 17.7353 2223.12 17.9007V24.8982V24.9109Z" fill="#334E68"/>
</svg>
