<svg width="542" height="200" viewBox="0 0 542 200" fill="none" xmlns="http://www.w3.org/2000/svg">
<path d="M252.2 127.4V87.6998H252.9L281.5 127.4H290.5V69.0998H280.5V108.7H279.8L251.2 69.0998H242.2V127.4H252.2ZM318.8 128.3C332 128.3 340.1 119.7 340.1 105.3C340.1 90.9998 332 82.2998 318.8 82.2998C305.7 82.2998 297.5 90.9998 297.5 105.3C297.6 119.7 305.6 128.3 318.8 128.3ZM318.8 119.9C311.8 119.9 307.8 114.6 307.8 105.3C307.8 96.0998 311.8 90.6998 318.8 90.6998C325.8 90.6998 329.8 96.0998 329.8 105.3C329.8 114.6 325.8 119.9 318.8 119.9ZM349.2 72.3998V83.4998H342.2V91.4998H349.2V115.6C349.2 124.2 353.2 127.6 363.4 127.6C365.3 127.6 367.2 127.4 368.7 127.1V119.3C367.5 119.4 366.7 119.5 365.3 119.5C361.1 119.5 359.2 117.6 359.2 113.2V91.4998H368.7V83.4998H359.2V72.3998H349.2ZM374.7 127.4H384.7V83.1998H374.7V127.4ZM379.7 75.8998C383 75.8998 385.7 73.1998 385.7 69.8998C385.7 66.4998 383 63.7998 379.7 63.7998C376.4 63.7998 373.7 66.4998 373.7 69.8998C373.7 73.1998 376.4 75.8998 379.7 75.8998ZM412.1 128.3C425.3 128.3 433.4 119.7 433.4 105.3C433.4 90.9998 425.3 82.2998 412.1 82.2998C399 82.2998 390.8 90.9998 390.8 105.3C390.8 119.7 398.8 128.3 412.1 128.3ZM412.1 119.9C405.1 119.9 401.1 114.6 401.1 105.3C401.1 96.0998 405.1 90.6998 412.1 90.6998C419 90.6998 423.1 96.0998 423.1 105.3C423 114.6 419 119.9 412.1 119.9ZM439.3 127.4H449.3V101.7C449.3 95.1998 453.1 91.0998 459 91.0998C465.1 91.0998 467.9 94.4998 467.9 101.2V127.4H477.9V98.7998C477.9 88.1998 472.5 82.2998 462.7 82.2998C456.1 82.2998 451.7 85.2998 449.6 90.2998H448.9V83.1998H439.2C439.3 83.1998 439.3 127.4 439.3 127.4Z" fill="#334E68"/>
<path fill-rule="evenodd" clip-rule="evenodd" d="M89.0001 51.0998C93.7001 54.8998 95.4001 54.5998 104.2 53.9998L187.1 48.9998C188.9 48.9998 187.4 47.1998 186.8 46.9998L173 37.0998C170.4 35.0998 166.8 32.6998 160.1 33.2998L79.9001 39.1998C77.0001 39.4998 76.4001 40.9998 77.6001 42.0998L89.0001 51.0998ZM94.0001 70.3998V157.6C94.0001 162.3 96.3001 164 101.6 163.7L192.7 158.4C198 158.1 198.6 154.9 198.6 151.1V64.4998C198.6 60.6998 197.1 58.5998 193.9 58.8998L98.7001 64.4998C95.2001 64.7998 94.0001 66.5998 94.0001 70.3998ZM183.9 75.0998C184.5 77.6998 183.9 80.3998 181.3 80.6998L176.9 81.5998V146C173.1 148 169.6 149.2 166.6 149.2C161.9 149.2 160.7 147.7 157.2 143.3L128.5 98.1998V141.8L137.6 143.8C137.6 143.8 137.6 149.1 130.3 149.1L110.1 150.3C109.5 149.1 110.1 146.2 112.1 145.6L117.4 144.1V86.4998L110.1 85.8998C109.5 83.2998 111 79.4998 115.1 79.1998L136.8 77.6998L166.7 123.3V82.9998L159.1 82.0998C158.5 78.8998 160.9 76.4998 163.8 76.1998L183.9 75.0998ZM73.2001 31.1998L156.7 25.0998C166.9 24.1998 169.6 24.7998 176 29.4998L202.6 48.1998C207 51.3998 208.5 52.2998 208.5 55.7998V158.5C208.5 164.9 206.2 168.7 198 169.3L101.1 175.2C94.9001 175.5 92.0001 174.6 88.8001 170.5L69.1001 145C65.6001 140.3 64.1001 136.8 64.1001 132.7V41.3998C64.1001 36.0998 66.5001 31.7998 73.2001 31.1998Z" fill="#334E68"/>
</svg>
