<svg width="1144" height="406" viewBox="0 0 1144 406" fill="none" xmlns="http://www.w3.org/2000/svg">
<g clip-path="url(#clip0_20_1000)">
<path d="M1047.15 69.47C1029.2 67.43 1011.72 68.77 994.34 67.88C976.03 66.94 960.4 73.11 945.76 83.12C945.22 83.49 944.82 84.06 943.87 83.75C942.85 82.99 943.39 81.72 943.38 80.67C943.34 62.52 943.07 44.36 943.52 26.22C943.66 20.65 944.32 15.05 944.39 9.44004C944.4 8.49004 943.88 6.86004 946.01 7.37004C952.4 8.90004 958.9 7.92004 965.34 8.02004C977 8.20004 988.69 7.49004 1000.31 8.19004C1023.23 9.57004 1046.2 8.03004 1069.06 9.30004C1087.85 10.35 1106.58 9.62004 1125.34 9.98004C1130.31 10.07 1135.19 10.82 1140.12 11.02C1142.45 11.11 1142.33 12.42 1142.33 13.98C1142.33 30.13 1142.37 46.29 1142.3 62.44C1142.28 66.77 1138.64 69.26 1136.41 72.3C1116.43 99.5 1096.27 126.56 1076.09 153.61C1063.9 169.96 1051.6 186.23 1039.3 202.49C1038.32 203.79 1038.14 205.46 1036.99 206.99C1053.08 206.99 1069.27 205.9 1085.24 207.27C1104.83 208.95 1121.35 202.65 1136.99 192.11C1137.49 191.77 1138.21 191.76 1139.32 191.46C1139.32 202.65 1139.28 213.7 1139.32 224.76C1139.38 238.02 1139.32 251.28 1138.38 264.53C1138.21 266.93 1137.94 268.17 1135.12 268.01C1109.72 266.54 1084.27 267.55 1058.88 266.7C1049.96 266.4 1041.01 265.96 1032.09 266.05C1002.83 266.32 973.6 264.16 944.35 265.04C940.97 265.14 940.24 264.03 940.27 260.85C940.43 245.86 940.47 230.87 940.26 215.89C940.2 211.49 943.14 209.13 945.32 206.2C965.47 179.12 985.67 152.09 1005.84 125.02C1019.56 106.61 1033.24 88.18 1047.14 69.48L1047.15 69.47Z" fill="#334E68"/>
<path d="M769.53 261.27C775.92 250.89 781.54 241.3 784.72 230.38C786.29 224.98 787.3 219.44 787.24 214.01C786.82 177.27 788.68 140.56 788.59 103.81C788.56 91.75 789.36 79.65 789.39 67.55C789.39 65.7 789.7 63.83 786.76 64.02C775.43 64.74 763.96 62.52 752.74 65.99C743.02 69 734.1 73.5 725.73 79.18C725.18 79.55 724.77 80.09 723.34 79.5C724.04 65.79 722.71 51.84 724.16 37.8C725.14 28.24 724.38 18.5 724.39 8.84999C724.39 2.39999 724.39 2.41999 731.04 3.87999C732 4.08999 733.02 4.08999 734.01 4.06999C771.26 3.33999 808.49 4.95999 845.73 5.33999C868.81 5.56999 891.9 5.76999 914.98 6.20999C919.21 6.28999 923.47 7.27999 927.77 7.06999C929.67 6.96999 930.37 7.64999 930.4 9.60999C930.76 33.99 928.36 58.32 929.59 83.23C924.49 81.6 921.08 78.48 917.2 76.27C907.33 70.64 897.27 66.3 885.55 65.83C879.3 65.58 873.03 65.24 866.76 65.01C864.24 64.92 862.92 65.56 863.37 68.29C863.4 68.45 863.37 68.62 863.37 68.79C864.01 96.21 861.97 123.59 862.28 151.01C862.52 172.58 861.37 194.16 861.16 215.74C861.02 230.37 866.38 242.78 873.01 255.07C874.31 257.48 875.91 259.72 878.02 263.05C841.35 262.86 805.54 261.28 769.53 261.28V261.27Z" fill="#334E68"/>
<path d="M933.65 295.96C949.51 295.96 964.29 295.98 979.08 295.93C980.84 295.93 981.49 296.63 981.35 298.3C980.3 311.33 986.55 322.68 989.78 334.72C991.57 341.39 993.83 347.92 996.23 355.67C998.51 348.32 1000.57 341.91 1002.49 335.47C1005.32 326.01 1008.78 316.74 1010.89 307.05C1011.25 305.38 1011.54 303.72 1011.28 302.16C1010.37 296.73 1012.78 295.71 1017.77 295.83C1031.18 296.18 1044.61 295.95 1059.35 295.95C1050.72 305.85 1051.17 316.85 1051.29 327.88C1051.47 345.36 1051.58 362.85 1051.23 380.33C1051.08 388.05 1053.15 394.81 1057.15 401.18C1058.12 402.73 1059.85 404.75 1056.41 404.8C1042.82 405 1029.23 404.88 1015.48 404.88C1015.68 402.68 1016.72 401.47 1017.56 400.09C1020.56 395.16 1022.62 390.04 1022.44 383.95C1022.1 372.52 1022.34 361.07 1022.34 348.21C1017.78 358.96 1013.47 368.29 1010.13 378.06C1009.09 381.1 1008.31 384.81 1008.85 387.01C1009.94 391.5 1007.92 390.9 1005.3 390.89C998.97 390.87 992.64 390.88 986.31 390.89C984.79 390.89 983.13 391.08 983.36 388.73C984.46 377.51 978.24 368.41 974.59 358.58C973.2 354.85 971.51 351.23 969.62 347.61C969.83 361.8 968.12 376 970.46 390.06C971.31 395.17 974.04 399.76 977.92 404.41H934C934.26 401.58 936.82 399.53 937.97 396.83C939.98 392.14 941.4 387.39 941.38 382.2C941.31 362.22 941.13 342.23 941.45 322.25C941.6 312.94 939.75 304.46 933.64 295.94L933.65 295.96Z" fill="#334E68"/>
<path d="M914.36 332.62C914.36 344.61 914.39 355.42 914.32 366.24C914.32 367.41 915.14 369.01 913.48 369.75C912.19 370.32 911.4 369.26 910.46 368.57C903.62 363.6 895.75 363.59 887.79 363.89C883.86 364.04 885.18 367.1 885.53 368.59C886.32 372.01 882.62 378.13 887.74 378.55C898.8 379.46 910.19 380.19 920.94 375.86C923.59 374.79 926.05 373.24 929.36 371.5C929.36 382.36 929.34 392.58 929.37 402.8C929.37 405.61 927.31 404.86 925.83 404.86C913.84 404.91 901.85 404.89 889.87 404.89C875.26 404.89 860.65 404.89 845.48 404.89C848.6 399.27 851.72 394.19 852.84 388.17C853.18 386.36 853.35 384.59 853.35 382.82C853.39 362.01 853.21 341.2 853.46 320.4C853.57 311.72 851.25 304.02 846.45 296.97C847.09 295.34 848.46 295.98 849.47 295.97C874.78 295.93 900.09 295.97 925.39 295.89C928.21 295.88 929.53 296.27 929.44 299.6C929.2 309.08 929.35 318.57 929.35 328.04C928.99 328.18 928.58 328.46 928.46 328.37C916.13 318.61 901.61 322.78 887.88 321.92C885.89 321.8 885.27 322.65 885.33 324.54C885.43 327.7 885.35 330.86 885.35 334.03C885.35 341.36 886.63 341.95 894.02 340.74C901.19 339.57 907.83 337.48 914.34 332.62H914.36Z" fill="#334E68"/>
<path d="M509.63 404.73C499.74 406.08 490.13 402.91 480.39 400.8C477.77 400.23 476.82 398.67 477.96 395.71C481.03 387.69 483.74 379.54 486.65 371.46C486.96 370.59 487.51 369.36 488.19 369.17C489.51 368.81 489.85 370.21 490.53 371.15C497.79 381.18 507.35 384.62 517.48 380.83C521.2 379.44 524.11 376.98 524.37 372.7C524.61 368.71 521.42 367.02 518.52 365.55C511.41 361.94 504.14 358.64 496.99 355.09C487.03 350.13 480.21 342.85 479.41 331.09C478.44 316.9 484.42 306.41 496.93 300.26C512.57 292.58 528.91 293.18 545.21 298.35C553.65 301.03 553.43 301.13 550.53 309.82C548.42 316.13 546.33 322.44 543.56 328.49C543.2 329.28 543.87 330.77 542.36 330.76C541.32 330.76 540.93 329.69 540.36 328.85C537.69 324.91 534.31 321.6 530.59 318.67C526.34 315.32 516.38 316.34 513.58 320.84C510.56 325.69 509.61 327.58 515.93 330.98C523.82 335.24 532.03 338.92 539.93 343.16C547.22 347.07 553.91 351.98 556.34 360.36C560.63 375.17 555.34 389.4 541.43 397.38C531.7 402.96 521.29 405.94 509.64 404.73H509.63Z" fill="#334E68"/>
<path d="M701.64 404.85C692.71 406.01 683.26 402.9 673.67 400.85C671.07 400.29 669.64 399.04 670.78 395.99C673.83 387.79 676.67 379.51 679.69 371.3C680.5 369.11 681.35 367.89 683.45 370.82C691.19 381.59 699.48 384.58 710.13 380.89C713.94 379.57 716.86 377.22 717.32 373.01C717.79 368.76 714.37 366.99 711.34 365.44C704.24 361.81 696.97 358.5 689.81 354.99C680.13 350.24 673.42 343.12 672.43 331.91C671.2 317.92 676.63 307.16 689.19 300.68C704.95 292.55 721.41 293.28 737.88 298.22C746.66 300.85 746.48 301.05 743.45 310C741.32 316.3 738.81 322.46 736.61 328.72C735.32 332.38 734.58 330.9 733.45 329.13C730.87 325.09 727.35 321.96 723.76 318.92C719.42 315.23 709.7 316.47 706.39 320.96C703.06 325.48 703.72 328.41 708.99 331.13C716.82 335.16 724.8 338.92 732.59 343.01C740.73 347.28 748.04 352.91 749.94 362.33C752.81 376.59 748.37 389.39 734.2 397.44C724.72 402.82 717.01 405.59 701.62 404.86L701.64 404.85Z" fill="#334E68"/>
<path d="M1094.73 404.85C1085.7 406.1 1076.09 402.92 1066.34 400.82C1064.02 400.32 1062.59 399.01 1063.62 396.2C1066.71 387.84 1069.62 379.41 1072.75 371.06C1073.81 368.22 1074.75 368.69 1076.45 371.09C1083.67 381.29 1093.14 384.64 1103.34 380.85C1107.07 379.46 1109.98 377.01 1110.26 372.73C1110.52 368.75 1107.35 367.04 1104.44 365.57C1097.32 361.97 1090.05 358.66 1082.91 355.11C1072.95 350.15 1066.12 342.87 1065.31 331.12C1064.33 316.93 1070.31 306.43 1082.82 300.28C1098.46 292.59 1114.81 293.19 1131.11 298.37C1139.55 301.05 1139.33 301.15 1136.43 309.84C1134.32 316.15 1132.22 322.45 1129.45 328.52C1129.09 329.31 1129.75 330.8 1128.25 330.78C1127.22 330.77 1126.82 329.7 1126.26 328.86C1123.59 324.92 1120.2 321.61 1116.48 318.68C1112.23 315.33 1102.61 316.6 1099.38 320.81C1095.99 325.22 1096.64 328.35 1101.83 331.04C1109.8 335.17 1117.93 338.99 1125.86 343.18C1134.01 347.48 1141.45 353.23 1142.96 362.68C1145.35 377.6 1141.66 389.1 1126.93 397.57C1117.47 403 1109.76 405.58 1094.73 404.86V404.85Z" fill="#334E68"/>
<path d="M625.02 296.11H669.35C665.06 301.43 659.6 305.12 656.46 310.73C651.06 320.38 645.74 330.09 640.44 339.79C638.02 344.22 635.89 348.81 633.32 353.14C630.47 357.94 628.98 362.85 629.32 368.54C629.74 375.62 628.93 382.8 630.48 389.78C631.64 395.02 634.73 399.5 637.7 404.56H590.2C593.25 399.27 596.66 394.64 597.64 388.65C599.17 379.22 598.86 369.72 598.03 360.43C597.58 355.34 593.36 350.57 590.75 345.7C584.98 334.95 579.17 324.22 573.32 313.52C569.7 306.9 565 301.14 558.64 296.14H602.77C600.47 310.69 609.75 321.81 613.96 334.57C618.12 321.9 627.62 310.87 625.03 296.11H625.02Z" fill="#334E68"/>
<path d="M842.37 329.26C839.39 329.55 838.2 327.11 836.4 325.87C830.43 321.77 823.81 321.67 816.99 321.88C814.61 321.95 814.34 323.01 814.35 324.94C814.39 345.08 814.14 365.23 814.51 385.37C814.64 392.29 817.99 398.46 822.97 404.43H775.67C774.93 403.24 776.35 402.65 776.95 401.78C781.46 395.27 783.38 387.99 783.38 380.15C783.39 362.17 783.28 344.19 783.47 326.21C783.51 322.65 782.41 322.12 779.05 321.78C770.07 320.88 762.83 324.44 755.39 330.03C755.39 318.94 755.43 308.55 755.36 298.16C755.34 295.86 756.72 295.94 758.29 295.94C785.27 295.94 812.24 295.97 839.22 295.91C841.5 295.91 842.45 296.43 842.42 298.93C842.3 309.04 842.37 319.16 842.37 329.25V329.26Z" fill="#334E68"/>
<path d="M704.34 60.4099C699.15 39.4599 683.85 26.6399 665.59 17.1899C645.36 6.72987 623.27 2.51987 600.83 2.29987C565.08 1.94987 529.33 0.289868 493.57 1.09987C489.94 1.17987 486.51 -0.970132 482.4 0.519868C482.67 1.23987 482.75 1.73987 483.01 2.09987C494.28 17.6699 500.7 34.6799 499.55 54.2799C499.21 60.0399 498.6 65.7899 498.43 71.5599C497.81 91.8099 498.55 112.05 497.69 132.33C496.55 159.04 497.54 185.82 496.52 212.57C496.2 220.93 494.02 228.59 490.82 236.15C487.6 243.76 482.63 250.37 477.81 258.22C514.79 256.84 550.76 259.87 586.83 258.82C586.7 257.27 585.89 256.3 585.19 255.18C576.42 241.16 569.12 226.44 570.58 209.37C571.41 199.74 571.28 190.17 571.28 180.58C571.28 176.88 572.15 175.78 575.94 175.92C596.73 176.66 617.37 175.42 637.59 170C658.77 164.32 677.39 154.55 691.11 136.81C709.01 113.66 711.06 87.6099 704.33 60.4099H704.34ZM630.12 95.6599C626.95 117.21 608.64 125.26 591.07 125.99C586.42 126.18 581.73 125.79 577.09 126.09C573.52 126.32 572.08 125.51 572.32 121.55C572.7 115.25 572.42 108.91 572.42 100.56C571.53 87.8099 574.15 73.1099 573.43 58.3399C573.35 56.7199 573.01 54.9299 575.74 55.0199C590.49 55.5399 605.05 56.3899 618.05 64.8799C628.11 71.4499 631.58 85.7099 630.12 95.6499V95.6599Z" fill="#334E68"/>
<path d="M49.5 153.44C49.5 144.19 55.64 137.7 64.92 138.12C73.38 138.5 80.73 145.44 81.41 153.84C81.97 160.8 72.92 169.01 65.36 169C56.3 169 49.51 162.32 49.51 153.44H49.5Z" fill="#334E68"/>
<path d="M347.45 153.74C347.45 162.5 340.56 169.02 331.3 169.01C324.11 169.01 315.12 160.82 315.54 154.05C316.07 145.62 323.28 138.69 331.83 138.14C341.28 137.54 347.45 144.12 347.45 153.74Z" fill="#334E68"/>
<path d="M39.4702 69.05C32.0602 70.24 22.6502 61.19 23.3602 53.09C24.0102 45.69 31.5002 36.83 38.4702 37.13C46.9502 37.5 55.3202 44.23 55.4602 53.33C55.5802 61.21 47.4302 69.05 39.4802 69.05H39.4702Z" fill="#334E68"/>
<path d="M373.45 53.1401C374.73 61.2201 364.96 69.5901 357.92 69.1601C349.96 68.6701 341.06 60.6001 341.54 52.8201C342.11 43.6801 349.87 37.6101 358.5 37.1401C365.46 36.7701 373.45 45.6701 373.45 53.1301V53.1401Z" fill="#334E68"/>
<path d="M321.47 58.0301C321.42 46.6901 311.85 37.0601 300.51 37.0601C266.52 37.0601 232.53 37.0601 198.54 37.0601C164.55 37.0601 132.56 37.1801 99.57 36.9701C92.13 36.9201 86.04 39.0501 80.83 44.3001C76.57 48.6001 72.95 64.1301 75.95 68.7701C80.99 76.5601 87.81 82.0301 97.71 82.0301C164.86 82.0501 232.01 82.0201 299.16 82.0801C306.48 82.0801 311.9 78.4701 317.13 73.9601C322.23 69.5501 321.52 63.7701 321.49 58.0401L321.47 58.0301ZM303.54 60.5301C303.3 62.4501 302.76 63.2301 300.87 63.0501C300.21 62.9901 299.54 63.0501 298.87 63.0501C231.95 63.0501 165.04 63.0601 98.12 62.9901C96.4 62.9901 93.74 64.4801 93.4 60.5801C93.03 56.3301 95.65 57.0501 98.08 57.0501C131.54 57.0501 165 57.0501 198.46 57.0501C231.92 57.0501 265.38 57.0501 298.84 57.0501C301.22 57.0501 304.07 56.2401 303.55 60.5301H303.54Z" fill="#334E68"/>
<path d="M293.85 216.4C291.25 211.52 286.77 208.41 284.1 203.94C278.23 194.11 268.64 188.58 260.06 181.83C254.06 177.11 247.14 174.18 240.16 171.33C235.87 169.58 231.72 166.99 227.26 166.22C217.78 164.58 208.42 161.19 200.01 163.12C190.97 162.87 183.54 163.35 176.01 164.81C166.88 166.58 158.43 170.21 150.35 174.07C135.48 181.18 122.51 191.05 112.11 204.44C105.82 212.53 100.08 220.67 95.9202 230C90.8902 241.29 87.4602 252.94 87.4802 265.43C87.4802 271.26 87.6702 277.1 87.4302 282.92C87.1902 288.73 88.6302 294.59 90.0402 299.77C92.0502 307.13 94.9602 314.62 99.0802 321.51C103.02 328.12 106.7 334.79 111.75 340.65C121.89 352.41 132.88 363.12 147.42 369.36C154.97 372.6 162.21 376.34 170.44 378.32C177.65 380.05 184.71 382.76 192.15 382.78C199.81 382.8 207.41 382.84 215.22 381.41C223.55 379.88 231.5 377.5 239.07 374.39C248.85 370.36 258.53 365.8 266.88 358.89C275.64 351.65 283.62 343.61 290.07 334.39C294.43 328.16 297.98 321.28 301.33 314.27C305.57 305.42 308.36 296.2 309.03 287.04C310.11 272.33 310.63 257.41 305.74 242.76C302.64 233.46 298.4 224.97 293.84 216.42L293.85 216.4ZM287.49 296.92C284.62 308.08 279.45 317.94 272.38 327.04C266.27 334.92 259.69 342.15 251.29 347.6C246.05 351 240.08 352.99 234.71 356.06C218.57 365.28 200.96 362.93 183.76 362.61C177.75 362.5 170.8 361.44 165.55 358.57C151.72 351.02 136.97 344.25 127.24 331.05C121.21 322.87 114.86 314.75 111.54 304.92C106.16 289 106.37 272.39 107.97 256.17C108.74 248.43 111.12 240.23 115.94 232.7C120.66 225.33 124.29 217.18 130.35 210.63C138.24 202.1 147.54 195.14 158.05 190.49C167.46 186.33 177.14 182.04 188.06 182.89C192.02 183.2 195.82 179.42 199.89 181.09C206.77 183.9 214.17 182.92 221.28 184.4C228.91 185.99 235.58 189.4 242.32 192.38C248.5 195.11 254.56 199.03 259.71 203.81C267.07 210.65 273.65 218.2 278.38 227.07C282.42 234.64 285.81 242.38 287.87 250.99C289.66 258.47 288.55 265.68 289.12 269.56C289.8 281.02 289.52 289.01 287.48 296.92H287.49Z" fill="#334E68"/>
<path d="M198.39 224.98C169.74 227.22 150.38 248.3 150.07 274.98C149.96 284.74 154.72 294.86 161.81 302.7C171.56 313.47 184.34 320.33 198.3 320.4C212.28 320.47 225.09 313.66 234.91 302.95C242.17 295.03 247.08 284.78 246.88 274.84C246.33 247.09 226.09 226.83 198.39 224.99V224.98ZM227.47 275.16C226.09 286.92 214.91 302.23 197.09 301.06C187.35 300.42 172.35 290.23 171.28 284.01C170.22 277.87 167.88 271.48 169.95 265.78C171.94 260.31 174.62 254.57 179.94 250.72C185.59 246.63 191.32 243.72 198.61 245.25C206.57 243.24 213.31 246.83 218.53 251.91C224.77 257.99 228.57 265.86 227.48 275.17L227.47 275.16Z" fill="#334E68"/>
<path d="M267.15 222.2C259.05 211.34 248.57 203.13 236.71 196.95C228.06 192.44 218.63 189.57 208.72 189.03C205.4 188.85 202.06 189 198.73 189C190.62 187.89 182.47 188.79 174.95 191.28C167.73 193.67 160.62 196.46 153.83 200.67C139.54 209.52 128.82 221.41 120.96 235.62C115.35 245.76 113.24 257.53 112.57 269.23C112.14 276.72 113.28 284.04 115.16 291.45C116.5 296.73 117.47 302.19 119.72 307.11C121.65 311.33 124.92 314.92 127.42 318.89C134.58 330.25 144.16 338.77 155.9 345.37C161.85 348.71 167.51 352.01 174.31 353.52C179.42 354.65 184.45 356.97 189.67 356.8C198.3 356.52 206.91 358.05 215.65 355.32C219.56 354.1 224.3 353.57 228.23 352.26C235.09 349.97 241.33 345.85 247.35 341.62C256.56 335.15 263.75 327 270.45 317.89C280.6 304.1 283.74 288.65 284.37 272.34C284.75 262.36 282.25 252.67 279.1 243.24C276.51 235.48 272.01 228.71 267.16 222.21L267.15 222.2ZM261.98 281.58C264.37 281.05 264.86 281.48 264.29 283.36C262.05 290.74 259.66 298.08 257.22 305.4C256.87 306.45 256.18 307.9 255.34 308.16C252.79 308.96 252.21 310.47 253.45 313.15C252.78 313.51 252.1 313.87 251.43 314.23C249.02 311.22 246.57 308.26 244.23 305.2C241.43 301.55 238.76 302.87 236.6 305.64C234.87 307.85 233.46 310.04 230.59 311.1C228.63 311.82 228.85 317.54 231 318.7C232.7 319.61 233.77 321.02 235.17 322.15C238.78 325.05 238.36 326.7 233.95 328.99C226.45 332.89 218.56 335.55 210.26 337.05C209.51 337.19 208.81 337.65 207.97 338.02C207.76 337.28 207.56 336.84 207.51 336.39C207.09 332.99 208.91 327.33 206.6 326.61C201.74 325.1 196.1 326 190.79 326.07C189.01 326.09 189.52 327.73 189.5 328.78C189.43 331.75 189.48 334.72 189.48 337.99C180.17 335.56 171.32 333.29 163.1 329.02C158.63 326.7 158.45 325.26 161.99 321.83C164.36 319.53 168.77 318.35 167.51 313.51C167.24 312.49 167.81 311.33 166.03 310.91C163.32 310.26 161.99 307.87 160.39 305.76C158.24 302.91 155.66 301.65 152.8 305.16C150.36 308.14 147.83 311.05 144.47 313.58C144.81 310.37 143.16 309.38 141.6 307.82C138.1 304.31 137.4 299.14 135.79 294.68C134.57 291.31 133.41 287.66 132.84 283.93C132.41 281.09 132.69 280.62 135.34 281.82C136.32 282.26 137.64 281.93 138.8 282C142.8 282.27 145.22 281.02 144.53 276.41C144.31 274.94 144.5 273.42 144.5 271.92C144.5 265.07 142.47 263.22 135.52 264.61C131.69 265.38 131.79 264.38 132.69 261.23C135.3 252.07 138.21 243.16 143.25 234.9C144.98 232.06 145.34 233.45 146.48 234.52C148.23 236.17 150.13 237.74 151.55 239.65C154.34 243.39 156.65 243.18 159.49 239.65C161.44 237.22 164 235.27 166.27 233.09C168.34 231.11 168.11 228.91 166.1 227.32C163.19 225.01 159.84 223.24 157.59 220.14C160.89 217.95 163.94 215.08 167.55 213.72C173.84 211.35 180.47 209.86 186.98 208.11C188.44 207.72 189.65 208.18 189.48 210.11C189.44 210.61 189.43 211.12 189.48 211.61C189.79 214.03 188.21 217.52 190.27 218.66C192.8 220.05 196.31 219.85 199.41 219.98C201.5 220.07 203.45 218.69 205.69 219C207.37 219.24 207.48 217.98 207.46 216.73C207.44 214.73 207.58 212.72 207.43 210.74C207.26 208.46 208.28 207.59 210.34 208.13C219.49 210.53 228.67 212.81 236.85 217.91C239.41 219.51 239.98 220.69 237.26 222.73C227.77 229.86 227.81 229.91 236.03 238.13C242.11 244.2 242.32 244.21 248.45 236.86C249.62 235.46 250.72 234.06 252.38 233.05C258.74 242 261.76 252.25 264.71 262.56C265.17 264.17 264.66 264.64 263.44 264.96C262.61 265.18 261.87 264.48 261.15 264.37C254.72 263.35 252.46 265.36 252.46 271.84C252.46 272.51 252.46 273.17 252.46 273.84C252.46 281.91 254.05 283.42 261.98 281.65V281.58Z" fill="#334E68"/>
<path d="M396.44 29.1301C396.44 21.4601 388.96 14.0701 381.18 14.0601C320.37 14.0601 259.56 14.0601 198.74 14.0601C137.92 14.0601 76.45 14.0601 15.3 14.0601C8.17 14.0701 0.5 21.6001 0.5 28.5901C0.5 53.4101 0.5 78.2301 0.5 103.05C0.5 107.44 0.53 111.5 3.32 115.59C6.84 120.76 11.29 125.18 16.41 127.69C22.61 130.72 23.51 130.25 23.5 137.11C23.48 171.76 23.46 206.4 23.54 241.05C23.54 244.13 23.15 248.33 24.89 250.08C29.55 254.79 30.86 261.4 35.71 266.07C41.92 272.05 48.16 277.16 56.78 279.08C59.49 279.68 61.96 280.72 61.74 285.13C61.48 290.21 62.7 295.65 64.04 300.48C66.08 307.85 67.6 315.55 71.51 322.42C73.99 326.78 74.96 332.07 77.72 336.21C84.61 346.59 91.16 357.3 100.41 365.91C110.15 374.99 119.98 383.67 132.28 389.63C141.31 394.01 149.73 399.2 159.78 401.46C162.89 402.16 166.97 401.42 169.03 403.41C172.41 406.69 176.05 405.72 179.7 405.88C182.86 406.02 186.03 405.97 189.19 405.9C205.58 405.51 222 407.35 238.12 401.27C245.98 398.3 253.79 395.56 261.29 391.68C269.5 387.44 277.31 382.74 284.46 376.9C297.83 365.97 309.01 353.16 317.65 338.2C322.09 330.52 325.11 322.17 328.73 314.11C330.48 310.21 330.88 306.17 332.09 302.28C333.91 296.46 334.75 290.25 335.19 284.15C335.33 282.17 335.62 281.62 337.11 280.59C340.79 278.05 345.36 278.23 349.18 275.89C358.38 270.27 365.43 262.94 369.41 252.89C370.1 251.15 372.45 251.33 372.54 248.87C372.7 244.28 373.5 239.74 373.48 235.1C373.37 202.95 373.42 170.81 373.42 138.66C373.42 137.16 373.9 135.4 373.28 134.22C371.88 131.58 373.32 130.65 375.3 130.09C380.8 128.54 384.99 124.95 388.88 121.14C392.77 117.33 396.44 113.18 396.43 107.1C396.4 81.1201 396.42 55.1301 396.42 29.1501L396.44 29.1301ZM311.74 303.9C308.89 316.07 303.73 327.38 296.87 337.17C288.37 349.3 278.53 360.85 264.89 368.35C258.16 372.05 252.01 376.72 244.66 379.42C237.68 381.99 230.53 383.88 223.41 385.93C212.35 389.11 201.05 387.64 189.84 387.87C179.64 388.08 170.03 384.87 160.33 382.31C147.97 379.05 137.45 372.21 127.08 365.1C121.38 361.19 116.51 356.48 111.91 351.23C107.25 345.91 101.92 341 98.62 334.82C94.8 327.67 90.52 320.7 88.2 312.69C87.38 309.87 86.2 306.99 85.2 304.12C81.57 293.7 81.17 283.09 81.48 272.3C81.48 269.14 81.6 265.97 81.46 262.81C81.06 253.91 82.41 244.85 85.9 237.13C90.97 225.94 95.43 214.43 103.14 204.25C112.75 191.56 124.26 182.02 137.58 173.68C148.57 166.79 160.42 163.29 172.58 159.7C178.71 157.89 184.56 158.51 190.53 157.98C191.46 157.9 192.46 158.27 193.28 157.37C196.62 153.71 200.16 154.12 203.54 157.21C205.04 158.58 206.67 157.99 208.18 157.93C225.81 157.3 241.83 163.58 256.72 171.55C266.5 176.79 276.4 183.14 283.77 191.95C291.35 201 299.05 209.91 303.81 221.16C306.78 228.18 310.33 235.15 312.73 242.3C314.29 246.95 315.33 252.38 315.41 257.6C315.52 264.93 315.31 272.26 315.47 279.58C315.66 287.93 313.61 295.8 311.72 303.87L311.74 303.9ZM355.26 233.17C355.06 245.01 349.73 254.39 338.3 260.45C333.23 263.14 335.96 260.69 335.32 258.57C333.11 251.28 333.37 243.53 330.53 236.32C326.41 225.84 322.81 215.14 316.68 205.59C312.15 198.53 307.62 191.54 301.73 185.34C298.09 181.51 294.7 177.3 290.68 173.89C282.78 167.18 274.89 160.56 265.45 155.67C258.62 152.13 251.7 148.93 244.74 145.72C242.08 144.49 238.98 143.9 236.5 143.47C227.92 141.97 219.46 139.77 210.74 138.75C200.92 137.6 191.22 137.93 181.68 139.31C176.42 140.07 170.95 140.8 165.65 142.55C160.59 144.22 155.13 144.98 150.02 146.95C144.35 149.14 138.84 151.29 133.61 154.71C127.82 158.5 121.2 161.04 115.93 165.79C111.92 169.4 107.62 172.7 103.66 176.37C90 189.05 79 203.88 72.27 221.15C68.35 231.21 62.37 240.99 63.32 252.69C63.53 255.33 60.13 257.82 61.98 261.14C62.38 261.85 61.16 262.12 60.67 261.88C54.93 259.12 50 255.26 46.58 249.88C40.83 240.85 41.39 230.64 41.45 220.49C41.59 192.17 41.58 163.86 41.4 135.54C41.38 131.7 42.48 130.94 46.12 130.95C96.94 131.07 147.76 131.03 198.57 131.03C249.38 131.03 299.54 131.11 350.02 130.9C354.88 130.88 355.55 132.48 355.53 136.74C355.37 168.89 355.8 201.04 355.25 233.18L355.26 233.17ZM363.32 113.05C266.68 113.02 170.03 113.03 73.39 113.03C60.39 113.03 47.39 112.88 34.4 113.1C29.02 113.19 24.7 111.17 19.27 107.56H376.31C372.63 111.76 368.3 113.05 363.32 113.05ZM380.74 36.5601C380.43 53.5101 380.61 70.4701 380.61 87.8801H16.5C16.5 80.1601 16.68 72.5801 16.46 65.0101C16.18 55.2601 17.31 45.4801 15.87 35.7301C15.52 33.3601 17.21 31.7101 20.04 31.9301C22.19 32.0901 24.36 32.0601 26.52 32.0601C140.99 32.0601 255.47 32.0601 369.94 32.0601C372.11 32.0601 374.28 32.1501 376.44 31.9901C379.87 31.7401 380.81 32.8501 380.74 36.5501V36.5601Z" fill="#334E68"/>
</g>
<defs>
<clipPath id="clip0_20_1000">
<rect width="1143.13" height="405.96" fill="white" transform="translate(0.5)"/>
</clipPath>
</defs>
</svg>
