<svg width="600" height="376" viewBox="0 0 600 376" fill="none" xmlns="http://www.w3.org/2000/svg">
<g clip-path="url(#clip0_22_2)">
<path d="M124.55 98.838C124.562 102.042 123.247 105.107 120.916 107.306C118.573 109.655 115.365 110.935 112.049 110.847C108.868 110.752 105.841 109.453 103.581 107.213C94.6916 98.3238 80.086 94.7602 70.542 94.8042C56.029 94.8042 44.678 99.772 36.487 109.707C28.2964 119.642 24.191 133.745 24.171 152.015V283.095C24.4226 286.559 23.0037 289.935 20.3529 292.179C18.0393 294.125 15.1243 295.213 12.1007 295.258C9.07739 295.213 6.16229 294.125 3.84849 292.179C1.19349 289.938 -0.226207 286.56 0.0303925 283.095V152.015C-0.0511075 141.314 1.44289 130.659 4.46409 120.393C7.19879 111.027 11.7151 102.276 17.7661 94.6212C23.6746 87.1744 31.1761 81.1462 39.7201 76.9782C49.3522 72.4931 59.8891 70.2911 70.5111 70.5428C79.619 70.6999 88.6261 72.4722 97.1151 75.7774C105.86 78.87 113.832 83.8172 120.485 90.2804C122.959 92.4537 124.429 95.5498 124.55 98.8402L124.55 98.838Z" fill="#334E68"/>
<path d="M184.96 283.09C185.084 284.798 184.803 286.511 184.139 288.089C183.476 289.668 182.449 291.067 181.142 292.173C178.833 294.133 175.903 295.208 172.875 295.208C169.846 295.208 166.916 294.133 164.607 292.173C163.298 291.069 162.27 289.67 161.606 288.091C160.942 286.512 160.662 284.798 160.789 283.09V86.74C160.665 85.0323 160.946 83.3194 161.61 81.7409C162.273 80.1624 163.3 78.763 164.607 77.6567C166.919 75.7032 169.848 74.6313 172.875 74.6313C175.901 74.6313 178.83 75.7032 181.142 77.6567C182.447 78.7646 183.473 80.1643 184.136 81.7424C184.799 83.3204 185.082 85.0326 184.96 86.74V283.09Z" fill="#334E68"/>
<path d="M394.54 283.09C394.66 284.8 394.374 286.515 393.705 288.094C393.036 289.672 392.003 291.07 390.691 292.173C388.384 294.125 385.46 295.195 382.439 295.195C379.417 295.195 376.494 294.125 374.187 292.173C372.878 291.069 371.85 289.67 371.186 288.091C370.522 286.512 370.242 284.798 370.369 283.09V149.21C370.419 141.942 368.972 134.741 366.119 128.056C360.578 114.992 350.178 104.592 337.114 99.051C330.411 96.2593 323.222 94.822 315.96 94.822C308.699 94.822 301.51 96.2593 294.806 99.051C281.745 104.595 271.345 114.994 265.801 128.056C262.965 134.745 261.529 141.945 261.583 149.21V283.09C261.71 284.798 261.43 286.512 260.766 288.091C260.102 289.67 259.074 291.069 257.765 292.173C255.456 294.133 252.526 295.208 249.498 295.208C246.469 295.208 243.539 294.133 241.23 292.173C239.921 291.069 238.893 289.67 238.229 288.091C237.565 286.512 237.285 284.798 237.412 283.09V149.21C237.334 138.683 239.43 128.252 243.57 118.573C247.492 109.246 253.168 100.759 260.289 93.571C267.383 86.5069 275.738 80.8359 284.922 76.852C294.66 72.7139 305.133 70.5811 315.714 70.5811C326.295 70.5811 336.767 72.7139 346.505 76.852C365.366 84.694 380.355 99.6834 388.197 118.544C392.332 128.225 394.429 138.654 394.356 149.181L394.54 283.09Z" fill="#334E68"/>
<path d="M600 297.19C600.106 307.77 598.009 318.256 593.842 327.981C585.887 346.755 570.885 361.658 552.06 369.488C542.378 373.621 531.95 375.718 521.423 375.646C515.466 375.612 509.527 375.006 503.687 373.829C497.369 372.604 491.183 370.779 485.212 368.38C479.224 365.996 473.548 362.894 468.308 359.142C463.337 355.641 459.039 351.27 455.622 346.241C454.243 344.223 453.542 341.818 453.62 339.375C453.533 336.065 454.934 332.89 457.438 330.723C459.776 328.51 462.872 327.276 466.091 327.274C467.812 327.299 469.515 327.642 471.11 328.29C473.08 329.148 474.714 330.63 475.759 332.509C480.548 339.72 490.882 345.428 497.713 347.627C505.314 350.137 513.263 351.436 521.268 351.476C528.536 351.524 535.736 350.078 542.422 347.226C555.486 341.685 565.886 331.285 571.427 318.221C574.319 311.586 575.817 304.428 575.83 297.191V269.479C568.695 276.29 560.337 281.691 551.197 285.398C541.747 289.303 531.616 291.291 521.391 291.249C510.811 291.357 500.324 289.26 490.6 285.09C471.913 277.15 457.035 262.27 449.093 243.583C444.92 233.86 442.823 223.372 442.935 212.792V149.209C442.856 138.682 444.953 128.251 449.093 118.572C453.011 109.243 458.687 100.754 465.812 93.5703C472.906 86.506 481.261 80.8353 490.445 76.8513C510.121 68.4903 532.352 68.4903 552.028 76.8513C570.89 84.6904 585.88 99.6803 593.72 118.543C597.855 128.225 599.952 138.653 599.879 149.18V297.19L600 297.19ZM575.829 149.21C575.879 141.942 574.433 134.741 571.58 128.056C566.038 114.992 555.639 104.592 542.575 99.0509C529.036 93.4126 513.807 93.4126 500.267 99.0509C487.166 104.564 476.721 114.954 471.139 128.025C468.307 134.715 466.872 141.914 466.92 149.179V212.456C466.85 219.773 468.286 227.026 471.139 233.763C473.891 240.238 477.863 246.124 482.84 251.098C487.808 256.074 493.696 260.037 500.175 262.768C513.714 268.406 528.943 268.406 542.483 262.768C555.547 257.226 565.947 246.827 571.488 233.763C574.394 227.038 575.872 219.782 575.829 212.456L575.829 149.21Z" fill="#334E68"/>
<path d="M172.89 41.322C184.301 41.322 193.551 32.0718 193.551 20.661C193.551 9.25024 184.301 0 172.89 0C161.479 0 152.229 9.25024 152.229 20.661C152.229 32.0718 161.479 41.322 172.89 41.322Z" fill="#334E68"/>
</g>
<defs>
<clipPath id="clip0_22_2">
<rect width="600" height="375.65" fill="white"/>
</clipPath>
</defs>
</svg>
