<svg width="1600" height="696" viewBox="0 0 1600 696" fill="none" xmlns="http://www.w3.org/2000/svg">
<g clip-path="url(#clip0_22_9)">
<path fill-rule="evenodd" clip-rule="evenodd" d="M1400.87 536.123C1399.61 536.123 1398.86 535.358 1398.86 534.083C1398.86 528.984 1399.61 525.414 1400.61 521.844C1404.37 510.624 1414.15 503.995 1427.43 503.995C1440.71 503.995 1450.73 510.624 1454.24 521.844C1455.24 525.159 1456 528.984 1456 534.083C1456 535.358 1455.24 536.123 1453.99 536.123H1400.87ZM1429.43 638.883C1459 638.883 1482.56 628.173 1497.85 611.599C1499.1 610.324 1499.1 608.284 1497.6 606.755L1475.79 585.846C1474.54 584.061 1472.79 584.571 1471.03 585.846C1461.76 594.515 1450.23 600.38 1434.19 600.38C1417.66 600.38 1405.38 592.985 1401.12 578.706C1400.11 575.901 1399.36 572.841 1399.11 569.526C1399.11 568.252 1399.86 567.487 1401.12 567.487H1498.35C1500.6 567.487 1502.11 566.212 1502.11 564.172C1502.11 536.378 1500.1 524.649 1496.84 513.939C1487.57 485.126 1463.01 468.042 1427.43 468.042C1393.35 468.042 1367.79 484.871 1358.51 514.194C1355.26 524.394 1353.25 536.123 1353.25 553.462C1353.25 570.291 1355.51 582.276 1359.02 592.22C1367.79 621.544 1392.85 638.883 1429.43 638.883ZM1305.89 635.058C1307.89 635.058 1309.15 633.783 1309.15 631.743V508.585C1309.15 507.31 1309.9 506.545 1311.15 506.545H1337.46C1339.47 506.545 1340.72 505.27 1340.72 503.23V475.181C1340.72 473.141 1339.47 471.866 1337.46 471.866H1311.4C1310.15 471.866 1309.4 471.101 1309.4 469.827V461.667C1309.4 447.898 1313.16 444.073 1327.69 444.073H1337.97C1339.97 444.073 1341.22 442.798 1341.22 440.758V408.885C1341.22 406.845 1339.97 405.57 1337.97 405.57H1319.67C1281.58 405.57 1263.29 422.144 1263.29 461.922V469.572C1263.29 470.846 1262.54 471.611 1261.28 471.611H1251.26C1249.25 471.611 1248 472.886 1248 474.926V502.975C1248 505.015 1249.25 506.29 1251.26 506.29H1261.28C1262.54 506.29 1263.29 507.055 1263.29 508.33V631.488C1263.29 633.528 1264.54 634.803 1266.55 634.803H1305.89V635.058ZM1150.77 603.44C1135.48 603.44 1127.46 597.575 1127.46 586.101C1127.46 573.351 1136.49 567.487 1156.03 567.487H1178.59C1179.84 567.487 1180.59 568.252 1180.59 569.526V580.746C1180.59 596.045 1170.57 603.44 1150.77 603.44ZM1221.44 635.058C1223.44 635.058 1224.7 633.783 1224.7 631.743V527.199C1224.7 486.401 1205.9 468.042 1153.28 468.042C1126.71 468.042 1107.17 474.416 1093.63 484.361C1091.88 485.381 1091.63 487.166 1092.63 489.206L1107.67 515.979C1108.67 517.764 1110.42 518.019 1111.93 516.744C1119.45 510.879 1131.47 506.29 1147.76 506.29C1173.32 506.29 1180.59 513.429 1180.59 528.474V534.593C1180.59 535.868 1179.84 536.633 1178.59 536.633H1150.02C1110.17 536.633 1083.36 553.207 1083.36 589.415C1083.36 624.094 1108.17 639.393 1136.74 639.393C1158.54 639.393 1172.57 632.253 1180.84 621.544H1181.09V632.253C1181.09 634.293 1182.35 635.568 1184.35 635.568H1221.44V635.058ZM977.858 638.883C1036.25 638.883 1066.57 608.284 1066.57 566.722C1066.57 525.159 1042.01 503.485 995.651 497.11L983.622 495.325C957.81 491.5 948.538 483.086 948.538 470.082C948.538 455.547 958.813 445.093 978.61 445.093C997.154 445.093 1013.69 451.212 1030.98 462.687C1032.74 463.707 1034.24 463.452 1035.75 461.667L1056.04 431.069C1057.8 428.774 1057.3 427.244 1055.29 425.969C1036.5 411.18 1008.43 402 978.61 402C929.744 402 898.67 430.049 898.67 472.121C898.67 512.664 924.23 534.593 970.09 540.968L982.118 542.753C1008.93 546.578 1016.95 554.992 1016.95 568.507C1016.95 584.826 1003.67 595.79 980.114 595.79C956.307 595.79 936.009 584.316 920.973 572.076C919.219 570.801 917.214 570.801 915.961 572.331L890.651 601.655C888.896 603.695 889.648 605.99 890.901 607.265C908.443 624.604 942.775 638.883 977.858 638.883Z" fill="#334E68"/>
<path fill-rule="evenodd" clip-rule="evenodd" d="M862.834 635.058C864.839 635.058 866.092 633.783 866.092 631.743V475.181C866.092 473.141 864.839 471.866 862.834 471.866H822.99C820.985 471.866 819.732 473.141 819.732 475.181V631.743C819.732 633.783 820.985 635.058 822.99 635.058H862.834ZM862.834 445.858C864.839 445.858 866.092 444.583 866.092 442.543V408.885C866.092 406.845 864.839 405.57 862.834 405.57H822.99C820.985 405.57 819.732 406.845 819.732 408.885V442.288C819.732 444.328 820.985 445.603 822.99 445.603H862.834V445.858ZM793.67 637.098C795.675 637.098 796.927 635.823 796.927 633.783V600.38C796.927 598.34 795.675 597.065 793.67 597.065H786.653C777.13 597.065 772.62 592.73 772.62 581.511V408.885C772.62 406.845 771.367 405.57 769.362 405.57H729.517C727.512 405.57 726.259 406.845 726.259 408.885V585.081C726.259 621.289 740.543 637.098 776.128 637.098H793.67ZM626.522 599.105C614.243 599.105 605.722 592.985 601.963 581.511C599.959 575.136 598.956 567.997 598.956 553.462C598.956 538.928 599.959 531.788 601.963 525.414C605.722 513.684 614.243 507.82 626.522 507.82C639.052 507.82 647.823 513.429 651.331 525.414C653.336 531.788 654.338 538.928 654.338 553.462C654.338 567.997 653.336 575.136 651.331 581.511C647.823 592.985 639.052 599.105 626.522 599.105ZM595.698 696C597.703 696 598.956 694.725 598.956 692.685V620.014H599.207C606.474 631.233 620.006 638.883 641.307 638.883C668.121 638.883 687.417 625.369 695.686 599.615C699.696 586.866 701.45 574.371 701.45 553.462C701.45 532.298 699.696 520.059 695.686 507.31C687.417 481.301 668.121 468.042 641.307 468.042C620.006 468.042 606.474 475.691 599.207 486.911H598.956V475.181C598.956 473.141 597.703 471.866 595.698 471.866H555.854C553.849 471.866 552.596 473.141 552.596 475.181V692.685C552.596 694.725 553.849 696 555.854 696H595.698ZM517.011 635.058C519.016 635.058 520.269 633.783 520.269 631.743V528.729C520.269 492.52 500.722 468.042 462.882 468.042C440.329 468.042 424.29 475.691 412.512 488.696H412.262C402.99 475.181 388.706 468.042 369.159 468.042C348.61 468.042 335.078 476.456 327.811 486.656H327.56V475.181C327.56 473.141 326.307 471.866 324.302 471.866H283.956C281.951 471.866 280.698 473.141 280.698 475.181V631.743C280.698 633.783 281.951 635.058 283.956 635.058H323.801C325.806 635.058 327.059 633.783 327.059 631.743V537.908C327.059 520.059 336.331 508.33 352.369 508.33C368.908 508.33 377.178 520.059 377.178 537.908V631.743C377.178 633.783 378.431 635.058 380.436 635.058H420.281C422.286 635.058 423.539 633.783 423.539 631.743V537.908C423.539 520.059 432.56 508.33 448.348 508.33C464.887 508.33 473.658 520.059 473.658 537.908V631.743C473.658 633.783 474.911 635.058 476.916 635.058H517.011ZM243.861 635.058C245.866 635.058 247.119 633.783 247.119 631.743V475.181C247.119 473.141 245.866 471.866 243.861 471.866H204.016C202.011 471.866 200.758 473.141 200.758 475.181V631.743C200.758 633.783 202.011 635.058 204.016 635.058H243.861ZM243.861 445.858C245.866 445.858 247.119 444.583 247.119 442.543V408.885C247.119 406.845 245.866 405.57 243.861 405.57H204.016C202.011 405.57 200.758 406.845 200.758 408.885V442.288C200.758 444.328 202.011 445.603 204.016 445.603H243.861V445.858ZM88.2403 638.883C146.629 638.883 176.701 608.284 176.701 566.722C176.701 525.159 152.142 503.485 105.782 497.11L94.004 495.325C68.1925 491.5 58.9205 483.086 58.9205 470.082C58.9205 455.547 69.1949 445.093 89.2426 445.093C107.787 445.093 124.326 451.212 141.617 462.687C143.372 463.707 144.875 463.452 146.379 461.667L166.677 431.069C168.431 428.774 167.93 427.244 165.925 425.969C147.13 411.18 119.064 402 89.2426 402C40.3763 402 9.30233 430.049 9.30233 472.121C9.30233 512.664 34.8632 534.593 80.7224 540.968L92.751 542.753C119.565 546.578 127.584 554.992 127.584 568.507C127.584 584.826 114.302 595.79 90.7462 595.79C66.9395 595.79 46.6412 584.316 31.6054 572.076C29.8512 570.801 27.8465 570.801 26.5935 572.331L1.03264 601.655C-0.721538 603.695 0.0302515 605.99 1.28323 607.265C18.825 624.604 53.1567 638.883 88.2403 638.883Z" fill="#334E68"/>
<path fill-rule="evenodd" clip-rule="evenodd" d="M1536.01 491.694C1535.98 487.564 1536.83 483.472 1538.5 479.679C1541.78 472.312 1547.82 466.432 1555.39 463.255C1563.28 459.981 1572.2 459.981 1580.08 463.255C1587.71 466.405 1593.81 472.288 1597.1 479.679C1600.47 487.351 1600.47 496.037 1597.1 503.708C1593.83 511.076 1587.79 516.956 1580.22 520.133C1572.33 523.406 1563.41 523.406 1555.52 520.133C1547.95 516.956 1541.91 511.076 1538.64 503.708C1536.92 499.925 1536.02 495.833 1536.01 491.694ZM1541.66 491.694C1541.63 495.096 1542.33 498.469 1543.69 501.599C1546.37 507.711 1551.39 512.574 1557.69 515.148C1564.18 517.792 1571.49 517.792 1577.98 515.148C1584.26 512.56 1589.25 507.699 1591.91 501.599C1594.63 495.285 1594.63 488.166 1591.91 481.852C1589.23 475.741 1584.22 470.878 1577.92 468.304C1571.45 465.678 1564.16 465.678 1557.69 468.304C1551.42 470.892 1546.42 475.752 1543.76 481.852C1542.38 484.959 1541.66 488.308 1541.66 491.694Z" fill="#334E68"/>
<path fill-rule="evenodd" clip-rule="evenodd" d="M1557.01 477.889H1559.09C1560.16 477.889 1561.42 477.84 1562.87 477.744C1564.32 477.648 1565.85 477.6 1567.48 477.6C1569.1 477.6 1570.6 477.744 1571.97 478.033C1573.33 478.322 1574.5 478.78 1575.48 479.406C1577.53 480.718 1578.55 482.693 1578.55 485.33C1578.55 487.353 1578.02 488.994 1576.97 490.253C1575.92 491.511 1574.48 492.411 1572.64 492.953C1573.86 493.651 1575.12 495.193 1576.42 497.577C1576.8 498.239 1577.15 498.902 1577.5 499.564C1578.64 501.804 1579.77 503.742 1580.89 505.38H1575.46C1575.26 505.139 1575.05 504.814 1574.83 504.405C1574.62 503.995 1574.4 503.586 1574.17 503.176C1573.94 502.767 1573.68 502.237 1573.4 501.587C1573.11 500.937 1572.81 500.277 1572.49 499.609C1572.18 498.941 1571.85 498.284 1571.5 497.64C1571.16 496.996 1570.79 496.403 1570.39 495.861C1569.5 494.669 1568.53 493.928 1567.49 493.639C1566.84 493.663 1566.07 493.675 1565.17 493.675H1561.8V505.38H1557.01V477.889ZM1566.13 480.562C1564.47 480.562 1563.03 480.67 1561.8 480.887V490.821C1562.48 490.894 1563.42 490.93 1564.61 490.93H1566.84C1571.38 490.93 1573.65 489.13 1573.65 485.529C1573.65 483.783 1573.13 482.525 1572.08 481.754C1570.98 480.959 1569 480.562 1566.13 480.562Z" fill="#334E68"/>
<g clip-path="url(#clip1_22_9)">
<path fill-rule="evenodd" clip-rule="evenodd" d="M800 0C901.553 0 984 82.4473 984 184C984 285.552 901.553 368 800 368C698.448 368 616 285.552 616 184C616 82.4473 698.448 0 800 0Z" fill="#334E68"/>
<path fill-rule="evenodd" clip-rule="evenodd" d="M868.682 156.018H753.364C753.364 156.018 744.885 157.714 744.885 140.756C744.885 123.797 763.539 84.7926 797.456 84.7926C831.373 84.7926 849.332 118.998 851.723 123.797C853.419 127.189 856.811 132.276 860.203 132.276C863.594 132.276 875.465 133.972 872.074 118.71C868.682 103.447 844.94 64.4424 799.152 64.4424C753.364 64.4424 724.534 103.447 724.534 123.797V166.194C724.534 166.194 724.534 176.369 731.318 176.369H844.94C844.94 176.369 853.419 176.369 853.419 186.544V230.348C853.451 239.939 850.602 249.322 845.245 257.278C837.58 268.572 823.81 281.512 800.848 281.512C760.147 281.512 744.885 247.594 744.885 232.332V205.198C744.885 205.198 741.493 196.719 733.014 196.719C724.535 196.719 724.534 208.59 724.534 208.59V233.248C724.521 241.699 726.301 250.057 729.758 257.77C737.915 275.847 757.468 303.558 800.848 303.558C852.3 303.558 869.157 264.553 873.871 248.951C874.95 245.327 875.453 241.556 875.364 237.775L873.769 162.802C873.769 162.802 873.77 156.018 868.682 156.018Z" fill="white"/>
</g>
</g>
<defs>
<clipPath id="clip0_22_9">
<rect width="1600" height="696" fill="white"/>
</clipPath>
<clipPath id="clip1_22_9">
<rect width="368" height="368" fill="white" transform="translate(616)"/>
</clipPath>
</defs>
</svg>
