<svg width="1072" height="1072" viewBox="0 0 1072 1072" fill="none" xmlns="http://www.w3.org/2000/svg">
<g clip-path="url(#clip0_20_2465)">
<path d="M498.5 402.9L365.3 505.3C351.6 454.1 307.2 416.5 252.6 416.5H157V652.1H252.6C307.2 652.1 355 614.5 365.3 563.3L498.5 665.7L631.7 563.3V652.1H781.9V604.3H682.9V416.5H628.3V505.3L501.9 607.7L474.6 583.8L536 536L600.8 484.8L563.3 454.1L437 553.1L409.7 529.2L536 433.6L498.5 402.9ZM208.3 464.3H249.3C257.8 464.3 266.2 466.2 273.8 469.8C281.5 473.3 288.5 478.4 294.5 484.8C300.5 491.2 305.4 498.9 308.8 507.5C312.2 516.1 314.1 525.8 314.1 536C314.1 545.4 312.4 554.6 309.2 563C306.1 571.5 301.5 579.3 295.7 585.9C289.9 592.5 283 598 275.2 601.7C267.4 605.5 258.6 607.6 249.2 607.6H208.2L208.3 464.3ZM952.5 604.3V652.1H802.3V416.5H856.9V604.3H952.5ZM536 0C242.4 0 0 242.4 0 536C0 829.6 239 1072 536 1072C833 1072 1072 833 1072 536C1072 239 829.6 0 536 0ZM536 54.6C569.3 54.6 601.8 57.9 633.1 64.3C664.5 70.7 694.7 80.1 723.5 92.3C752.3 104.5 779.7 119.4 805.3 136.6C830.9 153.8 854.8 173.5 876.5 195.3C898.2 217.1 917.9 240.9 935.2 266.5C952.5 292.1 967.4 319.5 979.5 348.3C991.7 377.1 1001.1 407.4 1007.5 438.7C1013.9 470.1 1017.2 502.5 1017.2 535.8C1017.2 569.1 1013.9 601.6 1007.5 632.9C1001.1 664.3 991.7 694.5 979.5 723.3C967.3 752.1 952.4 779.5 935.2 805.1C918 830.7 898.3 854.6 876.5 876.3C854.7 898 830.9 917.7 805.3 935C779.7 952.3 752.3 967.2 723.5 979.3C694.7 991.5 664.4 1000.9 633.1 1007.3C601.7 1013.7 569.3 1017 536 1017C502.7 1017 470.2 1013.7 438.9 1007.3C407.5 1000.9 377.3 991.5 348.5 979.3C319.7 967.1 292.3 952.2 266.7 934.9C241.1 917.6 217.3 898 195.5 876.2C173.7 854.4 154 831 136.7 805.4C119.4 779.8 104.5 752.4 92.4 723.6C80.2 694.8 70.8 664.5 64.4 633.1C58 601.7 54.7 569.3 54.7 536C54.7 502.7 58 470.2 64.4 438.9C70.8 407.5 80.2 377.3 92.4 348.5C104.6 319.7 119.5 292.3 136.7 266.7C154 241.1 173.6 217.3 195.4 195.5C217.2 173.7 241 154.1 266.6 136.8C292.2 119.5 319.6 104.6 348.4 92.5C377.2 80.3 407.5 70.9 438.9 64.5C470.2 58 502.7 54.7 536 54.6Z" fill="#334E68"/>
</g>
<defs>
<clipPath id="clip0_20_2465">
<rect width="1072" height="1072" fill="white"/>
</clipPath>
</defs>
</svg>
