<svg width="700" height="241" viewBox="0 0 700 241" fill="none" xmlns="http://www.w3.org/2000/svg">
<path d="M516.352 190.607L520.898 195.183L533.955 207.596L551.514 205.401L565.233 201.286L569.253 194.521L579.14 188.183L580.498 175.088L584.766 176.058L590.501 146.754L584.475 125.519L572.835 105.343L565.074 75.0777L567.79 47.1408L542.57 42.0967L523.169 46.7528L519.289 56.2591C519.289 56.2591 518.028 64.7954 517.931 65.1834C517.834 65.5714 518.513 74.1077 518.513 74.1077L516.864 88.0762L514.338 105.669L506.381 125.698C506.381 125.698 502.54 145.452 501.168 145.452C499.796 145.452 501.937 155 501.937 155L510.171 174.797L516.352 190.607Z" fill="white"/>
<path d="M539.604 24.3651C525.587 26.1204 515.379 38.5184 516.35 52.6127C516.052 78.8045 518.994 88.2159 507.238 103.224C495.481 118.232 488.316 129.286 485.443 140.002C483.695 146.727 482.759 153.455 482.759 160.403C482.759 160.403 482.51 163.246 485.443 160.597C488.386 157.948 496.637 159.104 500.76 166.483C504.883 173.863 512.509 185.315 512.509 185.315L516.35 190.608L521.641 189.114C521.641 189.114 526.949 185.583 521.641 177.93C518.668 173.538 514.996 169.669 510.758 166.478C510.758 166.478 498.185 160.049 496.053 152.65C493.987 139.982 497.406 127.033 505.468 117.043C511.443 109.982 504.158 122.7 501.927 127.339C496.958 137.683 496.39 151.621 496.569 158.505C496.668 161.404 503.952 163.264 505.74 164.646C506.905 165.546 501.305 154.156 501.927 155C504.143 128.639 515.972 122.769 523.421 86.439C517.889 83.3831 518.631 75.204 524.627 73.1978C521.634 69.3721 520.536 64.3946 521.641 59.6636C523.404 53.9473 525.463 53.33 527.739 53.1208C530.014 52.9117 535.554 55.387 534.887 66.4313C537.526 66.1276 540.194 66.1276 542.833 66.4313C542.833 66.4313 540.772 56.1334 548.405 52.603C552.658 50.5255 557.792 52.0621 560.202 56.1333C563.006 61.6017 562.551 68.1731 559.016 73.1978C562.999 74.9859 564.28 80.0063 561.661 83.4958L568.138 103.209C568.138 103.209 576.659 119.98 580.772 129.396C583.227 134.928 584.914 140.767 585.79 146.754H590.497C590.497 146.754 597.956 128.669 580.772 111.241C580.423 110.933 579.606 109.902 580.772 111.241C581.12 111.55 598.452 127.395 594.319 148.224C597.626 150.564 608.034 152.451 606.087 163.525C610.016 164.173 611.105 163.525 611.105 163.525C613.784 152.148 612.862 140.22 608.46 129.391C603.615 117.702 596.626 107.022 587.852 97.9065C581.264 90.7954 577.675 81.413 577.844 71.7195C578.666 59.4154 576.856 47.0771 572.544 35.5239C568.999 28.5591 561.801 24.2196 553.988 24.3396C549.203 23.8715 544.384 23.8865 539.604 24.3894V24.3651Z" fill="#334E68"/>
<path d="M520.902 195.183C520.902 195.183 537.126 208.444 552.393 202.155C558.214 200.073 573.735 191.182 579.138 188.183C579.138 188.183 574.996 208.329 577.018 211.142C579.039 213.956 554.948 208.253 544.058 208.677C533.168 209.1 525.559 210.077 515.242 210.619C518.468 206.34 487.882 172.481 482.973 161.593C480.956 157.126 497.619 159.489 497.619 159.489L520.902 195.183Z" fill="#334E68"/>
<path d="M490.193 165.198C483.406 166.328 484.22 170.142 481.382 172.667C478.544 175.191 475.852 174.887 472.784 176.73C469.717 178.572 468.133 181.305 469.478 187.639C470.452 191.57 470.015 195.719 468.243 199.361C467.326 202.209 468.542 206.75 474.642 206.974C480.364 207.006 486.059 207.794 491.574 209.319C501.035 211.495 506.928 217.491 513.252 212.308C515.005 211.111 516.415 209.476 517.337 207.565C518.259 205.654 518.659 203.534 518.504 201.418C517.457 196.999 515.134 192.987 511.822 189.881C507.529 185.829 504.1 180.949 501.747 175.535C499.805 171.805 496.99 164.067 490.193 165.198Z" fill="#334E68"/>
<path d="M585.658 144.285C587.226 144.285 590.108 124.109 590.064 127.572C594.429 134.944 593.711 143.949 593.711 143.949L593.271 198.282L580.048 170.42C580.048 170.42 586.79 150.972 585.658 144.285Z" fill="#334E68"/>
<path d="M619.34 191.125C618.5 184.695 616.485 186.044 614.191 183.284C611.897 180.525 613.376 177.115 611.736 174.169C610.096 171.223 609.947 168.388 603.933 169.458C597.918 170.527 593.072 179.491 584.119 173.47C581.039 171.101 579.04 164.621 578.624 170.369C578.583 177.065 577.752 183.733 576.15 190.234C573.793 199.082 569.773 204.23 574.449 210.366C575.515 212.056 577.007 213.437 578.775 214.368C580.544 215.3 582.526 215.75 584.523 215.674C588.731 214.843 592.6 212.787 595.642 209.764C599.591 205.857 604.298 202.801 609.474 200.785C613.04 199.082 620.181 197.554 619.34 191.125Z" fill="#334E68"/>
<path d="M590.774 150.593C590.774 150.593 578.929 148.218 580.572 158.321C582.216 168.424 586.223 170.371 586.223 170.371C587.638 171.433 589.355 172.007 591.125 172.007C592.894 172.007 594.62 171.433 596.036 170.371C599.116 168.542 601.778 166.085 603.845 163.161C603.845 163.161 606.93 158.007 599.819 154.302C597.05 152.53 593.991 151.274 590.774 150.593Z" fill="#334E68"/>
<path d="M529.438 59.3398C531.48 59.3398 533.133 62.1383 533.133 65.589C533.131 66.3614 533.044 67.1312 532.874 67.8845C531.517 69.4015 529.807 70.5596 527.895 71.2556C527.146 70.524 526.566 69.6381 526.194 68.6595C525.823 67.6809 525.669 66.6331 525.743 65.589C525.743 62.1383 527.397 59.3398 529.438 59.3398Z" fill="#334E68"/>
<path d="M552.164 58.7725C553.741 58.9363 555.19 59.7128 556.199 60.9348C557.209 62.1567 557.698 63.7263 557.562 65.3055C557.45 67.6616 556.473 69.8936 554.818 71.5746C554.056 72.2617 549.978 70.4393 547.956 69.3936C547.31 68.1342 547.045 66.7133 547.195 65.3055C547.195 61.6954 549.186 58.7725 552.164 58.7725Z" fill="#334E68"/>
<path d="M533.132 71.724C530.457 73.313 527.918 75.1231 525.546 77.1362C525.039 77.5096 524.624 77.9975 524.34 78.5598C524.056 79.122 523.912 79.7423 523.912 80.3723C523.912 81.0024 524.056 81.6239 524.34 82.1861C524.624 82.7484 525.039 83.2363 525.546 83.6097C528.275 86.28 531.245 88.6936 534.416 90.8199C535.728 91.94 537.363 92.6133 539.084 92.7431C540.804 92.8729 542.52 92.4526 543.985 91.542C548.218 89.6897 555.52 85.5669 555.52 85.5669C555.52 85.5669 563.457 79.1779 555.52 75.5728C547.583 71.9677 549.139 72.2757 543.985 70.3138C542.247 69.4175 540.284 69.0725 538.345 69.3242C536.405 69.576 534.584 70.4136 533.132 71.724Z" fill="#334E68"/>
<path d="M80 79.83V72.54H120.612V79.7353H113.143C112.749 79.7307 112.359 79.8048 111.994 79.9533C111.63 80.1017 111.298 80.3216 111.02 80.6C110.742 80.8784 110.522 81.2096 110.373 81.5742C110.225 81.9388 110.151 82.3294 110.155 82.723V159.431H135.237C135.237 159.431 139.469 161.831 140.6 139.827H151.056V166.766H80.0946V160.293H87.8526C87.8526 160.293 91.1688 159.297 91.1688 156.976V82.4342C91.1688 82.4342 90.8153 80.0341 87.1505 80.0341L80 79.83Z" fill="#334E68"/>
<path d="M156.967 110.08V104.424L176.292 97.0889H183.761V157.883C183.761 157.883 183.9 161.124 188.133 161.124H193.351V166.905H156.817V160.84H162.295C162.295 160.84 165.965 160.417 166.243 158.161V110.06L156.967 110.08Z" fill="#334E68"/>
<path d="M234.402 166.92H199.845V160.855H205.208C205.208 160.855 208.872 160.432 209.012 157.892V109.652H199.421V103.721L219.17 96.9492H226.221V105.554C226.221 105.554 241.597 97.2331 250.62 97.2331C253.074 97.0254 255.543 97.3583 257.855 98.2082C260.166 99.0582 262.263 100.404 263.998 102.152C265.732 103.9 267.063 106.008 267.895 108.325C268.727 110.643 269.041 113.115 268.815 115.567V157.32C269.002 158.348 269.571 159.269 270.407 159.896C271.244 160.524 272.286 160.813 273.326 160.706H278.804V166.91H244.406V160.437H249.201C249.935 160.375 250.63 160.083 251.187 159.602C251.744 159.12 252.135 158.475 252.303 157.758V121.363C252.153 118.022 250.692 114.875 248.236 112.605C245.781 110.334 242.53 109.123 239.187 109.234C234.846 109.796 230.554 110.692 226.35 111.912V157.897C226.587 158.656 227.054 159.321 227.687 159.801C228.32 160.281 229.087 160.552 229.881 160.576H234.536L234.402 166.92Z" fill="#334E68"/>
<path d="M292.522 109.513H283.061V103.871L302.247 97.1039H310.005V143.089C310.005 143.089 309.442 157.614 323.125 156.488C327.283 156.162 331.394 155.404 335.395 154.228V109.657H326.093V104.015L345.015 96.9644H352.773V157.494C352.773 157.494 352.633 160.318 356.298 160.596H361.776V167.229H335.385V159.61C335.385 159.61 321.985 168.499 311.125 168.354C311.125 168.354 293.07 169.35 292.502 148.75V109.537L292.522 109.513Z" fill="#334E68"/>
<path d="M366.297 104.578V98.1045H400.008V104.418C400.008 104.418 392.539 104.135 394.645 107.804L405.644 123.739L416.505 107.804C416.505 107.804 419.189 104.563 410.579 104.817V98.3435H436.393V104.548C433.138 104.643 429.99 105.725 427.365 107.65L410.719 129.938L431.453 159.7C433.781 160.813 436.344 161.346 438.922 161.254V167.035H405.774V161.816C405.774 161.816 413.243 161.816 410.853 157.728L399.161 140.27L386.892 158.042C386.892 158.042 383.79 161.005 393.096 160.86V166.781H366.013V161C367.651 161.137 369.299 160.933 370.853 160.399C372.408 159.865 373.834 159.013 375.041 157.898L393.375 134.056L375.32 107.665C375.32 107.665 374.478 104.717 366.297 104.578Z" fill="#334E68"/>
<path d="M437.702 94.5645H436.208V90.9194H443.558V94.5645H442.144V92.3934H440.65V97.5472H442.094V98.9613H437.757V97.5719H439.141V92.3884H437.648L437.702 94.5645Z" fill="#334E68"/>
<path d="M444.315 98.991V97.547H445.037V92.3932H444.315V90.8247H446.481V92.3633H447.293V93.9318H447.985V94.5643H448.742V93.8423H449.524V92.458H450.216V90.8595H452.417V92.3534H451.69V97.5669H452.417V99.0109H448.772V97.517H450.265V95.2863H449.513V95.9784H448.787V96.7901H448.005V96.0382H447.313V95.2613H446.501V97.4324H447.995V98.981L444.315 98.991Z" fill="#334E68"/>
<path d="M175.859 86.6022C181.615 86.6022 186.281 81.9361 186.281 76.1802C186.281 70.4244 181.615 65.7583 175.859 65.7583C170.103 65.7583 165.437 70.4244 165.437 76.1802C165.437 81.9361 170.103 86.6022 175.859 86.6022Z" fill="#334E68"/>
</svg>
