<svg width="1040" height="934" viewBox="0 0 1040 934" fill="none" xmlns="http://www.w3.org/2000/svg">
<path fill-rule="evenodd" clip-rule="evenodd" d="M388.422 166.344H367.885V145.213H388.422V166.344Z" fill="#334E68"/>
<path fill-rule="evenodd" clip-rule="evenodd" d="M429.219 273.703H408.719V252.547H429.219V273.703Z" fill="#334E68"/>
<path fill-rule="evenodd" clip-rule="evenodd" d="M429.219 207.802H408.719V186.672H429.219V207.802Z" fill="#334E68"/>
<path fill-rule="evenodd" clip-rule="evenodd" d="M449.755 186.672H429.219V165.542H449.755V186.672Z" fill="#334E68"/>
<path fill-rule="evenodd" clip-rule="evenodd" d="M449.755 243.229H429.219V222.099H449.755V243.229Z" fill="#334E68"/>
<path fill-rule="evenodd" clip-rule="evenodd" d="M470.261 217.323H449.755V196.198H470.261V217.323Z" fill="#334E68"/>
<path fill-rule="evenodd" clip-rule="evenodd" d="M367.885 201.182H388.422V314.594H408.328V294.417H429.458V338.838H449.964V264.568H470.469V418.099C470.469 418.099 473.261 481.198 532.011 515.385C471.391 515.385 367.885 488.026 367.885 365.578V201.182Z" fill="#334E68"/>
<mask id="mask0_20_2241" style="mask-type:luminance" maskUnits="userSpaceOnUse" x="480" y="353" width="218" height="163">
<path d="M480 353.333H697.333V516H480V353.333Z" fill="white"/>
</mask>
<g mask="url(#mask0_20_2241)">
<mask id="mask1_20_2241" style="mask-type:luminance" maskUnits="userSpaceOnUse" x="481" y="354" width="216" height="162">
<path d="M481.328 436.151C481.328 436.151 492.219 489.568 550.323 515.385C603.802 515.385 705.729 472.474 695.792 354.385C695.792 354.385 658.068 502.568 481.328 436.151Z" fill="white"/>
</mask>
<g mask="url(#mask1_20_2241)">
<path d="M481.328 354.385V515.385H705.729V354.385H481.328Z" fill="#6A6D71"/>
</g>
</g>
<path fill-rule="evenodd" clip-rule="evenodd" d="M590.74 441.729C590.74 441.729 672.286 437.042 696.474 327.026V148.005C696.474 148.005 593.859 136.193 593.859 212.042C593.859 287.891 590.74 441.729 590.74 441.729Z" fill="#334E68"/>
<path d="M202.036 575.505V656.276C202.036 687.495 167.583 688.323 167.583 688.323C167.583 688.323 133.13 687.495 133.13 656.276V575.505C133.13 575.505 131.5 561.495 112.125 561.495V658.172C112.125 658.172 115.599 706.604 167.583 706.604C219.547 706.604 223.047 658.172 223.047 658.172V561.495C203.672 561.495 202.036 575.505 202.036 575.505Z" fill="#334E68"/>
<path d="M703.62 658.172V561.495C684.214 561.495 682.609 575.505 682.609 575.505V656.276C682.609 687.495 648.161 688.323 648.161 688.323C648.161 688.323 613.677 687.495 613.677 656.276V575.505C613.677 575.505 612.047 561.495 592.672 561.495V658.172C592.672 658.172 596.177 706.604 648.161 706.604C700.089 706.604 703.62 658.172 703.62 658.172Z" fill="#334E68"/>
<path d="M392.365 575.505V704.88H413.375V561.495C393.995 561.495 392.365 575.505 392.365 575.505Z" fill="#334E68"/>
<path d="M740.505 575.505V704.88H761.516V561.495C742.109 561.495 740.505 575.505 740.505 575.505Z" fill="#334E68"/>
<path d="M924.635 658.172V561.495C905.255 561.495 903.651 575.505 903.651 575.505V704.88H924.635V658.172Z" fill="#334E68"/>
<path d="M317.26 687.911H279.573V639.833H318.094C321.297 639.833 337.854 642.682 337.854 663.875C337.854 685.057 317.26 687.911 317.26 687.911ZM279.573 580.37H311.62C317.26 580.37 332.87 581.969 332.87 601.911C332.87 621.854 311.891 622.927 311.891 622.927H279.573V580.37ZM357.917 669.75C357.917 642.568 342.01 630.995 333.698 630.995C333.698 630.995 353.88 621.557 353.88 598.411C353.88 575.26 333.167 561.495 313.224 561.495H259.516V704.88H328.177C328.177 704.88 357.917 696.927 357.917 669.75Z" fill="#334E68"/>
<path d="M502.37 688.625C474.771 688.625 461.563 664.166 461.563 634.083C461.563 603.932 474.505 579.541 502.37 579.541C530.229 579.541 543.141 603.932 543.141 634.083C543.141 664.166 529.958 688.625 502.37 688.625ZM569.672 686.307H543.818C543.818 686.307 564.422 666.896 564.422 635.031C564.422 603.099 550.026 561.495 500.886 561.495C500.886 561.495 443.823 557.88 439.49 633.192C439.49 706.901 500.886 704.88 500.886 704.88C518.63 702.036 535.333 702.567 548.781 702.567H582.193C582.193 702.567 580.771 686.307 569.672 686.307Z" fill="#334E68"/>
<path d="M782.286 561.495V579.479H825.104V704.88H845.109V579.479H885.88V561.495H782.286Z" fill="#334E68"/>
<path d="M144.276 779.062H144.156L125.026 748.192H117.276V790.093H124.26V759.281H124.438L143.51 790.093H151.26V748.192H144.276V779.062Z" fill="#334E68"/>
<path d="M235.49 771.49H256.62V765.505H235.49V754.531H258.323V748.188H228.151V790.094H258.734V783.755H235.49V771.49Z" fill="#334E68"/>
<path d="M331.203 754.531H344.469V790.094H351.807V754.531H365.13V748.188H331.203V754.531Z" fill="#334E68"/>
<path d="M477.115 780.234H477L468.781 748.192H461.271L452.818 780.234H452.698L445.13 748.192H437.677L448.708 790.093H456.281L464.849 758.052H464.964L473.36 790.093H480.813L492.375 748.192H484.922L477.115 780.234Z" fill="#334E68"/>
<path d="M581.281 785.104C572.302 785.104 568.547 777.187 568.547 769.14C568.547 761.104 572.302 753.182 581.281 753.182C590.26 753.182 594.016 761.104 594.016 769.14C594.016 777.187 590.26 785.104 581.281 785.104ZM581.281 747.192C568.719 747.192 561.208 757.172 561.208 769.14C561.208 781.114 568.719 791.093 581.281 791.093C593.838 791.093 601.354 781.114 601.354 769.14C601.354 757.172 593.838 747.192 581.281 747.192Z" fill="#334E68"/>
<path d="M697.604 767.489H685.568V754.401H697.484C701.297 754.401 704.76 755.458 704.76 760.797C704.76 765.203 702.24 767.489 697.604 767.489ZM705.172 770.427V770.307C706.521 769.838 712.099 767.786 712.099 759.745C712.099 752.64 707.401 748.417 698.25 748.417H678.234V790.323H685.568V773.068H696.37C703.12 773.068 704.703 776.469 704.703 784.156C704.703 786.213 704.703 788.5 705.818 790.323H713.682C712.099 788.62 711.396 784.156 711.396 779.286C711.396 772.656 707.698 770.776 705.172 770.427Z" fill="#334E68"/>
<path d="M823.026 748.417H813.99L795.323 767.495V748.417H787.99V790.323H795.323V776.234L801.312 770.307L815.042 790.323H824.198L806.297 765.14L823.026 748.417Z" fill="#334E68"/>
<path d="M919.406 767.489C917.24 766.849 907.964 764.437 907.318 764.26C904.323 763.443 902.328 761.797 902.328 758.864C902.328 754.635 906.615 753.406 910.021 753.406C915.068 753.406 918.703 755.401 919.057 760.797H926.396C926.396 752.057 919.057 747.417 910.313 747.417C902.74 747.417 894.995 751.354 894.995 759.745C894.995 764.083 897.11 768.427 904.266 770.364C910.021 771.953 913.833 772.713 916.771 773.828C918.469 774.474 920.229 775.765 920.229 778.995C920.229 782.161 917.823 785.333 911.37 785.333C905.5 785.333 900.745 782.807 900.745 776.354H893.412C893.589 786.745 901.333 791.318 910.901 791.318C919.235 791.318 927.568 787.562 927.568 778.172C927.568 773.828 924.927 769.135 919.406 767.489Z" fill="#334E68"/>
</svg>
