<svg width="2500" height="911" viewBox="0 0 2500 911" fill="none" xmlns="http://www.w3.org/2000/svg">
<g clip-path="url(#clip0_20_2442)">
<path fill-rule="evenodd" clip-rule="evenodd" d="M333.333 489.256H633.609L483.471 173.829L261.708 635.262H0L345.73 8.53982H621.212L964.187 635.262V274.38H1287.86C1337.47 274.38 1398.07 282.645 1404.96 220.661C1409.09 157.3 1376.01 151.791 1322.31 147.658H961.433L888.449 9.91723H1348.48C1475.23 12.6721 1626.74 42.9751 1647.4 188.981C1648.05 205.356 1647.17 221.158 1644.67 236.31C1668.12 165.775 1719.07 106.508 1790.63 65.0137C1947.66 -24.518 2162.53 -10.7439 2327.82 42.9751V227.548C2254.84 190.358 2191.46 172.452 2108.82 169.697C2019.28 171.074 1907.71 195.868 1874.67 289.532C1865.01 326.722 1869.17 355.647 1888.45 387.328C1965.58 492.011 2132.25 492.011 2246.58 457.576C2275.52 447.934 2305.82 435.537 2333.35 423.14V589.807C2199.74 646.281 2038.59 658.678 1896.71 626.997C1772.77 595.317 1670.82 523.691 1637.78 396.97C1628.25 352.778 1627.81 310.518 1635.54 271.128C1623.47 303.746 1602.16 332.308 1570.29 355.628C1469.74 424.499 1341.64 414.857 1227.31 414.857V636.62H964.187V635.262L526.171 636.62V635.242H415.978L333.333 489.256Z" fill="#334E68"/>
<path fill-rule="evenodd" clip-rule="evenodd" d="M2392.54 53.9944H2370.52V44.3525H2424.24V53.9944H2404.96V110.468H2392.56L2392.54 53.9944ZM2432.49 44.3525H2449.02L2465.55 96.6941L2483.45 44.3525H2499.98V110.468H2488.96V53.9944H2487.6L2471.07 110.468H2461.43L2443.51 53.9944V110.468H2432.49V44.3525ZM108.816 907.989H82.6447L77.1351 884.573H34.4354L27.5483 907.989H4.13232L39.945 778.512H66.1158L108.816 907.989ZM53.7191 808.834L39.945 859.799H68.8706L53.7191 808.834ZM198.347 778.531H216.254V908.008H194.215V826.741L169.422 868.063H166.667L141.873 826.741V908.008H119.835V778.531H139.119L168.044 826.741L198.347 778.531ZM305.785 907.989H239.67V778.512H305.785V803.306H261.708V829.477H304.408V852.892H261.708V884.573H305.785V907.989ZM365.014 778.531C399.449 782.664 406.336 828.118 378.788 847.402C392.562 857.044 398.072 891.498 403.581 908.008H378.788C373.278 890.102 370.524 855.666 347.108 855.666V908.008H325.069V778.531H365.014ZM347.108 830.854C362.259 830.854 367.769 832.231 370.524 815.702C369.146 800.551 360.882 801.928 347.108 801.928V830.854ZM438.017 907.989H415.978V778.512H438.017V907.989ZM545.455 898.347C494.49 924.518 458.678 899.724 455.923 843.251C460.055 797.796 488.981 759.229 537.19 782.645L544.077 788.154V817.08C508.265 790.909 476.584 806.061 479.339 851.515C490.358 891.479 513.774 887.328 545.455 869.441V898.347ZM657.025 907.989H633.609L625.344 884.573H584.022L578.512 907.989H553.719L590.909 778.512H617.08L657.025 907.989ZM604.683 808.834L590.909 859.799H618.457L604.683 808.834ZM760.331 907.989H742.424L692.838 825.344V907.989H669.422V778.512H690.083L738.292 857.025V778.512H760.331V907.989ZM862.259 778.531C902.204 784.041 902.204 848.779 862.259 855.647H844.353V907.989H819.559V778.512L862.259 778.531ZM844.353 832.231C852.617 832.231 858.127 833.609 865.014 828.099C873.278 806.061 863.636 801.928 844.353 801.928V832.231ZM955.923 910.763C877.411 903.876 895.317 752.361 973.829 779.89C1023.42 799.193 1019.28 899.744 961.433 909.385L955.923 910.763ZM955.923 803.325C910.468 806.08 922.865 901.121 968.32 880.46C994.49 863.912 993.113 806.061 955.923 803.325ZM1064.74 910.763H1055.1L1013.77 778.531H1038.57L1060.61 848.779L1085.4 778.531H1103.31L1125.34 848.779L1147.38 778.531H1172.18L1130.85 910.763H1121.21L1093.66 825.344L1064.74 910.763ZM1245.18 907.989H1183.2V778.512H1245.18V803.306H1205.23V829.477H1243.8V852.892H1205.23V884.573H1245.18V907.989ZM1304.41 778.531C1338.84 782.664 1345.73 829.496 1318.18 847.402C1331.98 857.044 1340.22 894.234 1344.35 908.008H1318.18C1314.05 895.63 1308.54 858.421 1294.77 855.666H1286.5V908.008H1264.46V778.531H1304.41ZM1286.5 830.854C1300.28 830.854 1308.52 832.231 1309.92 815.702C1308.54 800.551 1300.28 801.928 1286.5 801.928V830.854ZM1479.34 898.347C1433.88 921.782 1399.43 906.612 1388.43 855.647C1385.66 806.061 1410.45 767.512 1462.81 778.531L1471.07 782.664L1477.96 788.173V817.099C1433.88 784.041 1399.45 818.476 1417.36 865.327C1435.28 892.857 1454.55 883.234 1479.34 869.46V898.347ZM1546.81 910.763C1487.58 905.253 1479.34 826.722 1515.15 789.551C1539.94 763.38 1574.38 778.531 1589.53 807.457C1603.31 847.383 1595.04 906.612 1546.81 910.763ZM1546.81 803.325C1509.64 806.08 1506.87 863.931 1534.44 880.46C1578.51 901.121 1590.91 806.061 1546.81 803.325ZM1706.61 907.989H1688.69L1637.74 825.344V907.989H1615.7V778.512H1636.36L1684.57 857.025V778.512H1706.61V907.989ZM1771.35 910.763H1761.71L1719.01 778.531H1743.8L1768.61 852.912L1789.28 778.531H1814.07L1771.35 910.763ZM1893.94 907.989H1825.05V778.512H1891.17V803.306H1848.48V829.477H1889.81V852.892H1848.48V884.573H1893.94V907.989ZM1951.77 778.531C1983.45 782.664 1990.36 829.496 1965.56 847.402C1977.94 857.044 1986.23 894.234 1990.36 908.008H1965.56C1960.06 890.102 1957.28 855.666 1933.88 855.666V908.008H1910.47V778.531H1951.77ZM1933.88 830.854C1943.53 830.854 1951.79 832.231 1957.3 822.589C1960.07 803.306 1951.79 801.928 1933.88 801.928V830.854ZM2063.34 810.212C2053.7 806.061 2023.4 790.909 2020.66 810.212C2023.42 826.722 2056.47 832.231 2064.74 855.647C2074.38 902.479 2037.19 923.14 1998.62 898.347V869.421C2009.64 877.686 2038.57 896.951 2044.08 873.554C2041.32 861.157 2028.93 858.402 2020.66 852.892C1980.72 828.099 1991.74 767.493 2046.83 778.512L2055.1 781.267L2063.36 786.777L2063.34 810.212ZM2106.06 907.989H2084.02V778.512H2106.06V907.989ZM2174.93 910.763C2095.04 902.479 2117.1 750.964 2194.23 779.89C2236.91 796.419 2234.18 869.441 2206.61 898.347C2196.97 906.611 2185.95 909.366 2174.93 910.763ZM2174.93 803.325C2129.48 807.457 2141.87 901.121 2187.33 880.46C2214.88 863.912 2212.12 806.061 2174.93 803.325ZM2337.47 907.989H2319.56L2269.97 825.344V907.989H2246.54V778.512H2267.2L2315.43 857.025V778.512H2337.45L2337.47 907.989Z" fill="#334E68"/>
</g>
<defs>
<clipPath id="clip0_20_2442">
<rect width="2500" height="911" fill="white"/>
</clipPath>
</defs>
</svg>
