<svg width="842" height="596" viewBox="0 0 842 596" fill="none" xmlns="http://www.w3.org/2000/svg">
<path d="M359.45 416.66L359.36 438.21L360.93 438.48C365.873 439.4 370.865 440.041 375.88 440.4C380.271 440.801 384.686 440.888 389.09 440.66C393.299 440.353 397.459 439.568 401.49 438.32C406.221 436.979 410.61 434.64 414.36 431.46C417.732 428.578 420.31 424.88 421.85 420.72C424.532 413.753 424.478 406.029 421.7 399.1C420.235 395.505 417.931 392.313 414.98 389.79C412.124 387.223 408.771 385.27 405.13 384.05L388.88 378.05C386.939 377.224 385.365 375.72 384.45 373.82C384.096 373.041 383.927 372.189 383.959 371.334C383.99 370.478 384.22 369.641 384.63 368.89C384.919 368.355 385.283 367.863 385.71 367.43C386.211 366.93 386.768 366.491 387.37 366.12C387.61 365.97 387.86 365.83 388.11 365.7C389.923 364.791 391.884 364.215 393.9 364C397.338 363.504 400.832 363.538 404.26 364.1C408.304 364.541 412.314 365.259 416.26 366.25L417.1 366.44V346.57L415.55 346.24C411.524 345.27 407.443 344.542 403.33 344.06C398.002 343.352 392.604 343.328 387.27 343.99C380.51 344.612 374.079 347.199 368.77 351.43C365.174 354.254 362.438 358.025 360.87 362.32C358.523 368.866 358.523 376.024 360.87 382.57C362.089 385.82 364.032 388.751 366.55 391.14C368.74 393.247 371.214 395.038 373.9 396.46C377.437 398.366 381.191 399.84 385.08 400.85C386.37 401.24 387.64 401.64 388.91 402.07L390.83 402.78L391.39 403C393.284 403.68 395.015 404.75 396.47 406.14C397.48 407.088 398.26 408.254 398.75 409.55C399.05 410.738 399.05 411.982 398.75 413.17C398.148 415.087 396.815 416.689 395.04 417.63C393.101 418.631 391.003 419.287 388.84 419.57C385.666 420.07 382.448 420.231 379.24 420.05C375.035 419.729 370.852 419.172 366.71 418.38C364.543 417.933 362.39 417.43 360.25 416.87L359.45 416.66Z" fill="#334E68"/>
<path d="M271.13 437.42V412.42L270.64 412.64C265.01 415.364 258.887 416.918 252.64 417.21C246.141 417.723 239.681 415.818 234.5 411.86C230.792 409.006 228.037 405.093 226.6 400.64C225.002 395.792 224.818 390.589 226.07 385.64C227.215 380.584 230.034 376.063 234.07 372.81C237.666 369.806 242.057 367.913 246.71 367.36C254.935 366.449 263.245 368.009 270.58 371.84L271.12 372.12V347L269.98 346.69C262.637 344.324 254.926 343.307 247.22 343.69C240.201 343.869 233.289 345.45 226.89 348.34C220.435 351.301 214.743 355.7 210.25 361.2C203.421 369.839 199.631 380.489 199.466 391.501C199.302 402.512 202.772 413.27 209.34 422.11C215.988 430.601 225.314 436.593 235.8 439.11C246.856 441.799 258.439 441.395 269.28 437.94L271.12 437.43" fill="#334E68"/>
<path d="M327.38 439.08V345.27H303.73V439.08H327.38Z" fill="#334E68"/>
<path d="M677.45 428.18V426.76H667.44V428.18H671.6V439.08H673.28V428.18H677.45Z" fill="#334E68"/>
<path d="M678.42 439.08H680.02V429.24H680.23L683.83 439.08H685.43L689.32 428.77V439.08H691V426.76H688.4L684.75 436.9L681.06 426.76H678.42V439.08Z" fill="#334E68"/>
<path d="M151 269.88C151.228 272.825 152.559 275.576 154.727 277.583C156.895 279.59 159.741 280.704 162.695 280.704C165.649 280.704 168.495 279.59 170.663 277.583C172.831 275.576 174.162 272.825 174.39 269.88V243.88C174.301 240.837 173.03 237.949 170.846 235.829C168.663 233.708 165.739 232.522 162.695 232.522C159.651 232.522 156.727 233.708 154.544 235.829C152.36 237.949 151.089 240.837 151 243.88V269.88Z" fill="#334E68"/>
<path d="M215.75 269.88C215.962 272.838 217.287 275.606 219.458 277.627C221.628 279.648 224.484 280.772 227.45 280.772C230.416 280.772 233.272 279.648 235.442 277.627C237.613 275.606 238.938 272.838 239.15 269.88V211.6C239.025 208.581 237.738 205.726 235.557 203.634C233.377 201.542 230.472 200.374 227.45 200.374C224.428 200.374 221.523 201.542 219.343 203.634C217.162 205.726 215.875 208.581 215.75 211.6V269.88Z" fill="#334E68"/>
<path d="M280.16 293.36C280.388 296.306 281.719 299.056 283.887 301.063C286.055 303.07 288.901 304.185 291.855 304.185C294.809 304.185 297.655 303.07 299.823 301.063C301.991 299.056 303.322 296.306 303.55 293.36V167.29C303.461 164.248 302.19 161.36 300.006 159.239C297.823 157.118 294.899 155.932 291.855 155.932C288.811 155.932 285.887 157.118 283.704 159.239C281.52 161.36 280.249 164.248 280.16 167.29V293.36Z" fill="#334E68"/>
<path d="M344.9 269.88C345.128 272.825 346.459 275.576 348.627 277.583C350.795 279.59 353.641 280.704 356.595 280.704C359.549 280.704 362.395 279.59 364.563 277.583C366.731 275.576 368.062 272.825 368.29 269.88V211.6C368.201 208.557 366.93 205.669 364.746 203.549C362.563 201.428 359.639 200.242 356.595 200.242C353.551 200.242 350.627 201.428 348.444 203.549C346.26 205.669 344.989 208.557 344.9 211.6V269.88Z" fill="#334E68"/>
<path d="M409.36 269.88C409.588 272.825 410.919 275.576 413.087 277.583C415.255 279.59 418.101 280.704 421.055 280.704C424.009 280.704 426.855 279.59 429.023 277.583C431.191 275.576 432.522 272.825 432.75 269.88V243.88C432.661 240.837 431.39 237.949 429.206 235.829C427.023 233.708 424.099 232.522 421.055 232.522C418.011 232.522 415.087 233.708 412.904 235.829C410.72 237.949 409.449 240.837 409.36 243.88V269.88Z" fill="#334E68"/>
<path d="M474.05 269.88C474.278 272.825 475.609 275.576 477.777 277.583C479.945 279.59 482.791 280.704 485.745 280.704C488.699 280.704 491.545 279.59 493.713 277.583C495.881 275.576 497.212 272.825 497.44 269.88V211.6C497.351 208.557 496.08 205.669 493.896 203.549C491.713 201.428 488.789 200.242 485.745 200.242C482.701 200.242 479.777 201.428 477.594 203.549C475.41 205.669 474.139 208.557 474.05 211.6V269.88Z" fill="#334E68"/>
<path d="M538.48 293.36C538.708 296.306 540.039 299.056 542.207 301.063C544.375 303.07 547.221 304.185 550.175 304.185C553.129 304.185 555.975 303.07 558.143 301.063C560.311 299.056 561.642 296.306 561.87 293.36V167.29C561.781 164.248 560.51 161.36 558.326 159.239C556.143 157.118 553.219 155.932 550.175 155.932C547.131 155.932 544.207 157.118 542.024 159.239C539.84 161.36 538.569 164.248 538.48 167.29V293.36Z" fill="#334E68"/>
<path d="M603.12 269.88C603.348 272.825 604.679 275.576 606.847 277.583C609.015 279.59 611.861 280.704 614.815 280.704C617.769 280.704 620.615 279.59 622.783 277.583C624.951 275.576 626.282 272.825 626.51 269.88V211.6C626.421 208.557 625.15 205.669 622.966 203.549C620.783 201.428 617.859 200.242 614.815 200.242C611.771 200.242 608.847 201.428 606.664 203.549C604.48 205.669 603.209 208.557 603.12 211.6V269.88Z" fill="#334E68"/>
<path d="M667.61 269.88C667.838 272.825 669.169 275.576 671.337 277.583C673.505 279.59 676.351 280.704 679.305 280.704C682.259 280.704 685.105 279.59 687.273 277.583C689.441 275.576 690.772 272.825 691 269.88V243.88C690.911 240.837 689.64 237.949 687.456 235.829C685.273 233.708 682.349 232.522 679.305 232.522C676.261 232.522 673.337 233.708 671.154 235.829C668.97 237.949 667.699 240.837 667.61 243.88V269.88Z" fill="#334E68"/>
<path d="M518.27 437.42V412.42L517.78 412.64C512.15 415.364 506.027 416.918 499.78 417.21C493.282 417.721 486.824 415.82 481.64 411.87C477.934 409.007 475.177 405.094 473.73 400.64C472.139 395.791 471.955 390.59 473.2 385.64C474.358 380.577 477.195 376.055 481.25 372.81C484.845 369.805 489.237 367.911 493.89 367.36C502.115 366.451 510.424 368.011 517.76 371.84L518.3 372.12V347L517.16 346.69C509.817 344.324 502.106 343.307 494.4 343.69C487.359 343.854 480.422 345.428 474 348.32C467.543 351.279 461.851 355.678 457.36 361.18C450.531 369.819 446.741 380.469 446.576 391.481C446.412 402.492 449.882 413.25 456.45 422.09C463.098 430.581 472.424 436.573 482.91 439.09C493.966 441.779 505.549 441.375 516.39 437.92L518.23 437.41" fill="#334E68"/>
<path d="M543.19 392.21C543.304 399.531 545.045 406.734 548.287 413.298C551.529 419.863 556.19 425.624 561.934 430.164C567.677 434.705 574.359 437.91 581.495 439.549C588.63 441.188 596.041 441.219 603.19 439.64C612.795 437.837 621.624 433.154 628.503 426.212C635.382 419.271 639.986 410.4 641.702 400.779C643.418 391.158 642.165 381.243 638.11 372.351C634.055 363.459 627.389 356.012 619 351C611.55 346.389 603.014 343.831 594.256 343.585C585.499 343.338 576.832 345.412 569.135 349.597C561.438 353.782 554.985 359.928 550.43 367.412C545.875 374.896 543.381 383.451 543.2 392.21M577.53 373C581.991 369.436 587.55 367.528 593.26 367.603C598.97 367.678 604.477 369.731 608.843 373.411C613.209 377.092 616.164 382.172 617.204 387.787C618.243 393.402 617.304 399.203 614.545 404.203C611.787 409.203 607.38 413.092 602.076 415.206C596.771 417.321 590.898 417.531 585.456 415.8C580.014 414.069 575.341 410.505 572.233 405.715C569.125 400.925 567.773 395.205 568.41 389.53C568.769 386.311 569.76 383.194 571.325 380.357C572.89 377.521 574.998 375.021 577.53 373Z" fill="#334E68"/>
</svg>
