<svg width="566" height="237" viewBox="0 0 566 237" fill="none" xmlns="http://www.w3.org/2000/svg">
<g clip-path="url(#clip0_20_1453)">
<path d="M181.777 43.664H12.3922V12.2726H181.777V43.664ZM193.879 0.151855H0.283691V55.7541H193.879V0.151855Z" fill="#334E68"/>
<path d="M12.3921 147.688H0.290527V92.0704H12.3921V114.041H34.014V92.0704H46.1156V147.688H34.014V124.647H12.3921V147.688Z" fill="#334E68"/>
<path d="M64.5575 123.14H78.972C78.7035 119.051 77.0158 116.201 72.2979 116.201C68.7384 116.201 65.6238 117.716 64.5575 123.14ZM73.7209 148.405C61.4429 148.405 53.0811 140.665 53.0811 127.95C53.0811 115.579 61.2664 107.041 72.1214 107.041C83.9546 107.041 89.827 114.958 89.827 126.791V131.241H64.5575C65.9843 137.374 70.7866 138.973 75.5928 138.973C79.7737 138.973 82.7962 138.087 86.5322 135.77H86.9809V144.934C83.7781 147.251 79.2367 148.405 73.7209 148.405Z" fill="#334E68"/>
<path d="M121.326 124.367L115.097 147.673H104.51L92.4087 108.549V108.104H103.977L110.559 131.502L116.788 108.104H126.22L132.538 131.502L139.212 108.104H150.335V108.549L138.234 147.673H127.643L121.326 124.367Z" fill="#334E68"/>
<path d="M169.809 148.302C160.2 148.302 156.284 144.478 156.284 135.494V91.8058H168.029V134.689C168.029 137.447 169.095 138.425 171.408 138.425C172.21 138.425 173.368 138.16 174.078 137.892H174.258V147.588C173.28 147.941 171.589 148.298 169.809 148.298" fill="#334E68"/>
<path d="M189.141 123.14H203.555C203.287 119.051 201.599 116.201 196.881 116.201C193.326 116.201 190.207 117.716 189.141 123.14ZM198.304 148.405C186.026 148.405 177.665 140.665 177.665 127.95C177.665 115.579 185.85 107.041 196.705 107.041C208.538 107.041 214.411 114.958 214.411 126.791V131.241H189.141C190.564 137.374 195.37 138.973 200.172 138.973C204.357 138.973 207.38 138.087 211.119 135.77H211.564V144.934C208.362 147.251 203.824 148.405 198.304 148.405Z" fill="#334E68"/>
<path d="M262.786 108.104H271.505V117.532H262.786V133.634C262.786 137.106 264.121 138.709 267.681 138.709C268.659 138.709 269.906 138.617 271.24 138.172H271.505V147.424C269.994 147.961 267.681 148.578 264.302 148.578C254.778 148.578 251.042 144.221 251.042 134.167V117.532H236.006V133.634C236.006 137.106 237.34 138.709 240.896 138.709C241.878 138.709 243.125 138.617 244.46 138.172H244.724V147.424C243.213 147.961 240.896 148.578 237.521 148.578C227.997 148.578 224.261 144.221 224.261 134.167V117.532H218.208V108.104H224.261V97.2527H236.006V108.104H251.042V97.2527H262.786V108.104Z" fill="#334E68"/>
<path d="M310.963 119.15C317.108 119.15 320.038 115.683 320.038 110.7C320.038 105.537 317.108 102.07 310.963 102.07H303.311V119.15H310.963ZM332.32 110.7C332.32 122.802 324.223 129.38 311.941 129.38H303.311V147.438H291.217V91.8209H311.941C324.223 91.8209 332.32 98.4029 332.32 110.681" fill="#334E68"/>
<path d="M358.218 135.107V131.728C356.439 130.753 354.13 130.397 351.725 130.397C347.9 130.397 345.587 131.816 345.587 135.019C345.587 138.314 347.9 139.737 351.368 139.737C354.659 139.737 357.152 138.045 358.218 135.107ZM358.575 143.649C355.994 146.764 352.173 148.275 348.073 148.275C340.336 148.275 334.015 143.565 334.015 135.195C334.015 127.459 340.336 122.3 349.408 122.3C352.254 122.3 355.196 122.745 358.218 123.631V122.925C358.218 118.652 355.817 116.788 349.504 116.788C345.495 116.788 341.671 117.938 338.376 119.81H337.935V110.378C340.958 108.602 346.301 107.087 351.544 107.087C363.469 107.087 369.963 112.779 369.963 122.745V147.561H358.575V143.649Z" fill="#334E68"/>
<path d="M375.709 127.742C375.709 115.019 384.7 107.014 396.445 107.014C400.626 107.014 404.538 107.904 407.476 110.037V120.09H407.027C404.446 118.134 401.423 116.976 397.956 116.976C392.084 116.976 387.634 120.984 387.634 127.742C387.634 134.501 392.084 138.417 397.956 138.417C401.423 138.417 404.446 137.259 407.027 135.299H407.476V145.352C404.538 147.489 400.626 148.378 396.445 148.378C384.7 148.378 375.709 140.465 375.709 127.742Z" fill="#334E68"/>
<path d="M426.647 129.583V147.55H414.906V91.9322H426.647V123.6L438.484 107.942H451.829V108.387L437.594 126.358L451.829 147.086V147.531H438.392L426.647 129.564" fill="#334E68"/>
<path d="M478.199 135.107V131.728C476.423 130.753 474.106 130.397 471.705 130.397C467.881 130.397 465.568 131.816 465.568 135.019C465.568 138.314 467.881 139.737 471.345 139.737C474.643 139.737 477.133 138.045 478.199 135.107ZM478.556 143.649C475.974 146.764 472.146 148.275 468.057 148.275C460.313 148.275 454 143.565 454 135.195C454 127.459 460.313 122.3 469.396 122.3C472.242 122.3 475.173 122.745 478.199 123.631V122.925C478.199 118.652 475.798 116.788 469.48 116.788C465.48 116.788 461.648 117.938 458.357 119.81H457.912V110.378C460.938 108.602 466.278 107.087 471.525 107.087C483.454 107.087 489.948 112.779 489.948 122.745V147.561H478.556V143.649Z" fill="#334E68"/>
<path d="M509.805 114.241C511.938 109.88 515.056 107.39 519.417 107.39C521.017 107.39 522.616 107.747 523.234 108.104V119.312H522.793C521.458 118.775 519.859 118.422 517.634 118.422C513.986 118.422 511.14 120.558 510.158 124.647V147.423H498.417V107.839H509.805V114.245" fill="#334E68"/>
<path d="M554.299 134.186V121.463C552.343 118.617 549.765 117.374 546.823 117.374C541.668 117.374 538.197 121.114 538.197 127.873C538.197 134.631 541.668 138.279 546.823 138.279C549.765 138.279 552.343 137.032 554.299 134.186ZM554.652 143.53C552.162 146.733 548.246 148.509 542.911 148.509C532.765 148.509 526.271 139.261 526.271 127.873C526.271 116.485 532.765 107.145 542.911 107.145C548.07 107.145 551.806 108.748 554.299 111.682V92.0243H566.044V147.604H554.652V143.515" fill="#334E68"/>
<path d="M0.424805 165.793H34.7696V172.551H8.16524V189.539H32.2764V196.125H8.16524V214.629H34.7696V221.387H0.424805V165.808" fill="#334E68"/>
<path d="M63.0231 181.442C71.8299 181.442 76.7242 187.226 76.7242 196.739V221.383H69.3405V196.919C69.3405 191.848 66.7591 188.201 61.1552 188.201C56.5293 188.201 52.6131 191.139 51.2782 195.316V221.383H43.8945V182.259H51.2782V187.951C53.5912 184.304 57.5074 181.458 63.0231 181.458" fill="#334E68"/>
<path d="M96.4708 182.056H106.524V188.373H96.4708V209.454C96.4708 213.9 98.7837 215.415 102.965 215.415C104.119 215.415 105.366 215.239 106.256 214.882H106.524V221.195C105.458 221.64 103.943 221.997 101.898 221.997C92.7309 221.997 89.087 217.812 89.087 210.168V188.373H82.3247V182.056H89.087V171.654H96.4708V182.056Z" fill="#334E68"/>
<path d="M118.871 198.013H138.356C138.092 192.232 135.242 187.787 129.193 187.787C123.589 187.787 119.937 191.967 118.871 198.013ZM130.528 222.212C119.047 222.212 111.219 214.56 111.219 202.285C111.219 190.007 118.514 181.469 129.105 181.469C139.871 181.469 145.475 189.21 145.475 200.682V204.065H118.602C119.404 211.982 124.479 215.806 131.506 215.806C135.867 215.806 138.978 214.828 142.449 212.247H142.717V218.744C139.515 221.234 135.33 222.212 130.528 222.212Z" fill="#334E68"/>
<path d="M161.831 188.193C163.523 184.012 167.262 181.523 171.528 181.523C173.223 181.523 174.734 181.788 175.356 182.144V189.436H175.091C174.021 188.907 172.241 188.638 170.461 188.638C166.461 188.638 163.078 191.304 161.831 195.753V221.284H154.447V182.16H161.831V188.208" fill="#334E68"/>
<path d="M198.96 215.503C206.256 215.503 210.529 209.723 210.529 201.802C210.529 193.977 206.256 188.109 198.96 188.109C194.956 188.109 191.22 190.51 189.264 194.33V209.37C191.22 213.19 194.956 215.503 198.96 215.503ZM200.207 181.435C211.86 181.435 218.089 190.955 218.089 201.802C218.089 212.661 211.86 222.177 200.207 222.177C195.401 222.177 191.308 219.688 189.264 217.015V236.412H181.876V182.252H189.264V186.697C191.308 183.939 195.401 181.45 200.207 181.45" fill="#334E68"/>
<path d="M234.249 188.193C235.937 184.012 239.676 181.523 243.946 181.523C245.637 181.523 247.148 181.788 247.77 182.144V189.436H247.505C246.439 188.907 244.659 188.638 242.879 188.638C238.875 188.638 235.496 191.304 234.249 195.753V221.284H226.865V182.16H234.249V188.208" fill="#334E68"/>
<path d="M258.49 166.407C261.072 166.407 263.204 168.451 263.204 171.032C263.204 173.614 261.072 175.658 258.49 175.658C256.001 175.658 253.772 173.614 253.772 171.032C253.772 168.451 256.001 166.407 258.49 166.407Z" fill="#334E68"/>
<path d="M254.808 221.333H262.197V182.179H254.808V221.333Z" fill="#334E68"/>
<path d="M288.562 198.319C294.166 200.095 300.392 202.408 300.392 209.88C300.392 217.889 293.81 221.981 285.36 221.981C280.197 221.981 275.038 220.735 272.1 218.422V211.395H272.456C275.751 214.417 280.642 215.752 285.268 215.752C289.448 215.752 293.188 214.149 293.188 210.77C293.188 207.302 290.078 206.501 283.933 204.456C278.417 202.676 272.28 200.628 272.28 193.248C272.28 185.684 278.505 181.239 286.426 181.239C291.052 181.239 295.144 182.217 298.435 184.441V191.561H298.171C294.972 188.979 291.228 187.464 286.602 187.464C281.977 187.464 279.395 189.512 279.395 192.27C279.395 195.385 282.241 196.271 288.562 198.319Z" fill="#334E68"/>
<path d="M314.338 198.013H333.82C333.555 192.232 330.709 187.787 324.656 187.787C319.052 187.787 315.405 191.967 314.338 198.013ZM325.991 222.212C314.515 222.212 306.686 214.56 306.686 202.285C306.686 190.007 313.982 181.469 324.568 181.469C335.339 181.469 340.939 189.21 340.939 200.682V204.065H314.07C314.871 211.982 319.942 215.806 326.969 215.806C331.334 215.806 334.445 214.828 337.912 212.247H338.181V218.744C334.982 221.234 330.797 222.212 325.991 222.212Z" fill="#334E68"/>
</g>
<defs>
<clipPath id="clip0_20_1453">
<rect width="565.795" height="236.296" fill="white"/>
</clipPath>
</defs>
</svg>
