<svg width="790" height="180" viewBox="0 0 790 180" fill="none" xmlns="http://www.w3.org/2000/svg">
<path d="M668.5 22.8998C660.6 22.8998 653.3 25.1998 647.2 29.1998V23.2998C646.5 7.4998 633.6 2.3998 630.2 0.799805H629.8V99.0998C629.8 99.0998 641.4 97.8998 645.7 91.4998C652.1 96.0998 659.9 98.8998 668.5 98.8998C689.9 98.8998 707.2 81.8998 707.2 60.9998C707.2 40.0998 689.8 22.8998 668.5 22.8998ZM668.5 81.7998C656.6 81.7998 647 72.3998 647 60.7998C647 49.1998 656.6 39.7998 668.5 39.7998C680.4 39.7998 689.9 49.1998 689.9 60.7998C689.9 72.3998 680.2 81.7998 668.5 81.7998ZM750.2 22.8998C728.8 22.8998 711.5 39.8998 711.5 60.7998C711.5 81.6998 728.8 98.6998 750.2 98.6998C759 98.6998 767.2 95.7998 773.7 90.8998C777.7 97.4998 788.9 98.6998 788.9 98.6998V60.7998C789 39.8998 771.5 22.8998 750.2 22.8998ZM750.2 81.7998C738.3 81.7998 728.7 72.3998 728.7 60.7998C728.7 49.1998 738.3 39.7998 750.2 39.7998C762.1 39.7998 771.6 49.1998 771.6 60.7998C771.6 72.3998 762 81.7998 750.2 81.7998ZM441.8 22.8998C420.5 22.8998 403.1 39.8998 403.1 60.7998C403.1 81.6998 420.4 98.6998 441.8 98.6998C450.7 98.6998 458.8 95.7998 465.3 90.8998C469.3 97.4998 480.5 98.6998 480.5 98.6998V60.7998C480.4 39.8998 463.1 22.8998 441.8 22.8998ZM441.8 81.7998C430 81.7998 420.4 72.3998 420.4 60.7998C420.4 49.1998 430 39.7998 441.8 39.7998C453.6 39.7998 463.3 49.1998 463.3 60.7998C463.3 72.3998 453.5 81.7998 441.8 81.7998ZM526.6 22.8998C531.5 22.8998 536.2 23.7998 540.5 25.3998V45.3998C536.8 42.1998 531.9 40.2998 526.6 40.2998C514.9 40.2998 505.5 49.5998 505.5 60.9998V98.6998H487.7V29.8998C487.7 29.8998 495 30.1998 499.7 33.4998C506.8 26.9998 516.2 22.7998 526.6 22.8998ZM622 60.6998C621.9 81.6998 605.3 98.6998 585 98.6998C564.7 98.6998 548 81.6998 547.9 60.6998V28.2998C547.9 28.2998 565.5 32.6998 565.7 51.6998V60.4998C565.7 71.9998 574.3 81.2998 584.9 81.2998C595.5 81.2998 604.1 71.9998 604.1 60.4998V42.0998C604.8 26.2998 618.1 21.1998 621.5 19.5998H621.9L622 60.6998Z" fill="#334E68"/>
<path d="M131 20.6997V163.5H93.5V107H38.5V163.5H1V20.6997H38.4V74.8997H93.5V20.6997H131ZM225.7 70.8997C225.7 81.5997 219.7 88.7997 206.2 88.7997H184.6V52.9997H206.2C219.7 52.9997 225.7 60.1997 225.7 70.8997ZM210.1 120C241.1 120 262 102.8 262 70.8997C262 38.9997 241 21.5997 210.1 21.5997H147.6V164.4H184.6V120H210.1ZM272.6 21.5997V164.4H374.7V132.1H309.4V107.4H369.2V75.9997H309.4V53.6997H374.7V21.5997H272.6Z" fill="#334E68"/>
<path d="M413.6 126.3V129.8C415.6 127.4 419.4 125.5 423.8 125.5C432.4 125.5 437.3 131.1 437.3 139.6V164.5H426.7V141.9C426.7 137.9 424.7 135.2 420.5 135.2C417.3 135.2 414.5 137.2 413.6 140.5V164.6H403V126.5L413.6 126.3ZM454.6 147.8C455.4 154 460 156.6 465.6 156.6C469.8 156.6 472.8 155.7 476.5 153.3V162C473.3 164.3 469.1 165.3 464 165.3C452.4 165.3 444.5 157.8 444.5 145.7C444.5 133.8 452 125.5 462.4 125.5C473.5 125.5 479.2 133.2 479.2 144.4V147.8H454.6ZM454.9 140.9H469.3C469.1 136.8 466.8 133.9 462.6 133.9C459.1 133.9 456.1 136.1 454.9 140.9ZM490.9 164.4V134.8H483.7V126.3H490.9V116H501.5V126.3H509.6V134.8H501.5V164.4H490.9ZM558.1 126.3H568.3L556.7 164.4H547L540.8 141.1L534.6 164.4H524.9L513.3 126.3H523.9L530.7 150.6L536.9 126.3H545L551.3 150.6L558.1 126.3ZM590.8 165.2C579.7 165.2 572.1 157 572.1 145.4C572.1 133.6 579.7 125.5 590.8 125.5C601.9 125.5 609.5 133.7 609.5 145.4C609.5 157.1 601.8 165.2 590.8 165.2ZM590.8 134.4C585.5 134.4 582.6 139 582.6 145.4C582.6 151.7 585.5 156.3 590.8 156.3C596.1 156.3 599 151.7 599 145.4C599 139 596 134.4 590.8 134.4ZM640.1 136.7C638.6 135.8 636.8 135.4 634.8 135.4C631.2 135.4 628.3 137.3 627.6 140.8V164.4H617V126.3H627.6V130.1C629.2 127.4 632.4 125.5 636.1 125.5C637.9 125.5 639.5 125.8 640.1 126.2V136.7ZM672 164.4L658.3 146.9V164.4H647.7V109H658.3V141.4L671.3 126.3H684L668.2 143.8L684.4 164.4H672ZM695.1 121.4C691.7 121.4 688.8 118.9 688.8 115.3C688.8 111.8 691.7 109.2 695.1 109.2C698.4 109.2 701.3 111.8 701.3 115.3C701.3 118.9 698.5 121.4 695.1 121.4ZM689.8 164.4V126.3H700.4V164.4H689.8ZM721 126.3V129.8C723 127.4 726.8 125.5 731.2 125.5C739.8 125.5 744.7 131.1 744.7 139.6V164.5H734.1V141.9C734.1 137.9 732.1 135.2 727.9 135.2C724.7 135.2 721.9 137.2 721 140.5V164.6H710.4V126.5L721 126.3ZM778.3 160C776.6 162 773.3 163.8 769 163.8C758 163.8 751.8 154.9 751.8 144.6C751.8 134.2 758 125.4 769 125.4C773.3 125.4 776.6 127.3 778.3 129.2V126.2H788.9V160.1C788.9 174.1 778.6 179.2 768.2 179.2C763 179.2 758.2 177.9 755.1 176V165.6C759 169 763.1 170.3 768 170.3C773.7 170.3 778.3 167.4 778.3 161.2V160ZM778.3 138.2C777.1 136.1 774.4 134.3 771.2 134.3C765.6 134.3 762.3 138.6 762.3 144.7C762.3 150.7 765.5 155 771.2 155C774.4 155 777.1 153.3 778.3 151.1V138.2Z" fill="#334E68"/>
</svg>
