<svg width="400" height="295" viewBox="0 0 400 295" fill="none" xmlns="http://www.w3.org/2000/svg">
<path d="M227.53 7.20996L226.25 7.70996" stroke="#334E68" stroke-width="2"/>
<path d="M226.25 7.71009C220.077 7.13675 213.897 7.03342 207.71 7.40009C206.93 7.45009 206.15 7.99009 205.5 7.21009" stroke="#334E68" stroke-width="2"/>
<path d="M264.82 30.8899C258.573 24.1033 251.543 18.5366 243.73 14.1899" stroke="#334E68" stroke-width="2"/>
<path d="M243.73 14.19C240.837 12.59 237.927 11.43 235 10.71" stroke="#334E68" stroke-width="2"/>
<path d="M226.25 7.70996L235 10.71" stroke="#334E68" stroke-width="2"/>
<path d="M235 10.71C235.053 11.9366 234.783 12.8466 234.19 13.44C218.863 28.7066 203.537 43.9766 188.21 59.25" stroke="#334E68" stroke-width="2"/>
<path d="M188.21 59.2501C187.897 59.1167 187.743 58.8867 187.75 58.5601C187.997 43.8134 187.843 29.0634 187.29 14.3101" stroke="#334E68" stroke-width="2"/>
<path d="M243.73 14.1899L243.96 59.2499" stroke="#334E68" stroke-width="2"/>
<path d="M243.96 59.25L243.75 59.96" stroke="#334E68" stroke-width="2"/>
<path d="M243.75 59.9602C225.67 59.9002 207.593 59.9769 189.52 60.1902C189.36 60.1902 189.46 60.1702 189.25 60.2902" stroke="#334E68" stroke-width="2"/>
<path d="M189.25 60.29L188.21 59.25" stroke="#334E68" stroke-width="2"/>
<path d="M274.36 46.02C274.76 48.44 275.64 50.67 277 52.71M277.29 53.5L277.14 53.96C277.068 54.1675 277.065 54.3918 277.13 54.6L278.46 58.59" stroke="#334E68" stroke-width="2"/>
<path d="M278.46 58.5898C277.44 59.7165 276.27 60.1832 274.95 59.9898C269.9 59.2598 246.1 61.2898 243.96 59.2498" stroke="#334E68" stroke-width="2"/>
<path d="M205 7.29004V7.49004C205 7.53713 204.975 7.58496 204.927 7.62517C204.88 7.66538 204.813 7.69542 204.74 7.71004C198.22 8.98337 192.403 11.1834 187.29 14.31" stroke="#334E68" stroke-width="2"/>
<path d="M187.29 14.3101C185.044 15.1167 183.697 15.6801 183.25 16.0001C177.05 20.4801 171.24 25.4367 165.82 30.8701" stroke="#334E68" stroke-width="2"/>
<path d="M189.25 60.29L189.56 61.51C189.606 61.6865 189.699 61.8458 189.83 61.97L240.99 113.01C241.548 113.575 242.288 113.947 243.1 114.07C243.68 114.163 243.827 114.807 243.54 116" stroke="#334E68" stroke-width="2"/>
<path d="M243.54 116L243.46 116.25" stroke="#334E68" stroke-width="2"/>
<path d="M243.46 116.25L188.04 116" stroke="#334E68" stroke-width="2"/>
<path d="M188.04 116L187.79 115.75" stroke="#334E68" stroke-width="2"/>
<path d="M187.79 115.75L187.67 60.75" stroke="#334E68" stroke-width="2"/>
<path d="M187.67 60.75L186.75 59.46" stroke="#334E68" stroke-width="2"/>
<path d="M186.75 59.46L163.69 35.95C163.571 35.828 163.485 35.6775 163.441 35.5128C163.398 35.3481 163.397 35.1749 163.44 35.01L164 32.71" stroke="#334E68" stroke-width="2"/>
<path d="M280.5 65.71C279.614 67.0233 279.864 67.69 281.25 67.71" stroke="#334E68" stroke-width="2"/>
<path d="M296.5 68.5403L290.85 68.4703C290.648 68.4675 290.449 68.5274 290.281 68.6418C290.113 68.7562 289.984 68.9197 289.91 69.1103C289.37 70.497 288.823 71.467 288.27 72.0203C273.723 86.627 259.063 101.12 244.29 115.5" stroke="#334E68" stroke-width="2"/>
<path d="M244.29 115.5L244.04 115.25" stroke="#334E68" stroke-width="2"/>
<path d="M244.04 115.25C243.607 97.0033 243.62 78.7533 244.08 60.5C244.087 60.2133 243.977 60.0333 243.75 59.96" stroke="#334E68" stroke-width="2"/>
<path d="M244.04 115.25L243.54 116" stroke="#334E68" stroke-width="2"/>
<path d="M280.25 64.5398L278.46 58.5898" stroke="#334E68" stroke-width="2"/>
<path d="M187.67 60.75C186.42 61.76 185.33 62.21 184.26 63.27C167.007 80.51 149.753 97.7333 132.5 114.94" stroke="#334E68" stroke-width="2"/>
<path d="M187.79 115.75L134.27 116C134.135 116.003 134.002 116.04 133.883 116.109C133.765 116.177 133.664 116.273 133.59 116.39C133.377 116.743 133.013 116.877 132.5 116.79" stroke="#334E68" stroke-width="2"/>
<path d="M132.5 116.79L131.75 116.46" stroke="#334E68" stroke-width="2"/>
<path d="M131.75 116.46L131.25 115.79" stroke="#334E68" stroke-width="2"/>
<path d="M186.75 59.46C185.55 59.69 184.29 60 183.07 60H131.25" stroke="#334E68" stroke-width="2"/>
<path d="M131.25 60C131.624 55.8 131.624 51.2167 131.25 46.25C131.177 45.3167 131.604 44.5734 132.53 44.02" stroke="#334E68" stroke-width="2"/>
<path d="M152 51.71C151 53.48 155.06 53.28 153.25 51.71" stroke="#334E68" stroke-width="2"/>
<path d="M300 116.29C300.32 133.777 300.387 151.267 300.2 168.76C300.19 169.69 299.31 170.98 301 171.29" stroke="#334E68" stroke-width="2"/>
<path d="M301 171.29L300.96 171.75" stroke="#334E68" stroke-width="2"/>
<path d="M300.96 171.75C300.07 172.7 319.45 191.29 321.5 193.29" stroke="#334E68" stroke-width="2"/>
<path d="M300.25 200.96C300.477 191.573 300.33 182.15 299.81 172.69" stroke="#334E68" stroke-width="2"/>
<path d="M299.81 172.69C299.75 172.457 299.633 172.227 299.46 172" stroke="#334E68" stroke-width="2"/>
<path d="M299.46 172C298.86 170.927 298.277 170.107 297.71 169.54C280.183 152.233 262.747 134.837 245.4 117.35C245.113 117.057 244.647 116.87 244 116.79" stroke="#334E68" stroke-width="2"/>
<path d="M244 116.79L243.5 116.46" stroke="#334E68" stroke-width="2"/>
<path d="M243.5 116.46L243.46 116.25" stroke="#334E68" stroke-width="2"/>
<path d="M188.04 116C187.527 139.933 187.453 157.52 187.82 168.76C187.98 173.65 190.43 169.49 191.41 168.5C208.717 151.113 226.08 133.767 243.5 116.46" stroke="#334E68" stroke-width="2"/>
<path d="M244 116.79C244.16 117.02 244.25 117.13 244.25 117.42C244.09 135.613 243.993 153.807 243.96 172" stroke="#334E68" stroke-width="2"/>
<path d="M243.96 172C226.14 172.16 208.32 172.26 190.5 172.3C189.747 172.3 188.997 172.38 188.25 172.54" stroke="#334E68" stroke-width="2"/>
<path d="M188.25 172.54L187.29 171.75" stroke="#334E68" stroke-width="2"/>
<path d="M187.29 171.75L132.5 116.79" stroke="#334E68" stroke-width="2"/>
<path d="M297.25 68.54C298.27 68.8267 299.153 69.29 299.9 69.93C300.01 70.0239 300.098 70.1405 300.158 70.2717C300.219 70.4029 300.25 70.5456 300.25 70.69L300.29 116" stroke="#334E68" stroke-width="2"/>
<path d="M300.29 116L300 116.29" stroke="#334E68" stroke-width="2"/>
<path d="M300 116.29C299.807 116.29 299.627 116.267 299.46 116.22C298.98 116.073 298.66 116 298.5 116C293.33 116 244.85 116.41 244.29 115.5" stroke="#334E68" stroke-width="2"/>
<path d="M131.25 60.0002C117.663 59.8936 104.08 59.9002 90.5 60.0202C89.4134 60.0269 88.5867 59.3502 88.02 57.9902" stroke="#334E68" stroke-width="2"/>
<path d="M131.25 60C131.81 62.96 131.25 66.63 131.25 68.68C131.257 82.6733 131.257 96.68 131.25 110.7C131.25 112.73 130.2 113.33 132.5 114.94" stroke="#334E68" stroke-width="2"/>
<path d="M132.5 114.94L131.25 115.79" stroke="#334E68" stroke-width="2"/>
<path d="M131.25 115.79L131 115.71" stroke="#334E68" stroke-width="2"/>
<path d="M131 115.71L83.37 68.1101C83.3236 68.0637 83.2665 68.0293 83.2038 68.0101C83.141 67.9909 83.0744 67.9875 83.01 68.0001L82.75 68.0401" stroke="#334E68" stroke-width="2"/>
<path d="M82.75 68.04L82.21 67.5" stroke="#334E68" stroke-width="2"/>
<path d="M131.75 116.46C130.87 116.78 131.31 117.41 131.32 118.06C131.653 136.053 131.63 154.047 131.25 172.04" stroke="#334E68" stroke-width="2"/>
<path d="M131.25 172.04L76.25 172.21" stroke="#334E68" stroke-width="2"/>
<path d="M76.25 172.21L76 171.96" stroke="#334E68" stroke-width="2"/>
<path d="M76.0001 171.96C75.8335 171.047 76.1501 170.473 76.9501 170.24C77.1168 170.193 77.2635 170.11 77.3901 169.99L128.97 118.4C129.107 118.269 129.28 118.176 129.47 118.13C130.73 117.85 130.99 117.237 130.25 116.29" stroke="#334E68" stroke-width="2"/>
<path d="M187.29 171.75C186.797 172.81 186.11 173.033 185.23 172.42C185.061 172.303 184.858 172.244 184.65 172.25L131.5 172.54" stroke="#334E68" stroke-width="2"/>
<path d="M131.5 172.54L131.25 172.04" stroke="#334E68" stroke-width="2"/>
<path d="M299.46 172L245.12 172.25C244.98 172.25 244.743 172.31 244.41 172.43C244.29 172.47 244.167 172.493 244.04 172.5" stroke="#334E68" stroke-width="2"/>
<path d="M244.04 172.5L243.96 172" stroke="#334E68" stroke-width="2"/>
<path d="M354.5 118.46C353.687 119.08 352.92 119.743 352.2 120.45C335.087 137.35 318.02 154.297 301 171.29" stroke="#334E68" stroke-width="2"/>
<path d="M355.21 123.24C356.63 131.027 356.833 137.55 355.82 142.81C355.04 146.857 354.613 149.42 354.54 150.5M354.46 151.75C353.593 152.344 353.453 153.094 354.04 154M353.97 154.44C352.05 156.347 351.14 158.62 351.24 161.26M345.23 172.06C331.11 172.307 316.97 172.35 302.81 172.19C302.43 172.184 301.813 172.037 300.96 171.75" stroke="#334E68" stroke-width="2"/>
<path d="M299.81 172.69L271.25 200.96" stroke="#334E68" stroke-width="2"/>
<path d="M271.25 200.96L263.26 199.94" stroke="#334E68" stroke-width="2"/>
<path d="M300 200.96L295.71 201.75" stroke="#334E68" stroke-width="2"/>
<path d="M295.71 201.75C293.877 201.57 292.127 201.85 290.46 202.59M279 202.71L271.25 200.96" stroke="#334E68" stroke-width="2"/>
<path d="M244.04 172.5L243.71 191.25" stroke="#334E68" stroke-width="2"/>
<path d="M200.07 208.7C196.643 208.173 193.357 208.607 190.21 210" stroke="#334E68" stroke-width="2"/>
<path d="M187.79 209.99L187.96 174" stroke="#334E68" stroke-width="2"/>
<path d="M188.25 172.54L187.96 174" stroke="#334E68" stroke-width="2"/>
<path d="M187.96 174C187.78 172.98 187.13 173.06 186.53 173.65C176.057 183.797 165.724 194.087 155.53 204.52C155.439 204.612 155.367 204.722 155.319 204.844C155.271 204.966 155.247 205.097 155.25 205.23V205.71" stroke="#334E68" stroke-width="2"/>
<path d="M155.25 205.71C153.63 205.25 139.05 199.88 139 199.96" stroke="#334E68" stroke-width="2"/>
<path d="M136.25 198.46L131.33 194.95C131.158 194.825 131.03 194.649 130.963 194.448C130.897 194.247 130.896 194.031 130.96 193.83C131.22 193.017 131.34 192.243 131.32 191.51C131.14 185.177 131.2 178.853 131.5 172.54" stroke="#334E68" stroke-width="2"/>
<path d="M353.79 115.75L300.29 116" stroke="#334E68" stroke-width="2"/>
<path d="M131 115.71L130.25 116.29" stroke="#334E68" stroke-width="2"/>
<path d="M130.25 116.29C126.13 115.68 121.14 116.25 118.17 116.27C103.877 116.363 89.5834 116.273 75.29 116" stroke="#334E68" stroke-width="2"/>
<path d="M75.29 116C75.4633 113.147 75.2833 110.327 74.75 107.54" stroke="#334E68" stroke-width="2"/>
<path d="M74.75 107.54C76.49 107.173 78.1933 106.68 79.86 106.06C80.63 105.78 80.8 105.12 79.75 104.96" stroke="#334E68" stroke-width="2"/>
<path d="M79.54 104.25L79.78 104.12C79.843 104.086 79.893 104.033 79.922 103.968C79.951 103.902 79.9573 103.829 79.94 103.76L78.79 99" stroke="#334E68" stroke-width="2"/>
<path d="M78.79 98.9999C78.97 97.2866 78.6166 95.7599 77.73 94.4199" stroke="#334E68" stroke-width="2"/>
<path d="M82.7503 68.04C80.3503 73.92 78.7703 80.0234 78.0103 86.35" stroke="#334E68" stroke-width="2"/>
<path d="M126.53 192.69C124.97 190.79 123.05 189.373 120.77 188.44" stroke="#334E68" stroke-width="2"/>
<path d="M76.2503 172.21C75.7769 172.23 75.7003 172.403 76.0203 172.73C82.8069 179.69 89.4303 186.353 95.8903 192.72C96.002 192.831 96.1382 192.915 96.2877 192.964C96.4371 193.012 96.5957 193.025 96.7503 193C103.717 191.907 110.54 190.213 117.22 187.92" stroke="#334E68" stroke-width="2"/>
<path d="M82.82 193.53L76.07 191.61C75.8872 191.559 75.7226 191.457 75.5952 191.318C75.4679 191.178 75.3829 191.005 75.35 190.82C74.43 185.43 75.48 179.18 74.96 172.75" stroke="#334E68" stroke-width="2"/>
<path d="M76 171.96L75.21 171.75" stroke="#334E68" stroke-width="2"/>
<path d="M295.79 202L295.71 201.75" stroke="#334E68" stroke-width="2"/>
<path d="M176.25 209.96C172.55 209.007 168.787 208.517 164.96 208.49" stroke="#414667" stroke-width="2"/>
<path d="M157 206.71L155.25 205.71" stroke="#334E68" stroke-width="2"/>
<path d="M78.79 99L78.29 99.5" stroke="#334E68" stroke-width="2"/>
<path d="M75.29 116L75.25 116.21" stroke="#334E68" stroke-width="2"/>
<path d="M74.7501 107.54C68.0968 108.813 61.8634 111.18 56.0501 114.64C54.3968 115.627 54.5334 116.123 56.4601 116.13L75.2501 116.21" stroke="#334E68" stroke-width="2"/>
<path d="M75.25 116.21L75.21 171.75" stroke="#334E68" stroke-width="2"/>
<path d="M75.21 171.75H75.04" stroke="#334E68" stroke-width="2"/>
<path d="M75.0401 171.75L36.6001 134.46" stroke="#334E68" stroke-width="2"/>
<path d="M74.32 191.81L64.04 187.96C63.9115 187.912 63.7728 187.897 63.6378 187.918C63.5027 187.939 63.3759 187.995 63.27 188.08L63 188.29" stroke="#334E68" stroke-width="2"/>
<path d="M75.04 171.75L74.96 172.75" stroke="#334E68" stroke-width="2"/>
<path d="M74.96 172.75L74.25 173.04" stroke="#334E68" stroke-width="2"/>
<path d="M74.25 173.04C69.81 171.83 64.68 172.52 61.42 172.41C57.46 172.28 45.91 171.17 43 173.54" stroke="#334E68" stroke-width="2"/>
<path d="M74.2503 173.04L60.8203 187.14" stroke="#334E68" stroke-width="2"/>
<path d="M227.53 7.20999L226.25 7.70999C220.076 7.13666 213.896 7.03332 207.71 7.39999C206.93 7.44999 206.15 7.98999 205.5 7.20999C205.606 6.61666 205.943 6.29999 206.51 6.25999C213.276 5.81332 220.283 6.12999 227.53 7.20999ZM205 7.28999V7.48999C205 7.53709 204.974 7.58491 204.927 7.62512C204.879 7.66533 204.813 7.69537 204.74 7.70999C198.22 8.98332 192.403 11.1833 187.29 14.31C185.043 15.1167 183.696 15.68 183.25 16C177.05 20.48 171.24 25.4367 165.82 30.87C174.046 20.2233 184.586 12.8833 197.44 8.84999C197.753 8.74999 198.066 8.59332 198.38 8.37999C198.598 8.23294 198.86 8.17556 199.11 8.21999C200.41 8.45332 201.583 8.18666 202.63 7.41999C202.812 7.29044 203.033 7.22374 203.26 7.22999L205 7.28999Z" fill="#334E68"/>
<path d="M205 7.29009L205.5 7.21009C206.15 7.99009 206.93 7.45009 207.71 7.40009C213.897 7.03342 220.077 7.13675 226.25 7.71009L235 10.7101C235.053 11.9368 234.783 12.8468 234.19 13.4401C218.863 28.7068 203.537 43.9768 188.21 59.2501C187.897 59.1168 187.743 58.8868 187.75 58.5601C187.997 43.8134 187.843 29.0634 187.29 14.3101C192.403 11.1834 198.22 8.98342 204.74 7.71009C204.813 7.69546 204.88 7.66543 204.927 7.62522C204.975 7.58501 205 7.53718 205 7.49009V7.29009Z" fill="#334E68"/>
<path d="M227.53 7.20996C229.57 8.28996 231.44 8.15996 233.45 9.14996C235.63 10.24 238.29 10.81 240.22 11.67C249.98 16.03 258.18 22.4366 264.82 30.89C258.573 24.1033 251.543 18.5366 243.73 14.19C240.837 12.59 237.927 11.43 235 10.71L226.25 7.70996L227.53 7.20996Z" fill="#334E68"/>
<path d="M235 10.71C237.927 11.43 240.837 12.59 243.73 14.19L243.96 59.25L243.75 59.96C225.67 59.9 207.593 59.9766 189.52 60.19C189.36 60.19 189.46 60.17 189.25 60.29L188.21 59.25C203.537 43.9766 218.863 28.7066 234.19 13.44C234.783 12.8466 235.053 11.9366 235 10.71Z" fill="#334E68"/>
<path d="M243.73 14.1899C251.543 18.5366 258.573 24.1033 264.82 30.8899C268.913 35.3566 272.093 40.3999 274.36 46.0199C274.76 48.4399 275.64 50.6699 277 52.7099L277.29 53.4999L277.14 53.9599C277.068 54.1674 277.065 54.3917 277.13 54.5999L278.46 58.5899C277.44 59.7166 276.27 60.1833 274.95 59.9899C269.9 59.2599 246.1 61.2899 243.96 59.2499L243.73 14.1899Z" fill="#334E68"/>
<path d="M187.29 14.3101C187.843 29.0634 187.997 43.8134 187.75 58.5601C187.743 58.8867 187.897 59.1167 188.21 59.2501L189.25 60.2901L189.56 61.5101C189.606 61.6865 189.699 61.8458 189.83 61.9701L240.99 113.01C241.548 113.575 242.288 113.947 243.1 114.07C243.68 114.163 243.827 114.807 243.54 116L243.46 116.25L188.04 116L187.79 115.75L187.67 60.7501L186.75 59.4601L163.69 35.9501C163.571 35.8281 163.485 35.6776 163.441 35.5129C163.398 35.3482 163.397 35.175 163.44 35.0101L164 32.7101L165.82 30.8701C171.24 25.4367 177.05 20.4801 183.25 16.0001C183.697 15.6801 185.043 15.1167 187.29 14.3101Z" fill="#334E68"/>
<path d="M164 32.71L163.44 35.01C163.397 35.1749 163.398 35.3481 163.441 35.5128C163.485 35.6775 163.571 35.828 163.69 35.95L186.75 59.46C185.55 59.69 184.29 60 183.07 60H131.25C131.623 55.8 131.623 51.2166 131.25 46.25C131.176 45.3166 131.603 44.5733 132.53 44.02C139.503 45.4 145.993 47.9633 152 51.71C151 53.48 155.06 53.28 153.25 51.71C156.016 44.91 159.6 38.5766 164 32.71Z" fill="#334E68"/>
<path d="M132.53 44.02C131.603 44.5733 131.177 45.3167 131.25 46.25C131.623 51.2167 131.623 55.8 131.25 60C117.663 59.8933 104.08 59.9 90.5 60.02C89.4134 60.0267 88.5867 59.35 88.02 57.99C100.607 46.6767 115.443 42.02 132.53 44.02Z" fill="#334E68"/>
<path d="M274.36 46.02C275.907 48.04 276.787 50.27 277 52.71C275.64 50.67 274.76 48.44 274.36 46.02Z" fill="#334E68"/>
<path d="M152 51.71H153.25C155.06 53.28 151 53.48 152 51.71Z" fill="#334E68"/>
<path d="M277.29 53.5C277.98 55 281.28 63.5 280.25 64.54L278.46 58.59L277.13 54.6C277.065 54.3917 277.068 54.1675 277.14 53.96L277.29 53.5Z" fill="#334E68"/>
<path d="M88.02 57.9902C88.5866 59.3502 89.4133 60.0269 90.5 60.0202C104.08 59.9002 117.663 59.8936 131.25 60.0002C131.81 62.9602 131.25 66.6302 131.25 68.6802C131.257 82.6736 131.257 96.6802 131.25 110.7C131.25 112.73 130.2 113.33 132.5 114.94L131.25 115.79L131 115.71L83.37 68.1102C83.3236 68.0638 83.2665 68.0294 83.2037 68.0102C83.1409 67.9911 83.0744 67.9876 83.01 68.0002L82.75 68.0402L82.21 67.5002L88.02 57.9902Z" fill="#334E68"/>
<path d="M278.46 58.5898L280.25 64.5398L280.5 65.7098C279.613 67.0232 279.863 67.6898 281.25 67.7098C284.36 67.3798 293.27 66.7698 296.5 68.5398L290.85 68.4698C290.648 68.4671 290.449 68.5269 290.281 68.6413C290.113 68.7557 289.983 68.9193 289.91 69.1098C289.37 70.4965 288.823 71.4665 288.27 72.0198C273.723 86.6265 259.063 101.12 244.29 115.5L244.04 115.25C243.607 97.0032 243.62 78.7532 244.08 60.4998C244.087 60.2132 243.977 60.0332 243.75 59.9598L243.96 59.2498C246.1 61.2898 269.9 59.2598 274.95 59.9898C276.27 60.1832 277.44 59.7165 278.46 58.5898Z" fill="#334E68"/>
<path d="M186.75 59.46L187.67 60.75C186.42 61.76 185.33 62.21 184.26 63.27C167.007 80.51 149.753 97.7333 132.5 114.94C130.2 113.33 131.25 112.73 131.25 110.7C131.257 96.68 131.257 82.6733 131.25 68.68C131.25 66.63 131.81 62.96 131.25 60H183.07C184.29 60 185.55 59.69 186.75 59.46Z" fill="#334E68"/>
<path d="M243.75 59.9602C243.977 60.0335 244.087 60.2135 244.08 60.5002C243.62 78.7535 243.607 97.0035 244.04 115.25L243.54 116C243.827 114.807 243.68 114.164 243.1 114.07C242.288 113.947 241.548 113.575 240.99 113.01L189.83 61.9702C189.699 61.846 189.606 61.6866 189.56 61.5102L189.25 60.2902C189.46 60.1702 189.36 60.1902 189.52 60.1902C207.593 59.9769 225.67 59.9002 243.75 59.9602Z" fill="#334E68"/>
<path d="M187.67 60.75L187.79 115.75L134.27 116C134.135 116.003 134.002 116.04 133.883 116.109C133.765 116.177 133.664 116.273 133.59 116.39C133.377 116.743 133.013 116.877 132.5 116.79L131.75 116.46L131.25 115.79L132.5 114.94C149.753 97.7333 167.007 80.51 184.26 63.27C185.33 62.21 186.42 61.76 187.67 60.75Z" fill="#334E68"/>
<path d="M280.5 65.71L281.25 67.71C279.863 67.69 279.613 67.0233 280.5 65.71ZM82.2101 67.5L82.7501 68.04C80.3501 73.92 78.7701 80.0233 78.0101 86.35C77.1767 84.5033 77.2601 82.9066 78.2601 81.56C78.4136 81.355 78.4817 81.1004 78.4501 80.85C78.0401 76.92 80.6201 71.12 82.2101 67.5Z" fill="#334E68"/>
<path d="M82.75 68.0401L83.01 68.0001C83.0744 67.9875 83.141 67.9909 83.2038 68.0101C83.2665 68.0293 83.3236 68.0637 83.37 68.1101L131 115.71L130.25 116.29C126.13 115.68 121.14 116.25 118.17 116.27C103.877 116.363 89.5833 116.273 75.29 116C75.4633 113.147 75.2833 110.327 74.75 107.54C76.49 107.173 78.1933 106.68 79.86 106.06C80.63 105.78 80.8 105.12 79.75 104.96L79.54 104.25L79.78 104.12C79.843 104.087 79.893 104.033 79.922 103.968C79.951 103.902 79.9573 103.829 79.94 103.76L78.79 99.0001C78.97 97.2868 78.6167 95.7601 77.73 94.4201C77.21 91.7001 77.3033 89.0101 78.01 86.3501C78.77 80.0235 80.35 73.9201 82.75 68.0401Z" fill="#334E68"/>
<path d="M296.5 68.5398H297.25C298.27 68.8265 299.153 69.2898 299.9 69.9298C300.01 70.0237 300.098 70.1403 300.158 70.2715C300.219 70.4027 300.25 70.5454 300.25 70.6898L300.29 116L300 116.29C299.807 116.29 299.627 116.266 299.46 116.22C298.98 116.073 298.66 116 298.5 116C293.33 116 244.85 116.41 244.29 115.5C259.063 101.12 273.723 86.6265 288.27 72.0198C288.823 71.4665 289.37 70.4965 289.91 69.1098C289.984 68.9192 290.113 68.7557 290.281 68.6413C290.449 68.5269 290.648 68.467 290.85 68.4698L296.5 68.5398Z" fill="#334E68"/>
<path d="M297.25 68.5399C298.337 68.4665 298.993 68.4532 299.22 68.4999C317.967 72.3865 333.003 81.7799 344.33 96.6799C348.503 102.173 351.657 108.53 353.79 115.75L300.29 116L300.25 70.6899C300.25 70.5454 300.219 70.4027 300.158 70.2715C300.098 70.1403 300.01 70.0238 299.9 69.9299C299.153 69.2899 298.27 68.8265 297.25 68.5399Z" fill="#334E68"/>
<path d="M78.7898 98.9999L78.2898 99.4999C77.3298 98.0399 77.1431 96.3466 77.7298 94.4199C78.6165 95.7599 78.9698 97.2866 78.7898 98.9999Z" fill="#334E68"/>
<path d="M78.79 99L79.94 103.76C79.9573 103.829 79.951 103.902 79.922 103.968C79.893 104.033 79.843 104.086 79.78 104.12L79.54 104.25L78.29 99.5L78.79 99Z" fill="#334E68"/>
<path d="M79.7501 104.96C80.8001 105.12 80.6301 105.78 79.8601 106.06C78.1934 106.68 76.4901 107.173 74.7501 107.54C68.0968 108.813 61.8634 111.18 56.0501 114.64C54.3968 115.627 54.5334 116.123 56.4601 116.13L75.2501 116.21L75.2101 171.75H75.0401L36.6001 134.46C39.4468 128.547 43.5768 123.297 48.9901 118.71C58.2901 110.84 68.6201 108.53 79.7501 104.96Z" fill="#334E68"/>
<path d="M74.7501 107.54C75.2834 110.327 75.4634 113.147 75.2901 116L75.2501 116.21L56.4601 116.13C54.5334 116.123 54.3968 115.627 56.0501 114.64C61.8634 111.18 68.0968 108.813 74.7501 107.54Z" fill="#334E68"/>
<path d="M244.04 115.25L244.29 115.5C244.85 116.41 293.33 116 298.5 116C298.66 116 298.98 116.073 299.46 116.22C299.627 116.267 299.807 116.29 300 116.29C300.32 133.777 300.387 151.267 300.2 168.76C300.19 169.69 299.31 170.98 301 171.29L300.96 171.75C300.07 172.7 319.45 191.29 321.5 193.29C315.66 196.63 309.48 199.157 302.96 200.87C302.793 200.91 302.647 200.99 302.52 201.11C301.787 201.817 301.03 201.767 300.25 200.96C300.477 191.573 300.33 182.15 299.81 172.69C299.75 172.457 299.633 172.227 299.46 172C298.86 170.927 298.277 170.107 297.71 169.54C280.183 152.233 262.747 134.837 245.4 117.35C245.113 117.057 244.647 116.87 244 116.79L243.5 116.46L243.46 116.25L243.54 116L244.04 115.25Z" fill="#334E68"/>
<path d="M131 115.71L131.25 115.79L131.75 116.46C130.87 116.78 131.31 117.41 131.32 118.06C131.653 136.053 131.63 154.047 131.25 172.04L76.2501 172.21L76.0001 171.96C75.8335 171.047 76.1501 170.473 76.9501 170.24C77.1168 170.193 77.2635 170.11 77.3901 169.99L128.97 118.4C129.107 118.269 129.28 118.176 129.47 118.13C130.73 117.85 130.99 117.237 130.25 116.29L131 115.71Z" fill="#334E68"/>
<path d="M187.79 115.75L188.04 116C187.527 139.933 187.453 157.52 187.82 168.76C187.98 173.65 190.43 169.49 191.41 168.5C208.717 151.113 226.08 133.767 243.5 116.46L244 116.79C244.16 117.02 244.25 117.13 244.25 117.42C244.09 135.613 243.993 153.807 243.96 172C226.14 172.16 208.32 172.26 190.5 172.3C189.747 172.3 188.997 172.38 188.25 172.54L187.29 171.75L132.5 116.79C133.013 116.877 133.377 116.743 133.59 116.39C133.664 116.273 133.765 116.177 133.883 116.109C134.002 116.04 134.135 116.003 134.27 116L187.79 115.75Z" fill="#334E68"/>
<path d="M353.79 115.75L354.5 118.46C353.686 119.08 352.92 119.743 352.2 120.45C335.086 137.35 318.02 154.297 301 171.29C299.31 170.98 300.19 169.69 300.2 168.76C300.386 151.267 300.32 133.777 300 116.29L300.29 116L353.79 115.75Z" fill="#334E68"/>
<path d="M75.29 116C89.5833 116.273 103.877 116.363 118.17 116.27C121.14 116.25 126.13 115.68 130.25 116.29C130.99 117.237 130.73 117.85 129.47 118.13C129.28 118.176 129.107 118.269 128.97 118.4L77.39 169.99C77.2633 170.11 77.1166 170.193 76.95 170.24C76.15 170.473 75.8333 171.047 76 171.96L75.21 171.75L75.25 116.21L75.29 116Z" fill="#334E68"/>
<path d="M188.04 116L243.46 116.25L243.5 116.46C226.08 133.767 208.717 151.113 191.41 168.5C190.43 169.49 187.98 173.65 187.82 168.76C187.453 157.52 187.527 139.933 188.04 116Z" fill="#334E68"/>
<path d="M131.75 116.46L132.5 116.79L187.29 171.75C186.797 172.81 186.11 173.033 185.23 172.42C185.061 172.303 184.858 172.244 184.65 172.25L131.5 172.54L131.25 172.04C131.63 154.047 131.653 136.053 131.32 118.06C131.31 117.41 130.87 116.78 131.75 116.46Z" fill="#334E68"/>
<path d="M244 116.79C244.647 116.87 245.113 117.057 245.4 117.35C262.747 134.837 280.183 152.233 297.71 169.54C298.277 170.107 298.86 170.927 299.46 172L245.12 172.25C244.98 172.25 244.743 172.31 244.41 172.43C244.29 172.47 244.167 172.493 244.04 172.5L243.96 172C243.993 153.807 244.09 135.613 244.25 117.42C244.25 117.13 244.16 117.02 244 116.79Z" fill="#334E68"/>
<path d="M354.5 118.46C355.54 119.82 355.777 121.413 355.21 123.24C356.63 131.027 356.833 137.55 355.82 142.81C355.04 146.857 354.613 149.42 354.54 150.5L354.46 151.75C353.593 152.343 353.453 153.093 354.04 154L353.97 154.44C352.05 156.347 351.14 158.62 351.24 161.26C349.8 165.113 347.797 168.713 345.23 172.06C331.11 172.307 316.97 172.35 302.81 172.19C302.43 172.183 301.813 172.037 300.96 171.75L301 171.29C318.02 154.297 335.087 137.35 352.2 120.45C352.92 119.743 353.687 119.08 354.5 118.46Z" fill="#334E68"/>
<path d="M355.21 123.24C356.87 123.62 356.11 125.95 356.44 127.31C357.36 130.99 358.14 140.09 356.17 143.33C356.092 143.461 356.044 143.608 356.03 143.76C356.017 143.912 356.037 144.066 356.09 144.21C356.463 145.204 356.327 146.097 355.68 146.89C355.584 147.005 355.515 147.142 355.481 147.29C355.446 147.437 355.446 147.591 355.48 147.74C355.733 148.887 355.42 149.807 354.54 150.5C354.613 149.42 355.04 146.857 355.82 142.81C356.833 137.55 356.63 131.027 355.21 123.24Z" fill="#334E68"/>
<path d="M36.5998 134.46L75.0398 171.75L74.9598 172.75L74.2498 173.04C69.8098 171.83 64.6798 172.52 61.4198 172.41C57.4598 172.28 45.9098 171.17 42.9998 173.54C32.9998 162.76 30.0398 148.09 36.5998 134.46Z" fill="#334E68"/>
<path d="M354.46 151.75C355.067 152.677 354.927 153.427 354.04 154C353.453 153.093 353.593 152.343 354.46 151.75ZM353.97 154.44L351.24 161.26C351.14 158.62 352.05 156.347 353.97 154.44Z" fill="#334E68"/>
<path d="M75.04 171.75H75.21L76 171.96L76.25 172.21C75.7767 172.23 75.7 172.403 76.02 172.73C82.8067 179.69 89.43 186.353 95.89 192.72C96.0017 192.832 96.1379 192.915 96.2874 192.964C96.4369 193.012 96.5954 193.025 96.75 193C103.717 191.907 110.54 190.213 117.22 187.92C105.88 193.68 95.62 194.36 82.82 193.53L76.07 191.61C75.8872 191.559 75.7226 191.457 75.5952 191.318C75.4679 191.178 75.3829 191.005 75.35 190.82C74.43 185.43 75.48 179.18 74.96 172.75L75.04 171.75Z" fill="#334E68"/>
<path d="M187.29 171.75L188.25 172.54L187.96 174C187.78 172.98 187.13 173.06 186.53 173.65C176.057 183.797 165.723 194.087 155.53 204.52C155.438 204.611 155.366 204.721 155.318 204.843C155.27 204.965 155.247 205.097 155.25 205.23V205.71C153.63 205.25 139.05 199.88 139 199.96L136.25 198.46L131.33 194.95C131.158 194.825 131.029 194.649 130.963 194.448C130.896 194.247 130.895 194.031 130.96 193.83C131.22 193.017 131.34 192.243 131.32 191.51C131.14 185.177 131.2 178.853 131.5 172.54L184.65 172.25C184.858 172.244 185.061 172.303 185.23 172.42C186.11 173.033 186.797 172.81 187.29 171.75Z" fill="#334E68"/>
<path d="M300.96 171.75C301.813 172.037 302.43 172.183 302.81 172.19C316.97 172.35 331.11 172.307 345.23 172.06C338.89 180.847 330.98 187.923 321.5 193.29C319.45 191.29 300.07 172.7 300.96 171.75Z" fill="#334E68"/>
<path d="M131.25 172.04L131.5 172.54C131.2 178.853 131.14 185.177 131.32 191.51C131.34 192.243 131.22 193.017 130.96 193.83C130.895 194.031 130.896 194.247 130.963 194.448C131.029 194.649 131.158 194.825 131.33 194.95L136.25 198.46C132.71 197.02 129.47 195.097 126.53 192.69C124.97 190.79 123.05 189.373 120.77 188.44C119.95 187.2 118.766 187.027 117.22 187.92C110.54 190.213 103.716 191.907 96.7498 193C96.5952 193.025 96.4367 193.012 96.2872 192.964C96.1377 192.915 96.0015 192.832 95.8898 192.72C89.4298 186.353 82.8065 179.69 76.0198 172.73C75.6998 172.403 75.7765 172.23 76.2498 172.21L131.25 172.04Z" fill="#334E68"/>
<path d="M243.96 172L244.04 172.5L243.71 191.25L242.03 190.49C241.869 190.417 241.691 190.389 241.515 190.409C241.339 190.428 241.172 190.494 241.03 190.6C228.69 199.627 215.037 205.66 200.07 208.7C196.643 208.173 193.357 208.607 190.21 210C189.223 210.66 188.417 210.657 187.79 209.99L187.96 174L188.25 172.54C188.997 172.38 189.747 172.3 190.5 172.3C208.32 172.26 226.14 172.16 243.96 172Z" fill="#334E68"/>
<path d="M299.46 172C299.633 172.227 299.75 172.457 299.81 172.69L271.25 200.96L263.26 199.94C256.26 198.167 249.743 195.27 243.71 191.25L244.04 172.5C244.167 172.493 244.29 172.47 244.41 172.43C244.743 172.31 244.98 172.25 245.12 172.25L299.46 172Z" fill="#334E68"/>
<path d="M74.25 173.04L60.82 187.14C53.9133 184.093 47.9733 179.56 43 173.54C45.91 171.17 57.46 172.28 61.42 172.41C64.68 172.52 69.81 171.83 74.25 173.04Z" fill="#334E68"/>
<path d="M74.9598 172.75C75.4798 179.18 74.4298 185.43 75.3498 190.82C75.3827 191.005 75.4677 191.178 75.5951 191.318C75.7224 191.457 75.887 191.559 76.0698 191.61L82.8198 193.53C79.7265 193.897 76.8932 193.323 74.3198 191.81L64.0398 187.96C63.9113 187.911 63.7726 187.897 63.6376 187.918C63.5025 187.939 63.3758 187.995 63.2698 188.08L62.9998 188.29C62.3198 188.123 61.5932 187.74 60.8198 187.14L74.2498 173.04L74.9598 172.75Z" fill="#334E68"/>
<path d="M299.81 172.69C300.33 182.15 300.477 191.573 300.25 200.96H300L295.71 201.75C293.877 201.57 292.127 201.85 290.46 202.59L279 202.71L271.25 200.96L299.81 172.69Z" fill="#334E68"/>
<path d="M187.96 174L187.79 209.99C183.71 210.383 179.864 210.373 176.25 209.96C172.55 209.007 168.787 208.517 164.96 208.49C162.18 208.563 159.527 207.97 157 206.71L155.25 205.71V205.23C155.247 205.097 155.271 204.965 155.319 204.843C155.367 204.721 155.439 204.611 155.53 204.52C165.724 194.087 176.057 183.797 186.53 173.65C187.13 173.06 187.78 172.98 187.96 174Z" fill="#334E68"/>
<path d="M74.32 191.81C70.2667 191.457 66.4933 190.284 63 188.29L63.27 188.08C63.3759 187.995 63.5027 187.939 63.6378 187.918C63.7728 187.897 63.9115 187.912 64.04 187.96L74.32 191.81Z" fill="#334E68"/>
<path d="M120.77 188.44C123.05 189.373 124.97 190.79 126.53 192.69C124.223 191.817 122.303 190.4 120.77 188.44Z" fill="#334E68"/>
<path d="M155.25 205.71L157 206.71C150.653 205.377 144.653 203.127 139 199.96C139.05 199.88 153.63 205.25 155.25 205.71ZM271.25 200.96L279 202.71C273.627 202.657 268.38 201.733 263.26 199.94L271.25 200.96Z" fill="#334E68"/>
<path d="M300 200.96C298.767 201.887 297.363 202.233 295.79 202L295.71 201.75L300 200.96Z" fill="#334E68"/>
<path d="M295.71 201.75L295.79 202C294.157 202.84 292.38 203.037 290.46 202.59C292.127 201.85 293.877 201.57 295.71 201.75Z" fill="#334E68"/>
<path d="M200.07 208.7C196.843 209.513 193.557 209.947 190.21 210C193.357 208.607 196.643 208.173 200.07 208.7Z" fill="#334E68"/>
<path d="M176.25 209.96C173.77 210.407 171.363 210.207 169.03 209.36C168.854 209.295 168.663 209.281 168.48 209.32C167.22 209.587 166.047 209.31 164.96 208.49C168.787 208.517 172.55 209.007 176.25 209.96Z" fill="#334E68"/>
<path d="M64.1898 245.33C59.3231 256.197 54.3698 267.027 49.3298 277.82C46.8498 283.12 43.7498 288.88 37.4298 289.22C32.1598 289.51 29.3298 286.47 26.9398 281.77C20.5298 269.16 14.7798 256.16 8.79979 243.34C7.39979 240.334 6.77312 238.03 6.91979 236.43C7.41979 231.17 12.6498 229.03 17.6898 229.9C20.7798 230.42 22.1098 232.35 23.2698 235.02C27.7298 245.26 32.0331 255.344 36.1798 265.27C36.8065 266.77 37.4231 266.767 38.0298 265.26C41.5698 256.474 45.3465 247.797 49.3598 239.23C50.3798 237.057 51.6231 235.324 53.0898 234.03C57.5798 230.07 61.2798 229.75 67.6698 229.94C70.3431 230.02 72.5965 230.524 74.4298 231.45C76.6898 232.584 78.7531 234.034 80.6198 235.8C80.7924 235.965 81.0184 236.063 81.2568 236.076C81.4953 236.089 81.7304 236.016 81.9198 235.87C84.3065 234.01 86.8198 232.447 89.4598 231.18C93.9798 229.02 102.09 229.97 107.08 230.01C107.318 230.01 107.549 230.095 107.73 230.25L114.41 235.97C114.602 236.136 114.85 236.223 115.102 236.214C115.355 236.205 115.594 236.1 115.77 235.92C118.056 233.6 120.673 231.92 123.62 230.88C127.02 229.68 136.07 229.26 139.71 230.7C145.256 232.907 149.116 236.684 151.29 242.03C152.116 244.064 152.523 246.78 152.51 250.18C152.496 256.747 152.493 263.317 152.5 269.89C152.5 275.76 154.26 283.11 148.95 287.44C146.46 289.48 143.36 289.06 140.31 288.83C140.089 288.817 139.881 288.729 139.72 288.58C136.8 285.99 135.26 283.59 135.26 279.42C135.246 270.574 135.243 261.73 135.25 252.89C135.25 249.2 133.62 247.11 130.97 244.99C130.801 244.854 130.597 244.777 130.39 244.77C127.46 244.64 123.87 244 121.62 246.22C119.46 248.34 118.78 250.27 118.77 253.49C118.743 263.344 118.74 273.194 118.76 283.04C118.759 283.279 118.671 283.513 118.51 283.7L114.33 288.46C114.248 288.558 114.146 288.639 114.031 288.697C113.916 288.755 113.79 288.79 113.66 288.8C108.01 289.26 104.25 288.95 102.08 282.96C101.66 281.8 101.46 280.09 101.48 277.83C101.533 269.704 101.53 261.574 101.47 253.44C101.45 250.827 101.086 248.93 100.38 247.75C97.7498 243.29 89.2698 243.59 86.6398 247.96C85.5465 249.767 84.9998 251.724 84.9998 253.83V280.61C84.9998 284.08 82.7998 286.33 80.5898 288.63C80.4984 288.728 80.3883 288.806 80.2661 288.859C80.144 288.912 80.0125 288.94 79.8798 288.94L73.5998 289.03C73.4614 289.033 73.3231 289.007 73.1939 288.951C73.0647 288.896 72.9474 288.814 72.8498 288.71L68.0298 283.46C67.8565 283.274 67.76 283.031 67.7598 282.78L67.7498 245.95C67.7473 245.706 67.6571 245.47 67.4956 245.287C67.334 245.103 67.112 244.984 66.8698 244.95L65.2298 244.75C65.0182 244.721 64.8026 244.762 64.6152 244.866C64.4278 244.971 64.2785 245.134 64.1898 245.33ZM373.45 240.88C373.55 240.967 373.646 241.084 373.74 241.23C377.746 247.464 379.273 254.34 378.32 261.86C378.291 262.102 378.174 262.326 377.991 262.488C377.809 262.65 377.574 262.74 377.33 262.74L336.55 262.76C336.405 262.761 336.263 262.793 336.133 262.855C336.002 262.917 335.886 263.006 335.793 263.117C335.7 263.228 335.632 263.358 335.593 263.499C335.555 263.639 335.547 263.786 335.57 263.93C337.023 272.797 341.756 278.237 349.77 280.25C358.07 282.33 364.98 278.69 371.27 273.36C371.391 273.258 371.534 273.186 371.689 273.15C371.843 273.113 372.005 273.113 372.16 273.15C376.69 274.31 377.38 277.85 374.16 280.88C366.01 288.57 353.84 291.83 343.44 286.7C332.126 281.12 326.523 272.167 326.63 259.84C326.75 246.15 333.17 235.32 346.46 231.14C348.45 230.51 350.51 231.23 352.54 230.03C352.679 229.95 352.835 229.903 352.995 229.895C353.155 229.886 353.314 229.915 353.46 229.98C355.58 230.92 357.73 230.58 359.52 231.11C363.8 232.37 370.78 235.73 372.89 240.28C372.95 240.407 373.136 240.607 373.45 240.88ZM340.96 243.45C338.073 246.837 336.31 250.724 335.67 255.11C335.648 255.251 335.658 255.395 335.697 255.532C335.737 255.67 335.807 255.797 335.901 255.905C335.995 256.013 336.111 256.1 336.242 256.16C336.373 256.219 336.516 256.25 336.66 256.25H368.79C368.939 256.249 369.087 256.215 369.221 256.15C369.356 256.084 369.474 255.99 369.567 255.873C369.66 255.755 369.726 255.619 369.759 255.473C369.792 255.327 369.793 255.176 369.76 255.03C368.986 251.684 368.163 249.2 367.29 247.58C362.903 239.454 356.356 236.614 347.65 239.06C344.92 239.83 342.74 241.36 340.96 243.45ZM393.16 237.68C393.16 239.611 392.393 241.463 391.028 242.828C389.662 244.193 387.811 244.96 385.88 244.96C383.949 244.96 382.097 244.193 380.732 242.828C379.367 241.463 378.6 239.611 378.6 237.68C378.6 235.749 379.367 233.898 380.732 232.532C382.097 231.167 383.949 230.4 385.88 230.4C387.811 230.4 389.662 231.167 391.028 232.532C392.393 233.898 393.16 235.749 393.16 237.68ZM382.91 240.2L382.71 235.16C382.65 233.52 382.163 233.38 381.25 234.74C381.103 234.96 381.016 235.204 380.99 235.47C380.403 241.664 382.976 243.957 388.71 242.35C388.899 242.298 389.066 242.19 389.19 242.04C393.26 237.41 389.28 229.81 383.53 233.17C383.456 233.214 383.394 233.275 383.35 233.349C383.306 233.423 383.282 233.506 383.279 233.592C383.276 233.678 383.294 233.763 383.333 233.839C383.372 233.916 383.429 233.982 383.5 234.03C383.86 234.29 387.09 233.99 388.22 234.34C390.16 234.94 390.49 235.914 389.21 237.26C388.443 238.08 388.316 238.994 388.83 240C388.878 240.093 388.902 240.197 388.901 240.301C388.899 240.406 388.872 240.509 388.822 240.601C388.771 240.692 388.699 240.771 388.612 240.828C388.524 240.885 388.424 240.921 388.32 240.93L388.03 240.95C387.869 240.962 387.708 240.936 387.56 240.873C387.412 240.81 387.282 240.713 387.18 240.59L386.51 239.79C385.743 238.87 385.273 239 385.1 240.18C385.006 240.814 384.616 241.14 383.93 241.16C383.668 241.166 383.414 241.068 383.224 240.889C383.033 240.709 382.92 240.462 382.91 240.2ZM387.01 236.5C387.01 236.232 386.903 235.975 386.714 235.786C386.525 235.597 386.268 235.49 386 235.49C385.732 235.49 385.475 235.597 385.286 235.786C385.096 235.975 384.99 236.232 384.99 236.5C384.99 236.768 385.096 237.025 385.286 237.214C385.475 237.404 385.732 237.51 386 237.51C386.268 237.51 386.525 237.404 386.714 237.214C386.903 237.025 387.01 236.768 387.01 236.5ZM180.82 286.92C179.96 288.88 178.43 289.497 176.23 288.77C175.986 288.686 175.782 288.507 175.66 288.27C175.073 287.13 174.246 286.177 173.18 285.41C173.011 285.287 172.885 285.119 172.82 284.93L155.08 235.4C155.008 235.205 154.998 234.995 155.05 234.8C156.03 231.16 158.62 229.94 162.82 231.14C162.974 231.183 163.116 231.263 163.232 231.373C163.349 231.482 163.437 231.619 163.49 231.77L177.11 271.05C177.69 272.724 178.313 272.74 178.98 271.1C179.186 270.594 179.363 270.064 179.51 269.51C180.98 263.89 183.6 257.4 185.02 253.12C186.52 248.614 188.07 244.124 189.67 239.65C190.8 236.53 191.63 230.74 196.02 230.58C200.81 230.41 201.94 235.93 202.98 239.04C207.82 253.574 211.08 263.06 212.76 267.5C213.68 269.934 214.19 271.86 214.29 273.28C214.297 273.354 214.319 273.425 214.355 273.489C214.392 273.553 214.441 273.609 214.501 273.652C214.561 273.696 214.629 273.726 214.701 273.741C214.773 273.757 214.848 273.756 214.92 273.74C215.533 273.6 215.703 273.117 215.43 272.29C215.358 272.083 215.358 271.858 215.43 271.65C219.656 259.59 223.873 247.527 228.08 235.46C229.4 231.68 232.05 228.82 236.03 231.68C237.57 232.794 238.013 234.24 237.36 236.02C232.166 250.234 227.053 264.384 222.02 278.47C220.14 283.75 219.32 286.52 215.35 289.5C215.172 289.634 214.954 289.705 214.731 289.702C214.509 289.698 214.293 289.62 214.12 289.48C211.553 287.4 209.756 284.827 208.73 281.76C204.943 270.454 201.103 259.274 197.21 248.22C196.57 246.407 195.94 246.41 195.32 248.23C191.5 259.444 187.6 270.627 183.62 281.78C182.96 283.63 183.04 285.2 181.16 286.49C181.009 286.601 180.892 286.75 180.82 286.92ZM279.39 288.1C277.26 286.33 278.34 280.43 277.86 280.26C277.739 280.22 277.609 280.216 277.486 280.25C277.363 280.284 277.253 280.353 277.17 280.45C268.51 290.4 253.32 291.84 243.2 284.31C239.406 281.49 237.253 277.797 236.74 273.23C235.61 263.18 243.18 254.79 252.98 253.2C259.106 252.2 265.96 252.367 273.54 253.7C274.046 253.787 274.773 254.044 275.72 254.47C280.23 256.49 276.86 248.88 276.52 247.65C273.86 238.05 262.5 238.22 254.99 239.03C250.68 239.49 242.38 245.87 243.24 235.47C243.255 235.307 243.31 235.149 243.398 235.012C243.487 234.874 243.608 234.76 243.75 234.68C250.89 230.67 262.39 229.3 270.25 231.23C277.39 232.977 282.383 237.404 285.23 244.51C285.91 246.21 286.25 247.457 286.25 248.25L286.26 285.94C286.26 286.085 286.229 286.227 286.168 286.359C286.108 286.49 286.02 286.606 285.91 286.7C283.223 289 281.05 289.467 279.39 288.1ZM256.94 281.06C268.89 282.31 278.9 275.61 277.93 262.91C277.921 262.769 277.881 262.632 277.814 262.508C277.746 262.383 277.653 262.275 277.54 262.19C276.52 261.404 274.996 260.87 272.97 260.59C265.21 259.52 258.17 258.29 252.01 261.28C241.13 266.57 245.59 279.87 256.94 281.06ZM306 240.47C308.14 238.037 310.06 236.134 311.76 234.76C314.77 232.33 323.5 228.46 326.84 232.24C328.166 233.74 328.303 235.604 327.25 237.83C327.153 238.038 326.991 238.206 326.79 238.31C323.2 240.06 318.91 240.48 315.87 242.17C310.103 245.364 306.643 250.064 305.49 256.27C304.19 263.277 303.806 272.864 304.34 285.03C304.346 285.16 304.327 285.291 304.282 285.415C304.237 285.538 304.169 285.652 304.08 285.75L301.63 288.4C301.529 288.507 301.408 288.591 301.273 288.646C301.138 288.701 300.994 288.727 300.85 288.72C296.16 288.55 295.26 285.53 295.26 281.29C295.253 265.944 295.25 250.597 295.25 235.25C295.25 230.98 301.29 228.89 304.05 232.51C304.18 232.685 304.25 232.899 304.25 233.12V239.8C304.25 241.574 304.833 241.797 306 240.47Z" fill="#334E68"/>
</svg>
