<svg width="450" height="164" viewBox="0 0 450 164" fill="none" xmlns="http://www.w3.org/2000/svg">
<g clip-path="url(#clip0_20_151)">
<path d="M58.188 67.3529C62.075 67.0549 65.706 66.1939 69.067 64.7689C72.434 63.3439 75.202 61.2769 77.369 58.5789C79.534 55.8719 80.62 52.2689 80.62 47.7669C80.62 41.0119 78.384 35.8369 73.903 32.2279C69.428 28.6249 64.278 26.8239 58.462 26.8239C50.399 26.8239 44.312 29.4829 40.213 34.7949C36.102 40.1069 34.128 46.8109 34.278 54.8859H3.90402C4.20602 46.8109 5.66602 39.4369 8.27802 32.7839C10.896 26.1369 14.565 20.4309 19.285 15.6679C23.996 10.9059 29.65 7.23091 36.233 4.62091C42.816 2.01491 50.154 0.711914 58.236 0.711914C64.52 0.711914 70.807 1.65091 77.092 3.52091C83.382 5.39391 89.027 8.20291 94.046 11.9459C99.062 15.6889 103.139 20.2509 106.28 25.6469C109.421 31.0369 111 37.2479 111 44.2799C111 51.9189 109.17 58.6569 105.521 64.4969C101.871 70.3379 96.401 74.3019 89.108 76.3959V76.8479C97.754 78.7949 104.533 82.9879 109.459 89.4279C114.379 95.8699 116.836 103.581 116.836 112.561C116.836 120.8 115.227 128.138 112.006 134.58C108.782 141.024 104.48 146.408 99.088 150.757C93.7 155.095 87.481 158.393 80.438 160.634C73.398 162.872 66.058 164 58.427 164C49.587 164 41.542 162.725 34.271 160.183C27.008 157.625 20.826 153.916 15.735 149.034C10.64 144.158 6.71302 138.204 3.94302 131.162C1.16702 124.123 -0.140984 116.044 0.0120159 106.917H30.385C30.531 111.109 31.206 115.11 32.412 118.924C33.612 122.74 35.341 126.035 37.592 128.801C39.843 131.568 42.652 133.782 46.032 135.428C49.408 137.068 53.423 137.889 58.072 137.889C65.275 137.889 71.357 135.691 76.307 131.288C81.262 126.883 83.737 120.875 83.737 113.26C83.737 107.282 82.543 102.726 80.161 99.5919C77.772 96.4529 74.79 94.1819 71.198 92.7559C67.607 91.3399 63.678 90.5189 59.418 90.2969C55.155 90.0709 51.08 89.9549 47.199 89.9549V67.3529C50.635 67.6519 54.298 67.6519 58.188 67.3529Z" fill="#334E68"/>
<path d="M209.286 21.0907C227.049 21.0907 244.642 28.2817 257.551 40.8237L260.996 44.1667V17.1887L260.133 16.5827C245.37 6.22174 229.091 1.18774 210.364 1.18774C162.436 1.18774 123.444 37.9017 123.444 83.0287C123.444 127.487 162.436 163.655 210.364 163.655C227.855 163.655 245.517 158.193 260.11 148.281L260.996 147.674V120.78L257.575 123.995C244.221 136.551 226.774 143.752 209.719 143.752C174.99 143.752 145.649 115.666 145.649 82.4197C145.649 49.1767 174.789 21.0907 209.286 21.0907Z" fill="#334E68"/>
<path d="M261.273 51.6357V114.339L288.685 81.6817L261.273 51.6357Z" fill="#334E68"/>
<path d="M427.259 162.582L362.763 83.7526L427.247 5.13159H393.04L345.742 62.9406L298.447 5.13159H264.244L328.729 83.7526L264.229 162.582H298.099L345.742 104.504L393.393 162.582H427.259Z" fill="#334E68"/>
<path d="M440.105 152.654C441.302 152.654 443.404 152.88 443.404 151.342C443.404 150.348 442.093 150.168 441.054 150.168H438.479V152.654H440.105ZM444.624 158.466H442.998L440.105 154.01H438.479V158.466H437.123V148.811H441.326C443.065 148.811 444.758 149.285 444.758 151.365C444.758 153.263 443.425 153.967 441.709 154.01L444.624 158.466ZM447.922 153.694C447.922 149.534 444.465 146.232 440.42 146.232C436.377 146.232 432.92 149.534 432.92 153.694C432.92 157.854 436.377 161.156 440.42 161.156C444.465 161.156 447.922 157.854 447.922 153.694ZM431.565 153.694C431.565 148.789 435.474 144.876 440.42 144.876C445.37 144.876 449.277 148.789 449.277 153.694C449.277 158.599 445.37 162.512 440.42 162.512C435.474 162.512 431.565 158.599 431.565 153.694Z" fill="#334E68"/>
</g>
<defs>
<clipPath id="clip0_20_151">
<rect width="450" height="164" fill="white"/>
</clipPath>
</defs>
</svg>
