<svg width="301" height="64" viewBox="0 0 301 64" fill="none" xmlns="http://www.w3.org/2000/svg">
<g clip-path="url(#clip0_20_157)">
<mask id="mask0_20_157" style="mask-type:luminance" maskUnits="userSpaceOnUse" x="237" y="0" width="64" height="64">
<path d="M263.682 0.440059C261.279 0.846323 258.926 1.52341 256.64 2.48829C252.984 4.04564 249.565 6.29698 246.568 9.29318C242.98 12.8819 240.424 17.1308 238.917 21.6335C238.426 23.1232 238.037 24.6298 237.766 26.1533C237.444 27.9984 237.292 29.8773 237.292 31.7393C237.292 40.1185 240.678 48.2269 246.602 54.1516C252.632 60.1478 260.458 63.2437 268.347 63.4036H269.639C271.287 63.3697 272.934 63.2042 274.567 62.9201C276.09 62.6493 277.597 62.26 279.069 61.7691C283.589 60.2456 287.821 57.7064 291.41 54.1178C294.389 51.1385 296.64 47.7191 298.198 44.0627C299.146 41.7944 299.84 39.4415 300.246 37.0377C300.551 35.2773 300.686 33.4998 300.686 31.7055C300.686 23.614 297.605 15.5057 291.427 9.31017C285.519 3.40241 277.394 0.0168501 269.031 -7.76266e-05C267.237 -7.76266e-05 265.46 0.152288 263.682 0.440059Z" fill="white"/>
</mask>
<g mask="url(#mask0_20_157)">
<rect x="236.514" y="-0.492676" width="65.0475" height="64.8218" fill="#334E68"/>
</g>
<mask id="mask1_20_157" style="mask-type:luminance" maskUnits="userSpaceOnUse" x="-1" y="0" width="302" height="64">
<path d="M-0.000488281 63.4036H300.694V-7.62939e-05H-0.000488281V63.4036Z" fill="white"/>
</mask>
<g mask="url(#mask1_20_157)">
<path fill-rule="evenodd" clip-rule="evenodd" d="M283.084 40.6222C280.04 44.1506 276.576 46.3418 273.99 47.4102C271.307 48.5161 270.115 48.5387 269.997 45.5443C269.767 39.7701 272.336 29.0775 274.96 19.4719C277.23 11.1529 277.558 9.70655 273.589 8.42945C270.61 7.46833 268.486 8.12663 264.093 12.1761C258.424 17.3992 249.789 29.2693 245.444 38.2824C246.548 39.2717 247.791 40.2479 248.709 40.908C249.695 41.6209 250.479 41.4065 251.201 40.278C254.416 35.2598 259.78 29.9144 265.964 26.1603C266.254 25.1408 266.556 24.1289 266.857 23.1434C261.734 25.5509 257.547 28.6656 257.547 28.6656C262.849 18.9491 270.523 11.0777 271.926 11.6871C272.823 12.0783 269.758 19.9121 267.55 27.9113C265.025 37.0598 263.746 44.0378 264.141 49.1443C264.501 53.79 268.142 55.0351 273.585 52.6465C277.672 50.8502 281.547 47.3537 284.372 43.0842L283.14 40.5563L283.084 40.6222ZM281.521 20.2563C280.042 19.9817 278.504 19.9233 276.871 20.0832C276.756 20.4951 276.627 20.9766 276.48 21.5183C280.578 20.5741 284.285 21.129 286.721 24.6405C289.125 28.1088 287.654 33.5125 285.228 37.6128L286.288 39.7344L286.328 39.6554C292.939 25.9835 285.576 21.0086 281.521 20.2563Z" fill="white"/>
<path d="M115.268 31.6991C115.268 33.452 113.848 34.8721 112.095 34.8721C110.344 34.8721 108.922 33.452 108.922 31.6991C108.922 29.9461 110.344 28.5261 112.095 28.5261C113.848 28.5261 115.268 29.9461 115.268 31.6991Z" fill="#334E68"/>
<path d="M10.2243 20.7644L6.45885 34.2539H13.9635L10.2243 20.7644ZM16.4838 42.6444L14.9453 37.647H5.46764L3.92722 42.6444H0L7.86385 17.2642H12.6751L20.4204 42.6444H16.4838ZM102.572 42.6444H98.9085V17.2661H102.572V42.6444ZM91.5036 31.6979C91.5036 31.2145 91.6258 29.6063 90.8584 28.1581C90.4597 27.4302 89.3707 25.7036 86.9575 25.7431C85.9099 25.7431 84.945 26.0647 84.1814 26.7079C82.2479 28.3593 82.1294 31.0565 82.088 31.6979H91.5036ZM82.1294 34.1524C82.2084 34.9969 82.3683 35.5611 82.4924 35.8828C83.0548 37.6131 84.3827 39.0257 86.0717 39.6689C86.7544 39.9097 87.7249 40.188 89.3707 40.188C90.3374 40.188 91.8271 40.109 93.9618 39.3473L93.9186 42.2833C93.0346 42.6049 91.3061 43.0864 88.8083 43.0864C88.0842 43.0864 85.6297 43.0864 83.4554 42.0012C81.4034 40.993 78.3451 38.3768 78.3865 32.785C78.3865 32.0609 78.426 30.2496 79.152 28.4026C79.7934 26.8283 81.8473 22.8861 86.997 22.8861C91.9098 22.8861 95.0471 26.5443 95.0471 31.3367C95.0471 32.1399 95.0057 32.6646 94.6446 34.1524H82.1294ZM76.7407 26.3863H71.3107V36.368C71.3107 36.5279 71.2693 37.4514 71.4273 38.0946C71.9935 40.0282 74.085 39.9492 74.5702 39.9492C75.2511 39.9492 75.8549 39.9097 77.1432 39.5862L77.1037 42.6049C75.9357 42.8438 75.0085 42.9661 73.8047 42.9661C73.3195 42.9661 71.591 42.9661 70.1803 42.1987C67.7277 40.8745 67.6449 38.2959 67.6449 35.9241V19.6736L71.3107 16.8391V23.3694H76.7407V26.3863ZM59.4783 32.9054C57.3059 32.9054 54.2852 32.9844 52.474 34.474C51.6276 35.1586 51.1856 36.0464 51.1856 37.1693C51.1856 37.8558 51.3492 38.4614 51.7517 38.941C52.5135 39.9097 53.8846 40.3103 56.2959 40.3103C56.8601 40.3103 58.0695 40.2727 59.4783 40.0282V32.9054ZM49.1336 24.5751C49.5361 24.3738 49.9799 24.1726 50.4219 23.9713C51.3492 23.6102 53.3993 22.8861 56.0551 22.8861C58.7917 22.8861 60.3641 23.6102 61.2876 24.4133C61.4889 24.5751 62.134 25.1374 62.4557 25.8634C62.8168 26.629 63.0594 27.5148 63.0594 29.4427L63.018 42.3642C60.0801 43.0055 57.1046 43.0864 56.1397 43.0864C54.5278 43.0864 53.2808 42.9266 52.6752 42.8043C51.5505 42.6049 47.5668 41.7209 47.5668 37.4119C47.5668 36.4884 47.7248 34.5962 49.5756 33.0257C52.3141 30.6521 56.1811 30.4922 59.4783 30.4922V29.6063C59.4783 28.4797 59.4388 28.0772 59.2356 27.5938C58.835 26.6703 57.7479 25.7844 55.4927 25.7844C53.7642 25.7844 51.7517 26.3073 50.2245 27.0296C49.8182 27.1913 49.4552 27.4302 49.0959 27.6333L49.1336 24.5751ZM44.8715 27.2308H44.8264C44.4277 26.9506 44.3882 26.913 44.1418 26.7869C42.859 26.0647 41.4484 26.0252 40.9631 26.0252C40.4835 26.0252 39.3964 26.0647 38.2284 26.629C36.8196 27.2722 34.5663 29.0026 34.5663 32.8659C34.5663 33.4301 34.5663 34.474 35.0478 35.721C36.0165 38.3391 38.3092 39.9492 41.0873 39.9492C43.0565 39.9492 44.3882 39.1423 44.9882 38.7812L45.0295 41.8808C44.706 42.0821 44.3073 42.3247 43.9443 42.4413C43.4214 42.6839 42.0916 43.0864 40.4026 43.0864C34.5663 43.0469 30.7426 38.5404 30.7426 32.8659C30.7426 32.1794 30.7858 30.5298 31.4686 28.7995C32.1946 26.8716 34.5268 22.8861 40.2409 22.8861C41.2471 22.8861 42.7763 22.9632 44.8715 23.9713V27.2308ZM26.7947 42.6444H23.1345V17.2661H26.7947V42.6444ZM224.568 26.3863H219.135V36.368C219.135 36.5279 219.095 37.4514 219.257 38.0946C219.819 40.0282 221.913 39.9492 222.394 39.9492C223.079 39.9492 223.682 39.9097 224.969 39.5862L224.929 42.6049C223.763 42.8438 222.838 42.9661 221.63 42.9661C221.145 42.9661 219.415 42.9661 218.006 42.1987C215.552 40.8745 215.471 38.2959 215.471 35.9241V19.6736L219.135 16.8391V23.3694H224.568V26.3863ZM197.802 23.3281V27.1086C198.005 26.6703 198.325 26.0252 198.607 25.6208C200.379 23.1268 202.713 22.8861 203.838 22.8861C204.522 22.8861 206.375 22.9632 207.943 24.1312C210.36 25.9424 210.438 28.681 210.438 31.3781V42.6444H206.777V31.8182C206.777 30.1273 206.736 28.4383 205.406 27.1913C205.047 26.8283 204.161 26.2227 202.752 26.2227C202.228 26.2227 201.061 26.3487 199.935 27.2308C197.924 28.8785 197.964 31.6584 197.964 33.9492V42.6444H194.3V23.3281H197.802ZM186.692 31.6979C186.692 31.2145 186.812 29.6063 186.047 28.1581C185.648 27.4302 184.557 25.7036 182.144 25.7431C181.1 25.7431 180.131 26.0647 179.37 26.7079C177.436 28.3593 177.316 31.0565 177.276 31.6979H186.692ZM177.316 34.1524C177.397 34.9969 177.558 35.5611 177.681 35.8828C178.241 37.6131 179.573 39.0257 181.262 39.6689C181.944 39.9097 182.909 40.188 184.557 40.188C185.526 40.188 187.015 40.109 189.148 39.3473L189.107 42.2833C188.225 42.6049 186.492 43.0864 183.996 43.0864C183.27 43.0864 180.816 43.0864 178.642 42.0012C176.592 40.993 173.533 38.3768 173.573 32.785C173.573 32.0609 173.614 30.2496 174.34 28.4026C174.982 26.8283 177.034 22.8861 182.185 22.8861C187.096 22.8861 190.235 26.5443 190.235 31.3367C190.235 32.1399 190.192 32.6646 189.833 34.1524H177.316ZM170.958 27.2308H170.917C170.516 26.9506 170.475 26.913 170.23 26.7869C168.948 26.0647 167.537 26.0252 167.054 26.0252C166.572 26.0252 165.485 26.0647 164.319 26.629C162.908 27.2722 160.655 29.0026 160.655 32.8659C160.655 33.4301 160.655 34.474 161.137 35.721C162.107 38.3391 164.398 39.9492 167.174 39.9492C169.147 39.9492 170.475 39.1423 171.079 38.7812L171.118 41.8808C170.797 42.0821 170.396 42.3247 170.033 42.4413C169.51 42.6839 168.182 43.0864 166.489 43.0864C160.655 43.0469 156.833 38.5404 156.833 32.8659C156.833 32.1794 156.875 30.5298 157.557 28.7995C158.281 26.8716 160.616 22.8861 166.33 22.8861C167.334 22.8861 168.865 22.9632 170.958 23.9713V27.2308ZM140.976 23.3281V34.2784C140.976 36.0464 141.011 37.9761 142.663 39.1047C143.103 39.4263 144.072 39.8664 145.478 39.8664C147.009 39.825 147.732 39.4658 148.256 39.0633C149.866 37.7316 149.746 35.3599 149.746 33.5505V23.3281H153.408V33.5505C153.408 35.9241 153.365 36.8081 153.049 38.0175C152.763 38.9824 152.159 40.7504 149.947 42.0012C148.097 43.0864 146.163 43.0864 145.399 43.0864C144.192 43.0864 143.186 42.9266 142.783 42.8043C140.652 42.2833 138.717 40.8369 137.914 38.7812C137.351 37.3348 137.31 35.6025 137.31 33.9925V23.3281H140.976ZM125.286 17.2661V39.2232H135.374V42.6444H121.624V17.2661H125.286Z" fill="#334E68"/>
</g>
</g>
<defs>
<clipPath id="clip0_20_157">
<rect width="300.686" height="63.4036" fill="white"/>
</clipPath>
</defs>
</svg>
