<svg width="350" height="100" viewBox="0 0 350 100" fill="none" xmlns="http://www.w3.org/2000/svg">
<path d="M4 73L38 1H48L82 73H68L43 19L28 52H51L56 62H23L18 73H4Z" fill="#334E68"/>
<path d="M69 1L103 73H113L147 1H133L108 56L83 1H69Z" fill="#334E68"/>
<path d="M133 73L167 1H177L211 73H197L172 19L157 52H180L185 62H152L147 73H133Z" fill="#334E68"/>
<path d="M200 1L230 72L217 99H231L278 1H263L237 57L215 1H200Z" fill="#334E68"/>
<path d="M264 73L298 1H308L342 73H328L303 19L288 52H311L316 62H283L278 73H264Z" fill="#334E68"/>
</svg>
