<svg width="120" height="60" viewBox="0 0 120 60" fill="none" xmlns="http://www.w3.org/2000/svg">
<path d="M42.5964 30.9257C42.5964 27.7097 40.5985 24.8835 37.5937 23.7953C37.7236 23.1131 37.7886 22.4309 37.7886 21.7325C37.7886 15.739 32.9158 10.8662 26.9385 10.8662C23.4302 10.8662 20.1816 12.5392 18.1351 15.3654C17.1281 14.5858 15.8936 14.1634 14.6105 14.1634C11.4269 14.1634 8.84436 16.746 8.84436 19.9295C8.84436 20.628 8.9743 21.3102 9.20169 21.9436C6.21306 23.0156 4.1665 25.8906 4.1665 29.0903C4.1665 32.3226 6.18058 35.1488 9.18545 36.2371C9.05551 36.903 8.99054 37.6014 8.99054 38.2999C8.99054 44.2771 13.8471 49.1336 19.8243 49.1336C23.3327 49.1336 26.5812 47.4444 28.6115 44.6182C29.6186 45.4141 30.853 45.8526 32.1362 45.8526C35.3197 45.8526 37.9023 43.2701 37.9023 40.0865C37.9023 39.3881 37.7723 38.7059 37.5449 38.0725C40.5336 37.0005 42.5964 34.1255 42.5964 30.9257Z" fill="white"/>
<path d="M19.2718 27.3524L27.6855 31.1857L36.1641 23.7466C36.294 23.1294 36.3428 22.5284 36.3428 21.8787C36.3428 16.6486 32.0872 12.3931 26.8571 12.3931C23.7223 12.3931 20.8149 13.9361 19.0444 16.5187L17.6313 23.8441L19.2718 27.3524Z" fill="#334E68"/>
<path d="M10.5659 36.2533C10.4359 36.8705 10.3872 37.504 10.3872 38.1537C10.3872 43.4 14.659 47.6556 19.9053 47.6556C23.0564 47.6556 25.9963 46.0963 27.7667 43.4975L29.1636 36.2046L27.2957 32.6312L18.8496 28.7817L10.5659 36.2533Z" fill="#334E68"/>
<path d="M10.5173 21.7L16.2834 23.0643L17.5504 16.5186C16.7707 15.9176 15.7962 15.5928 14.7891 15.5928C12.2878 15.5928 10.2412 17.6231 10.2412 20.1407C10.2412 20.6767 10.3387 21.2127 10.5173 21.7Z" fill="#334E68"/>
<path d="M10.0138 23.0806C7.44745 23.9252 5.64453 26.394 5.64453 29.1065C5.64453 31.7541 7.28503 34.1093 9.73765 35.0513L17.8264 27.7422L16.3484 24.5749L10.0138 23.0806Z" fill="#334E68"/>
<path d="M29.2285 43.4975C30.0244 44.0985 30.9827 44.4396 31.9735 44.4396C34.4749 44.4396 36.5214 42.4093 36.5214 39.8917C36.5214 39.3394 36.424 38.8034 36.2453 38.3161L30.4954 36.968L29.2285 43.4975Z" fill="#334E68"/>
<path d="M30.3981 35.4575L36.7327 36.9356C39.3152 36.091 41.1019 33.6221 41.1019 30.8934C41.1019 28.2621 39.4614 25.8907 37.0088 24.9648L28.7251 32.2253L30.3981 35.4575Z" fill="#334E68"/>
<path d="M57.8971 37.7476L58.6605 37.6664L58.7092 39.2256C56.6951 39.5018 54.9734 39.6479 53.5441 39.6479C51.6437 39.6479 50.2956 39.0957 49.4997 37.9912C48.7038 36.8867 48.314 35.165 48.314 32.8423C48.314 28.197 50.1656 25.8743 53.8527 25.8743C55.6394 25.8743 56.9712 26.3778 57.8483 27.3686C58.7254 28.3594 59.164 29.9349 59.164 32.0627L59.0503 33.5732H50.3118C50.3118 35.0351 50.5717 36.1233 51.1077 36.8217C51.6437 37.5202 52.5533 37.8775 53.8689 37.8775C55.2008 37.91 56.5327 37.8613 57.8971 37.7476ZM57.1824 32.0139C57.1824 30.3897 56.9225 29.2365 56.4028 28.5705C55.883 27.9046 55.0384 27.5635 53.8689 27.5635C52.6995 27.5635 51.8061 27.9208 51.2214 28.6193C50.6367 29.3177 50.328 30.4547 50.3118 32.0139H57.1824Z" fill="#334E68"/>
<path d="M61.9253 39.5667V22.1384H63.9069V39.5667H61.9253Z" fill="#334E68"/>
<path d="M76.4298 30.1622V36.8379C76.4298 37.5038 78.0703 37.4713 78.0703 37.4713L77.9728 39.2255C76.576 39.2255 75.4228 39.3392 74.7243 38.6733C73.1326 39.3717 71.557 39.6641 69.9653 39.6641C68.7471 39.6641 67.8213 39.323 67.1878 38.6245C66.5543 37.9423 66.2295 36.9516 66.2295 35.6521C66.2295 34.369 66.5543 33.4107 67.204 32.8097C67.8537 32.2087 68.877 31.8189 70.2739 31.689L74.432 31.2991V30.1622C74.432 29.2688 74.2371 28.6191 73.8472 28.2293C73.4574 27.8395 72.9214 27.6446 72.2555 27.6446H67.0416V25.8904H72.1255C73.6198 25.8904 74.7081 26.2315 75.3903 26.9299C76.0887 27.6121 76.4298 28.7003 76.4298 30.1622ZM68.2761 35.5547C68.2761 37.1789 68.942 37.9911 70.2901 37.9911C71.4921 37.9911 72.6778 37.7962 73.831 37.3901L74.432 37.1789V32.8097L70.5175 33.1833C69.7216 33.2483 69.1531 33.4756 68.7958 33.8655C68.4385 34.2553 68.2761 34.8238 68.2761 35.5547Z" fill="#334E68"/>
<path d="M84.1774 27.6609C82.2608 27.6609 81.2863 28.3269 81.2863 29.675C81.2863 30.2922 81.5137 30.7308 81.9522 30.9907C82.3908 31.2505 83.3978 31.5104 84.9733 31.7865C86.5489 32.0627 87.6534 32.4362 88.3031 32.9398C88.9528 33.427 89.2776 34.3529 89.2776 35.7172C89.2776 37.0816 88.8391 38.0724 87.962 38.7059C87.0849 39.3393 85.8179 39.6642 84.1287 39.6642C83.0405 39.6642 79.3859 39.2581 79.3859 39.2581L79.4996 37.5364C81.5949 37.7313 83.1217 37.8937 84.145 37.8937C85.1682 37.8937 85.9479 37.7313 86.4839 37.4065C87.0199 37.0816 87.296 36.5294 87.296 35.766C87.296 35.0026 87.0686 34.4828 86.6138 34.2067C86.159 33.9306 85.152 33.6707 83.5927 33.427C82.0334 33.1834 80.9289 32.8261 80.2792 32.3388C79.6295 31.8678 79.3047 30.9744 79.3047 29.6913C79.3047 28.4081 79.7595 27.4498 80.6691 26.8326C81.5786 26.2153 82.7156 25.9067 84.0637 25.9067C85.1358 25.9067 88.8715 26.1829 88.8715 26.1829V27.9208C86.9062 27.8071 85.2982 27.6609 84.1774 27.6609Z" fill="#334E68"/>
<path d="M98.861 27.8883H94.6542V34.2229C94.6542 35.7334 94.7679 36.7405 94.979 37.2115C95.2064 37.6826 95.7262 37.9262 96.5545 37.9262L98.9097 37.7638L99.0396 39.4043C97.8539 39.5992 96.9606 39.6966 96.3434 39.6966C94.9628 39.6966 94.0207 39.3555 93.4847 38.6896C92.9487 38.0236 92.6888 36.7405 92.6888 34.8564V27.8883H90.8047V26.1666H92.6888V22.106H94.6542V26.1503H98.861V27.8883Z" fill="#334E68"/>
<path d="M101.622 24.4611V22.1709H103.604V24.4773H101.622V24.4611ZM101.622 39.5667V26.1666H103.604V39.5667H101.622Z" fill="#334E68"/>
<path d="M112.212 25.8904C112.797 25.8904 113.787 26.0041 115.184 26.2152L115.818 26.2964L115.737 27.9045C114.323 27.742 113.284 27.6608 112.618 27.6608C111.124 27.6608 110.1 28.0182 109.564 28.7328C109.028 29.4475 108.752 30.7794 108.752 32.7122C108.752 34.6451 108.996 35.9932 109.499 36.7566C110.003 37.52 111.042 37.8936 112.634 37.8936L115.753 37.65L115.834 39.2905C114.194 39.5341 112.959 39.6641 112.147 39.6641C110.084 39.6641 108.655 39.1281 107.875 38.0723C107.096 37.0165 106.689 35.2298 106.689 32.7122C106.689 30.1947 107.112 28.4242 107.956 27.4172C108.817 26.4101 110.23 25.8904 112.212 25.8904Z" fill="#334E68"/>
</svg>
