<svg width="1067" height="299" viewBox="0 0 1067 299" fill="none" xmlns="http://www.w3.org/2000/svg">
<g clip-path="url(#clip0_20_206)">
<mask id="mask0_20_206" style="mask-type:luminance" maskUnits="userSpaceOnUse" x="0" y="0" width="1067" height="299">
<path d="M0 0H1066.93V298.135H0V0Z" fill="white"/>
</mask>
<g mask="url(#mask0_20_206)">
<path fill-rule="evenodd" clip-rule="evenodd" d="M75.2501 2.59894C79.948 1.3854 84.6771 -0.0260568 89.5574 0.0416516C139.88 0.10936 190.198 0.0520683 240.521 0.0833183C240.693 18.2917 240.557 36.5104 240.583 54.7187C194.266 54.776 147.948 54.6562 101.625 54.7864C82.599 54.4948 65.0678 72.5885 66.9063 91.7187C66.4376 101.161 66.6251 110.615 66.599 120.068C124.599 120.083 182.599 120.068 240.583 120.068C240.599 138.177 240.599 156.281 240.599 174.401C182.599 174.417 124.599 174.385 66.599 174.401C66.5834 214.292 66.599 254.177 66.599 294.068C44.599 294.068 22.599 294.068 0.614648 294.068C0.453189 266.615 0.947981 239.161 0.250064 211.719C0.375064 172.146 0.0781887 132.573 0.333397 93C0.838605 74.1354 6.30736 55.1458 17.8646 40.026C31.8803 21.3333 52.9167 8.73436 75.2501 2.59894ZM251.615 0.401026C310.948 0.374985 370.281 0.45311 429.615 0.35936C430.599 18.4687 429.292 36.6146 429.599 54.7344C370.281 54.75 310.958 54.7083 251.651 54.75C251.531 36.6406 251.625 18.5208 251.615 0.401026ZM738.599 0.427069C769.599 0.374985 800.599 0.401026 831.599 0.416652C831.583 18.5208 831.615 36.625 831.599 54.7344C800.599 54.7344 769.599 54.7344 738.615 54.7187C738.583 36.625 738.615 18.5208 738.599 0.427069ZM842.599 0.416652C864.615 0.427069 886.615 0.307277 908.625 0.479152C908.828 18.5625 909.401 36.6667 908.557 54.7344C886.573 54.7187 864.583 54.75 842.615 54.7187C842.583 36.625 842.599 18.5208 842.599 0.416652ZM444.932 0.401026C493.917 0.374985 542.891 0.442693 591.88 0.374985C592 18.4792 591.891 36.5989 591.932 54.7187C542.932 54.75 493.932 54.7344 444.948 54.7344C444.932 36.6146 444.932 18.5104 444.932 0.401026ZM603.266 54.7187C603.292 36.6146 603.224 18.4948 603.292 0.385402C645.839 0.427069 688.386 0.385402 730.932 0.401026C731.12 18.5104 731.531 36.625 730.932 54.7344C688.37 54.7344 645.828 54.75 603.266 54.7187ZM916.266 0.401026C935.599 0.401026 954.932 0.401026 974.266 0.401026C974.266 18.5104 974.266 36.6146 974.25 54.7344C954.932 54.7344 935.599 54.7344 916.266 54.7344C916.25 36.625 916.266 18.5104 916.266 0.401026ZM1004.93 0.401026C1025.6 0.401026 1046.27 0.401026 1066.93 0.401026C1066.93 99.6302 1066.95 198.854 1066.92 298.068C1046.27 298.068 1025.6 298.052 1004.95 298.083C1004.91 198.854 1004.93 99.6302 1004.93 0.401026ZM251.198 81.0833C298.651 81.0417 346.104 81.0937 393.573 81.0521C403.745 81.0156 414.104 83.6927 422.557 89.4792C434.068 98.2396 441.24 111.521 445.453 125.12C452.026 146.203 452.958 168.469 453.583 190.375C453.958 224.932 451.531 259.495 453.011 294.042C426.104 293.401 399.198 293.88 372.292 294.417C340.719 294.281 309.026 295.214 277.583 291.573C272.839 290.88 267.677 291.109 263.521 288.349C248.958 280.109 238.76 265.307 235.052 249.12C229.547 224.802 235.948 197.656 253.162 179.349C258.573 173.932 264.708 168.812 271.974 166.203C301.12 160.854 330.865 162.589 360.318 162.401C371.734 162.844 383.188 163.016 394.615 162.323C394.49 152.375 395.281 141.562 390.104 132.625C386.188 126.109 378.188 124.12 371.052 124.094C331.24 124.026 291.427 124.094 251.615 124.068C251.438 109.734 251.958 95.401 251.198 81.0833ZM298.547 210.177C294.078 211.12 290.359 214.599 289.198 219.026C287.359 225.974 287.198 233.776 290.401 240.349C293.521 246.24 300.854 247.375 306.891 247.401C336.12 247.401 365.359 247.401 394.599 247.401C394.615 234.625 394.583 221.854 394.615 209.083C368.464 209.042 342.333 209.083 316.198 209.068C310.307 209.068 304.333 208.922 298.547 210.177ZM479.599 81.0677C524.677 81.0521 569.771 81.0833 614.854 81.0521C621.068 80.9635 627.401 81.0521 633.412 82.8021C643.828 85.6406 652.667 92.2812 660.359 99.6302C675.583 117.135 681.625 140.854 681.281 163.693C681.24 192.589 681.281 221.479 681.266 250.359C680.677 264.88 680.948 279.417 681.026 293.932C660.224 294.24 639.412 293.974 618.615 294.068C618.583 243.042 618.599 192.026 618.615 141C618.745 134.172 613.734 128.12 607.547 125.75C603.162 123.776 598.24 124.505 593.583 124.401C575.078 124.349 556.573 124.521 538.068 124.307C537.745 180.88 538.026 237.479 537.917 294.068C518.495 294.068 499.052 294.052 479.615 294.068C479.583 223.068 479.599 152.068 479.599 81.0677ZM672.693 81.4792C694.719 81.2969 716.761 81.4792 738.787 81.3854C753.761 129.453 770.12 177.12 788.906 223.844C814.026 178.479 828.026 128.161 850.281 81.4687C871.078 81.3229 891.891 81.4271 912.693 81.4167C884.12 152.719 850.026 221.76 823.813 294.026C800.521 294.135 777.214 294.016 753.906 294.083C729.813 222.083 695.719 153.87 672.693 81.4792ZM916.266 81.0677C935.599 81.0677 954.932 81.0677 974.266 81.0677C974.281 153.385 974.24 225.708 974.292 298.026C954.948 298.12 935.615 298.026 916.281 298.068C916.25 225.734 916.266 153.401 916.266 81.0677Z" fill="#334E68"/>
</g>
</g>
<defs>
<clipPath id="clip0_20_206">
<rect width="1066.93" height="298.133" fill="white"/>
</clipPath>
</defs>
</svg>
