<svg width="750" height="750" viewBox="0 0 750 750" fill="none" xmlns="http://www.w3.org/2000/svg">
<path d="M54.15 535.2H17.34V569.37H54.15V555.61H35.15V549.61H62V564.83C62 569.14 61.23 572.07 59.67 573.62C58.11 575.17 55.23 575.94 50.98 575.94H20.53C16.27 575.94 13.38 575.17 11.83 573.62C10.28 572.07 9.5 569.14 9.5 564.83V540C9.5 535.693 10.2767 532.763 11.83 531.21C13.38 529.66 16.27 528.88 20.53 528.88H51C55.1333 528.88 58.0033 529.617 59.61 531.09C61.2167 532.563 62.0133 535.33 62 539.39V540.58H54.16L54.15 535.2Z" fill="#334E68"/>
<path d="M118.21 535H91.2099V551.49H118.21C120.1 551.49 121.42 551.16 122.21 550.49C123 549.82 123.35 548.55 123.35 546.66V539.83C123.35 538.01 122.97 536.75 122.21 536.05C121.45 535.35 120.13 535 118.21 535ZM83.3999 575.93V528.93H121.24C124.7 528.93 127.24 529.65 128.79 531.08C130.34 532.51 131.15 534.83 131.15 538.08V548.5C131.15 551.73 130.37 554.05 128.79 555.5C127.21 556.95 124.7 557.64 121.24 557.64H114.33L135.84 575.95H124.17L105.06 557.64H91.2399V575.95L83.3999 575.93Z" fill="#334E68"/>
<path d="M159.49 558.35H184.83L172.16 534.29L159.49 558.35ZM142.49 575.93L168.19 528.93H176.57L202.73 575.93H194L188 564.36H156.21L150.21 575.93H142.49Z" fill="#334E68"/>
<path d="M216.72 575.93V528.93H221.64L256.82 560.37C258.788 562.181 260.589 564.166 262.2 566.3C261.646 562.466 261.398 558.593 261.46 554.72V528.91H268.75V575.91H264.38L228.2 543.22C226.86 542 226.1 541.31 225.92 541.13C224.968 540.175 224.142 539.103 223.46 537.94C223.864 541.355 224.047 544.792 224.01 548.23V575.93H216.72Z" fill="#334E68"/>
<path d="M316.68 535.2H299.73V569.37H316.68C323.973 569.37 329.197 568.153 332.35 565.72C335.817 563.1 337.55 558.563 337.55 552.11C337.55 545.89 335.817 541.473 332.35 538.86C329.13 536.42 323.907 535.2 316.68 535.2ZM317.78 528.91C326.033 528.91 332.033 530.127 335.78 532.56C338.863 534.556 341.336 537.361 342.93 540.67C344.69 544.238 345.581 548.172 345.53 552.15C345.53 561.33 342.28 568.043 335.78 572.29C332.08 574.723 326.08 575.937 317.78 575.93H291.9V528.93L317.78 528.91Z" fill="#334E68"/>
<path d="M404.44 535.2H371.18V548.42H400.79C405.05 548.42 407.93 549.21 409.45 550.79C410.97 552.37 411.73 555.28 411.73 559.53V564.82C411.73 569.127 410.97 572.057 409.45 573.61C407.93 575.16 405.05 575.93 400.79 575.93H373.36C369.113 575.93 366.213 575.157 364.66 573.61C363.107 572.063 362.333 569.133 362.34 564.82V563.54H369.63V569.35H404.63V555.25H375.09C370.91 555.25 368.03 554.48 366.48 552.92C364.93 551.36 364.16 548.45 364.16 544.14V540C364.16 535.63 364.94 532.68 366.48 531.16C368.02 529.64 370.91 528.88 375.09 528.88H400.15C404.15 528.88 406.993 529.6 408.68 531.04C410.34 532.48 411.18 535.16 411.18 539.04V540.04H404.44V535.2Z" fill="#334E68"/>
<path d="M452.55 535.29V575.93H444.71V535.29H423.21V528.91H474.14V535.29H452.55Z" fill="#334E68"/>
<path d="M521 535H494V551.49H521C522.88 551.49 524.21 551.16 525 550.49C525.79 549.82 526.14 548.55 526.14 546.66V539.83C526.14 538.01 525.75 536.75 525 536.05C524.25 535.35 522.91 535 521 535ZM486.19 575.91V528.91H524C527.46 528.91 530 529.63 531.55 531.06C533.1 532.49 533.91 534.81 533.91 538.06V548.5C533.91 551.73 533.13 554.05 531.55 555.5C529.97 556.95 527.46 557.64 524 557.64H517.1L538.6 575.95H526.94L507.83 557.64H494V575.95L486.19 575.91Z" fill="#334E68"/>
<path d="M554.43 575.93V528.91H599.71V535.2H562.26V548.32H585.13V554.52H562.26V569.47H600.09V575.93H554.43Z" fill="#334E68"/>
<path d="M625.41 558.35H650.75L638.08 534.29L625.41 558.35ZM608.41 575.93L634.11 528.93H642.49L668.65 575.93H660L654 564.36H622.2L616.2 575.93H608.41Z" fill="#334E68"/>
<path d="M688.93 537.3C689.196 539.597 689.317 541.908 689.29 544.22V575.93H682.64V528.93H689L711.87 559.55L733.19 528.93H740.48V575.93H733.19V544.22L733.56 537.3C732.757 539.074 731.811 540.78 730.73 542.4L712.73 568.55H710.73L692.05 543.13C690.822 541.282 689.755 539.331 688.86 537.3" fill="#334E68"/>
<mask id="mask0_20_213" style="mask-type:luminance" maskUnits="userSpaceOnUse" x="405" y="284" width="133" height="130">
<path d="M405.34 284.21C405.34 284.21 484.54 362.62 471.97 413.21C471.97 413.21 480.54 408.14 491.5 400.95C492.34 400.38 493.2 399.81 494.07 399.24C497.07 394.99 501.07 392.58 505.64 390.04C506.78 389.4 507.99 388.75 509.2 388.04C511.53 386.12 513.73 384.12 515.97 382.3C516.16 382.12 516.38 381.96 516.57 381.8C521.04 379.34 525.87 374.98 529.35 372.51L529.47 372.39C534.54 367.34 537.72 362.39 537.72 358.97C537.72 345.89 498 304 405.34 284.21Z" fill="white"/>
</mask>
<g mask="url(#mask0_20_213)">
<path d="M537.72 284.21H405.34V413.22H537.72V284.21Z" fill="#334E68"/>
</g>
<mask id="mask1_20_213" style="mask-type:luminance" maskUnits="userSpaceOnUse" x="236" y="174" width="251" height="122">
<path d="M305.77 174.15C295.163 174.578 284.62 176.004 274.28 178.41C266.261 180.602 258.56 183.826 251.37 188C250.37 188.6 249.37 189.23 248.37 189.89C245.269 191.993 242.418 194.442 239.87 197.19C238.104 199.469 237.043 202.215 236.82 205.09C236.42 233.02 278.34 295.09 278.34 295.09C277.18 205.6 486.11 225.26 486.11 225.26C406.96 185.74 350.51 174.14 311.52 174.14C309.52 174.14 307.63 174.14 305.74 174.22" fill="white"/>
</mask>
<g mask="url(#mask1_20_213)">
<path d="M361.293 49.2187L175.967 234.544L361.293 419.87L546.619 234.544L361.293 49.2187Z" fill="#334E68"/>
</g>
<mask id="mask2_20_213" style="mask-type:luminance" maskUnits="userSpaceOnUse" x="236" y="201" width="294" height="288">
<path d="M236.76 209.27C249.39 387.68 319.31 475.51 340.76 487.27C366.83 501.67 529.4 372.5 529.4 372.5C358.41 401.81 242.46 219.78 237.56 201.68C236.833 204.14 236.562 206.712 236.76 209.27Z" fill="white"/>
</mask>
<g mask="url(#mask2_20_213)">
<path d="M529.34 201.68H236.57V501.72H529.34V201.68Z" fill="#334E68"/>
</g>
</svg>
