<svg width="614" height="172" viewBox="0 0 614 172" fill="none" xmlns="http://www.w3.org/2000/svg">
<g clip-path="url(#clip0_20_915)">
<path d="M237.79 126.51C231.62 126.42 225.46 126.1 219.34 125.3C218.36 125.17 217.37 125 216.41 124.78C215.36 124.54 215.05 124.26 215.18 123.25C215.45 121.12 215.29 118.98 215.59 116.85C215.73 115.87 215.78 114.86 215.73 113.87C215.68 112.66 215.97 111.5 215.97 110.3C215.97 109.48 216.35 109.23 217.24 109.36C219.01 109.63 220.77 109.96 222.54 110.19C227.93 110.91 233.35 111.13 238.78 110.96C240.33 110.91 241.85 110.74 243.35 110.35C245.44 109.81 246.68 108.5 247.12 106.37C247.48 104.64 247.49 102.89 247.35 101.16C247.2 99.43 246.3 97.99 245.1 96.71C243.07 94.55 240.68 92.83 238.31 91.09C234.29 88.14 230.03 85.53 226.06 82.51C223.27 80.39 220.61 78.15 218.67 75.18C217.02 72.66 216.23 69.89 215.91 66.91C215.54 63.45 215.84 60.06 216.48 56.68C217.93 49 222.7 44.43 230.06 42.36C233.57 41.37 237.16 40.93 240.81 40.78C242.85 40.7 244.89 40.55 246.93 40.62C252.89 40.84 258.85 41.18 264.75 42.11C264.99 42.15 265.23 42.23 265.47 42.29C266.59 42.58 266.67 42.62 266.64 43.82C266.55 46.6 266.35 49.38 266.09 52.15C265.94 53.73 266.03 55.33 265.75 56.91C265.59 57.83 265.43 58.02 264.49 57.91C262.86 57.73 261.24 57.5 259.61 57.26C254.27 56.47 248.91 56.19 243.53 56.52C242.16 56.6 240.76 56.77 239.44 57.29C237.72 57.96 236.65 59.11 236.26 60.94C235.94 62.48 235.87 64.02 236.15 65.54C236.51 67.46 237.59 69 239.08 70.27C242.29 72.99 245.91 75.11 249.45 77.34C253.04 79.59 256.6 81.9 259.8 84.7C262.67 87.21 265.24 89.99 266.65 93.63C267.58 96.02 268.02 98.5 268.06 101.07C268.11 104.42 267.99 107.74 267.18 111.01C266.59 113.4 265.69 115.66 264.32 117.71C262.18 120.91 259.13 122.88 255.59 124.19C253.15 125.09 250.62 125.62 248.04 125.93C244.63 126.34 241.2 126.57 237.76 126.52L237.79 126.51Z" fill="#334E68"/>
<path d="M301.32 126.52C294.5 126.41 287.7 126.04 280.96 125.02C280.72 124.98 280.47 124.92 280.23 124.87C278.94 124.56 278.84 124.49 278.86 123.18C278.92 119.75 279.13 116.32 279.43 112.9C279.5 112.11 279.45 111.3 279.52 110.51C279.62 109.46 279.92 109.23 280.97 109.4C283.42 109.8 285.87 110.19 288.35 110.45C290.72 110.7 293.1 110.95 295.48 110.99C298.76 111.04 302.06 111.19 305.33 110.71C305.67 110.66 306.02 110.61 306.36 110.53C309.94 109.67 310.48 107.94 310.86 105.5C311.06 104.18 311.03 102.81 310.96 101.47C310.86 99.42 309.8 97.79 308.4 96.37C306.11 94.05 303.45 92.19 300.82 90.32C296.68 87.37 292.35 84.69 288.37 81.52C286.5 80.03 284.72 78.43 283.23 76.54C280.94 73.63 279.66 70.31 279.5 66.63C279.35 63.3 279.39 59.97 280.06 56.66C281.43 49.94 285.26 45.36 291.7 43.02C295.71 41.56 299.89 41.01 304.14 40.8C306.08 40.7 308.02 40.57 309.96 40.63C316.07 40.83 322.18 41.15 328.23 42.12C328.57 42.17 328.91 42.24 329.25 42.33C330.13 42.55 330.44 42.96 330.35 43.81C330.06 46.63 329.94 49.46 329.76 52.29C329.66 53.78 329.53 55.26 329.47 56.76C329.43 57.79 329.08 58.09 328.03 57.93C325.48 57.54 322.91 57.2 320.35 56.91C316.63 56.49 312.91 56.3 309.17 56.44C307.48 56.5 305.8 56.63 304.14 56.98C300.96 57.66 299.91 59.53 299.62 62.46C299.26 66.01 300.64 68.74 303.42 70.89C306.78 73.49 310.43 75.65 314.01 77.91C318.1 80.5 322.08 83.23 325.53 86.66C329.67 90.77 331.71 95.71 331.69 101.56C331.67 105.16 331.47 108.72 330.47 112.2C328.63 118.58 324.44 122.58 318.16 124.52C314.47 125.66 310.7 126.14 306.85 126.33C305.01 126.42 303.17 126.47 301.33 126.51L301.32 126.52Z" fill="#334E68"/>
<path d="M579.68 61.39C579.68 45.72 579.68 30.05 579.68 14.38C579.68 13.98 579.66 13.58 579.68 13.18C579.76 11.87 580.33 11.26 581.65 11.26C587.14 11.24 592.63 11.23 598.12 11.26C599.47 11.26 599.99 11.86 600.04 13.19C600.05 13.59 600.04 13.99 600.04 14.39C600.04 44.43 600.04 74.48 600.04 104.52C600.04 105.68 600.18 106.8 600.52 107.9C601.06 109.65 602.27 110.6 604.03 110.98C605.76 111.35 607.5 111.17 609.24 111.21C609.99 111.23 610.74 111.18 611.48 111.22C612.61 111.28 613.24 111.87 613.05 112.94C612.82 114.23 612.97 115.52 612.86 116.81C612.7 118.64 612.69 120.49 612.62 122.32C612.56 124.13 612.15 124.59 610.33 125.08C605.97 126.26 601.51 126.65 597.02 126.45C593.99 126.32 590.98 125.93 588.14 124.69C584.36 123.05 582 120.2 580.81 116.33C580 113.7 579.68 110.98 579.67 108.23C579.65 92.61 579.67 76.99 579.67 61.37L579.68 61.39Z" fill="#334E68"/>
<path d="M179.41 72.3599C179.41 55.7399 179.41 39.1199 179.41 22.4999C179.41 22.0999 179.39 21.6999 179.41 21.2999C179.47 20.3299 179.83 19.9599 180.77 19.8499C181.02 19.8199 181.27 19.8399 181.52 19.8399C186.96 19.8399 192.4 19.8399 197.84 19.8399C198.09 19.8399 198.34 19.8199 198.59 19.8399C199.48 19.9399 199.94 20.3699 200.05 21.2599C200.11 21.6999 200.07 22.1599 200.07 22.6099C200.07 55.7499 200.06 88.8899 200.09 122.03C200.09 124.52 199.44 125.05 197.17 125.02C192.13 124.95 187.09 125 182.05 125C181.65 125 181.25 125.03 180.86 124.96C179.75 124.78 179.44 124.4 179.4 123.27C179.39 122.92 179.4 122.57 179.4 122.22C179.4 105.6 179.4 88.9799 179.4 72.3599H179.41Z" fill="#334E68"/>
<path d="M110.46 30.03C103.59 30.15 97.6099 24.42 97.6299 17.23C97.6499 10 103.32 4.27001 110.49 4.26001C117.53 4.26001 123.5 9.96001 123.41 17.33C123.32 24.4 117.49 30.19 110.46 30.02V30.03Z" fill="#334E68"/>
<path d="M76.46 63.69C76.56 70.69 70.46 76.67 63.28 76.48C56.25 76.29 50.6 70.59 50.69 63.4C50.77 56.34 56.62 50.62 63.65 50.68C70.81 50.74 76.56 56.5 76.46 63.69Z" fill="#334E68"/>
<path d="M16.71 97.14C23.09 97.04 29.6 102 29.55 110.06C29.5 118.09 23.1 123.01 16.46 122.9C9.96997 122.8 3.72997 117.98 3.76997 109.96C3.80997 101.57 10.6 96.98 16.72 97.14H16.71Z" fill="#334E68"/>
<path d="M491.37 78.19C491.18 75.01 491.12 71.83 490.72 68.67C490.17 64.25 489.19 59.94 487.34 55.87C484.7 50.09 480.5 45.91 474.56 43.5C470.68 41.93 466.63 41.22 462.5 40.93C457.37 40.56 452.26 40.97 447.17 41.64C445.79 41.82 444.4 41.95 443.01 42C441.69 42.05 441.53 41.85 441.5 40.58C441.5 40.28 441.5 39.98 441.5 39.68C441.5 31.14 441.5 22.61 441.5 14.07C441.5 13.62 441.54 13.16 441.46 12.73C441.34 12.06 440.98 11.57 440.24 11.38C439.74 11.25 439.26 11.25 438.76 11.25C433.72 11.25 428.68 11.25 423.64 11.25C421.4 11.25 421.14 11.52 421.14 13.73C421.14 31.55 421.14 49.37 421.14 67.19C421.14 82.81 421.14 98.44 421.14 114.06C421.14 116.46 421.17 118.85 421.12 121.25C421.1 122.26 421.56 122.85 422.41 123.22C423.37 123.63 424.37 123.94 425.4 124.16C432.81 125.82 440.37 126.16 447.91 126.47C450.74 126.59 453.58 126.5 456.42 126.33C461.36 126.03 466.21 125.34 470.91 123.73C479.4 120.81 485.03 115.05 488.05 106.63C490.02 101.14 490.87 95.44 491.17 89.67C491.37 85.86 491.59 82.03 491.37 78.19ZM469.91 91.69C469.75 95.75 469.29 99.82 467.7 103.66C466.21 107.28 463.58 109.58 459.86 110.66C458.04 111.19 456.17 111.5 454.28 111.56C450.6 111.68 446.91 111.69 443.27 111.01C441.68 110.71 441.5 110.51 441.5 108.83C441.5 100.5 441.5 92.16 441.5 83.83C441.5 75.75 441.5 67.66 441.5 59.58C441.5 57.23 441.53 57.13 443.9 56.63C448.77 55.59 453.65 55.48 458.57 56.33C463.84 57.24 466.92 60.44 468.42 65.38C469.16 67.81 469.53 70.32 469.75 72.86C470.29 79.13 470.15 85.42 469.91 91.69Z" fill="#334E68"/>
<path d="M405.56 119.82V93.01C405.56 84.32 405.56 75.64 405.56 66.95C405.56 64.41 405.41 61.88 405 59.37C403.7 51.54 399.39 46.13 391.94 43.26C386.9 41.32 381.6 40.82 376.28 40.62C374.2 40.54 372.1 40.69 370.01 40.75C364.93 40.91 359.89 41.36 354.86 42.08C352.5 42.42 350.16 42.91 347.85 43.51C347.05 43.72 346.68 44.21 346.65 45C346.63 45.4 346.62 45.8 346.66 46.2C346.83 48.03 347.03 49.86 347.21 51.68C347.39 53.56 347.56 55.44 347.75 57.31C347.85 58.3 348.07 58.52 349.05 58.55C349.69 58.57 350.35 58.52 350.99 58.44C353.21 58.19 355.42 57.88 357.65 57.65C361.06 57.3 364.49 57.06 367.92 56.98C371.11 56.91 374.3 56.96 377.44 57.59C382.35 58.57 384.71 60.58 385.4 65.53C385.81 68.45 385.55 71.41 385.58 74.35C385.58 75.05 385.12 75.26 384.51 75.34C382.54 75.6 380.58 75.88 378.61 76.14C373.04 76.87 367.46 77.52 361.91 78.35C357.57 79 353.34 80.09 349.4 82.15C345.11 84.39 342.37 87.85 341.26 92.5C339.87 98.33 339.93 104.26 340.73 110.17C341.11 113.01 342.12 115.67 343.87 117.99C346.29 121.2 349.67 122.94 353.4 124.08C359.51 125.95 365.83 126.22 372.14 126.43C375.57 126.54 379.01 126.46 382.45 126.31C387.38 126.1 392.27 125.72 397.15 125.04C399.22 124.75 401.27 124.32 403.28 123.73C404.97 123.24 405.53 122.43 405.58 120.69C405.58 120.39 405.58 120.09 405.58 119.79L405.56 119.82ZM385.58 110.67C385.58 112.19 385.34 112.5 383.84 112.73C381.63 113.07 379.4 113.33 377.16 113.31C374.22 113.28 371.28 113.48 368.35 113.12C367.06 112.96 365.79 112.74 364.57 112.3C362.71 111.63 361.48 110.36 360.81 108.51C360.47 107.57 360.2 106.59 360.15 105.61C359.99 102.28 359.77 98.93 360.4 95.62C360.86 93.23 361.84 91.16 364.04 89.88C364.95 89.35 365.94 89 366.97 88.8C368.63 88.47 370.3 88.26 372 88.25C375.69 88.23 379.38 88.19 383.07 88.16C383.42 88.16 383.77 88.14 384.12 88.16C385.37 88.23 385.57 88.41 385.57 89.71C385.59 93.25 385.57 96.8 385.57 100.34C385.57 103.78 385.57 107.23 385.57 110.67H385.58Z" fill="#334E68"/>
<path d="M567.95 58.53C567.06 51.54 563.61 46.59 556.86 44.09C552.66 42.53 548.29 41.91 543.88 41.52C540.06 41.19 536.23 41.06 532.39 41.1C529.45 41.15 526.52 41.18 523.58 41.36C520.7 41.53 517.82 41.71 514.96 42.04C511.75 42.42 508.55 42.84 505.44 43.78C503.39 44.4 503 44.91 503 47.07C503 65.29 503 83.51 502.99 101.73C502.99 104.08 503.14 106.4 503.57 108.71C504.93 115.97 508.92 121.13 515.77 124C520.67 126.05 525.83 126.77 531.08 126.87C536.36 126.97 541.63 126.85 546.89 126.31C551.4 125.85 555.88 125.3 560.27 124.17C561.5 123.85 562 123.12 561.88 121.91C561.51 118.2 561.09 114.5 560.83 110.79C560.71 109.07 559.86 108.78 558.47 109C556.26 109.35 554.04 109.62 551.82 109.83C548.9 110.1 545.97 110.25 543.05 110.47C539.7 110.73 536.39 110.58 533.07 110.3C531.89 110.2 530.7 109.97 529.55 109.66C527.38 109.07 525.49 108.02 524.31 105.98C523.41 104.43 523.03 102.73 522.99 100.97C522.93 98.48 522.96 95.98 522.98 93.48C522.98 92.45 523.13 92.28 524.17 92.14C528.21 91.62 532.26 91.14 536.3 90.62C540.59 90.07 544.9 89.66 549.13 88.76C552.79 87.99 556.4 87 559.67 85.11C562.88 83.25 565.24 80.66 566.58 77.14C567.6 74.45 567.99 71.64 568.17 68.82C568.39 65.39 568.38 61.95 567.95 58.53ZM548.47 68.51C548.37 70.7 548.09 72.86 547.09 74.87C546.27 76.53 544.97 77.61 543.28 78.26C541.78 78.83 540.22 79.09 538.62 79.25C535.79 79.53 532.95 79.44 530.56 79.46C528.22 79.46 526.32 79.47 524.43 79.46C523.14 79.45 522.98 79.29 522.97 77.98C522.97 70.9 522.97 63.81 522.97 56.73C522.97 55.39 523.16 55.17 524.43 54.93C526.39 54.57 528.37 54.34 530.35 54.33C533.88 54.32 537.43 54.09 540.94 54.61C541.73 54.73 542.51 54.88 543.28 55.09C545.75 55.79 547.25 57.44 547.89 59.91C548.62 62.74 548.59 65.63 548.46 68.52L548.47 68.51Z" fill="#334E68"/>
<path d="M63.6 0.50001C53.53 0.51001 47.0901 8.80001 46.9501 16.96C46.7901 25.97 54.59 34.1 63.5201 33.72C71.1901 34.23 80.18 27.76 80.25 17.28C80.3 7.92001 72.96 0.49001 63.6 0.50001ZM63.7701 31.83C55.63 31.93 48.95 25.26 48.92 17.23C48.89 9.21001 55.33 2.60001 63.48 2.48001C71.53 2.36001 78.2501 9.10001 78.2601 17.17C78.2101 25.39 71.5301 31.73 63.7701 31.82V31.83Z" fill="#334E68"/>
<path d="M63.65 141.18C55.38 141.23 48.41 147.55 48.35 156.32C48.29 164.68 54.51 171.61 63.57 171.66C72.49 171.71 78.47 164.62 78.78 157.06C79.14 148.4 72.27 141.25 63.64 141.17L63.65 141.18ZM64.08 169.66C56.73 169.94 50.37 163.95 50.33 156.51C50.29 149.46 55.93 143.25 63.6 143.17C71.46 143.26 76.54 149.77 76.8 155.81C77.11 163.14 71.21 169.38 64.08 169.66Z" fill="#334E68"/>
<path d="M78.78 109.04C78.32 101.34 71.99 94.82 63.55 94.75C54.87 94.9 48.24 101.71 48.36 110.17C48.49 118.79 55.05 125.3 63.69 125.25C72.75 125.2 79.3 117.66 78.78 109.04ZM63.49 123.26C56.12 123.21 50.32 117.27 50.34 109.97C50.35 102.14 57.2 96.48 63.6 96.84C70.26 96.49 76.84 102.59 76.82 109.99C76.8 116.74 71.32 123.31 63.5 123.26H63.49Z" fill="#334E68"/>
<path d="M16.7899 1.92997C8.40995 1.85997 1.25994 8.81997 1.48994 17.15C1.20994 24.67 7.40995 32.38 16.6099 32.4C25.8999 32.42 31.8699 24.7 31.8899 17.26C31.8999 8.80997 24.9599 1.99997 16.7899 1.92997ZM16.6699 30.41C9.42994 30.41 3.35994 24.59 3.41994 17.07C3.48994 8.97997 10.4399 3.71997 16.7299 3.96997C23.0099 3.77997 29.9399 9.11997 29.9199 17.21C29.8999 24.62 23.9199 30.41 16.6699 30.41Z" fill="#334E68"/>
<path d="M110.53 94.77C101.54 94.74 95.15 102.22 95.34 109.93C95.12 117.7 101.35 125.26 110.53 125.24C119.14 125.22 125.69 118.65 125.75 110.08C125.81 101.52 119.14 94.8 110.53 94.77ZM110.47 123.25C102.57 123.23 97.21 116.46 97.29 109.84C97.37 102.74 103.64 96.52 110.51 96.83C117.01 96.5 123.76 102.14 123.77 109.95C123.77 117.32 117.89 123.27 110.47 123.25Z" fill="#334E68"/>
<path d="M110.75 48.3599C102.31 48.2499 95.25 55.1099 95.33 63.4799C95.09 71.5699 101.74 78.8899 110.52 78.8299C118.99 78.7699 125.66 72.3899 125.75 63.6299C125.84 54.9399 118.71 48.4699 110.75 48.3699V48.3599ZM110.53 76.8299C102.37 76.8499 97.01 69.7299 97.34 63.6299C97.07 56.4899 103.44 50.3099 110.6 50.3399C117.11 50.3699 123.82 55.7999 123.77 63.6199C123.72 71.0899 117.8 76.8099 110.54 76.8299H110.53Z" fill="#334E68"/>
<path d="M16.74 46.9301C7.1 46.8801 0 54.5601 0 63.6201C0 73.1401 7.95 80.4801 16.66 80.1601C25.09 80.5001 33.32 73.4001 33.32 63.6301C33.32 54.6301 26.35 46.9901 16.74 46.9401V46.9301ZM16.65 78.2601C8.97 78.2501 1.96 72.0401 2 63.6201C2.04 54.8001 9.12 48.8701 16.73 48.9101C25.74 48.9601 31.65 56.8001 31.24 63.6201C31.55 71.0901 24.96 78.2701 16.65 78.2601Z" fill="#334E68"/>
<path d="M16.62 52.9601C9.58998 53.0201 6.13998 58.7001 6.05998 63.3601C5.94998 69.6001 11.04 74.2801 16.62 74.1601C22.1 74.3301 27.22 69.7101 27.27 63.7201C27.32 58.2401 23.26 52.9101 16.63 52.9601H16.62Z" fill="#334E68"/>
<path d="M74.06 17.0601C74.46 22.5401 69.71 27.7701 63.61 27.7201C57.63 27.6801 53.07 23.1101 53 17.1101C52.94 11.4001 58.1 6.49006 63.72 6.57006C69.09 6.65006 74.46 11.4101 74.06 17.0501V17.0601Z" fill="#334E68"/>
</g>
<defs>
<clipPath id="clip0_20_915">
<rect width="613.09" height="171.16" fill="white" transform="translate(0 0.5)"/>
</clipPath>
</defs>
</svg>
