<svg width="387" height="91" viewBox="0 0 387 91" fill="none" xmlns="http://www.w3.org/2000/svg">
<g clip-path="url(#clip0_20_938)">
<path d="M62.0519 63.073L51.8228 57.1667L48.6353 55.323C47.3905 54.3698 46.5832 52.8698 46.5832 51.1771C46.5832 49.4896 47.3905 47.9896 48.6353 47.0365L51.8228 45.1875L41.6144 39.2709C38.2498 42.1407 36.1196 46.4115 36.1196 51.1771C36.1196 55.9323 38.2394 60.198 41.5936 63.073C42.1561 63.5521 42.7498 63.9948 43.3748 64.3959L80.0571 85.5521C82.3748 86.9011 85.0675 87.6771 87.9478 87.6771C96.6144 87.6771 103.64 80.6563 103.64 72V30.2761C103.64 21.6198 96.6144 14.599 87.9478 14.599C85.0519 14.599 82.3488 15.3802 80.0207 16.7448L51.8175 33.073L60.2707 37.9636C60.8853 38.3594 61.4738 38.7969 62.0311 39.2709L85.2707 25.7917C86.0571 25.323 86.9686 25.0469 87.9478 25.0469C90.8384 25.0469 93.1769 27.3907 93.1769 30.2761V72C93.1769 74.8855 90.8384 77.2292 87.9478 77.2292C86.9842 77.2292 86.0832 76.9584 85.3071 76.5053L62.0467 63.073" fill="#334E68"/>
<path d="M264.812 65.9792V35.2396H279.453V25.1146H264.812V11.3646H254.307V65.9792C254.307 82.349 264.687 91.224 279.703 89.474V79.724C271.693 80.224 264.812 77.3542 264.812 65.9792Z" fill="#334E68"/>
<path d="M235.969 5.02087C232.427 5.02087 229.552 7.89067 229.552 11.4271C229.552 14.9688 232.427 17.8334 235.969 17.8334C239.511 17.8334 242.38 14.9688 242.38 11.4271C242.38 7.89067 239.511 5.02087 235.969 5.02087Z" fill="#334E68"/>
<path d="M367.906 67.6042V0.338562H357.094V67.6042C357.094 79.4271 366.724 89.0417 378.557 89.0417V78.2448C372.682 78.2448 367.906 73.474 367.906 67.6042Z" fill="#334E68"/>
<path d="M203.151 6.04169L177.396 68.125L151.766 6.04169H137.031V88.5365H147.307V20.6354L175.292 88.5365H179.5L207.604 20.6354V88.5365H217.885V6.04169H203.151Z" fill="#334E68"/>
<mask id="mask0_20_938" style="mask-type:luminance" maskUnits="userSpaceOnUse" x="0" y="13" width="68" height="75">
<path d="M0.1875 13.3334H68V88H0.1875V13.3334Z" fill="white"/>
</mask>
<g mask="url(#mask0_20_938)">
<path d="M51.8229 45.1875L55.0052 47.0365C56.2552 47.9896 57.0573 49.4896 57.0573 51.1771C57.0573 52.8698 56.2552 54.3698 55.0052 55.3282L51.8229 57.1667L62.0521 63.073C65.401 60.198 67.526 55.9323 67.526 51.1771C67.526 46.4115 65.3906 42.1407 62.026 39.2709C61.474 38.7969 60.8854 38.3594 60.2708 37.9688L23.625 16.7448C21.2969 15.3802 18.5885 14.599 15.6979 14.599C7.02604 14.599 0 21.6198 0 30.2761V72C0 80.6615 7.02604 87.6771 15.6979 87.6771C18.5729 87.6771 21.2656 86.9011 23.5833 85.5521L51.8229 69.2657L43.375 64.3959C42.75 63.9948 42.151 63.5521 41.5938 63.073L18.3385 76.5053C17.5625 76.9584 16.6615 77.2292 15.6979 77.2292C12.8073 77.2292 10.4635 74.8855 10.4635 72V30.2761C10.4635 27.3907 12.8073 25.0469 15.6979 25.0469C16.6771 25.0469 17.5885 25.323 18.3698 25.7917L41.6146 39.2709L51.8229 45.1875Z" fill="#334E68"/>
</g>
<path d="M377.078 5.98962H378.208C379.167 5.98962 380.047 5.94275 380.047 4.84379C380.047 3.91671 379.245 3.77608 378.515 3.77608H377.078V5.98962ZM375.995 2.90108H378.693C380.349 2.90108 381.13 3.55212 381.13 4.89067C381.13 6.15108 380.333 6.67712 379.297 6.7865L381.292 9.86462H380.125L378.224 6.86983H377.078V9.86462H375.995V2.90108ZM378.323 11.474C381.083 11.474 383.224 9.27608 383.224 6.35421C383.224 3.50004 381.083 1.30212 378.323 1.30212C375.531 1.30212 373.396 3.50004 373.396 6.35421C373.396 9.27608 375.531 11.474 378.323 11.474ZM378.323 0.427124C381.578 0.427124 384.307 2.99483 384.307 6.35421C384.307 9.78129 381.578 12.349 378.323 12.349C375.052 12.349 372.307 9.78129 372.307 6.35421C372.307 2.99483 375.052 0.427124 378.323 0.427124Z" fill="#334E68"/>
<path d="M230.641 24.1458H241.292V88.5781H230.641V24.1458Z" fill="#334E68"/>
<mask id="mask1_20_938" style="mask-type:luminance" maskUnits="userSpaceOnUse" x="282" y="22" width="68" height="69">
<path d="M282.667 22.6667H349.333V90.7865H282.667V22.6667Z" fill="white"/>
</mask>
<g mask="url(#mask1_20_938)">
<path d="M315.828 33.1146C325.208 33.1146 333.968 40.1146 336.593 50.6094H294.807C297.562 39.6094 306.948 33.1146 315.828 33.1146ZM316.567 81.349C305.932 81.349 295.672 73.474 294.297 60.1042H348.468C348.593 37.2344 332.583 23.4896 315.937 23.4896C298.047 23.4896 283.536 38.7344 283.536 57.3542C283.536 76.2292 298.047 90.974 316.567 90.974C331.453 90.974 342.463 83.224 346.968 69.4792H335.708C332.203 76.9792 325.698 81.349 316.567 81.349Z" fill="#334E68"/>
</g>
</g>
<defs>
<clipPath id="clip0_20_938">
<rect width="386.28" height="90.9733" fill="white"/>
</clipPath>
</defs>
</svg>
