<svg width="425" height="104" viewBox="0 0 425 104" fill="none" xmlns="http://www.w3.org/2000/svg">
<g clip-path="url(#clip0_20_957)">
<path fill-rule="evenodd" clip-rule="evenodd" d="M122 40.5819H135.953L136.546 45.0372C137.569 41.5828 144.759 39 149.047 39C158.943 39 163 44.9081 163 55.4007V78H147.563V57.7252C147.563 53.6896 146.673 50.6548 142.582 50.6548C138.492 50.6548 136.678 54.6904 136.678 57.5637V78H122V40.5819Z" fill="#334E68"/>
<path fill-rule="evenodd" clip-rule="evenodd" d="M57.6087 24H32V79H48.974V62.6234H57.6087C73.6963 62.6234 80 54.4518 80 42.6113C80 31.6713 73.1053 24 57.6087 24ZM55.8359 49.1152H48.974V37.5082H55.8359C59.6443 37.5082 64.3393 38.5421 64.3393 43.4785C64.3393 48.4148 59.9398 49.1152 55.8359 49.1152Z" fill="#334E68"/>
<path fill-rule="evenodd" clip-rule="evenodd" d="M292 40.6105H306.106L306.535 45.1462C307.721 41.6294 314.774 39 319.026 39C328.913 39 333 45.0148 333 55.6968V79H317.576V58.1947C317.576 54.0863 316.521 50.9967 312.566 50.9967C308.611 50.9967 306.831 55.1052 306.831 58.0304V79H292V40.6105Z" fill="#334E68"/>
<path fill-rule="evenodd" clip-rule="evenodd" d="M220.699 64.8667C220.727 66.537 221.291 68.1523 222.305 69.4667C223.539 70.4212 225.019 70.9889 226.566 71.1C229.319 71.1 231.383 70.2 231.383 67.5334C231.383 61.1334 208.442 66.8 208.442 51.3333C208.442 40.6333 216.504 38 225.091 38C233.677 38 245.41 39.6333 244.984 51.3333H232.104C231.988 50.2988 231.591 49.3176 230.957 48.5C230.446 47.9595 229.829 47.5347 229.146 47.2533C228.462 46.9719 227.728 46.8401 226.992 46.8667C224.37 46.8667 221.879 47.1667 221.879 49.2333C221.879 55.3333 246 51.1667 246 65.4333C246 75.4333 239.118 80 225.845 80C217.52 79.7 207 75.4 207 64.7L220.699 64.8667Z" fill="#334E68"/>
<path fill-rule="evenodd" clip-rule="evenodd" d="M379.232 55.3517C379.266 54.6875 379.166 54.0233 378.938 53.3977C378.71 52.772 378.359 52.1974 377.905 51.707C377.458 51.0001 376.85 50.4063 376.129 49.973C375.409 49.5397 374.596 49.279 373.756 49.2116C367.981 49.2116 366.521 54.9248 366.521 59.5873C366.521 64.2499 369.01 69.2736 373.457 69.2736C375.139 69.1885 376.719 68.4517 377.856 67.2227C378.993 65.9937 379.594 64.3714 379.531 62.7067H392.973C393.438 70.4557 387.961 79.9777 372.86 79.9777C370.099 80.1077 367.342 79.6677 364.762 78.6857C362.183 77.7038 359.838 76.2014 357.878 74.2742C355.917 72.347 354.384 70.0372 353.375 67.4917C352.366 64.9462 351.903 62.2208 352.017 59.4888C352.017 44.549 363.235 39 372.727 39C385.738 39 392.973 46.6177 392.84 55.4174L379.232 55.3517Z" fill="#334E68"/>
<path fill-rule="evenodd" clip-rule="evenodd" d="M118.259 72.9082V55.8078C118.259 47.4201 116.485 39 100.223 39C83.9608 39 81.0697 45.5021 81.0697 53.4996H93.9479C94.375 48.8831 96.2804 48.2979 99.3686 48.2979C100.978 48.2979 104.034 48.2979 104.034 50.8988C104.034 59.1564 79 51.484 79 68.1292C79 78.2724 88.3958 78.8576 93.2252 78.9876C97.1373 79.1446 100.961 77.8059 103.902 75.249L105.512 78.5L120 78.3374V78.0448C119.317 77.3877 118.803 76.5787 118.5 75.6853C118.198 74.7918 118.115 73.8397 118.259 72.9082ZM96.7404 70.73C93.7837 70.73 92.4696 69.4296 92.4696 66.9913C92.4696 63.2201 99.0401 63.3502 104.198 61.0419C104.625 65.5284 101.865 70.73 96.7404 70.73Z" fill="#334E68"/>
<path fill-rule="evenodd" clip-rule="evenodd" d="M204.259 72.9042V55.8058C204.259 47.4192 202.649 39 186.387 39C169.534 39 167.201 45.5013 167.201 53.4979H179.948C180.539 48.882 182.28 48.2968 185.5 48.2968C187.11 48.2968 190.329 48.2969 190.329 50.8974C190.329 59.154 165 51.4825 165 68.1258C165 78.2678 174.232 78.8529 179.225 78.9829C183.231 79.1688 187.157 77.8314 190.198 75.2447L191.643 78.4953L206 78.3328V78.0403C205.317 77.3832 204.803 76.5743 204.5 75.681C204.198 74.7876 204.115 73.8357 204.259 72.9042ZM182.872 70.7263C179.587 70.7263 178.47 69.426 178.47 66.988C178.47 63.2173 185.04 63.3473 190.494 61.0394C190.888 65.5252 187.833 70.7263 182.97 70.7263H182.872Z" fill="#334E68"/>
<path fill-rule="evenodd" clip-rule="evenodd" d="M350 79V40H336V79H350Z" fill="#334E68"/>
<path fill-rule="evenodd" clip-rule="evenodd" d="M269.153 39.0216C264.996 38.9891 260.922 40.1631 257.449 42.3946C253.976 44.6262 251.26 47.8147 249.646 51.5557C248.032 55.2967 247.592 59.4215 248.383 63.4068C249.174 67.3922 251.159 71.0584 254.087 73.9403C257.015 76.8223 260.754 78.7901 264.829 79.5941C268.904 80.3981 273.132 80.0021 276.976 78.4562C280.82 76.9103 284.108 74.2843 286.421 70.9114C288.734 67.5384 289.97 63.5706 289.97 59.5111C290.123 56.7951 289.692 54.0777 288.702 51.5348C287.713 48.9919 286.187 46.6801 284.225 44.7489C282.263 42.8177 279.908 41.31 277.312 40.3235C274.715 39.3369 271.936 38.8934 269.153 39.0216ZM269.153 70.0514C263.772 69.8872 262.091 64.0425 262.091 59.5111C262.091 54.9798 263.772 48.8395 269.153 48.8395C274.534 48.8395 275.879 54.8156 275.879 59.5111C275.879 64.2067 274.265 70.0514 269.153 70.0514Z" fill="#334E68"/>
</g>
<defs>
<clipPath id="clip0_20_957">
<rect width="425" height="104" fill="white"/>
</clipPath>
</defs>
</svg>
