<svg width="152" height="40" viewBox="0 0 152 40" fill="none" xmlns="http://www.w3.org/2000/svg">
<g clip-path="url(#clip0_20_981)">
<path opacity="0.6" d="M13.5492 4.69702C7.48122 4.72002 2.05822 8.83102 0.742219 14.87C0.547219 15.768 0.452219 16.664 0.449219 17.548V17.615C0.463219 23.61 4.74222 29.036 10.9832 30.396C18.1672 31.961 25.2292 27.549 26.7572 20.54C26.9512 19.648 27.0462 18.758 27.0502 17.881V17.758C27.0192 11.774 22.7432 6.37002 16.5152 5.01202C15.5512 4.80202 14.5902 4.69902 13.6422 4.69702H13.5492ZM12.4642 28.93C7.15522 27.774 3.84022 22.302 5.05922 16.71C6.27822 11.115 11.5692 7.52002 16.8772 8.67702C22.1832 9.83402 25.4992 15.306 24.2802 20.898C23.2152 25.784 19.0402 29.147 14.4642 29.147C13.8022 29.147 13.1342 29.076 12.4642 28.93Z" fill="#334E68"/>
<path d="M24.8555 0.589844C20.5965 0.590085 16.512 2.29214 13.5005 5.32161C10.489 8.35108 8.79706 12.4598 8.79688 16.7441C8.79706 21.0284 10.489 25.1372 13.5005 28.1667C16.512 31.1961 20.5965 32.8982 24.8555 32.8984C29.1144 32.8982 33.1989 31.1961 36.2104 28.1667C39.2219 25.1372 40.9139 21.0284 40.9141 16.7441C40.9139 12.4598 39.2219 8.35108 36.2104 5.32161C33.1989 2.29214 29.1144 0.590086 24.8555 0.589844ZM26.1523 3.4043C29.5262 3.40461 32.7618 4.63158 35.1473 6.81532C37.5329 8.99906 38.8731 11.9607 38.873 15.0488C38.8731 18.1369 37.5329 21.0986 35.1473 23.2823C32.7618 25.4661 29.5262 26.693 26.1523 26.6934C24.4816 26.6934 22.8272 26.3923 21.2836 25.8071C19.7401 25.222 18.3375 24.3643 17.1561 23.283C15.9747 22.2017 15.0375 20.918 14.3981 19.5051C13.7588 18.0923 13.4297 16.5781 13.4297 15.0488C13.4297 13.5196 13.7588 12.0053 14.3981 10.5925C15.0375 9.1797 15.9747 7.89599 17.1561 6.81469C18.3375 5.73339 19.7401 4.87567 21.2836 4.29051C22.8272 3.70535 24.4816 3.40422 26.1523 3.4043Z" fill="#334E68"/>
<path opacity="0.6" d="M21.653 25.939C19.811 27.922 17.263 29.119 14.562 29.148C15.144 29.63 15.752 30.077 16.396 30.473C19.211 29.948 21.768 28.53 23.666 26.465C22.971 26.345 22.298 26.166 21.653 25.939Z" fill="#334E68"/>
<path opacity="0.98" d="M13.6169 13.063C11.5019 14.731 9.9309 16.961 9.0249 19.453C9.4579 22.028 10.4949 24.393 11.9829 26.401C11.9959 26.42 12.0099 26.438 12.0239 26.455C11.2539 23.414 11.9499 20.227 13.7559 17.661C13.7289 17.554 13.7009 17.444 13.6769 17.339C13.5159 16.596 13.4299 15.831 13.4299 15.044C13.4299 14.367 13.4939 13.707 13.6179 13.063V13.053" fill="#334E68"/>
<path opacity="0.6" d="M14.146 4.70996C12.64 6.06496 11.387 7.70496 10.48 9.54196C12.051 8.72796 13.83 8.33996 15.646 8.49196C16.456 7.39896 17.47 6.44196 18.63 5.65796C17.959 5.39196 17.249 5.17496 16.517 5.01296C15.738 4.84596 14.959 4.74396 14.189 4.70996" fill="#334E68"/>
<path opacity="0.98" d="M22.4361 9.98901C20.6631 9.98901 18.8671 10.321 17.1291 11.021C15.8351 11.541 14.6591 12.232 13.6181 13.062V13.072C13.4941 13.716 13.4301 14.38 13.4301 15.053C13.4301 15.841 13.5161 16.606 13.6771 17.347C13.7011 17.453 13.7291 17.564 13.7561 17.67C15.0411 15.836 16.8981 14.321 19.1841 13.399C25.1361 11.003 31.7671 13.547 34.0001 19.089C34.6041 20.581 34.8261 22.143 34.7101 23.668C34.4571 26.967 32.6421 30.114 29.7161 32.142C28.9701 32.662 28.1491 33.11 27.2701 33.463C21.3161 35.86 14.6821 33.312 12.4521 27.774C12.2771 27.341 12.1341 26.903 12.0241 26.465C12.0101 26.447 11.9961 26.429 11.9831 26.41C10.4951 24.406 9.45811 22.037 9.02511 19.461C7.80411 22.812 7.77611 26.64 9.22711 30.248C11.5591 36.041 17.0431 39.594 22.8041 39.651H23.0721C24.8021 39.635 26.5521 39.303 28.2461 38.62C33.1781 36.634 36.3931 32.183 37.1071 27.189C37.3781 25.305 37.2911 23.341 36.8061 21.407C36.6361 20.734 36.4201 20.061 36.1531 19.398C33.7991 13.559 28.2471 9.99401 22.4361 9.99401" fill="#334E68"/>
<path d="M95.1202 16.5774L90.4722 28.4594L85.8222 16.5774H83.1802L88.7372 29.8054L88.9532 30.3084L89.2612 31.0564C88.9812 32.0014 88.5202 32.5364 88.4772 32.5824C88.4422 32.6144 88.4182 32.6374 88.3942 32.6814L88.3872 32.6924C87.9842 33.2024 87.5422 33.5294 87.1152 33.6564C86.8272 33.7444 86.5272 33.7574 86.2032 33.6744C85.8262 33.5764 85.4162 33.3564 84.9852 33.0194L83.6462 34.7504C84.7392 35.6114 85.7482 35.8974 86.5662 35.9194C87.0162 35.9324 87.4242 35.8544 87.7502 35.7544C88.6852 35.4704 89.5252 34.8294 90.2392 33.8674C90.2812 33.8254 90.3132 33.7824 90.3452 33.7314C90.4212 33.6294 90.5012 33.5164 90.5742 33.3944C90.6332 33.3064 90.6902 33.2174 90.7452 33.1104C90.8162 32.9714 90.8962 32.8444 90.9542 32.7004C90.9842 32.6594 91.0062 32.6144 91.0312 32.5584C91.0492 32.5034 91.0872 32.4314 91.1182 32.3684L91.2162 32.0994L91.6352 31.1354L97.7612 16.5774" fill="#334E68"/>
<path d="M50.504 13.4437H55.92C57.589 13.4437 59.404 15.0257 59.404 17.0767C59.404 19.1537 57.589 20.7067 55.92 20.6767L50.0001 20.7067V22.9307H55.92C59.17 22.9307 62.04 20.5587 62.04 17.0767C62.04 13.5317 59.112 11.1897 55.92 11.1897H47.957V30.7197H50.504" fill="#334E68"/>
<path d="M69.7536 18.1287C66.8546 18.1287 65.0106 20.5887 65.0106 23.6327C65.0106 26.6787 66.8546 29.1667 69.7536 29.1667C72.6806 29.1667 74.4966 26.7077 74.4966 23.6327C74.4966 20.5887 72.6806 18.1287 69.7536 18.1287ZM69.7536 31.0997C65.5956 31.0997 62.5806 27.7627 62.5806 23.6327C62.5806 19.5357 65.5956 16.1687 69.7536 16.1687C73.9396 16.1687 76.9256 19.5357 76.9256 23.6327C76.9256 27.7627 73.9396 31.0997 69.7536 31.0997Z" fill="#334E68"/>
<path d="M79.2277 30.7195L79.1987 11.1895H81.5407L81.5707 30.7195" fill="#334E68"/>
<path d="M104.708 31.2001C100.551 31.2001 97.5352 27.8621 97.5352 23.7331C97.5352 19.6351 100.551 16.2681 104.708 16.2681C106.466 16.2681 108.192 16.5611 110.27 18.6981L108.719 20.2191C107.402 18.7561 106.231 18.2291 104.708 18.2291C101.81 18.2291 99.9652 20.6881 99.9652 23.7331C99.9652 26.7791 101.81 29.2681 104.708 29.2681C106.231 29.2681 107.402 28.7111 108.719 27.2181L110.27 28.7691C108.192 30.8791 106.466 31.2001 104.708 31.2001Z" fill="#334E68"/>
<path d="M118.397 18.1287C115.498 18.1287 113.654 20.5887 113.654 23.6327C113.654 26.6787 115.498 29.1667 118.397 29.1667C121.324 29.1667 123.14 26.7077 123.14 23.6327C123.14 20.5887 121.324 18.1287 118.397 18.1287ZM118.397 31.0997C114.239 31.0997 111.224 27.7627 111.224 23.6327C111.224 19.5357 114.239 16.1687 118.397 16.1687C122.583 16.1687 125.569 19.5357 125.569 23.6327C125.569 27.7627 122.583 31.0997 118.397 31.0997Z" fill="#334E68"/>
<path d="M144.687 30.7195V21.4965C144.687 19.2115 143.752 18.1285 141.994 18.1285C140.501 18.1285 139.36 19.3005 138.599 20.2365V30.7195H136.255V21.4965C136.255 19.2115 135.29 18.1285 133.562 18.1285C132.04 18.1285 130.927 19.3005 130.137 20.2365V30.7195H127.793V16.5775H130.137V18.3345C130.78 17.5435 131.952 16.1675 134.236 16.1675C136.285 16.1675 137.602 17.1035 138.189 18.8315C139.037 17.6315 140.384 16.1675 142.697 16.1675C145.566 16.1675 147.031 18.0975 147.031 21.4965V30.7195" fill="#334E68"/>
<path d="M149.48 17.1599V18.9299H149.21V16.9199H150.03C150.37 16.9199 150.67 17.1599 150.67 17.5299C150.67 17.9799 150.28 18.1199 150.16 18.1199L150.7 18.9299H150.36L149.84 18.1299H149.4V17.8899H150.03C150.2 17.8899 150.39 17.7399 150.39 17.5299C150.39 17.3099 150.2 17.1599 150.03 17.1599H149.48ZM148.38 17.9199C148.38 18.7399 149.05 19.4199 149.88 19.4199C150.71 19.4199 151.37 18.7399 151.37 17.9199C151.37 17.0799 150.71 16.4199 149.88 16.4199C149.05 16.4199 148.38 17.0799 148.38 17.9199ZM148.13 17.9199C148.13 16.9399 148.91 16.1699 149.88 16.1699C150.85 16.1699 151.63 16.9399 151.63 17.9199C151.63 18.8799 150.85 19.6699 149.88 19.6699C148.91 19.6699 148.13 18.8799 148.13 17.9199Z" fill="#334E68"/>
</g>
<defs>
<clipPath id="clip0_20_981">
<rect width="152" height="40" fill="white"/>
</clipPath>
</defs>
</svg>
