<svg width="2500" height="830" viewBox="0 0 2500 830" fill="none" xmlns="http://www.w3.org/2000/svg">
<g clip-path="url(#clip0_20_119)">
<path d="M2498.44 197.604C2464.44 2.41553 1877.97 -58.4969 1188.46 61.5474C898.888 111.988 637.421 186.385 433.802 270.084C465.08 270.769 488.277 277.941 502.372 291.998C513.392 303.03 518.958 318.171 518.958 337.035V356.397H451.346V339.301C451.346 325.057 442.805 316.229 427.676 316.229C414.963 316.229 407.131 321.969 404.604 333.275C403.756 337.744 403.85 342.341 404.878 346.772C412.112 376.344 512.508 394.71 523.428 449.285C524.86 456.308 526.802 471.337 523.739 492.84C517.476 536.856 478.802 553.84 429.569 553.84C360.849 553.84 332.933 521.292 332.933 476.417L332.983 455.187H405.463L405.5 481.634C405.5 496.501 416.308 504.706 431.026 504.706C444.971 504.706 453.114 499.091 455.928 487.611C457.236 482.331 457.809 474.549 455.43 468.597C442.02 434.953 348.273 419.24 336.731 364.839C334.153 352.612 333.942 342.203 336.083 329.042C337.182 322.517 339.203 316.183 342.085 310.227C116.228 415.853 -15.8937 532.075 1.56321 632.421C35.593 827.634 622.055 888.484 1311.55 768.44C1614.65 715.683 1887.13 636.704 2094.51 548.199C2091.51 548.349 2088.6 548.672 2085.48 548.672C2038.29 548.672 1996.16 530.991 1991.79 482.754C1991.02 473.976 1990.88 470.303 1990.85 465.298L1990.88 354.405C1990.88 349.624 1991.44 341.231 1991.97 336.898C1997.57 290.28 2034.42 271.055 2085.51 271.055C2125.04 271.055 2173.52 282.398 2178.85 336.936C2179.56 343.784 2179.48 351.093 2179.47 353.496V363.968H2111.18V348.341C2111.18 348.005 2111.08 342.165 2110.34 338.517C2109.22 332.951 2104.47 320.052 2085.02 320.052C2065.81 320.052 2060.83 332.976 2059.59 338.529C2058.88 341.58 2058.54 345.963 2058.54 350.819V471.336C2058.48 475.52 2058.69 478.795 2059.11 481.198C2059.45 483.091 2062.9 499.701 2085.26 499.701C2107.46 499.701 2110.9 483.091 2111.21 481.198C2111.79 477.936 2111.87 474.051 2111.84 471.336V433.995H2084.97V393.776H2179.99V465.322C2179.97 470.191 2179.89 473.789 2179.07 482.754C2177.92 495.405 2173.94 506.113 2167.69 515.265C2387.62 410.835 2515.67 296.493 2498.44 197.604ZM710.56 543.542L675.97 308.509H674.725L639.251 543.542H566.348L615.381 278.115H734.33L783.065 543.542H710.56ZM1061.22 543.542L1059.61 313.054H1058.44L1015.55 543.542H947.125L904.442 313.054H903.221L901.665 543.542H833.867L839.744 278.115H948.793L980.545 475.284H982.101L1013.94 278.115H1122.94L1128.79 543.542H1061.22ZM1380.48 492.105C1373.19 543.517 1322.82 552.507 1287.22 552.507C1228.12 552.507 1191.56 527.243 1191.56 475.831L1191.6 454.863H1263.2L1263.25 480.986C1263.25 495.169 1273.25 503.847 1288.69 503.847C1302.46 503.847 1310.53 498.319 1313.33 486.963C1314.63 481.671 1315.16 473.951 1312.87 468.124C1299.67 435.115 1206.66 418.941 1195.36 365.387C1192.77 353.247 1192.58 342.937 1194.71 329.913C1202.58 281.365 1249.17 271.279 1286.68 271.279C1320.22 271.279 1344.64 278.601 1359.28 293.244C1370.2 304.176 1375.73 319.18 1375.73 337.845V356.995H1308.76V340.098C1308.76 325.63 1299.79 317.262 1285.36 317.262C1272.56 317.262 1264.81 322.953 1262.27 334.147C1261.45 338.57 1261.56 343.117 1262.59 347.495C1269.77 376.93 1369.28 394.922 1380.17 448.986C1381.58 455.884 1383.51 470.689 1380.48 492.105ZM1628.49 467.987C1628.59 472.968 1628.11 482.916 1627.83 485.469C1623.75 529.198 1592.47 551.424 1535.11 551.424C1477.52 551.424 1446.22 529.198 1442.16 485.469C1441.7 479.67 1441.48 473.854 1441.5 468.037V278.053H1510V474.026C1509.93 478.409 1510.15 481.646 1510.59 483.9C1511.44 488.258 1515.77 502.403 1535.11 502.403C1554.38 502.403 1558.71 488.246 1559.62 483.95C1560.01 481.634 1560.25 478.235 1560.25 474.014V278.053H1628.49V467.987ZM1923.65 540.84H1828.33L1764.34 330.598H1763.27L1766.82 540.84H1700.37V278.115H1799.7L1858.84 480.077H1860.23L1856.73 278.115H1923.65V540.84Z" fill="#334E68"/>
</g>
<defs>
<clipPath id="clip0_20_119">
<rect width="2500" height="830" fill="white"/>
</clipPath>
</defs>
</svg>
