<svg width="284" height="143" viewBox="0 0 284 143" fill="none" xmlns="http://www.w3.org/2000/svg">
<path d="M48.1001 86.1C48.1001 86 48.2001 85.9 48.3001 85.9C51.1001 86 53.9001 86 56.8001 86C59.8001 86 62.4001 86 64.8001 86C67.9001 86 70.0001 85.6 71.1001 84.9C72.2001 84.2 72.8001 82.7 72.8001 80.6C72.8001 79.9 72.7001 79.3 72.6001 78.7C72.5001 78.1 72.2001 77.6 71.8001 77.1C71.4001 76.7 70.8001 76.3 70.1001 76C69.4001 75.7 68.4001 75.5 67.1001 75.4L57.6001 74.5C55.6001 74.3 54.0001 73.9 52.6001 73.2C51.2001 72.5 50.1001 71.6 49.3001 70.6C48.5001 69.6 47.8001 68.4 47.4001 67.1C47.0001 65.8 46.8001 64.5 46.8001 63.1V61.7C46.8001 57.9 48.0001 54.9 50.5001 52.7C53.0001 50.5 57.0001 49.5 62.7001 49.5C65.2001 49.5 67.9001 49.5 70.6001 49.5C73.3001 49.5 76.2001 49.6 79.5001 49.7C79.6001 49.7 79.7001 49.8 79.7001 50L78.4001 56.8C78.4001 56.9 78.3001 57 78.2001 57C76.1001 56.9 74.2001 56.9 72.6001 56.9C70.9001 56.9 69.4001 56.9 68.1001 56.9C66.8001 56.9 65.6001 56.9 64.6001 56.9C63.6001 56.9 62.6001 56.9 61.8001 56.9C59.1001 56.9 57.2001 57.3 56.2001 58C55.1001 58.7 54.6001 60 54.6001 61.8C54.6001 62.5 54.7001 63.2 54.8001 63.7C54.9001 64.3 55.2001 64.7 55.6001 65.1C56.0001 65.5 56.6001 65.8 57.3001 66.1C58.1001 66.4 59.1001 66.6 60.3001 66.7L69.5001 67.6C71.9001 67.8 73.8001 68.3 75.3001 69.2C76.8001 70 77.9001 71 78.7001 72.2C79.5001 73.4 80.0001 74.6 80.3001 75.9C80.6001 77.2 80.7001 78.5 80.7001 79.7V80.9C80.7001 84.9 79.4001 88 76.7001 90.2C74.0001 92.4 69.9001 93.5 64.3001 93.5C61.9001 93.5 59.2001 93.5 56.0001 93.5C53.0001 93.5 46.9001 93.4 46.9001 93.4C46.8001 93.4 46.6001 93.3 46.6001 93.1L48.1001 86.1Z" fill="#334E68"/>
<path d="M149.8 94.3001C149.8 94.4001 149.7 94.6001 149.5 94.6001C147 94.5001 144.9 94.2001 143 93.7001C140.6 93.1001 138.6 91.9001 137.1 90.3001C135.6 88.7001 134.5 86.6001 133.7 83.9001C133 81.2001 132.6 77.9001 132.6 73.8001V69.2001C132.6 65.1001 133 61.8001 133.7 59.1001C134.4 56.4001 135.5 54.3001 137.1 52.7001C138.6 51.1001 140.6 50.0001 143 49.3001C144.9 48.8001 147 48.5001 149.5 48.4001C149.6 48.4001 149.8 48.5001 149.8 48.7001V55.5001C149.8 55.6001 149.7 55.7001 149.6 55.8001C148.4 55.9001 147.3 56.0001 146.5 56.2001C145.1 56.5001 144.1 57.1001 143.3 58.1001C142.5 59.1001 142 60.4001 141.7 62.2001C141.4 64.0001 141.3 66.3001 141.3 69.3001V73.9001C141.3 76.9001 141.4 79.3001 141.7 81.0001C142 82.8001 142.5 84.1001 143.3 85.1001C144.1 86.1001 145.1 86.7001 146.5 87.0001C147.4 87.2001 148.4 87.3001 149.6 87.4001C149.7 87.4001 149.8 87.5001 149.8 87.7001V87.8001V94.4001V94.3001Z" fill="#334E68"/>
<path d="M154 94.5001C153.9 94.5001 153.7 94.4001 153.7 94.2001V87.5001V87.4001C153.7 87.3001 153.8 87.2001 153.9 87.1001C155.1 87.0001 156.2 86.9001 157 86.7001C158.4 86.4001 159.4 85.8001 160.2 84.8001C161 83.8001 161.5 82.5001 161.8 80.7001C162.1 78.9001 162.2 76.6001 162.2 73.6001V69.0001C162.2 66.0001 162.1 63.6001 161.8 61.9001C161.5 60.1001 161 58.8001 160.2 57.8001C159.4 56.8001 158.4 56.2001 157 55.9001C156.1 55.7001 155.1 55.6001 153.9 55.5001C153.8 55.5001 153.7 55.4001 153.7 55.2001V55.0001V48.6001V48.4001C153.7 48.3001 153.8 48.1001 154 48.1001C156.5 48.2001 158.6 48.5001 160.5 49.0001C162.9 49.6001 164.9 50.8001 166.4 52.4001C167.9 54.0001 169 56.1001 169.8 58.8001C170.5 61.5001 170.9 64.8001 170.9 68.9001V73.5001C170.9 77.6001 170.5 80.9001 169.8 83.6001C169.1 86.3001 168 88.4001 166.4 90.0001C164.9 91.6001 162.9 92.7001 160.5 93.4001C158.7 94.1001 156.5 94.4001 154 94.5001Z" fill="#334E68"/>
<path d="M228.7 93.2002C228.6 93.2002 228.4 93.1002 228.4 92.9002V64.1002C228.4 62.7002 228.3 61.5002 228.2 60.4002C228.1 59.3002 227.7 58.4002 227.2 57.7002C226.6 57.0002 225.8 56.4002 224.7 56.1002C223.6 55.7002 222.1 55.6002 220.2 55.6002C218.4 55.6002 217 55.8002 215.9 56.1002C214.8 56.4002 214 56.9002 213.4 57.5002C212.8 58.1002 212.4 58.9002 212.3 59.9002C212.1 60.8002 212 61.9002 212 63.1002V93.1002C212 93.2002 211.9 93.4002 211.7 93.4002H204.2H204C203.9 93.4002 203.7 93.3002 203.7 93.1002V92.7002V64.2002C203.7 62.8002 203.6 61.6002 203.5 60.5002C203.4 59.4002 203 58.5002 202.5 57.8002C201.9 57.1002 201.1 56.5002 200 56.2002C198.9 55.8002 197.4 55.7002 195.5 55.7002C193.6 55.7002 192.1 55.9002 191 56.2002C189.9 56.6002 189.1 57.1002 188.5 57.8002C188 58.5002 187.6 59.4002 187.5 60.5002C187.4 61.6002 187.3 62.8002 187.3 64.2002V93.0002C187.3 93.1002 187.2 93.3002 187 93.3002H179.8H179.2C179.1 93.3002 178.9 93.2002 178.9 93.0002V92.7002V62.4002C178.9 57.2002 180.3 53.6002 183.1 51.4002C185.9 49.3002 190 48.2002 195.4 48.2002C198.1 48.2002 200.6 48.6002 202.8 49.5002C205 50.4002 206.6 51.6002 207.7 53.1002C208.8 51.6002 210.4 50.4002 212.6 49.5002C214.8 48.6002 217.3 48.2002 220 48.2002C225.4 48.2002 229.5 49.3002 232.3 51.4002C235.1 53.5002 236.5 57.2002 236.5 62.4002V92.9002C236.5 93.0002 236.4 93.2002 236.2 93.2002H228.7Z" fill="#334E68"/>
<path d="M116.4 93.2002C116.3 93.2002 116.1 93.1002 116.1 92.9002V64.1002C116.1 62.7002 116 61.5002 115.9 60.4002C115.7 59.3002 115.3 58.4002 114.7 57.7002C114.1 57.0002 113.1 56.4002 111.8 56.1002C110.5 55.7002 108.7 55.6002 106.3 55.6002C104 55.6002 102.2 55.8002 100.8 56.1002C99.5001 56.5002 98.5001 57.0002 97.9001 57.7002C97.3001 58.4002 96.9001 59.3002 96.7001 60.4002C96.5001 61.5002 96.5001 62.7002 96.5001 64.1002V92.9002C96.5001 93.0002 96.4001 93.2002 96.2001 93.2002H88.4001C88.3001 93.2002 88.1001 93.1002 88.1001 92.9002V62.4002C88.1001 57.3002 89.6001 53.7002 92.5001 51.5002C95.4001 49.3002 100 48.2002 106.2 48.2002C112.4 48.2002 117 49.3002 119.9 51.5002C122.8 53.7002 124.3 57.3002 124.3 62.4002V92.9002C124.3 93.0002 124.2 93.2002 124 93.2002H116.4Z" fill="#334E68"/>
</svg>
