<svg width="692" height="146" viewBox="0 0 692 146" fill="none" xmlns="http://www.w3.org/2000/svg">
<g clip-path="url(#clip0_20_131)">
<path fill-rule="evenodd" clip-rule="evenodd" d="M33.9947 7.59896H0.458252L51.4687 84.9323L48.6301 140.422H79.651L82.8176 84.6042L82.7499 84.4896L139.51 7.05208H106.083L68.2239 60.8229L68.0728 60.5781L33.9947 7.59896ZM510.724 39.6042H479.099L473.63 139.391H505.417L509.354 68.875C546.495 50.7448 545.182 77.1771 545.182 77.1771L542.208 139.391H573.583L577.953 73.901C577.953 73.901 581.448 40.0417 552.609 37.2031C523.771 34.3594 510.229 50.9635 510.229 50.9635L510.724 39.6042ZM423.453 0.5H455.687L454.307 25.1875H422.12L423.453 0.5ZM453.51 39.4948L447.927 139.656H415.927L421.344 39.4948H453.51ZM596.635 3.125H624.286L620.818 73.8073L661.401 34.3594H691.109L648.427 76.526L680.625 138.781H652.005L629.906 91.651L619.385 103.052L617.63 138.781H590.177L596.635 3.125ZM365.927 0.5H398.161L390.406 139.656H358.401L365.927 0.5ZM323.229 38.5104L322.385 50.8125C315.963 42.0521 303.703 32.9219 281.068 36.3281C240.432 42.4427 226.453 86.3542 234.974 111.693C243.495 137.036 267.307 146.427 285 145.12C302.146 143.849 310.677 139.5 316.953 129.891L316.24 140.313H339.833L347.479 38.6146L323.229 38.5104ZM288.62 60.1406C305.026 60.1406 317.521 73.7865 316.521 90.6146C315.521 107.443 301.406 121.089 285 121.089C268.594 121.089 256.099 107.443 257.099 90.6146C258.099 73.7865 272.213 60.1406 288.62 60.1406ZM166.01 30.6458C197.797 30.6458 223.573 56.4271 223.573 88.2083C223.573 92.2135 223.161 96.125 222.38 99.8958H199.172L199.245 99.6823H133.255C137.745 113.615 150.823 123.698 166.25 123.698C175.13 123.698 183.229 120.359 189.365 114.865H217.036C207.422 133.234 188.177 145.776 166.01 145.776C134.224 145.776 108.448 119.995 108.448 88.2083C108.448 56.4271 134.224 30.6458 166.01 30.6458ZM132.302 81.9844H200.198C196.937 66.224 182.974 54.3698 166.25 54.3698C149.521 54.3698 135.562 66.224 132.302 81.9844Z" fill="#334E68"/>
</g>
<defs>
<clipPath id="clip0_20_131">
<rect width="692" height="145.333" fill="white" transform="translate(0 0.5)"/>
</clipPath>
</defs>
</svg>
