<svg width="380" height="114" viewBox="0 0 380 114" fill="none" xmlns="http://www.w3.org/2000/svg">
<g clip-path="url(#clip0_20_134)">
<path d="M46.3799 0.51011C40.4699 0.16011 35.3299 7.79011 34.7399 17.5801C34.1599 27.3201 38.4499 35.5501 44.2799 35.9001C44.4099 35.9101 44.5499 35.9101 44.6799 35.9101C50.4099 35.9101 55.3499 28.4201 55.9099 18.8501C56.4699 9.10011 52.2099 0.88011 46.3799 0.51011Z" fill="#334E68"/>
<path d="M41.0099 46.0802C40.3299 41.9102 34.3899 39.2202 25.8899 39.2202C23.6399 39.2202 21.2999 39.4202 18.9499 39.8102C7.65994 41.6902 -0.820059 47.5502 0.0599414 52.8902C0.739941 57.0002 6.81994 59.7602 15.1899 59.7602C17.4499 59.7602 19.7899 59.5602 22.1399 59.1702C27.5399 58.2702 32.4599 56.4402 36.0099 54.0402C39.6799 51.5502 41.4599 48.7302 41.0099 46.0802Z" fill="#334E68"/>
<path d="M93.1499 31.79C91.9699 29.05 88.4799 27.49 83.5999 27.49C79.4199 27.49 74.5299 28.62 69.8199 30.67C59.2599 35.31 52.5099 43.36 54.7899 48.6C55.9699 51.34 59.4499 52.9 64.3299 52.9H64.3399C68.5199 52.9 73.4099 51.78 78.1199 49.72C88.6799 45.09 95.4299 37.04 93.1499 31.79Z" fill="#334E68"/>
<path d="M32.13 65.8201C31.59 65.5301 30.99 65.3801 30.37 65.3801C25.86 65.3801 20.37 73.5601 17.31 84.8501C13.76 97.9301 14.61 110.11 19.24 112.57C19.78 112.87 20.38 113.01 21 113.01C25.52 113.01 31.01 104.82 34.06 93.5401C37.62 80.4601 36.77 68.2801 32.13 65.8201Z" fill="#334E68"/>
<path d="M60.0499 61.52C53.8299 61.52 48.7599 68.35 48.7599 76.74C48.7599 85.13 53.8299 91.93 60.0499 91.93C66.2999 91.93 71.3699 85.12 71.3699 76.74C71.3699 68.36 66.2899 61.52 60.0499 61.52Z" fill="#334E68"/>
<path d="M151.85 27.58C150.66 27.58 149.07 27.56 147.12 27.52L146.24 27.51L143.8 31.64L129.54 53.92C127.25 49.58 124.81 45.14 122.3 40.68C119.35 35.45 117.15 31.33 115.78 28.39L115.37 27.51L114.4 27.52C112.35 27.55 110.85 27.58 109.91 27.58L102.49 27.5L123.31 63.95C122.9 72.77 122.29 81.67 121.51 90.39L121.37 92.07L123.07 92.03C125.01 91.97 126.56 91.93 127.43 91.93C128.3 91.93 129.85 91.97 131.8 92.03L133.33 92.07L133.43 84.73L134.31 64.61L139.69 56.45L159.2 27.5L151.85 27.58Z" fill="#334E68"/>
<path d="M183.75 48.8301C182.02 47.1301 179.84 45.8601 177.27 45.0401C174.78 44.2401 172.14 43.8401 169.41 43.8401C164.15 43.8401 159.71 44.9501 156.23 47.1801C152.74 49.4101 150.1 52.4901 148.37 56.3701C146.67 60.1701 145.81 64.3301 145.81 68.7601C145.81 71.9401 146.28 74.9901 147.2 77.8601C148.15 80.8001 149.73 83.4401 151.89 85.6901C154.08 87.9901 156.74 89.6301 159.8 90.5401C162.74 91.4301 166.11 91.8901 169.79 91.8901C171.83 91.8901 173.91 91.7701 175.95 91.5101C178.01 91.2701 180.46 90.7901 183.23 90.0901L184.22 89.8501L184.35 88.8401C184.67 86.5401 185 84.5701 185.35 83.0001L185.91 80.3801L183.38 81.2601C178.31 83.0101 173.99 83.9001 170.51 83.9001C167.59 83.9001 165 83.3001 162.78 82.1401C160.61 80.9901 159.01 79.3401 157.9 77.0901C156.76 74.8101 156.19 72.2601 156.19 69.5301C156.19 69.0101 156.21 68.3101 156.27 67.4601H188.6L188.81 66.2201C189.01 65.1701 189.1 64.0801 189.1 62.9701C189.1 60.1401 188.63 57.4801 187.71 55.0601C186.8 52.6001 185.47 50.4901 183.75 48.8301ZM157.1 60.9101C157.31 60.1501 157.52 59.4901 157.72 58.9501C158.06 58.0801 158.58 57.1701 159.28 56.2101C159.97 55.2901 160.8 54.4501 161.78 53.7501C162.77 53.0501 163.93 52.5001 165.23 52.0901C167.72 51.3201 170.78 51.2701 173.14 52.0201C174.23 52.3601 175.17 52.8701 175.94 53.5301C176.7 54.1801 177.31 54.9501 177.76 55.8301C178.23 56.7601 178.55 57.6601 178.73 58.5301C178.85 59.1301 178.95 59.9301 178.99 60.9001H157.1V60.9101Z" fill="#334E68"/>
<path d="M230.11 47.1C228.47 45.93 226.41 45.08 223.99 44.57C219.55 43.63 214.33 43.63 208.97 44.34C206.41 44.67 203.36 45.29 199.93 46.18L198.92 46.44L198.8 47.47C198.52 49.93 198.25 51.69 198.01 52.87L197.44 55.59L200.03 54.59C202.09 53.78 203.81 53.17 205.17 52.78C206.49 52.38 208.11 52.04 210 51.75C213.81 51.16 217.64 51.16 220.23 51.87C221.43 52.19 222.35 52.72 223.07 53.52C223.72 54.23 224.03 55.06 224.03 56.07C224.03 56.47 223.96 56.88 223.82 57.28C223.68 57.69 223.44 58.12 223.12 58.54C222.78 58.97 222.39 59.35 222.01 59.66C221.59 59.96 221.1 60.24 220.55 60.47C219.91 60.74 219.15 61.02 218.31 61.31C217.45 61.61 216.41 61.87 215.24 62.15C211.25 63.11 208.45 63.86 206.68 64.41C204.87 64.98 203.28 65.56 201.9 66.15C200.49 66.76 199.12 67.55 197.83 68.49C196.47 69.47 195.45 70.45 194.72 71.44C193.97 72.45 193.38 73.57 192.96 74.78C192.52 76.01 192.29 77.37 192.29 78.81C192.29 81.26 192.9 83.55 194.11 85.64C195.36 87.78 197.25 89.39 199.72 90.43C202.11 91.42 205.27 91.9 209.41 91.9C210.61 91.9 211.91 91.85 213.23 91.74C214.59 91.63 216.31 91.39 218.46 90.98L219.44 90.79L219.65 89.83C220.14 87.63 220.59 85.98 220.96 84.94L221.99 82.08L219.09 82.99C216.99 83.65 215.32 84.06 214.12 84.21C210.96 84.62 208.06 84.5 206.07 83.87C204.97 83.52 204.09 82.9 203.36 81.99C202.67 81.13 202.32 80.13 202.32 78.94C202.32 78.13 202.48 77.39 202.76 76.68C203 76.13 203.42 75.55 204.04 74.95C204.71 74.32 205.55 73.71 206.57 73.15C207.62 72.58 209.1 71.99 210.98 71.38C211.89 71.07 213.46 70.61 215.51 70.04C217.66 69.45 219.15 69.03 219.96 68.77C220.79 68.5 221.52 68.23 222.17 67.95C222.77 67.7 223.32 67.41 223.84 67.1L223.34 77.71L222.31 91.02L223.98 90.96C225.64 90.9 226.92 90.88 227.82 90.88C228.76 90.88 230 90.9 231.51 90.96L233.07 91.02V89.45C233.07 86.4 233.15 82.9 233.31 79.04C233.45 75.19 233.67 71.02 233.98 66.28C234.27 61.68 234.42 58.33 234.42 56.33C234.42 54.61 234.15 52.97 233.61 51.44C233.01 49.78 231.83 48.32 230.11 47.1Z" fill="#334E68"/>
<path d="M256.4 52.7202C257.67 52.3302 259.09 52.1302 260.62 52.1302C263.5 52.1302 266.48 52.7602 269.46 53.9802L271.76 54.9302L271.53 52.4502C271.35 50.5902 271.22 48.5702 271.09 46.4302L271.03 45.2602L269.88 45.0302C262.17 43.5202 255.49 43.3302 250.63 45.2002C248.18 46.1502 246.27 47.6202 244.94 49.5802C243.63 51.5302 242.97 53.5802 242.97 55.7002C242.97 57.0002 243.2 58.3002 243.65 59.5602C244.09 60.8202 244.8 62.0802 245.74 63.2802C246.62 64.4502 247.71 65.6002 248.95 66.6902C250.13 67.7302 251.85 69.1602 254.19 71.0502C256.96 73.2902 258.14 74.3002 258.63 74.7502C259.26 75.3402 259.75 75.8602 260.04 76.3002C260.32 76.7302 260.54 77.1802 260.68 77.6202C260.82 78.0702 260.89 78.5302 260.89 78.9602C260.89 79.7402 260.66 80.4902 260.13 81.2502C259.64 81.9902 258.9 82.5502 257.86 82.9502C256.7 83.3802 255.24 83.6002 253.5 83.6002C250.03 83.6002 246.16 82.6902 242.02 80.8802L239.59 79.8202L239.92 82.4502C240.24 84.9002 240.25 85.4202 240.25 85.5202L240.59 89.8402L241.64 90.1102C243.43 90.5502 244.86 90.8902 246.01 91.0902C247.21 91.3202 248.67 91.5102 250.34 91.6502C252.06 91.8302 253.52 91.9002 254.78 91.9002C257.86 91.9002 260.68 91.3902 263.18 90.3902C265.77 89.3402 267.77 87.8302 269.11 85.8802C270.46 83.9302 271.14 81.7802 271.14 79.5002C271.14 78.3302 270.97 77.1702 270.63 76.0602C270.3 74.9402 269.75 73.8102 269.02 72.7102C268.31 71.6302 267.46 70.5802 266.51 69.5902C265.54 68.6002 263.85 67.1302 261.31 65.1202C258.91 63.2002 257.27 61.8602 256.44 61.1502C255.7 60.5102 255.05 59.8502 254.53 59.2002C254.04 58.6002 253.72 58.0702 253.55 57.6002C253.39 57.1502 253.3 56.6602 253.3 56.1702C253.3 55.4402 253.54 54.8002 253.99 54.1902C254.47 53.5502 255.28 53.0602 256.4 52.7202Z" fill="#334E68"/>
<path d="M289.44 41.2002L289.55 39.2202L287.61 39.6502C285.81 40.0702 283.64 40.5002 280.93 40.9702L279.74 41.1902L279.68 42.3902C279.54 45.8302 279.4 48.3302 279.25 49.8902C279.18 51.4502 279.03 52.7102 278.93 53.7302L277.79 72.1402C277.5 76.9102 277.4 79.1302 277.36 79.8202C277.33 80.5702 277.32 81.1102 277.32 81.4002C277.32 83.9102 277.81 85.9502 278.79 87.4902C279.78 89.0602 281.23 90.2102 283.07 90.9102C284.83 91.5602 287 91.9002 289.72 91.9002C290.77 91.9002 291.91 91.8402 293.1 91.7302C294.29 91.6102 295.86 91.3502 297.87 90.9202L298.87 90.7002L299.04 89.7002C299.4 87.6402 299.74 85.9602 300.04 84.7102L300.63 82.3002L298.22 82.8802C295.75 83.4802 294.58 83.6902 294.06 83.7602C292.36 83.9802 290.97 84.0102 289.63 83.4102C289.01 83.1402 288.58 82.7102 288.27 82.0702C288.02 81.5602 287.72 80.5102 287.72 78.4802L288.83 56.1802H300.66L300.68 54.7102C300.72 53.2502 300.8 51.6902 300.93 50.1002L301.08 48.4602H289.15C289.19 46.5502 289.29 44.1302 289.44 41.2002Z" fill="#334E68"/>
<path d="M341.31 47.13C339.68 45.95 337.62 45.1 335.2 44.6C330.77 43.66 325.57 43.66 320.18 44.37C317.6 44.71 314.55 45.33 311.12 46.22L310.13 46.49L310 47.5C309.72 49.91 309.45 51.72 309.22 52.89L308.65 55.61L311.24 54.61C313.35 53.78 315.03 53.19 316.37 52.8C317.7 52.41 319.33 52.07 321.2 51.78C325.03 51.19 328.84 51.19 331.43 51.89C332.62 52.22 333.55 52.75 334.27 53.54C334.92 54.25 335.23 55.08 335.23 56.1C335.23 56.5 335.18 56.9 335.03 57.3C334.88 57.72 334.65 58.14 334.32 58.56C333.98 59 333.61 59.38 333.2 59.68C332.81 59.98 332.3 60.26 331.74 60.5C331.07 60.78 330.31 61.06 329.5 61.34C328.65 61.62 327.63 61.91 326.44 62.18C322.44 63.14 319.64 63.88 317.86 64.43C316.06 65 314.46 65.59 313.09 66.17C311.69 66.78 310.31 67.57 309.03 68.5C307.7 69.47 306.65 70.47 305.92 71.47C305.17 72.46 304.57 73.58 304.15 74.81C303.72 76.04 303.5 77.4 303.5 78.84C303.5 81.28 304.11 83.57 305.32 85.67C306.56 87.81 308.46 89.42 310.93 90.45C313.32 91.45 316.49 91.92 320.61 91.92C321.84 91.92 323.13 91.88 324.43 91.78C325.8 91.67 327.52 91.43 329.67 91.02L330.64 90.8301L330.86 89.8601C331.35 87.6701 331.79 86.0201 332.17 84.9801L333.19 82.1201L330.3 83.03C328.19 83.69 326.53 84.1001 325.32 84.2601C322.19 84.6601 319.27 84.5501 317.26 83.9101C316.17 83.5601 315.28 82.9501 314.56 82.0401C313.86 81.1801 313.52 80.18 313.52 78.99C313.52 78.19 313.66 77.4401 313.94 76.7201C314.18 76.1801 314.61 75.6 315.24 75C315.89 74.36 316.74 73.7501 317.77 73.1901C318.82 72.6101 320.29 72.02 322.15 71.42C322.81 71.2 324.13 70.79 326.69 70.08C328.8 69.5 330.33 69.06 331.15 68.81C331.98 68.54 332.71 68.2701 333.34 67.9801C333.95 67.7201 334.5 67.44 335.02 67.14L334.52 77.75L333.47 91.0501L335.17 90.99C336.81 90.94 338.11 90.9001 338.99 90.9001C339.94 90.9001 341.18 90.93 342.7 90.99L344.25 91.0501V89.49C344.25 86.34 344.33 82.8401 344.48 79.0801C344.63 75.2301 344.85 71.07 345.16 66.32C345.45 61.71 345.6 58.35 345.6 56.37C345.6 54.64 345.32 53 344.8 51.48C344.2 49.81 343.04 48.35 341.31 47.13Z" fill="#334E68"/>
<path d="M379.47 52.4502C379.3 50.1802 379.19 48.0902 379.16 46.2402L379.14 45.0802L378.01 44.8002C375.26 44.1202 372.36 44.2002 369.73 44.8702C368.32 45.2202 367.01 45.7302 365.88 46.3802C364.76 47.0302 363.73 47.8402 362.84 48.8102L363.01 45.2902L361.4 45.3202C360.08 45.3402 358.88 45.3602 357.8 45.3602C356.87 45.3602 355.69 45.3402 354.26 45.3202L352.7 45.2902L352.76 50.7402C352.76 60.4302 352.25 73.5802 351.24 89.8502L351.15 91.5002L352.82 91.4402C354.82 91.3702 356 91.3602 356.64 91.3602C357.65 91.3602 358.87 91.3802 360.29 91.4402L361.87 91.5002V87.0802C361.87 82.7902 361.92 78.7102 362.03 74.9502C362.2 69.7902 362.42 66.1902 362.71 64.2702C362.99 62.4402 363.38 60.9402 363.89 59.8002C364.5 58.4102 365.3 57.2002 366.23 56.2102C367.14 55.2502 368.17 54.5302 369.3 54.0502C371.42 53.1702 374 53.0202 377.56 54.0002L379.62 54.5602L379.47 52.4502Z" fill="#334E68"/>
</g>
<defs>
<clipPath id="clip0_20_134">
<rect width="379.61" height="112.51" fill="white" transform="translate(0 0.5)"/>
</clipPath>
</defs>
</svg>
