<svg width="427" height="207" viewBox="0 0 427 207" fill="none" xmlns="http://www.w3.org/2000/svg">
<g clip-path="url(#clip0_20_148)">
<path d="M12.2701 205.981C7.80538 205.402 3.72891 202.576 1.64955 198.62C-0.352692 194.809 -0.544783 190.174 1.14226 186.379C1.4422 185.705 15.7137 163.132 32.857 136.217C50.0001 109.303 70.3518 77.3495 78.0829 65.2103C85.814 53.071 92.3785 42.5507 92.6705 41.8316C93.7512 39.1715 93.5107 35.8849 92.0484 33.329C91.2654 31.9605 89.3723 30.1099 88.0818 29.4516C85.7663 28.2702 87.1299 28.3135 52.1509 28.3094C15.9402 28.3094 18.0914 28.3958 14.6951 26.722C8.74973 23.7911 5.59558 16.5958 7.46609 10.231C8.51238 6.67088 11.4812 3.08489 14.6876 1.50846C18.0212 -0.13047 12.9261 -0.0110883 76.8209 0.053125L134.296 0.110807L135.745 0.60651C140.066 2.08448 143.599 5.66002 144.949 9.92018C145.345 11.172 145.443 12.0101 145.443 14.1561C145.443 17.078 145.003 18.9241 143.825 20.9559C143.505 21.5076 122.98 53.7618 98.2131 92.6318C73.4466 131.502 52.9885 163.744 52.7509 164.281C52.1897 165.548 51.9971 168.337 52.3622 169.906C53.0571 172.891 55.1051 175.421 57.9122 176.762L59.6105 177.573L96.5075 177.688C137.735 177.817 134.251 177.671 137.752 179.411C139.966 180.511 142.447 182.96 143.615 185.197C147.066 191.81 145.111 199.638 138.986 203.735C137.098 204.997 135.239 205.681 132.847 205.991C130.786 206.258 14.3323 206.249 12.2701 205.98V205.981ZM317.042 205.889C315.219 205.556 312.595 204.396 311.123 203.272C309.609 202.116 307.91 200.04 307.067 198.315C305.493 195.093 305.619 203.801 305.682 102.543L305.739 11.0357L306.347 9.36862C307.105 7.29129 308.647 5.00927 310.283 3.54154C311.786 2.19327 315.028 0.567219 316.871 0.236979C317.779 0.0745258 333.3 0 366.273 0C413.423 0 414.385 0.0107348 416.074 0.440495C418.683 1.10769 420.292 2.06122 422.462 4.22708C423.922 5.68479 424.559 6.52268 425.179 7.803C426.82 11.1899 427.085 15.1224 425.908 18.6268C425.159 20.8574 424.447 22.0486 422.828 23.7802C421.141 25.5829 419.235 26.8277 416.987 27.594L415.204 28.2022L382.097 28.3159C350.738 28.4235 348.925 28.4511 347.764 28.8389C342.841 30.4827 338.958 34.5667 337.85 39.2633C337.353 41.3751 337.349 75.6552 337.846 77.765C339.041 82.8328 343.164 86.9662 348.345 88.2914C350.008 88.7168 350.927 88.7313 376.726 88.735C406.514 88.735 405.034 88.6646 408.396 90.3224C411.787 91.9939 414.539 95.3107 415.677 99.0979C416.322 101.244 416.226 105.068 415.47 107.347C414.095 111.494 410.582 115.015 406.397 116.44L404.948 116.933L377.08 117.045L349.212 117.156L347.291 117.844C343.525 119.193 340.681 121.649 339.057 124.959C337.447 128.238 337.508 127.359 337.508 147.376C337.508 164.42 337.53 165.439 337.939 167.038C339.237 172.114 343.008 175.87 348.321 177.379C349.557 177.73 352.031 177.755 380.87 177.702C403.155 177.662 412.65 177.719 414.067 177.899C420.288 178.692 425.108 183.094 426.334 189.101C426.776 191.268 426.777 192.642 426.336 194.776C425.283 199.875 421.783 203.804 416.782 205.5L414.981 206.11L366.825 206.148C327.558 206.178 318.369 206.131 317.042 205.889ZM222.693 205.845C221.472 205.641 219.161 204.792 217.788 204.043C215.876 203 212.769 199.895 211.713 197.973C211.275 197.176 210.682 195.822 210.395 194.963L209.874 193.403L209.758 116.822C209.652 47.1105 209.61 40.1378 209.282 39.0904C207.693 34.0189 204.607 30.7396 199.839 29.0547L198.058 28.4251L182.898 28.3044C169.029 28.1939 167.633 28.1491 166.511 27.7777C161.482 26.1127 157.796 22.1583 156.695 17.2483C156.351 15.7103 156.413 12.1429 156.811 10.5898C157.957 6.12478 161.295 2.4881 165.843 0.750391L167.515 0.111458L224.699 0.047526C265.042 0.00272604 282.311 0.0582315 283.333 0.225911C285.285 0.551565 288.475 2.13045 290.067 3.55807C291.74 5.05834 293.373 7.53625 294.048 9.59727C294.517 11.0294 294.591 11.6727 294.588 14.2678C294.585 16.8437 294.509 17.4865 294.066 18.7268C292.575 22.9068 289.141 26.2658 284.894 27.6996C283.475 28.1787 283.131 28.1914 268.285 28.316C251.412 28.4577 252.347 28.3725 249.128 30.0552C245.934 31.7248 243.333 34.8979 242.059 38.6801C241.81 39.4183 241.739 52.7586 241.645 116.153C241.536 188.843 241.51 192.801 241.132 194.071C239.4 199.89 235.143 204.164 229.691 205.559C228.066 205.974 224.372 206.126 222.693 205.845Z" fill="#334E68"/>
</g>
<defs>
<clipPath id="clip0_20_148">
<rect width="426.666" height="206.186" fill="white"/>
</clipPath>
</defs>
</svg>
