<svg width="126" height="83" viewBox="0 0 126 83" fill="none" xmlns="http://www.w3.org/2000/svg">
<g id="388325">
<g id="Group">
<g id="Group_2">
<path id="Vector" d="M3.65112 72.6556V64.4521L1.97307 64.448V72.6312H1.97171C1.91217 73.2781 1.47912 73.2307 1.47912 73.2307V73.2334H0L0.00811979 74.9372H1.57385C3.64164 74.9358 3.67412 73.1035 3.65112 72.6556Z" fill="#334E68"/>
<path id="Vector_2" d="M125.177 60.6208L123.498 61.7116V71.9951H125.177V60.6208Z" fill="#334E68"/>
<path id="Vector_3" d="M119.607 61.7129V70.2899H114.888L116.282 68.8731L109.533 62.0201L103.798 67.8432L104.824 68.8392L109.535 64.0568L114.278 68.8717L112.883 70.2886H111.102L112.499 68.8717L109.536 65.8648L106.574 68.8717L107.969 70.2886H100.479V64.7754L98.7994 64.8052V70.2886H94.5582V64.7754L92.8802 64.8052V70.2886H90.29V63.686L88.6106 63.7158V64.3951H87.7093C85.6605 64.3951 83.996 66.0867 83.996 68.1653C83.996 70.2439 85.6673 71.9883 87.7161 71.9883H87.9732V71.9937H88.612V71.9951H90.2914V71.9937H92.8788V71.9951H94.5569V71.9937H98.798V71.9951H100.477V71.9937H119.609V71.9951H121.287V60.6208L119.607 61.7129ZM85.6456 68.1653C85.6456 66.9704 86.6024 65.9974 87.7811 65.9974H88.6106V70.2845H87.8095C86.6335 70.2845 85.6456 69.3616 85.6456 68.1653ZM108.114 68.8717L109.533 67.4318L110.953 68.8717L109.558 70.2886H109.509L108.114 68.8717Z" fill="#334E68"/>
<path id="Vector_4" d="M90.351 61.9769C90.351 62.4979 89.9328 62.9201 89.4226 62.9201C88.9097 62.9201 88.4943 62.4979 88.4943 61.9769C88.4943 61.4559 88.9097 61.0337 89.4226 61.0337C89.9328 61.0337 90.351 61.4559 90.351 61.9769Z" fill="#334E68"/>
<path id="Vector_5" d="M87.6227 61.9769C87.6227 62.4979 87.2072 62.9201 86.6943 62.9201C86.1814 62.9201 85.766 62.4979 85.766 61.9769C85.766 61.4559 86.1814 61.0337 86.6943 61.0337C87.2059 61.0337 87.6227 61.4559 87.6227 61.9769Z" fill="#334E68"/>
<path id="Vector_6" d="M101.785 73.8234C101.785 74.3444 101.369 74.7666 100.856 74.7666C100.343 74.7666 99.9279 74.3444 99.9279 73.8234C99.9279 73.3024 100.343 72.8801 100.856 72.8801C101.369 72.8801 101.785 73.3024 101.785 73.8234Z" fill="#334E68"/>
<path id="Vector_7" d="M99.0565 73.8234C99.0565 74.3444 98.6411 74.7666 98.1282 74.7666C97.6153 74.7666 97.1985 74.3444 97.1985 73.8234C97.1985 73.3024 97.6153 72.8801 98.1282 72.8801C98.6411 72.8801 99.0565 73.3024 99.0565 73.8234Z" fill="#334E68"/>
<path id="Vector_8" d="M94.8192 61.5166C94.7218 61.5058 94.4673 61.4977 94.3794 61.4922C94.2928 61.4868 94.2062 61.4828 94.1182 61.4828C93.9328 61.4828 93.7839 61.5301 93.6689 61.6249C93.5539 61.7182 93.4957 61.8495 93.4957 62.016C93.4957 62.1811 93.562 62.3313 93.6919 62.4652C93.8232 62.5979 94.0465 62.6642 94.3645 62.6642H95.052V63.6101H92.4077V62.6642L92.3508 62.6723C92.3508 62.6723 92.723 62.6303 92.8759 62.6845C92.7325 62.5843 92.681 62.5505 92.6215 62.4233C92.5592 62.2961 92.5308 62.1269 92.5308 61.9158C92.5308 61.5274 92.6797 61.2202 92.9733 60.9942C93.2684 60.7682 93.6446 60.6519 94.1033 60.6519C94.2116 60.6519 94.3293 60.6586 94.4538 60.6681C94.5797 60.6803 94.7136 60.6965 94.8544 60.7182L94.8192 61.5166Z" fill="#334E68"/>
<path id="Vector_9" d="M78.4706 61.7116V71.9951H80.15V60.6208L78.4706 61.7116Z" fill="#334E68"/>
<path id="Vector_10" d="M74.5745 70.2886H71.2562L72.8707 68.6484L68.4509 64.1596L64.0311 68.6484L65.6456 70.2886H61.8199V60.6208L60.1405 61.7116V71.9951H61.8199V71.9937H74.5745V71.9951H76.2525V60.6208L74.5745 61.7116V70.2886ZM65.8824 68.6484L68.4509 66.0407L71.0208 68.6484L69.4036 70.2886H67.4969L65.8824 68.6484Z" fill="#334E68"/>
<path id="Vector_11" d="M46.9259 62.9187C47.4388 62.9187 47.8542 62.4965 47.8542 61.9755C47.8542 61.4544 47.4388 61.0322 46.9259 61.0322C46.4117 61.0322 45.9976 61.4544 45.9976 61.9755C45.9976 62.4965 46.4117 62.9187 46.9259 62.9187Z" fill="#334E68"/>
<path id="Vector_12" d="M44.1978 62.9187C44.7106 62.9187 45.1261 62.4965 45.1261 61.9755C45.1261 61.4544 44.7106 61.0322 44.1978 61.0322C43.6849 61.0322 43.2694 61.4544 43.2694 61.9755C43.2694 62.4965 43.6849 62.9187 44.1978 62.9187Z" fill="#334E68"/>
<path id="Vector_13" d="M50.7719 70.2886H47.7933V63.686L46.1139 63.7158V64.3951H45.2126C43.1651 64.3951 41.4993 66.0867 41.4993 68.1654C41.4993 70.244 43.1597 72.0032 45.2072 72.0032H46.8596V71.9965H47.792V71.9938H51.7354L54.8344 75.1401L59.2555 70.6513L54.8344 66.1639L50.7719 70.2886ZM43.1503 68.1654C43.1503 66.9704 44.107 65.9974 45.2844 65.9974H46.1139V70.2913L45.3033 70.2846C44.1287 70.2846 43.1503 69.3603 43.1503 68.1654ZM54.8357 73.2604L52.2659 70.6513L54.8357 68.0436L57.4056 70.6513L54.8357 73.2604Z" fill="#334E68"/>
<path id="Vector_14" d="M36.2297 61.7116V70.2886H33.0969V60.6208L31.4188 61.7116V70.2886H28.0519L29.6664 68.6484L25.2479 64.1596L20.8255 68.6484L22.4413 70.2886H17.2745L18.8903 68.6484L14.4691 64.1596L10.048 68.6484L11.6625 70.2886H7.59455V60.6208L5.91785 61.7116V71.9951H7.59455V71.9937H31.4161V71.9951H33.0942V71.9937H36.227V71.9951H37.9051V60.6208L36.2297 61.7116ZM22.6767 68.6484L25.2479 66.0407L27.8151 68.6484L26.1993 70.2886H24.2925L22.6767 68.6484ZM11.8993 68.6484L14.4691 66.0407L17.039 68.6484L15.4219 70.2886H13.5164L11.8993 68.6484Z" fill="#334E68"/>
<path id="Vector_15" d="M16.0564 62.9187C16.5693 62.9187 16.9847 62.4965 16.9847 61.9755C16.9847 61.4544 16.5693 61.0322 16.0564 61.0322C15.5435 61.0322 15.1281 61.4544 15.1281 61.9755C15.1281 62.4965 15.5435 62.9187 16.0564 62.9187Z" fill="#334E68"/>
<path id="Vector_16" d="M13.3282 62.9187C13.8411 62.9187 14.2566 62.4965 14.2566 61.9755C14.2566 61.4544 13.8411 61.0322 13.3282 61.0322C12.8154 61.0322 12.3999 61.4544 12.3999 61.9755C12.3999 62.4965 12.8154 62.9187 13.3282 62.9187Z" fill="#334E68"/>
<path id="Vector_17" d="M3.19242 82.9066L2.2113 81.058H1.43182V82.9066H0.369507V77.7046H2.7066C3.74726 77.7046 4.39142 78.4151 4.39142 79.3813C4.39142 80.2934 3.82981 80.7927 3.28986 80.9267L4.42119 82.9079H3.19242V82.9066ZM3.29663 79.3732C3.29663 78.9442 2.97455 78.6789 2.55503 78.6789H1.43182V80.0823H2.55503C2.97455 80.0823 3.29663 79.817 3.29663 79.3732Z" fill="#334E68"/>
<path id="Vector_18" d="M5.18164 82.9064V77.7031H8.71638V78.6788H6.24531V79.7709H8.6636V80.7453H6.24531V81.9307H8.71638V82.9064H5.18164Z" fill="#334E68"/>
<path id="Vector_19" d="M12.9983 82.9064L12.6829 82.0241H10.5407L10.2268 82.9064H9.021L10.9453 77.7031H12.2797L14.2027 82.9064H12.9983ZM11.6125 78.8115L10.8344 81.0498H12.392L11.6125 78.8115Z" fill="#334E68"/>
<path id="Vector_20" d="M14.6208 82.9064V77.7031H15.6926V81.9307H17.8037V82.9064H14.6208Z" fill="#334E68"/>
<path id="Vector_21" d="M20.4452 82.9064V77.7031H23.9799V78.6788H21.5089V79.7709H23.9258V80.7453H21.5089V81.9307H23.9799V82.9064H20.4452Z" fill="#334E68"/>
<path id="Vector_22" d="M24.4645 82.1731L25.0491 81.307C25.4009 81.69 25.9463 82.0161 26.6365 82.0161C27.2292 82.0161 27.5053 81.7441 27.5053 81.4396C27.5053 80.5343 24.6296 81.1663 24.6296 79.2081C24.6296 78.3433 25.3495 77.6248 26.5242 77.6248C27.3185 77.6248 27.9776 77.8738 28.4729 78.3501L27.8801 79.177C27.4741 78.7859 26.9369 78.6072 26.4281 78.6072C25.9788 78.6072 25.723 78.8089 25.723 79.1215C25.723 79.9402 28.5906 79.3867 28.5906 81.3286C28.5906 82.28 27.9329 82.9986 26.5918 82.9986C25.6256 82.9999 24.9354 82.6643 24.4645 82.1731Z" fill="#334E68"/>
<path id="Vector_23" d="M30.3564 82.9064V78.6788H28.8962V77.7031H32.8803V78.6788H31.4269V82.9064H30.3564Z" fill="#334E68"/>
<path id="Vector_24" d="M36.5328 82.9064L36.2175 82.0241H34.0766L33.7613 82.9064H32.5569L34.4799 77.7031H35.8129L37.7372 82.9064H36.5328ZM35.147 78.8115L34.3689 81.0498H35.9265L35.147 78.8115Z" fill="#334E68"/>
<path id="Vector_25" d="M38.8739 82.9064V78.6788H37.415V77.7031H41.3991V78.6788H39.9456V82.9064H38.8739Z" fill="#334E68"/>
<path id="Vector_26" d="M42.077 82.9064V77.7031H45.6131V78.6788H43.1407V79.7709H45.559V80.7453H43.1407V81.9307H45.6131V82.9064H42.077Z" fill="#334E68"/>
<path id="Vector_27" d="M48.1262 80.3081C48.1262 78.6625 49.3252 77.6165 50.7922 77.6165C51.8261 77.6165 52.477 78.1632 52.8505 78.7789L51.9749 79.2783C51.7408 78.9115 51.3145 78.6003 50.7922 78.6003C49.8787 78.6003 49.2197 79.3256 49.2197 80.3081C49.2197 81.2906 49.8787 82.0173 50.7922 82.0173C51.232 82.0173 51.6447 81.8143 51.8477 81.6194V80.9956H50.5296V80.028H52.91V82.0254C52.4012 82.6181 51.6907 82.9998 50.7922 82.9998C49.3252 82.9984 48.1262 81.9469 48.1262 80.3081Z" fill="#334E68"/>
<path id="Vector_28" d="M53.7561 82.9064V77.7031H57.2908V78.6788H54.8184V79.7709H57.2381V80.7453H54.8184V81.9307H57.2908V82.9064H53.7561Z" fill="#334E68"/>
<path id="Vector_29" d="M61.5641 82.9064L59.1837 79.5138V82.9064H58.12V77.7031H59.2121L61.5262 80.9713V77.7031H62.5898V82.9064H61.5641Z" fill="#334E68"/>
<path id="Vector_30" d="M63.5765 82.9064V77.7031H67.1113V78.6788H64.6402V79.7709H67.0585V80.7453H64.6402V81.9307H67.1113V82.9064H63.5765Z" fill="#334E68"/>
<path id="Vector_31" d="M70.7637 82.9066L69.7839 81.058H69.0031V82.9066H67.9408V77.7046H70.2765C71.3186 77.7046 71.9627 78.4151 71.9627 79.3813C71.9627 80.2934 71.3998 80.7927 70.8612 80.9267L71.9925 82.9079H70.7637V82.9066ZM70.8679 79.3732C70.8679 78.9442 70.5485 78.6789 70.1263 78.6789H69.0018V80.0823H70.1263C70.5472 80.0823 70.8679 79.817 70.8679 79.3732Z" fill="#334E68"/>
<path id="Vector_32" d="M76.2065 82.9064L75.8925 82.0241H73.749L73.435 82.9064H72.2292L74.1536 77.7031H75.4879L77.4109 82.9064H76.2065ZM74.8208 78.8115L74.0413 81.0498H75.5989L74.8208 78.8115Z" fill="#334E68"/>
<path id="Vector_33" d="M77.8292 82.9064V77.7031H78.8997V81.9307H81.0108V82.9064H77.8292Z" fill="#334E68"/>
<path id="Vector_34" d="M87.1046 82.9064L86.7893 82.0241H84.647L84.3331 82.9064H83.1287L85.053 77.7031H86.386L88.3103 82.9064H87.1046ZM85.7188 78.8115L84.9393 81.0498H86.4969L85.7188 78.8115Z" fill="#334E68"/>
<path id="Vector_35" d="M88.5254 80.8238V77.7031H89.6039V80.7926C89.6039 81.518 90.0072 82.0173 90.7799 82.0173C91.5513 82.0173 91.9478 81.518 91.9478 80.7926V77.7031H93.0345V80.8238C93.0345 82.1107 92.2997 82.9998 90.7799 82.9998C89.2589 82.9998 88.5254 82.1107 88.5254 80.8238Z" fill="#334E68"/>
<path id="Vector_36" d="M95.1739 82.9064V78.6788H93.7124V77.7031H97.6978V78.6788H96.2457V82.9064H95.1739Z" fill="#334E68"/>
<path id="Vector_37" d="M101.798 82.9064V80.7155H99.4394V82.9064H98.3771V77.7031H99.4394V79.7466H101.798V77.7031H102.87V82.9064H101.798Z" fill="#334E68"/>
<path id="Vector_38" d="M103.609 80.3081C103.609 78.7397 104.709 77.6165 106.222 77.6165C107.727 77.6165 108.829 78.7397 108.829 80.3081C108.829 81.8752 107.727 82.9984 106.222 82.9984C104.709 82.9984 103.609 81.8752 103.609 80.3081ZM107.735 80.3081C107.735 79.3338 107.144 78.6003 106.222 78.6003C105.294 78.6003 104.701 79.3338 104.701 80.3081C104.701 81.2757 105.294 82.0173 106.222 82.0173C107.144 82.0173 107.735 81.2757 107.735 80.3081Z" fill="#334E68"/>
<path id="Vector_39" d="M112.398 82.9066L111.418 81.058H110.638V82.9066H109.575V77.7046H111.911C112.952 77.7046 113.597 78.4151 113.597 79.3813C113.597 80.2934 113.034 80.7927 112.496 80.9267L113.627 82.9079H112.398V82.9066ZM112.502 79.3732C112.502 78.9442 112.182 78.6789 111.761 78.6789H110.636V80.0823H111.761C112.182 80.0823 112.502 79.817 112.502 79.3732Z" fill="#334E68"/>
<path id="Vector_40" d="M115.453 77.7031H114.388V82.9064H115.453V77.7031Z" fill="#334E68"/>
<path id="Vector_41" d="M117.592 82.9064V78.6788H116.132V77.7031H120.116V78.6788H118.664V82.9064H117.592Z" fill="#334E68"/>
<path id="Vector_42" d="M122.188 82.9064V80.7764L120.27 77.7031H121.484L122.72 79.7858L123.955 77.7031H125.161L123.251 80.7764V82.9064H122.188Z" fill="#334E68"/>
</g>
<g id="Group_3">
<path id="Vector_43" fill-rule="evenodd" clip-rule="evenodd" d="M88.1871 24.3291L64.2275 0V3.90959L84.3385 24.3291H88.1871Z" fill="#334E68"/>
<path id="Vector_44" fill-rule="evenodd" clip-rule="evenodd" d="M84.3385 27.2832L64.2275 47.7027V51.6123L88.1871 27.2832H84.3385Z" fill="#334E68"/>
<path id="Vector_45" fill-rule="evenodd" clip-rule="evenodd" d="M37.2607 24.3291L61.2204 0V3.90959L41.1094 24.3291H37.2607Z" fill="#334E68"/>
<path id="Vector_46" fill-rule="evenodd" clip-rule="evenodd" d="M41.1094 27.2832L61.2204 47.7027V51.6123L37.2607 27.2832H41.1094Z" fill="#334E68"/>
<path id="Vector_47" d="M62.724 44.9486L43.8689 25.8053L62.724 6.66333L81.5764 25.8067L62.724 44.9486ZM47.2845 25.8053L62.724 41.4816L78.1634 25.8053L62.724 10.1291L47.2845 25.8053Z" fill="#334E68"/>
<path id="Vector_48" d="M62.5169 18.1878L58.7792 14.3945L62.724 10.3902L66.6674 14.3945L62.9067 18.2121L64.6727 20.0052L70.1967 14.3945L62.724 6.80542L55.2499 14.3945L60.7523 19.9808L62.5169 18.1878Z" fill="#334E68"/>
<path id="Vector_49" d="M62.5169 33.423L58.7792 37.2176L62.724 41.2206L66.6674 37.2176L62.9067 33.4L64.6727 31.6069L70.1967 37.2176L62.724 44.8067L55.2499 37.2176L60.7523 31.6313L62.5169 33.423Z" fill="#334E68"/>
<path id="Vector_50" d="M70.2265 25.5958L73.9629 21.8026L77.9063 25.8056L73.9629 29.8099L70.2035 25.9923L68.4375 27.784L73.9629 33.3947L81.437 25.8056L73.9629 18.2178L68.4619 23.8041L70.2265 25.5958Z" fill="#334E68"/>
<path id="Vector_51" d="M55.2215 25.5958L51.4851 21.8026L47.543 25.8056L51.4851 29.8099L55.2458 25.9923L57.0105 27.784L51.4851 33.3947L44.011 25.8056L51.4851 18.2178L56.9875 23.8041L55.2215 25.5958Z" fill="#334E68"/>
<path id="Vector_52" d="M62.724 29.8383L58.7535 25.8056L62.724 21.7742L66.6959 25.8056L62.724 29.8383Z" fill="#334E68"/>
</g>
</g>
</g>
</svg>
