<svg width="240" height="82" viewBox="0 0 240 82" fill="none" xmlns="http://www.w3.org/2000/svg">
<g id="388326">
<g id="Group 29">
<path id="Vector" fill-rule="evenodd" clip-rule="evenodd" d="M174.152 35.6142C174.152 35.6142 171.2 12.578 187.326 9.48295C203.451 6.38785 209.452 19.455 209.452 19.455H220.813C220.813 19.455 217.394 1.58648 195.124 0.00840925C195.124 0.00840925 179.417 -0.83099 172.152 14.263C164.888 29.3508 174.152 35.6142 174.152 35.6142ZM173.233 33.7798C172.311 32.7267 171.53 31.3867 171.087 30.297C169.005 25.1629 170.522 19.3635 172.824 14.5834C175.675 8.66491 180.284 4.38245 186.486 2.20306C188.901 1.3545 192.478 0.597516 195.076 0.750134C203.146 1.32093 210.64 4.22983 215.725 10.7314C217.355 12.8161 219.128 15.957 219.876 18.7102H209.916C208.784 16.5125 206.714 14.1866 204.892 12.6971C199.788 8.52451 193.571 7.52638 187.188 8.75343C179.426 10.243 175.485 16.2073 173.959 23.5116C173.315 26.5731 173.028 30.41 173.233 33.7798Z" fill="#334E68"/>
<path id="Vector_2" fill-rule="evenodd" clip-rule="evenodd" d="M172.476 31.5423C172.473 28.8044 172.744 25.9443 173.282 23.3651C174.869 15.7555 179.029 9.61111 187.054 8.07272C193.613 6.81209 200.066 7.8621 205.325 12.1598C207.178 13.6738 209.138 15.8776 210.328 18.0204H218.945C218.139 15.6334 216.656 13.042 215.181 11.1525C210.218 4.80668 202.896 1.96798 195.03 1.43382C192.499 1.26289 189.105 2.00766 186.715 2.85012C180.681 4.97456 176.212 9.13188 173.443 14.8795C171.23 19.4763 169.723 25.0988 171.725 30.0375C171.926 30.5351 172.183 31.0479 172.476 31.5423Z" fill="#334E68"/>
<path id="Vector_3" fill-rule="evenodd" clip-rule="evenodd" d="M180.125 25.993H182.439V51.5902C182.439 51.5902 160.614 46.92 161.695 23.8838C161.695 23.8838 162.406 6.38159 179.74 0.859863L179.582 1.64127C179.582 1.64127 159.607 10.5084 165.553 31.8902C165.553 31.8902 168.633 45.113 180.049 47.6312L180.125 25.993Z" fill="#334E68"/>
<path id="Vector_4" fill-rule="evenodd" clip-rule="evenodd" d="M204.104 25.4314H207.056C207.056 27.3544 207.175 29.2285 206.977 30.9623C206.705 33.3645 205.759 35.4157 204.489 37.3722C202.395 40.5955 199.101 43.2572 194.205 44.5697V42.4148L195.527 42.0881V25.5138H198.323V39.7836C198.323 39.7836 199.034 40.1438 199.556 39.7317C200.075 39.3197 204.812 35.6996 204.104 25.4314Z" fill="#334E68"/>
<path id="Vector_5" fill-rule="evenodd" clip-rule="evenodd" d="M211.415 25.3584H219.14C219.14 25.3584 219.259 47.1279 195.973 47.4911L195.811 47.253C195.814 47.25 213.243 43.4986 211.415 25.3584Z" fill="#334E68"/>
<path id="Vector_6" fill-rule="evenodd" clip-rule="evenodd" d="M204.614 41.2763C205.136 41.2763 205.563 40.8489 205.563 40.327C205.563 39.805 205.136 39.3777 204.614 39.3777C204.092 39.3777 203.665 39.805 203.665 40.327C203.665 40.8489 204.089 41.2763 204.614 41.2763Z" fill="#334E68"/>
<path id="Vector_7" fill-rule="evenodd" clip-rule="evenodd" d="M202.386 43.3246C202.908 43.3246 203.335 42.8973 203.335 42.3753C203.335 41.8534 202.908 41.426 202.386 41.426C201.864 41.426 201.437 41.8534 201.437 42.3753C201.437 42.8973 201.864 43.3246 202.386 43.3246Z" fill="#334E68"/>
<path id="Vector_8" fill-rule="evenodd" clip-rule="evenodd" d="M176.712 41.2245C177.234 41.2245 177.662 40.7972 177.662 40.2752C177.662 39.7533 177.234 39.3259 176.712 39.3259C176.19 39.3259 175.763 39.7533 175.763 40.2752C175.763 40.7972 176.19 41.2245 176.712 41.2245Z" fill="#334E68"/>
<path id="Vector_9" fill-rule="evenodd" clip-rule="evenodd" d="M187.817 25.4561L187.972 72.6273C187.972 72.6273 186.062 74.5686 187.948 76.2901L186.938 79.2143H192.511L191.55 76.3451C191.55 76.3451 193.503 74.245 191.419 72.5205V25.4744L187.817 25.4561Z" fill="#334E68"/>
<path id="Vector_10" fill-rule="evenodd" clip-rule="evenodd" d="M183.443 81.7416H184.151V81.0548L184.185 79.8552L186.01 76.8517C186.156 76.6105 186.144 76.3206 185.979 76.0916C185.204 75.0233 185.116 73.6742 186.279 72.8561C186.468 72.7218 186.572 72.5234 186.572 72.2945V23.5818H221.213L221.088 29.656C220.935 31.4325 220.416 34.3536 219.726 36.0049C216.042 44.8507 209.009 48.8035 199.37 48.9958C199.086 49.0019 198.848 49.1667 198.744 49.4292C198.641 49.6917 198.699 49.9756 198.9 50.174L230.138 80.9205L215.38 81.0487L194.535 51.1141C194.361 50.8608 194.053 50.7601 193.76 50.8516C193.467 50.9462 193.278 51.2088 193.281 51.514L193.531 71.8183C193.534 71.9954 193.592 72.1449 193.711 72.2731C194.816 73.4757 194.941 75.3469 194.224 76.7815C194.135 76.9554 194.123 77.1386 194.19 77.3248L195.524 81.0517H186.349V81.7385H196.498L194.837 77.0928C194.837 77.0928 196.336 74.1167 194.218 71.8061L193.967 51.5018L215.02 81.7354L230.977 81.5981V80.7831L199.379 49.6795C209.162 49.475 216.686 45.2566 220.456 36.182C221.5 33.6729 221.527 32.1803 221.802 29.6499L221.897 22.8889H185.879V72.2914C185.879 72.2914 183.55 73.9183 185.421 76.4945L183.501 79.6537L183.443 81.7416Z" fill="#334E68"/>
<path id="Vector_11" fill-rule="evenodd" clip-rule="evenodd" d="M216.829 79.3181H225.965L195.692 48.9012L194.392 47.6833L194.245 48.0588L216.829 79.3181Z" fill="#334E68"/>
<path id="Vector_12" fill-rule="evenodd" clip-rule="evenodd" d="M236.731 75.3438C238.538 75.3438 240 76.8089 240 78.6128C240 80.4198 238.535 81.8819 236.731 81.8819C234.924 81.8819 233.462 80.4168 233.462 78.6128C233.462 76.8089 234.924 75.3438 236.731 75.3438ZM236.731 75.8443C235.202 75.8443 233.962 77.0836 233.962 78.6128C233.962 80.1421 235.202 81.3813 236.731 81.3813C238.26 81.3813 239.499 80.1421 239.499 78.6128C239.499 77.0836 238.26 75.8443 236.731 75.8443Z" fill="#334E68"/>
<path id="Vector_13" fill-rule="evenodd" clip-rule="evenodd" d="M235.406 80.4687V77.1782H236.865C237.158 77.1782 237.381 77.2087 237.534 77.2667C237.686 77.3247 237.808 77.4285 237.9 77.5781C237.992 77.7276 238.037 77.8925 238.037 78.0726C238.037 78.3076 237.961 78.5029 237.812 78.6617C237.662 78.8234 237.427 78.9242 237.113 78.9669C237.229 79.0218 237.314 79.0768 237.375 79.1317C237.503 79.2477 237.622 79.3942 237.735 79.5713L238.306 80.4687H237.763L237.326 79.7849C237.201 79.5865 237.094 79.437 237.012 79.3301C236.929 79.2264 236.856 79.1531 236.792 79.1104C236.728 79.0707 236.661 79.0402 236.594 79.0219C236.545 79.0127 236.465 79.0066 236.352 79.0066H235.849V80.4687H235.406ZM235.843 78.6312H236.777C236.975 78.6312 237.131 78.6098 237.244 78.5701C237.357 78.5304 237.439 78.4633 237.497 78.3717C237.555 78.2801 237.586 78.1825 237.586 78.0756C237.586 77.9199 237.531 77.7917 237.418 77.691C237.305 77.5903 237.128 77.5415 236.884 77.5415H235.843V78.6312Z" fill="#334E68"/>
</g>
<g id="Group 28">
<path id="Vector_14" fill-rule="evenodd" clip-rule="evenodd" d="M141.788 6.93286H149.403V24.8335C149.403 24.8335 149.16 31.0489 137.306 28.9899L136.981 28.4959C136.981 28.4959 141.729 28.4752 141.75 24.5673C141.768 20.6564 141.788 6.93286 141.788 6.93286Z" fill="#334E68"/>
<path id="Vector_15" fill-rule="evenodd" clip-rule="evenodd" d="M130.15 7.18433H137.152V17.4467V23.2479H130.15H51.841H44.4482H36.4342V17.4467H44.4482V14.8936H38.7417V7.18433H44.4482H51.841H52.2552V14.8936V17.4467H130.15V7.18433Z" fill="#334E68"/>
<path id="Vector_16" d="M33.1092 1.14941H25.7017V23.4224H33.1092V1.14941Z" fill="#334E68"/>
<path id="Vector_17" fill-rule="evenodd" clip-rule="evenodd" d="M14.3774 7.08084H21.3974V21.6593C21.3974 21.6593 21.7643 28.2504 11.0612 28.5403C0.358055 28.8273 0.429054 22.5794 0.429054 22.5794L0.393555 8.69608L1.47333 7.47134L2.04428 6.90039H8.72707V7.95946H7.668V20.3665C7.668 22.1859 9.46665 23.4461 11.2268 23.3781C12.7622 23.3189 14.265 22.1534 14.5224 20.6594L14.3774 7.08084Z" fill="#334E68"/>
<path id="Vector_18" fill-rule="evenodd" clip-rule="evenodd" d="M119.488 26.9963C121.278 26.9963 122.728 28.4696 122.728 30.283L122.725 30.3806H116.252L116.249 30.283C116.249 28.4666 117.699 26.9963 119.488 26.9963Z" fill="#334E68"/>
<path id="Vector_19" fill-rule="evenodd" clip-rule="evenodd" d="M127.097 26.9963C128.887 26.9963 130.336 28.4696 130.336 30.283L130.333 30.3806H123.861L123.858 30.283C123.858 28.4666 125.307 26.9963 127.097 26.9963Z" fill="#334E68"/>
<path id="Vector_20" fill-rule="evenodd" clip-rule="evenodd" d="M10.851 4.30006C12.6408 4.30006 14.0904 2.82684 14.0904 1.0134L14.0874 0.915771H7.61465L7.61169 1.0134C7.61465 2.82684 9.06422 4.30006 10.851 4.30006Z" fill="#334E68"/>
<path id="Vector_21" fill-rule="evenodd" clip-rule="evenodd" d="M22.5391 49.3281C22.19 49.0529 22.1634 48.5293 22.5154 48.2542C23.3378 47.5797 23.7135 46.6064 23.7135 44.6125C23.7135 38.5747 22.9148 37.9741 16.0782 37.9741H0.783805C0.408101 37.9741 0.109314 38.2729 0.109314 38.6486V54.7684C0.109314 55.1441 0.408101 55.4429 0.783805 55.4429H4.7775C5.15321 55.4429 5.452 55.1441 5.452 54.7684V51.9491C5.452 51.5734 5.75078 51.2746 6.12649 51.2746H17.7289C18.1046 51.2746 18.4271 51.5734 18.4271 51.9491V54.7684C18.4271 55.1441 18.7259 55.4429 19.1016 55.4429H23.045C23.4207 55.4429 23.7195 55.1441 23.7195 54.7684V53.9962C23.7106 50.8516 23.3615 49.902 22.5391 49.3281ZM144.03 38.6486V48.8044C144.03 49.4286 143.258 49.7274 142.832 49.2541L132.952 38.1989C132.827 38.0481 132.653 37.9741 132.452 37.9741H126.414C126.038 37.9741 125.739 38.2729 125.739 38.6486V54.7684C125.739 55.1441 126.038 55.4429 126.414 55.4429H130.407C130.783 55.4429 131.082 55.1441 131.082 54.7684V45.2367C131.082 44.6125 131.854 44.3137 132.253 44.7871L141.587 55.218C141.738 55.3689 141.912 55.4429 142.11 55.4429H148.672C149.048 55.4429 149.346 55.1441 149.346 54.7684V38.6486C149.346 38.2729 149.048 37.9741 148.672 37.9741H144.705C144.329 37.9771 144.03 38.2759 144.03 38.6486ZM119.027 55.4429H123.444C123.967 55.4429 124.293 54.8926 124.041 54.4459L115.308 38.3262C115.208 38.1013 114.959 37.9771 114.711 37.9771H107.774C107.525 37.9771 107.3 38.1013 107.176 38.3262L98.443 54.4459C98.1945 54.8956 98.5436 55.4429 99.0406 55.4429H103.457C103.706 55.4429 103.957 55.3186 104.055 55.0938L105.226 52.9224C105.351 52.6975 105.575 52.5733 105.824 52.5733H116.654C116.903 52.5733 117.154 52.6975 117.252 52.9224L118.423 55.0938C118.554 55.3186 118.778 55.4429 119.027 55.4429ZM108.075 47.6832L110.646 42.9411C110.921 42.4678 111.596 42.4678 111.844 42.9411L114.415 47.6832C114.663 48.1329 114.341 48.6802 113.817 48.6802H108.676C108.173 48.6802 107.85 48.1329 108.075 47.6832ZM85.4177 37.9771H73.9395C73.5638 37.9771 73.265 38.2759 73.265 38.6516V54.7713C73.265 55.147 73.5638 55.4458 73.9395 55.4458L85.4177 55.4221C97.0704 55.4221 97.5201 54.9725 97.5201 46.7129C97.5201 38.4504 97.0438 37.9771 85.4177 37.9771ZM91.5058 51.0764H79.2792C78.9035 51.0764 78.6047 50.7776 78.6047 50.4019V43.0417C78.6047 42.666 78.9035 42.3435 79.2792 42.3435H91.5058C91.8815 42.3435 92.1803 42.6689 92.1803 43.0417V50.4019C92.1803 50.7776 91.8786 51.0764 91.5058 51.0764ZM71.0936 37.9771H66.7005C66.526 37.9771 66.3515 38.051 66.2006 38.1753L60.3875 44.3374C60.1124 44.6125 59.6628 44.6125 59.3906 44.3374L53.5775 38.1989C53.4533 38.0481 53.2787 37.9741 53.0776 37.9741H48.6845C48.0869 37.9741 47.7852 38.6989 48.1846 39.1219L57.0417 48.479C57.166 48.6033 57.2429 48.7778 57.2429 48.9524V54.7654C57.2429 55.1411 57.5416 55.4399 57.9174 55.4399H61.8844C62.2601 55.4399 62.5826 55.1411 62.5826 54.7654V48.9257C62.5826 48.7512 62.6329 48.5766 62.7571 48.4524L71.5906 39.119C71.9929 38.6989 71.6941 37.9771 71.0936 37.9771ZM45.7174 55.4429C45.4689 55.4429 45.244 55.3186 45.1198 55.0938L43.9483 52.9224C43.8477 52.6975 43.5992 52.5733 43.3507 52.5733H32.5204C32.2719 52.5733 32.0471 52.6975 31.9228 52.9224L30.7513 55.0938C30.6508 55.3186 30.4023 55.4429 30.1538 55.4429H25.737C25.2371 55.4429 24.888 54.8926 25.1394 54.4459L33.8723 38.3262C33.9966 38.1013 34.2214 37.9771 34.4699 37.9771H41.4071C41.6556 37.9771 41.9071 38.1013 42.0047 38.3262L50.7376 54.4459C50.9861 54.8956 50.6636 55.4429 50.14 55.4429H45.7174ZM34.7657 47.6832C34.5409 48.1329 34.8663 48.6802 35.3633 48.6802H40.5048C41.0284 48.6802 41.3539 48.13 41.1024 47.6832L38.5316 42.9411C38.2831 42.4678 37.6087 42.4678 37.3335 42.9411L34.7657 47.6832ZM17.723 46.9082H6.12057C5.74486 46.9082 5.44608 46.6094 5.44608 46.2337V43.015C5.44608 42.6393 5.74486 42.3406 6.12057 42.3406H17.723C18.0987 42.3406 18.3975 42.6393 18.3975 43.015V46.2337C18.3945 46.6094 18.0957 46.9082 17.723 46.9082Z" fill="#334E68"/>
<path id="Vector_22" fill-rule="evenodd" clip-rule="evenodd" d="M19.8235 78.4466H19.6963H19.4005V78.4436C17.6788 78.3933 16.2943 77.8993 15.1524 76.8195C14.2442 77.9407 12.9337 78.5087 11.1794 78.5087C8.28619 78.5087 6.40471 76.6065 6.40471 73.7133C6.40471 72.9944 6.51121 72.3406 6.74196 71.749H5.39002C3.74224 71.749 2.91688 72.8258 2.91688 74.9617V81.9551H0V74.4972C0 71.0745 2.13293 68.8765 5.25985 68.8765H11.2829C13.7354 68.8765 15.4867 70.2491 15.9748 72.385C16.525 74.8138 17.4125 75.574 19.6727 75.6184H19.8206H22.7375C22.4623 74.8789 22.3144 74.2014 22.3144 73.589C22.3144 72.2164 22.7582 71.0331 23.6457 70.0598C24.5539 69.0865 25.6958 68.6013 27.0891 68.6013C28.8848 68.6013 30.4054 69.616 31.1449 71.2845L28.7162 72.4057C28.4411 71.5804 27.8908 71.1603 27.027 71.1603C26.4353 71.1603 25.9709 71.394 25.6543 71.8791C25.3585 72.2815 25.2106 72.808 25.2106 73.4441C25.2106 74.5653 25.6129 75.3048 26.3939 75.6214H31.2958V78.4525H19.8235V78.4466ZM149.178 75.4468C149.178 78.2779 147.276 80.263 144.317 80.263C142.522 80.263 141.17 79.6506 140.303 78.4466H137.155H136.502H117.465H117.107H114.678C112.418 78.4466 111.108 77.136 111.108 74.9617V64.8206H114.066V73.4204C114.066 74.8581 114.424 75.6184 116.601 75.6184H117.107H117.465H120.485V64.8414H123.423L123.148 71.7519C125.05 69.7669 126.952 68.8351 129.065 68.8351C132.549 68.8351 134.537 71.2875 134.854 75.6184H136.502H137.155H139.436C139.436 72.598 141.17 70.6751 144.211 70.6751C147.255 70.6721 149.178 72.5536 149.178 75.4468ZM146.24 75.5533C146.24 73.8849 145.607 73.0388 144.359 73.0388H144.149C143.072 73.0388 142.332 74.0328 142.332 75.4261C142.332 76.8639 143.051 77.8549 144.317 77.8549C145.48 77.8549 146.24 76.926 146.24 75.5533ZM131.745 75.6155C131.765 75.4675 131.765 75.3403 131.765 75.1924C131.765 72.9944 130.668 71.4117 128.828 71.4117C126.651 71.4117 124.707 72.8287 123.08 75.6155H131.745ZM108.948 74.37C108.948 75.4912 108.632 76.4201 108.019 77.1597C107.321 78.0265 106.351 78.4495 105.123 78.4495H103.011H102.842H102.608V78.4466C99.6679 78.3726 97.6178 76.8994 96.6505 74.2251H94.7069C92.6568 74.2251 91.6421 75.0504 91.6421 76.6982C91.6421 78.2395 92.6568 79.0027 94.7069 79.0027H96.8842V81.9403H94.9199C90.799 81.9403 88.6867 79.9109 88.6867 76.6361C88.6867 73.8671 90.3996 71.8614 93.0828 71.4176C93.5679 71.3319 94.5826 71.3319 96.1476 71.3111C95.7659 69.4297 94.627 68.5008 92.7455 68.5008C92.2811 68.5008 91.858 68.5865 91.4557 68.7345V66.1134C91.9409 66.0069 92.4497 65.9448 92.9348 65.9448C96.7155 65.9448 98.8721 68.27 99.1266 72.388C99.5082 74.586 100.691 75.6214 102.656 75.6214H103.014H104.493C105.487 75.6214 105.993 74.9232 105.993 73.5506V68.8824H108.951V74.37H108.948ZM108.779 81.9551V79.5027H106.158V81.9551H108.779ZM96.1209 64.8414H93.4792V62.3889H96.1209V64.8414ZM82.9802 78.0265C82.9802 80.6239 81.3738 81.9344 78.1404 81.9344H77.8446V79.5677H78.0339C79.2172 79.5677 80.3798 78.7424 80.3798 77.6034C79.9775 78.2572 79.2823 78.5767 78.2883 78.5767C75.5637 78.5767 73.5343 76.5059 73.5343 73.6748C73.5343 70.7787 75.5194 68.8351 78.2883 68.8351C81.0129 68.8351 82.9802 70.9266 82.9802 73.7162V78.0265ZM80.0219 73.7162C80.0219 72.4264 79.2823 71.5182 78.2262 71.5182C77.1908 71.5182 76.4926 72.4057 76.4926 73.6512C76.4926 74.8345 77.1701 75.8285 78.3297 75.8285C79.3888 75.8285 80.0219 75.0031 80.0219 73.7162ZM71.5493 75.4468C71.5493 78.2779 69.6471 80.263 66.6889 80.263C64.8932 80.263 63.5412 79.6506 62.6744 78.4466H59.5268H58.873H39.8364H39.4785H37.0497C34.7896 78.4466 33.479 77.136 33.479 74.9617V64.8206H36.4373V73.4204C36.4373 74.8581 36.7953 75.6184 38.9726 75.6184H39.4785H39.8364H42.8568V64.8414H45.7944L45.5193 71.7519C47.4215 69.7669 49.3237 68.8351 51.4359 68.8351C54.9208 68.8351 56.9087 71.2875 57.2253 75.6184H58.873H59.5268H61.8077C61.8077 72.598 63.5412 70.6751 66.5824 70.6751C69.6235 70.6751 71.5493 72.5536 71.5493 75.4468ZM68.6117 75.5533C68.6117 73.8849 67.9787 73.0388 66.7303 73.0388H66.5202C65.4434 73.0388 64.7038 74.0328 64.7038 75.4261C64.7038 76.8639 65.4227 77.8549 66.6889 77.8549C67.8515 77.8549 68.6117 76.926 68.6117 75.5533ZM54.1161 75.6155C54.1368 75.4675 54.1368 75.3403 54.1368 75.1924C54.1368 72.9944 53.0393 71.4117 51.1992 71.4117C49.0219 71.4117 47.0783 72.8287 45.4512 75.6155H54.1161ZM13.2117 73.6304C13.2117 72.2134 12.4515 71.2845 11.2681 71.2845C10.0434 71.2845 9.30384 72.3199 9.30384 73.7133C9.30384 75.1303 10.0434 76.1213 11.1202 76.1213H11.3303C12.5787 76.1243 13.2117 75.2989 13.2117 73.6304Z" fill="#334E68"/>
</g>
</g>
</svg>
