<svg width="120" height="83" viewBox="0 0 120 83" fill="none" xmlns="http://www.w3.org/2000/svg">
<g id="388328">
<g id="Group">
<g id="Group_2">
<path id="Vector" d="M57.26 48.8493L57.1387 48.9151C57.1159 48.9277 57.1058 48.9581 57.1184 48.9808L59.3262 53.0069L59.3287 52.5188L57.3258 48.8645C57.3132 48.8443 57.2828 48.8342 57.26 48.8493Z" fill="#334E68"/>
<path id="Vector_2" d="M55.9906 45.0409L55.8692 45.1066C55.8464 45.1193 55.8439 45.1598 55.8641 45.1977L59.3389 51.5327L59.3414 51.0446L56.0715 45.0839C56.0513 45.0485 56.0133 45.0282 55.9906 45.0409Z" fill="#334E68"/>
<path id="Vector_3" d="M54.468 40.9086L54.3466 40.9744C54.3239 40.987 54.3264 41.0401 54.3567 41.0932L59.3463 50.1898L59.3488 49.7017L54.5641 40.9769C54.5338 40.9263 54.4908 40.896 54.468 40.9086Z" fill="#334E68"/>
<path id="Vector_4" d="M53.9978 38.4984L53.8764 38.5642C53.8536 38.5768 53.8587 38.635 53.8916 38.6931L59.3515 48.6521C59.3515 48.6521 59.3515 48.6546 59.3541 48.6546L59.3566 48.1665L54.0989 38.5793C54.0686 38.5212 54.0231 38.4858 53.9978 38.4984Z" fill="#334E68"/>
<path id="Vector_5" d="M53.545 36.2678L53.4236 36.3336C53.4009 36.3462 53.4085 36.4069 53.4439 36.4702L59.3565 47.2535C59.359 47.2561 59.3616 47.2611 59.3641 47.2636L59.3666 46.7781L53.6538 36.3564C53.6158 36.2931 53.5703 36.2527 53.545 36.2678Z" fill="#334E68"/>
<path id="Vector_6" d="M54.0154 35.6937L53.894 35.7595C53.8712 35.7721 53.8763 35.8303 53.9091 35.8884L59.3691 45.8474C59.3691 45.8474 59.3691 45.8499 59.3716 45.8499L59.3742 45.3618L54.1165 35.7746C54.0836 35.7165 54.0406 35.6811 54.0154 35.6937Z" fill="#334E68"/>
<path id="Vector_7" d="M59.3691 44.4186C59.3717 44.4237 59.3767 44.4287 59.3793 44.4338L59.3818 43.9482L53.3832 33.0055C53.3477 32.9398 53.2972 32.8968 53.2744 32.9094L53.153 32.9752C53.1303 32.9878 53.1404 33.0536 53.1758 33.1193" fill="#334E68"/>
<path id="Vector_8" d="M53.8611 32.5503L53.7397 32.616C53.7144 32.6287 53.722 32.6894 53.7549 32.7475L59.3843 43.0125C59.3843 43.015 59.3868 43.015 59.3868 43.0175L59.3894 42.532L53.9623 32.6337C53.9319 32.5756 53.8864 32.5376 53.8611 32.5503Z" fill="#334E68"/>
<path id="Vector_9" d="M53.3833 30.2465L53.2619 30.3122C53.2391 30.3249 53.2467 30.3881 53.2846 30.4538L59.392 41.5912C59.3945 41.5963 59.3971 41.5988 59.3996 41.6039L59.4021 41.1183L53.492 30.34C53.4541 30.2743 53.406 30.2313 53.3833 30.2465Z" fill="#334E68"/>
<path id="Vector_10" d="M53.98 29.9076L53.8586 29.9733C53.8359 29.986 53.8409 30.0441 53.8738 30.1048L59.402 40.1877C59.402 40.1902 59.4046 40.1902 59.4046 40.1902L59.4071 39.7021L54.0812 29.9885C54.0508 29.9303 54.0053 29.8949 53.98 29.9076Z" fill="#334E68"/>
<path id="Vector_11" d="M53.5477 24.8221L53.4263 24.8879C53.4035 24.9005 53.4111 24.9638 53.4465 25.027L59.4274 35.9317C59.43 35.9368 59.4325 35.9393 59.435 35.9418L59.4375 35.4563L53.6564 24.9132C53.6185 24.85 53.5704 24.8095 53.5477 24.8221Z" fill="#334E68"/>
<path id="Vector_12" d="M54.2583 24.6903L54.1369 24.7561C54.1142 24.7687 54.1192 24.8243 54.1496 24.8825L59.4401 34.5304L59.4426 34.0423L54.357 24.7662C54.3266 24.7131 54.2836 24.6777 54.2583 24.6903Z" fill="#334E68"/>
<path id="Vector_13" d="M53.8358 22.4877L53.7144 22.5534C53.6917 22.5661 53.6993 22.6268 53.7321 22.6875L59.445 33.1067C59.445 33.1092 59.4475 33.1117 59.4501 33.1142L59.4526 32.6287L53.9395 22.5737C53.9066 22.5155 53.8611 22.475 53.8358 22.4877Z" fill="#334E68"/>
<path id="Vector_14" d="M54.5187 22.3006L54.3973 22.3663C54.3746 22.379 54.3796 22.4346 54.4074 22.4877L59.4602 31.7006L59.4628 31.2125L54.6148 22.3714C54.5845 22.3208 54.5415 22.2879 54.5187 22.3006Z" fill="#334E68"/>
<path id="Vector_15" d="M53.98 19.8881L53.8586 19.9539C53.8359 19.9665 53.8409 20.0247 53.8738 20.0854L59.4653 30.282C59.4653 30.2845 59.4678 30.2845 59.4678 30.2871L59.4703 29.8015L54.0812 19.9741C54.0483 19.9109 54.0028 19.8729 53.98 19.8881Z" fill="#334E68"/>
<path id="Vector_16" d="M54.6831 19.7387L54.5617 19.8045C54.5389 19.8171 54.5415 19.8702 54.5718 19.9233L59.478 28.8707L59.4805 28.3826L54.7792 19.807C54.7489 19.7564 54.7059 19.7261 54.6831 19.7387Z" fill="#334E68"/>
<path id="Vector_17" d="M54.9789 18.8486L54.8575 18.9143C54.8348 18.927 54.8373 18.9776 54.8626 19.0281L59.4829 27.4545L59.4855 26.9665L55.0699 18.9118C55.0447 18.8663 55.0042 18.8359 54.9789 18.8486Z" fill="#334E68"/>
<path id="Vector_18" d="M54.8146 17.1214L54.6932 17.1871C54.6679 17.1998 54.673 17.2529 54.7008 17.3035L59.4931 26.0435L59.4957 25.5554L54.9082 17.1897C54.8804 17.1391 54.8399 17.1062 54.8146 17.1214Z" fill="#334E68"/>
<path id="Vector_19" d="M55.4367 16.8204L55.3153 16.8862C55.2926 16.8988 55.2926 16.9468 55.3179 16.9898L59.5033 24.6247L59.5058 24.1366L55.5253 16.876C55.5 16.833 55.4595 16.8078 55.4367 16.8204Z" fill="#334E68"/>
<path id="Vector_20" d="M55.022 14.6354L54.9006 14.7012C54.8779 14.7138 54.8804 14.7644 54.9057 14.815L59.5109 23.2111L59.5134 22.723L55.113 14.7012C55.0878 14.6531 55.0473 14.6228 55.022 14.6354Z" fill="#334E68"/>
<path id="Vector_21" d="M55.8109 14.6456L55.6895 14.7113C55.6667 14.724 55.6642 14.767 55.6869 14.81L59.5183 21.7974L59.5208 21.3093L55.8968 14.6962C55.8741 14.6532 55.8361 14.6304 55.8109 14.6456Z" fill="#334E68"/>
<path id="Vector_22" d="M55.7325 13.0699L55.6112 13.1357C55.5884 13.1483 55.5859 13.1938 55.6086 13.2343L59.5285 20.381L59.531 19.893L55.8185 13.1205C55.7958 13.08 55.7578 13.0573 55.7325 13.0699Z" fill="#334E68"/>
<path id="Vector_23" d="M56.3345 12.7387L56.2131 12.8045C56.1904 12.8171 56.1853 12.8576 56.2055 12.893L59.5361 18.9675L59.5387 18.4794L56.4129 12.7792C56.3952 12.7438 56.3598 12.7236 56.3345 12.7387Z" fill="#334E68"/>
<path id="Vector_24" d="M56.3902 11.406L56.2689 11.4717C56.2461 11.4844 56.241 11.5248 56.2613 11.5602L59.5464 17.5513L59.5489 17.0632L56.4686 11.4439C56.4484 11.411 56.413 11.3933 56.3902 11.406Z" fill="#334E68"/>
<path id="Vector_25" d="M56.6431 10.4349L56.5217 10.5006C56.4989 10.5133 56.4939 10.5512 56.5116 10.5841L59.5564 16.1351L59.5589 15.647L56.7189 10.4678C56.7012 10.4374 56.6658 10.4222 56.6431 10.4349Z" fill="#334E68"/>
<path id="Vector_26" d="M57.035 9.72171L56.9136 9.78746C56.8908 9.80011 56.8832 9.83551 56.8984 9.86333L59.5614 14.7214L59.5639 14.2333L57.1058 9.74953C57.0906 9.72171 57.0602 9.70907 57.035 9.72171Z" fill="#334E68"/>
<path id="Vector_27" d="M57.0375 8.29275L56.9161 8.35851C56.8933 8.37115 56.8857 8.40656 56.9009 8.43437L59.574 13.3076L59.5765 12.8195L57.1083 8.32057C57.0931 8.29275 57.0602 8.28011 57.0375 8.29275Z" fill="#334E68"/>
<path id="Vector_28" d="M57.7784 8.21443L57.6571 8.28019C57.6343 8.29283 57.6242 8.32065 57.6343 8.34341L59.5816 11.894L59.5841 11.4059L57.8417 8.22961C57.8315 8.20938 57.8012 8.20179 57.7784 8.21443Z" fill="#334E68"/>
<path id="Vector_29" d="M57.6799 6.60345L57.5585 6.6692C57.5358 6.68184 57.5256 6.70966 57.5383 6.73242L59.5918 10.4752L59.5943 9.98716L57.7457 6.61609C57.733 6.59839 57.7027 6.5908 57.6799 6.60345Z" fill="#334E68"/>
<path id="Vector_30" d="M58.1426 6.01689L58.0212 6.08264C57.9985 6.09528 57.9858 6.12057 57.996 6.13827L59.5993 9.06172L59.6018 8.57364L58.2033 6.02194C58.1932 6.00677 58.1654 6.00424 58.1426 6.01689Z" fill="#334E68"/>
<path id="Vector_31" d="M58.1932 4.67905L58.0718 4.7448C58.049 4.75744 58.0364 4.78273 58.0465 4.80043L59.6068 7.64801L59.6094 7.15993L58.2539 4.68663C58.2438 4.66893 58.2185 4.6664 58.1932 4.67905Z" fill="#334E68"/>
<path id="Vector_32" d="M58.7066 4.18335L58.5852 4.2491C58.5624 4.26174 58.5472 4.28198 58.5548 4.29462L59.617 6.23431L59.6195 5.74623L58.7622 4.18082C58.7546 4.16817 58.7293 4.16818 58.7066 4.18335Z" fill="#334E68"/>
<path id="Vector_33" d="M58.7293 2.7923L58.6079 2.85805C58.5852 2.87069 58.57 2.89092 58.5776 2.90357L59.6271 4.81797L59.6296 4.32989L58.785 2.78977C58.7774 2.77965 58.7521 2.77965 58.7293 2.7923Z" fill="#334E68"/>
<path id="Vector_34" d="M59.2403 2.29668L59.1189 2.36243C59.0936 2.37507 59.0784 2.39025 59.081 2.39783L59.6323 3.40435L59.6348 2.91627L59.2883 2.28403C59.2858 2.27645 59.2656 2.28403 59.2403 2.29668Z" fill="#334E68"/>
<path id="Vector_35" d="M59.3464 1.0575L59.225 1.12325C59.2022 1.13589 59.1845 1.15107 59.1871 1.15613L59.6423 1.98561L59.6448 1.49753L59.3944 1.03979C59.3919 1.03979 59.3691 1.04485 59.3464 1.0575Z" fill="#334E68"/>
<path id="Vector_36" d="M59.5614 0.018187L59.4401 0.0839397C59.4173 0.0965844 59.3996 0.109228 59.3996 0.114286L59.65 0.572023L59.6525 0.0839397L59.607 0.000484551C59.607 -0.00204438 59.5842 0.00554233 59.5614 0.018187Z" fill="#334E68"/>
<path id="Vector_37" d="M62.5178 48.915L62.3964 48.8493C62.3736 48.8366 62.3433 48.8442 62.3306 48.8695L60.3277 52.5238L60.3302 53.0119L62.538 48.9858C62.5506 48.958 62.5405 48.9277 62.5178 48.915Z" fill="#334E68"/>
<path id="Vector_38" d="M63.6633 45.0409C63.6406 45.0282 63.6026 45.0485 63.5824 45.0839L60.3125 51.0446L60.315 51.5327L63.7898 45.1977C63.81 45.1598 63.8075 45.1193 63.7847 45.1066L63.6633 45.0409Z" fill="#334E68"/>
<path id="Vector_39" d="M65.1858 40.9085C65.163 40.8958 65.12 40.9287 65.0897 40.9818L60.3049 49.7066L60.3075 50.1947L65.297 41.0981C65.3274 41.045 65.3299 40.9919 65.3072 40.9793L65.1858 40.9085Z" fill="#334E68"/>
<path id="Vector_40" d="M65.656 38.4984C65.6332 38.4858 65.5877 38.5212 65.5548 38.5793L60.2972 48.1665L60.2997 48.6546C60.2997 48.6546 60.2997 48.6521 60.3022 48.6521L65.7622 38.6931C65.7951 38.635 65.8001 38.5768 65.7774 38.5642L65.656 38.4984Z" fill="#334E68"/>
<path id="Vector_41" d="M66.1088 36.2679C66.086 36.2553 66.038 36.2958 66.0026 36.359L60.2897 46.7807L60.2923 47.2663C60.2948 47.2637 60.2973 47.2587 60.2998 47.2561L66.2125 36.4728C66.2479 36.4096 66.2555 36.3489 66.2327 36.3362L66.1088 36.2679Z" fill="#334E68"/>
<path id="Vector_42" d="M65.7598 35.7595L65.6384 35.6937C65.6156 35.6811 65.5701 35.7165 65.5373 35.7746L60.2796 45.3618L60.2821 45.8499C60.2821 45.8499 60.2821 45.8474 60.2847 45.8474L65.7471 35.8884C65.7775 35.8303 65.7851 35.7721 65.7598 35.7595Z" fill="#334E68"/>
<path id="Vector_43" d="M66.5033 32.9779L66.3819 32.9121C66.3591 32.8995 66.3085 32.9425 66.2731 33.0082L60.272 43.9484L60.2745 44.4339C60.277 44.4289 60.2821 44.4238 60.2846 44.4188L66.4805 33.122C66.5159 33.0563 66.526 32.9905 66.5033 32.9779Z" fill="#334E68"/>
<path id="Vector_44" d="M65.914 32.616L65.7926 32.5503C65.7698 32.5376 65.7218 32.5756 65.6889 32.6363L60.2618 42.5345L60.2644 43.0226C60.2644 43.0201 60.2669 43.0201 60.2669 43.0175L65.8963 32.7526C65.9317 32.6894 65.9393 32.6312 65.914 32.616Z" fill="#334E68"/>
<path id="Vector_45" d="M66.3743 30.454C66.4097 30.3882 66.4198 30.325 66.397 30.3123L66.2756 30.2466C66.2529 30.234 66.2023 30.2769 66.1669 30.3402L60.2568 41.1185L60.2593 41.604C60.2618 41.599 60.2644 41.5964 60.2669 41.5914" fill="#334E68"/>
<path id="Vector_46" d="M65.7801 30.105C65.8129 30.0468 65.8205 29.9886 65.7952 29.9735L65.6738 29.9077C65.6511 29.8951 65.603 29.933 65.5727 29.9912L60.2468 39.7048L60.2493 40.1929L60.2518 40.1903" fill="#334E68"/>
<path id="Vector_47" d="M66.3971 27.5482C66.4325 27.4825 66.4426 27.4192 66.4199 27.4066L66.2985 27.3408C66.2757 27.3282 66.2251 27.3712 66.1897 27.4369L60.2366 38.2936L60.2392 38.7792C60.2417 38.7741 60.2442 38.7716 60.2493 38.7665L66.3971 27.5482Z" fill="#334E68"/>
<path id="Vector_48" d="M65.7093 27.27L65.5879 27.2042C65.5651 27.1916 65.5196 27.227 65.4867 27.2851L60.2291 36.8723L60.2316 37.3604C60.2316 37.3604 60.2316 37.3579 60.2341 37.3579L65.6966 27.3989C65.727 27.3408 65.732 27.2826 65.7093 27.27Z" fill="#334E68"/>
<path id="Vector_49" d="M66.21 25.0294C66.2454 24.9662 66.253 24.903 66.2302 24.8903L66.1088 24.8246C66.0861 24.8119 66.038 24.8524 66.0026 24.9156L60.2189 35.4587L60.2215 35.9443C60.224 35.9418 60.2265 35.9367 60.2291 35.9342L66.21 25.0294Z" fill="#334E68"/>
<path id="Vector_50" d="M65.517 24.7563L65.3956 24.6906C65.3729 24.6779 65.3273 24.7133 65.297 24.7689L60.2113 34.0451L60.2138 34.5331L65.5044 24.8853C65.5347 24.8271 65.5423 24.7715 65.517 24.7563Z" fill="#334E68"/>
<path id="Vector_51" d="M65.9393 22.556L65.8179 22.4902C65.7952 22.4776 65.7471 22.5155 65.7142 22.5762L60.2012 32.6312L60.2037 33.1168C60.2062 33.1143 60.2062 33.1117 60.2088 33.1092L65.9216 22.69C65.957 22.6293 65.9646 22.5686 65.9393 22.556Z" fill="#334E68"/>
<path id="Vector_52" d="M65.2591 22.3663L65.1377 22.3006C65.1149 22.2879 65.0719 22.3208 65.0416 22.3739L60.1936 31.215L60.1961 31.7031L65.2489 22.4902C65.2793 22.4346 65.2818 22.379 65.2591 22.3663Z" fill="#334E68"/>
<path id="Vector_53" d="M65.7977 19.9537L65.6763 19.8879C65.6535 19.8753 65.6055 19.9132 65.5751 19.9714L60.186 29.7988L60.1885 30.2844C60.1885 30.2818 60.191 30.2818 60.191 30.2793L65.7825 20.0827C65.8154 20.027 65.8204 19.9663 65.7977 19.9537Z" fill="#334E68"/>
<path id="Vector_54" d="M65.0947 19.8047L64.9733 19.7389C64.9506 19.7263 64.9076 19.7566 64.8772 19.8098L60.176 28.3854L60.1785 28.8734L65.0846 19.9261C65.115 19.873 65.1175 19.8199 65.0947 19.8047Z" fill="#334E68"/>
<path id="Vector_55" d="M64.7962 18.9169L64.6748 18.8512C64.6521 18.8385 64.6091 18.8664 64.5838 18.9169L60.1683 26.9716L60.1708 27.4597L64.7912 19.0333C64.819 18.9802 64.8215 18.9296 64.7962 18.9169Z" fill="#334E68"/>
<path id="Vector_56" d="M64.9606 17.187L64.8392 17.1213C64.8164 17.1086 64.7734 17.139 64.7456 17.1896L60.1581 25.5553L60.1607 26.0433L64.953 17.3034C64.9808 17.2528 64.9859 17.1997 64.9606 17.187Z" fill="#334E68"/>
<path id="Vector_57" d="M64.3411 16.8886L64.2197 16.8228C64.1969 16.8102 64.1565 16.8355 64.1312 16.881L60.1506 24.1416L60.1532 24.6296L64.3385 16.9948C64.3638 16.9467 64.3638 16.9012 64.3411 16.8886Z" fill="#334E68"/>
<path id="Vector_58" d="M64.7533 14.7038L64.6319 14.638C64.6091 14.6254 64.5661 14.6532 64.5408 14.7038L60.1405 22.7256L60.143 23.2137L64.7482 14.8176C64.776 14.767 64.7786 14.7164 64.7533 14.7038Z" fill="#334E68"/>
<path id="Vector_59" d="M63.4483 12.893C63.4685 12.8576 63.4635 12.8171 63.4407 12.8044L63.3193 12.7387C63.2966 12.726 63.2612 12.7438 63.2409 12.7792L60.1152 18.4794L60.1177 18.9674" fill="#334E68"/>
<path id="Vector_60" d="M63.3876 11.4741L63.2662 11.4084C63.2435 11.3957 63.2081 11.4134 63.1878 11.4488L60.1076 17.0681L60.1101 17.5562L63.3952 11.5652C63.4154 11.5247 63.4104 11.4868 63.3876 11.4741Z" fill="#334E68"/>
<path id="Vector_61" d="M63.1348 10.5031L63.0135 10.4373C62.9907 10.4247 62.9553 10.4398 62.9376 10.4727L60.0976 15.652L60.1001 16.14L63.145 10.589C63.1627 10.5536 63.1576 10.5157 63.1348 10.5031Z" fill="#334E68"/>
<path id="Vector_62" d="M62.7402 9.7899L62.6188 9.72415C62.596 9.71151 62.5631 9.72415 62.548 9.75197L60.0898 14.2358L60.0924 14.7238L62.7553 9.86577C62.7705 9.83543 62.7655 9.80255 62.7402 9.7899Z" fill="#334E68"/>
<path id="Vector_63" d="M62.7403 8.35851L62.6189 8.29275C62.5961 8.28011 62.5632 8.29275 62.5481 8.32057L60.0798 12.8195L60.0824 13.3076L62.7554 8.43437C62.7706 8.40656 62.763 8.37368 62.7403 8.35851Z" fill="#334E68"/>
<path id="Vector_64" d="M61.9992 8.28273L61.8778 8.21698C61.855 8.20433 61.8247 8.20939 61.8146 8.23215L60.0721 11.4085L60.0747 11.8966L62.022 8.34596C62.0321 8.32319 62.0219 8.29538 61.9992 8.28273Z" fill="#334E68"/>
<path id="Vector_65" d="M62.0979 6.66926L61.9765 6.6035C61.9538 6.59086 61.9234 6.59845 61.9108 6.62121L60.0621 9.99227L60.0647 10.4804L62.1182 6.73754C62.1308 6.71225 62.1207 6.68443 62.0979 6.66926Z" fill="#334E68"/>
<path id="Vector_66" d="M61.635 6.08244L61.5136 6.01669C61.4908 6.00405 61.463 6.00658 61.4529 6.02428L60.0544 8.57597L60.0569 9.06405L61.6603 6.14061C61.6704 6.12038 61.6577 6.09762 61.635 6.08244Z" fill="#334E68"/>
<path id="Vector_67" d="M61.582 4.74724L61.4606 4.68149C61.4378 4.66884 61.41 4.67137 61.3999 4.68907L60.0444 7.16237L60.0469 7.65045L61.6072 4.80287C61.6174 4.78264 61.6072 4.75988 61.582 4.74724Z" fill="#334E68"/>
<path id="Vector_68" d="M61.0713 4.2492L60.9499 4.18345C60.9271 4.17081 60.9018 4.16828 60.8942 4.18092L60.0369 5.74633L60.0395 6.23441L61.1016 4.29472C61.1092 4.28208 61.094 4.26185 61.0713 4.2492Z" fill="#334E68"/>
<path id="Vector_69" d="M61.0485 2.86077L60.9271 2.79502C60.9043 2.78238 60.879 2.77985 60.8715 2.79249L60.0268 4.33261L60.0293 4.8207L61.0788 2.90629C61.0864 2.89365 61.0712 2.87342 61.0485 2.86077Z" fill="#334E68"/>
<path id="Vector_70" d="M60.5351 2.36256L60.4137 2.29681C60.3909 2.28417 60.3682 2.27911 60.3631 2.28416L60.0167 2.9164L60.0192 3.40448L60.5705 2.39797C60.5756 2.39291 60.5604 2.37521 60.5351 2.36256Z" fill="#334E68"/>
<path id="Vector_71" d="M60.4313 1.12597L60.3099 1.06022C60.2871 1.04757 60.2644 1.03998 60.2618 1.04504L60.0115 1.50278L60.014 1.99086L60.4692 1.16137C60.4717 1.15378 60.454 1.13861 60.4313 1.12597Z" fill="#334E68"/>
<path id="Vector_72" d="M60.2164 0.0863792L60.095 0.0206284C60.0722 0.00798374 60.0495 0.000397026 60.0495 0.00292596L60.004 0.0863792L60.0065 0.574463L60.2569 0.116727C60.2569 0.111669 60.2392 0.0990239 60.2164 0.0863792Z" fill="#334E68"/>
</g>
<g id="XMLID_394_">
<g id="Group_3">
<path id="XMLID_409_" d="M9.20025 62.9028C8.64136 62.5664 7.90544 62.3034 7.00008 62.1188C7.31114 62.0025 7.58679 61.8609 7.81693 61.7041C8.09005 61.522 8.3126 61.302 8.47951 61.0491C8.65147 60.7836 8.73999 60.4851 8.73999 60.1564C8.73999 59.7189 8.59837 59.3294 8.32018 58.9956C8.0597 58.6972 7.71071 58.4468 7.27826 58.2496C6.87111 58.0725 6.37796 57.9385 5.81148 57.8525C5.27535 57.7665 4.70634 57.7261 4.07158 57.7261H0V58.2066L0.136562 58.2875C0.154265 58.2976 0.204844 58.3356 0.257951 58.4519C0.303472 58.5505 0.326232 58.639 0.326232 58.7376V68.0416C0.326232 68.2742 0.232662 68.3577 0.14162 68.4108L0 68.4892V68.9773H3.45199C4.4408 68.9773 5.35628 68.9191 6.17059 68.8053C7.01273 68.6966 7.76635 68.4968 8.4087 68.211C9.06875 67.9202 9.572 67.5459 9.94881 67.0679C10.3282 66.5799 10.5178 65.9679 10.5178 65.2471C10.5204 64.2128 10.0753 63.4263 9.20025 62.9028ZM3.52027 68.125H2.34179V62.574H3.4874C4.23849 62.574 4.89348 62.612 5.49284 62.6878C6.09472 62.7587 6.61063 62.8977 7.03043 63.1001C7.43253 63.2897 7.75117 63.5578 7.98131 63.8992C8.20891 64.2431 8.32271 64.7059 8.32271 65.2749C8.32271 65.9072 8.20385 66.4155 7.97119 66.7822C7.73094 67.1565 7.4123 67.4321 6.99755 67.6294C6.56258 67.8342 6.04667 67.9682 5.46502 68.0315C4.87578 68.0947 4.23849 68.125 3.52027 68.125ZM6.32486 59.4078C6.44119 59.6127 6.50188 59.8656 6.50188 60.1564C6.50188 60.3966 6.47154 60.6166 6.41084 60.8164C6.3552 60.996 6.25152 61.1578 6.09725 61.2944C5.94046 61.436 5.7078 61.5498 5.38409 61.6459C5.05533 61.7395 4.6153 61.7875 4.07158 61.7875H2.34432V58.7351C2.34432 58.6643 2.34432 58.5935 2.34685 58.5252H4.07158C4.44333 58.5252 4.77715 58.5556 5.06798 58.6137C5.36386 58.677 5.62434 58.7756 5.83424 58.902C6.04162 59.0386 6.20347 59.203 6.32486 59.4078Z" fill="#334E68"/>
<path id="XMLID_406_" d="M23.5166 59.5721C22.9374 59.0259 22.2369 58.5656 21.4277 58.2039C20.6134 57.8448 19.7105 57.6653 18.747 57.6653C17.3561 57.6653 16.1776 57.8398 15.247 58.1812C14.3113 58.5302 13.5425 58.993 12.9633 59.5569C12.369 60.1436 11.9644 60.7733 11.7292 61.4764C11.4915 62.1643 11.3701 62.8724 11.3701 63.5779C11.3701 63.9699 11.446 64.3897 11.5952 64.8247C11.7393 65.2495 11.9492 65.6769 12.2173 66.1018C12.4727 66.5064 12.7939 66.8984 13.1985 67.3056C13.6006 67.7001 14.0407 68.0415 14.5009 68.3146C14.984 68.608 15.5226 68.8432 16.0967 69.0177C16.6809 69.1947 17.2979 69.2832 17.9352 69.2832C18.9999 69.2832 19.9407 69.182 20.7373 68.9823C21.5314 68.7799 22.2116 68.5068 22.7554 68.1781C23.3067 67.8468 23.7644 67.4624 24.1159 67.0324C24.4624 66.6101 24.7279 66.1676 24.91 65.725C25.0972 65.2824 25.2236 64.8424 25.2868 64.4201C25.35 63.9977 25.3804 63.6386 25.3804 63.3174C25.3804 62.708 25.2135 62.0606 24.8847 61.3955C24.5585 60.7379 24.0982 60.1234 23.5166 59.5721ZM13.9977 65.7503C13.6967 65.113 13.545 64.2936 13.545 63.3149C13.545 62.6321 13.6537 61.9822 13.8662 61.3879C14.0837 60.791 14.3821 60.2751 14.7564 59.8503C15.1382 59.4204 15.5833 59.0891 16.1144 58.8412C16.6404 58.5985 17.2195 58.4745 17.8341 58.4745C18.5169 58.4745 19.2022 58.5782 19.8648 58.7856C20.5071 58.9879 21.0837 59.2939 21.5769 59.691C22.0675 60.0855 22.4671 60.5887 22.7604 61.1805C23.0588 61.7799 23.203 62.4627 23.203 63.2719C23.203 64.1318 23.0993 64.8879 22.8919 65.5151C22.6871 66.1397 22.3937 66.6683 22.0169 67.0906C21.6553 67.4978 21.1975 67.8139 20.6665 68.0263C20.1253 68.2362 19.5183 68.3424 18.8608 68.3424C18.1729 68.3424 17.4977 68.259 16.8579 68.0971C16.2257 67.9378 15.6617 67.6647 15.1762 67.2853C14.6906 66.906 14.2961 66.3901 13.9977 65.7503Z" fill="#334E68"/>
<path id="XMLID_405_" d="M34.4794 58.1559L34.5679 58.2394C34.5679 58.2394 34.5957 58.2723 34.6235 58.3962C34.6539 58.4999 34.6665 58.6086 34.6665 58.73V64.9562C34.6665 65.3912 34.6109 65.8186 34.4996 66.2207C34.3833 66.6203 34.2063 66.9667 33.9736 67.2525C33.7359 67.5433 33.4248 67.7811 33.0429 67.9555C32.656 68.1326 32.1755 68.2211 31.6166 68.2211C30.9718 68.2211 30.4432 68.1376 30.0487 67.9758C29.6694 67.8139 29.3709 67.5787 29.1585 67.2753C28.9385 66.9617 28.7868 66.552 28.7058 66.0614C28.6224 65.5303 28.5819 64.9183 28.5819 64.2456V58.7275C28.5819 58.6364 28.592 58.6086 28.592 58.6086L28.6097 58.5682C28.6148 58.553 28.6224 58.5403 28.63 58.5277L28.8601 58.2217V57.7134H26.2452V58.1939L26.3868 58.2723C26.4096 58.2849 26.4551 58.3229 26.5031 58.4265C26.5487 58.5328 26.5714 58.6289 26.5714 58.725V64.2431C26.5714 64.9891 26.6549 65.6669 26.8243 66.2612C26.9963 66.8757 27.2896 67.4042 27.6968 67.8291C28.1065 68.259 28.6451 68.5903 29.2976 68.8129C29.9324 69.0354 30.7366 69.1492 31.6874 69.1492C32.5144 69.1492 33.2023 69.0379 33.7865 68.8103C34.3706 68.5853 34.8612 68.2691 35.2507 67.867C35.6326 67.4624 35.9158 66.9895 36.0928 66.4584C36.2699 65.9248 36.3558 65.3786 36.3558 64.7843V58.725C36.3558 58.6718 36.3685 58.6036 36.3887 58.5277C36.4064 58.4594 36.4368 58.3911 36.4772 58.3102L36.5126 58.2268C36.5177 58.2116 36.5278 58.1736 36.5278 58.1281V57.7134H34.4819L34.4794 58.1559Z" fill="#334E68"/>
<path id="XMLID_402_" d="M49.5088 59.2307C48.8285 58.7603 48.0091 58.3784 47.0709 58.0977C46.1326 57.812 45.0654 57.6653 43.8971 57.6653C43.4191 57.6653 42.9639 57.6678 42.539 57.6703C42.3215 57.6729 42.1041 57.6754 41.8916 57.6805C41.6944 57.683 41.4996 57.688 41.2973 57.6906C40.9003 57.7057 40.5513 57.7159 40.2301 57.7184C39.8837 57.7234 39.5473 57.7235 39.1958 57.7235H37.9414V58.209L38.0831 58.2874C38.1058 58.3 38.1488 58.3355 38.1969 58.4442C38.2449 58.5529 38.2677 58.6465 38.2677 58.735V68.039C38.2677 68.2716 38.1741 68.3551 38.0805 68.4082L37.9389 68.4866V68.9747H38.2171C38.4194 68.9747 38.6521 68.9772 38.9075 68.9823C39.1654 68.9873 39.4259 68.9949 39.7016 69.005C39.8204 69.0075 39.9393 69.0126 40.0581 69.0177C40.2099 69.0227 40.3616 69.0303 40.5083 69.0328L41.2366 69.0606C41.4971 69.0783 41.7475 69.091 41.9827 69.1036L42.2533 69.1188C42.5744 69.134 42.8349 69.1441 43.0575 69.1441C44.3497 69.1441 45.4878 69.0328 46.4361 68.8153C47.3971 68.5903 48.1735 68.302 48.8133 67.9378C49.4481 67.5711 49.9614 67.1488 50.3458 66.6809C50.7226 66.2181 51.0109 65.7402 51.2031 65.2647C51.3903 64.7994 51.5142 64.3366 51.5749 63.8839C51.628 63.4161 51.6533 63.057 51.6533 62.756C51.6533 62.1162 51.4636 61.4814 51.0893 60.8619C50.7176 60.2499 50.1865 59.7011 49.5088 59.2307ZM43.7757 68.2666C43.0726 68.2666 42.6275 68.2615 42.2887 68.2489C41.9346 68.2438 41.6008 68.2286 41.2999 68.2084C41.09 68.1882 40.8421 68.1705 40.6019 68.1705H40.5993C40.5007 68.1679 40.3945 68.1654 40.2883 68.1629C40.2857 68.13 40.2858 68.0895 40.2858 68.039V58.735C40.2858 58.6415 40.2883 58.5504 40.2908 58.4594C40.3945 58.4594 40.4982 58.4568 40.6044 58.4518C40.7764 58.4467 40.961 58.4442 41.1506 58.4315C41.4086 58.4214 41.6868 58.4138 41.9877 58.4088C42.276 58.4037 42.5947 58.4037 42.931 58.4037C43.892 58.3987 44.7316 58.4922 45.5181 58.6743C46.3021 58.8539 46.995 59.1422 47.5817 59.5291C48.1507 59.9084 48.6085 60.4041 48.9398 61.006C49.271 61.6054 49.438 62.3387 49.438 63.191C49.438 64.0837 49.3039 64.8601 49.0409 65.5024C48.7728 66.1448 48.4087 66.6531 47.9282 67.0552C47.4275 67.47 46.8483 67.7658 46.1579 67.9656C45.4397 68.1654 44.6406 68.2666 43.7757 68.2666Z" fill="#334E68"/>
<path id="XMLID_401_" d="M55.2142 67.9479V58.735C55.2142 58.6464 55.2218 58.6212 55.2218 58.6161C55.237 58.5832 55.2521 58.5503 55.2673 58.5251L55.4848 58.2317V57.7234H52.8749V58.2064L53.0115 58.2873C53.0292 58.2975 53.0747 58.3329 53.1278 58.4492C53.1759 58.5529 53.1986 58.6439 53.1986 58.7375V68.0414C53.1986 68.2741 53.1 68.3601 53.014 68.4106L52.8749 68.4916V68.9771H63.0969L63.279 68.1299H55.2167C55.2117 68.0692 55.2117 67.9833 55.2142 67.9479Z" fill="#334E68"/>
</g>
<g id="Group_4">
<path id="XMLID_400_" d="M113.751 67.7858C113.301 67.5962 112.737 67.5987 112.297 67.7858C112.067 67.8819 111.888 68.0109 111.748 68.1778C111.594 68.3599 111.511 68.5825 111.506 68.8353C111.511 69.0705 111.592 69.283 111.748 69.4651C111.89 69.6345 112.075 69.766 112.295 69.8545C112.505 69.9455 112.742 69.9936 113.031 69.9987C113.306 69.9936 113.544 69.9455 113.751 69.857C113.976 69.7635 114.161 69.632 114.298 69.4676C114.452 69.2855 114.535 69.0731 114.543 68.8227C114.535 68.5774 114.454 68.3599 114.303 68.1829C114.164 68.016 113.979 67.8819 113.751 67.7858Z" fill="#334E68"/>
<path id="XMLID_399_" d="M95.758 61.5926C95.6797 61.3296 95.5355 61.0665 95.318 60.7833C95.1056 60.5228 94.8223 60.3003 94.4557 60.1005C94.1067 59.9083 93.6616 59.7566 93.09 59.6377C92.5438 59.5239 91.8812 59.4683 91.1175 59.4683H86.1102L86.1709 60.6215H89.7013C90.5484 60.6215 91.2439 60.6872 91.7699 60.8137C92.258 60.935 92.6298 61.1374 92.87 61.4155C93.1052 61.6836 93.2316 62.0528 93.2595 62.5434L93.4441 65.8993H85.0202L86.401 67.1082H96.2133L95.9047 62.3841C95.8845 62.1085 95.8364 61.848 95.758 61.5926Z" fill="#334E68"/>
<path id="XMLID_398_" d="M81.0674 53.6694C81.467 53.763 81.6592 53.8313 81.7502 53.8743C81.859 53.9248 81.8868 53.9577 81.8868 53.9527L81.8944 53.9729C81.907 54.0032 81.9146 54.074 81.9146 54.1878V63.7523C81.9146 64.7082 81.7781 65.5301 81.5075 66.1927C81.2495 66.8199 80.9005 67.3256 80.4655 67.6898C80.023 68.059 79.5399 68.3145 78.9886 68.4687C78.412 68.628 77.8329 68.7039 77.269 68.6989H77.2159C76.6418 68.7039 76.0601 68.628 75.4962 68.4687C74.9525 68.3145 74.4543 68.054 74.0218 67.6898C73.5843 67.3181 73.2353 66.8148 72.9799 66.1901C72.7118 65.5326 72.5753 64.7107 72.5753 63.7497V61.2739L68.1572 61.4181V62.5637H68.4354C68.8653 62.5637 69.2118 62.5814 69.4596 62.6117C69.7378 62.6496 69.8364 62.7129 69.8516 62.7255C69.8744 62.7457 69.8971 62.7761 69.8971 62.8494V63.7472C69.8971 64.3466 69.9958 64.9484 70.193 65.5352C70.3827 66.1092 70.6836 66.6706 71.0832 67.2017C71.4676 67.71 71.9658 68.1728 72.5626 68.58C73.1468 68.9694 73.8347 69.283 74.6136 69.5132C75.4051 69.7382 76.2827 69.852 77.2209 69.8546H77.274C78.2198 69.852 79.0949 69.7382 79.8738 69.5132C80.6552 69.283 81.3431 68.9694 81.9171 68.58C82.5165 68.1728 83.0147 67.71 83.3991 67.2043C83.8012 66.6732 84.0945 66.1295 84.2943 65.5402C84.4941 64.956 84.5953 64.3541 84.5953 63.7497V52.6401L79.6183 53.3305L81.0674 53.6694Z" fill="#334E68"/>
<path id="XMLID_395_" d="M114.659 59.3064L116.131 59.6427C116.561 59.7414 116.753 59.8122 116.834 59.8451C116.95 59.8931 116.978 59.931 116.976 59.9235C116.993 59.9715 117.001 60.0524 117.001 60.1688V64.4755C117.001 64.7714 116.948 65.0294 116.844 65.2443C116.753 65.4365 116.604 65.5832 116.379 65.7046C116.139 65.831 115.833 65.8943 115.468 65.8943H106.511C106.546 65.6363 106.587 65.257 106.592 64.8751C106.594 64.6981 106.602 64.5109 106.61 64.3187C106.622 63.99 106.635 63.6486 106.635 63.2794V59.5745H104.488C101.587 59.5745 99.3642 59.9968 97.9505 62.0604C97.5156 62.6901 97.3638 62.9885 97.3689 63.8559C97.3714 64.3339 97.508 64.779 97.7685 65.1735C98.0188 65.5579 98.3526 65.8867 98.7573 66.1446C99.5564 66.6605 100.497 66.9438 101.387 66.9438H101.39L103.459 67.0803C102.687 68.3296 100.856 68.9012 100.272 69.0554C99.8624 69.1642 99.3794 69.283 98.9191 69.3387L98.3274 69.412L98.3451 69.9633L98.4892 69.9734C98.737 69.9886 98.9722 70.0038 99.1897 70.0114C99.4553 70.024 99.6879 70.0341 99.8902 70.0417C100.133 70.0518 100.295 70.0544 100.431 70.0544C100.828 70.0544 101.231 70.0316 101.66 69.9835C104.03 69.7155 105.613 68.3574 106.154 67.1056L115.881 67.098C116.601 67.098 117.241 67.0045 117.787 66.8173C118.362 66.6226 118.817 66.3343 119.14 65.9575C119.482 65.5579 119.656 65.0724 119.656 64.5185V58.6008L114.659 59.3064ZM100.186 64.4654C100.1 64.2226 100.06 63.9875 100.062 63.7523C100.065 63.1377 100.11 63.0315 100.411 62.5586C101.134 61.4358 101.992 61.1196 102.558 60.9097C102.629 60.8845 102.695 60.8592 102.758 60.8339C103.062 60.7074 103.226 60.6872 103.466 60.6872C103.522 60.6872 103.582 60.6897 103.651 60.6897C103.732 60.6923 103.818 60.6923 103.919 60.6923V65.6136C103.919 65.7021 103.914 65.788 103.904 65.8766L101.974 65.7274H101.954C101.65 65.7274 101.377 65.6692 101.145 65.5579C100.907 65.4416 100.712 65.2898 100.56 65.1002C100.381 64.8903 100.262 64.6829 100.186 64.4654Z" fill="#334E68"/>
</g>
</g>
<g id="Group_5">
<path id="Vector_73" d="M34.3758 75.2187C34.3758 75.163 34.343 75.1352 34.2747 75.1352V75.0518H34.9828V75.1352C34.9625 75.1352 34.9423 75.1428 34.9246 75.1555C34.9069 75.1681 34.8993 75.1909 34.8993 75.2162V77.3C34.8993 77.3278 34.9069 77.348 34.9246 77.3607C34.9423 77.3733 34.96 77.3809 34.9828 77.3809V77.4644H34.2772V77.3809C34.3455 77.3809 34.3784 77.3531 34.3784 77.2975V76.4351H32.9015V77.2975C32.9015 77.3253 32.909 77.3455 32.9268 77.3582C32.9445 77.3708 32.9622 77.3784 32.9849 77.3784V77.4618H32.292V77.3784C32.3502 77.3784 32.378 77.3506 32.378 77.2949V75.2111C32.378 75.1555 32.3476 75.1276 32.292 75.1276V75.0442H32.9849V75.1276C32.9647 75.1276 32.9445 75.1352 32.9268 75.1479C32.909 75.1605 32.9015 75.1833 32.9015 75.2086V75.99H34.3784V75.2187H34.3758Z" fill="#334E68"/>
<path id="Vector_74" d="M37.7848 75.0264C37.9542 75.0264 38.1237 75.0517 38.2982 75.1022C38.4727 75.1528 38.632 75.2287 38.7762 75.3298C38.9203 75.431 39.0366 75.5574 39.1302 75.7142C39.2238 75.871 39.2668 76.0506 39.2668 76.263C39.2668 76.4729 39.2212 76.6575 39.1302 76.8118C39.0392 76.9661 38.9203 77.095 38.7762 77.1937C38.632 77.2948 38.4727 77.3682 38.2982 77.4137C38.1237 77.4592 37.9517 77.482 37.7848 77.482C37.6154 77.482 37.4459 77.4592 37.2714 77.4137C37.0969 77.3682 36.9376 77.2948 36.7935 77.1937C36.6493 77.0925 36.533 76.9661 36.4394 76.8118C36.3484 76.6575 36.3029 76.4754 36.3029 76.263C36.3029 76.0531 36.3484 75.8685 36.4394 75.7142C36.5305 75.56 36.6493 75.431 36.7935 75.3298C36.9376 75.2287 37.0969 75.1528 37.2714 75.1022C37.4459 75.0517 37.6179 75.0264 37.7848 75.0264ZM37.7848 75.4487C37.6685 75.4487 37.5521 75.4664 37.4358 75.5043C37.3195 75.5423 37.2158 75.5929 37.1222 75.6637C37.0287 75.7319 36.9528 75.8179 36.8946 75.9191C36.8365 76.0202 36.8086 76.134 36.8086 76.263C36.8086 76.392 36.8365 76.5058 36.8946 76.6069C36.9528 76.7081 37.0287 76.7941 37.1222 76.8624C37.2158 76.9307 37.3195 76.9838 37.4358 77.0217C37.5521 77.0596 37.6685 77.0773 37.7848 77.0773C37.9011 77.0773 38.0175 77.0596 38.1338 77.0217C38.2501 76.9838 38.3538 76.9332 38.4474 76.8624C38.541 76.7941 38.6168 76.7081 38.675 76.6069C38.7332 76.5058 38.761 76.392 38.761 76.263C38.761 76.134 38.7306 76.0202 38.675 75.9191C38.6168 75.8179 38.541 75.7319 38.4474 75.6637C38.3538 75.5954 38.2501 75.5423 38.1338 75.5043C38.0175 75.4664 37.9011 75.4487 37.7848 75.4487Z" fill="#334E68"/>
<path id="Vector_75" d="M41.8108 77.3023C41.8108 77.3579 41.8437 77.3857 41.9119 77.3857V77.4692H41.2064V77.3857C41.2266 77.3857 41.2468 77.3781 41.2645 77.3655C41.2822 77.3528 41.2898 77.3301 41.2898 77.3048V75.4789H40.5337C40.5059 75.4789 40.4806 75.4865 40.4528 75.5017C40.4275 75.5168 40.4148 75.5472 40.4148 75.5877H40.3314V74.9453H40.4148C40.4148 74.9883 40.4275 75.0161 40.4528 75.0313C40.478 75.0465 40.5059 75.0541 40.5337 75.0541H42.572C42.5998 75.0541 42.6251 75.0465 42.6529 75.0313C42.6782 75.0161 42.6909 74.9858 42.6909 74.9453H42.7743V75.5877H42.6909C42.6909 75.5447 42.6782 75.5168 42.6529 75.5017C42.6276 75.4865 42.5998 75.4789 42.572 75.4789H41.8108V77.3023Z" fill="#334E68"/>
<path id="Vector_76" d="M46.1934 75.5498C46.1934 75.5169 46.1808 75.4917 46.1555 75.4739C46.1302 75.4562 46.0847 75.4487 46.0189 75.4487H44.5319V76.0177H45.4322C45.4929 76.0177 45.541 76.0101 45.5739 75.9924C45.6067 75.9747 45.6244 75.9317 45.6244 75.8609H45.7079V76.5766H45.6244C45.6244 76.5057 45.6067 76.4602 45.5739 76.4425C45.541 76.4223 45.4929 76.4122 45.4322 76.4122H44.5319V77.0444H46.0645C46.11 77.0444 46.1479 77.0343 46.1757 77.0115C46.2036 76.9913 46.2187 76.961 46.2187 76.9256H46.3022V77.5553H46.2187C46.2187 77.5097 46.2036 77.4844 46.1757 77.4769C46.1454 77.4718 46.11 77.4667 46.0645 77.4667H43.925V77.3833C43.9452 77.3833 43.9654 77.3757 43.9832 77.3631C44.0009 77.3504 44.0084 77.3276 44.0084 77.3024V75.2185C44.0084 75.1907 44.0009 75.1705 43.9832 75.1578C43.9654 75.1452 43.9477 75.1376 43.925 75.1376V75.0541H46.0164C46.0796 75.0541 46.1252 75.044 46.153 75.0238C46.1783 75.0036 46.1909 74.9783 46.1909 74.9429H46.2744V75.5473H46.1934V75.5498Z" fill="#334E68"/>
<path id="Vector_77" d="M49.8047 77.5552C49.8047 77.5097 49.7895 77.4844 49.7617 77.4768C49.7314 77.4718 49.696 77.4667 49.6505 77.4667H47.4655V77.3833C47.5565 77.3833 47.602 77.3555 47.602 77.2998V75.216C47.602 75.1603 47.5565 75.1325 47.4655 75.1325V75.0491H48.2545V75.1325C48.1685 75.1325 48.1255 75.1603 48.1255 75.216V77.0419H49.6479C49.6934 77.0419 49.7314 77.0318 49.7592 77.009C49.787 76.9888 49.8022 76.9584 49.8022 76.923H49.8856V77.5527H49.8047V77.5552Z" fill="#334E68"/>
<path id="Vector_78" d="M51.1275 76.7105L51.173 76.7332C51.173 76.7611 51.178 76.7863 51.1907 76.8066C51.2109 76.8445 51.2539 76.8799 51.3171 76.9153C51.3803 76.9507 51.4512 76.9811 51.5321 77.0089C51.613 77.0367 51.699 77.0595 51.7875 77.0746C51.876 77.0923 51.9569 77.0999 52.0252 77.0999C52.0783 77.0999 52.1441 77.0949 52.2275 77.0873C52.311 77.0797 52.3919 77.0645 52.4703 77.0392C52.5487 77.014 52.6195 76.9811 52.6777 76.9381C52.7359 76.8951 52.7637 76.8395 52.7637 76.7686C52.7637 76.6978 52.7359 76.6473 52.6827 76.6118C52.6296 76.579 52.5588 76.5537 52.4728 76.5385C52.3869 76.5233 52.2857 76.5132 52.1744 76.5082C52.0632 76.5031 51.9494 76.4955 51.833 76.4879C51.7167 76.4778 51.6029 76.4626 51.4916 76.4424C51.3803 76.4222 51.2817 76.3842 51.1932 76.3337C51.1072 76.2831 51.0364 76.2148 50.9833 76.1263C50.9302 76.0378 50.9024 75.924 50.9024 75.7849C50.9024 75.6913 50.9251 75.5977 50.9681 75.5042C51.0137 75.4131 51.0794 75.3322 51.173 75.2614C51.264 75.1906 51.3803 75.1349 51.522 75.0894C51.6636 75.0439 51.828 75.0237 52.0176 75.0237C52.1795 75.0237 52.3211 75.0363 52.44 75.0616C52.5588 75.0869 52.6625 75.1122 52.7485 75.14C52.8345 75.1678 52.9104 75.1931 52.9685 75.2184C53.0292 75.2437 53.0773 75.2563 53.1177 75.2563C53.1607 75.2563 53.1911 75.2462 53.2088 75.2285L53.2644 75.2665L52.9483 75.8405L52.9028 75.8228C52.8977 75.7798 52.8851 75.7444 52.8648 75.7166C52.8395 75.6787 52.7991 75.6433 52.7434 75.6079C52.6878 75.5725 52.6195 75.5421 52.5437 75.5143C52.4678 75.4865 52.3843 75.4637 52.2958 75.4485C52.2073 75.4308 52.1188 75.4232 52.0303 75.4232C51.962 75.4232 51.8937 75.4283 51.8204 75.4384C51.747 75.4485 51.6838 75.4662 51.6257 75.4865C51.5675 75.5067 51.5194 75.5371 51.4815 75.5725C51.4436 75.6079 51.4233 75.6509 51.4233 75.704C51.4233 75.7773 51.4512 75.8329 51.5043 75.8683C51.5574 75.9063 51.6282 75.9316 51.7142 75.9518C51.8002 75.9695 51.9013 75.9821 52.0126 75.9897C52.1239 75.9948 52.2377 76.0024 52.354 76.0125C52.4703 76.0226 52.5841 76.0378 52.6954 76.0605C52.8067 76.0833 52.9053 76.1212 52.9938 76.1718C53.0823 76.2224 53.1506 76.2907 53.2037 76.3767C53.2568 76.4626 53.2846 76.5739 53.2846 76.7105C53.2846 76.8698 53.2416 76.9988 53.1582 77.0999C53.0747 77.2011 52.9685 77.2795 52.8446 77.3377C52.7182 77.3958 52.5841 77.4337 52.4374 77.454C52.2933 77.4742 52.1567 77.4843 52.0303 77.4843C51.8558 77.4843 51.7091 77.4742 51.5928 77.454C51.4739 77.4337 51.3778 77.4085 51.2994 77.3806C51.221 77.3528 51.1603 77.325 51.1123 77.3022C51.0668 77.2795 51.0263 77.2668 50.9934 77.2668C50.9732 77.2668 50.953 77.2795 50.9327 77.3048L50.8695 77.2668L51.1275 76.7105Z" fill="#334E68"/>
<path id="Vector_79" d="M59.0481 77.4819C58.9343 77.4819 58.8357 77.4743 58.7523 77.4566C58.6688 77.4389 58.5955 77.4161 58.5322 77.3858C58.469 77.3554 58.4159 77.32 58.3704 77.2821C58.3249 77.2442 58.2844 77.2037 58.249 77.1658C58.1757 77.2265 58.1074 77.2796 58.0442 77.32C57.9809 77.3605 57.9177 77.3959 57.852 77.4212C57.7862 77.4465 57.7154 77.4642 57.6421 77.4718C57.5662 77.4793 57.4802 77.4844 57.3816 77.4844C57.2703 77.4844 57.159 77.4718 57.0452 77.4465C56.9314 77.4212 56.8252 77.3807 56.7342 77.3226C56.6406 77.2644 56.5647 77.1885 56.5015 77.0975C56.4408 77.0064 56.4105 76.8952 56.4105 76.7662C56.4105 76.665 56.4256 76.5765 56.4585 76.5032C56.4914 76.4273 56.5344 76.3641 56.59 76.3084C56.6457 76.2528 56.7114 76.2073 56.7873 76.1719C56.8631 76.1339 56.9466 76.1036 57.0351 76.0808V76.0707C56.939 76.0404 56.8581 75.9847 56.7898 75.9089C56.7215 75.8305 56.6861 75.7394 56.6861 75.6358C56.6861 75.5295 56.7114 75.4385 56.762 75.3626C56.8126 75.2868 56.8758 75.2261 56.9542 75.1755C57.0326 75.1249 57.1211 75.0895 57.2197 75.0642C57.3183 75.0414 57.417 75.0288 57.5105 75.0288C57.6092 75.0288 57.7053 75.0414 57.8039 75.0642C57.9025 75.087 57.991 75.1249 58.0669 75.1755C58.1428 75.2261 58.2085 75.2893 58.2591 75.3626C58.3097 75.4385 58.335 75.5295 58.335 75.6358C58.335 75.742 58.3046 75.8355 58.2465 75.9139C58.1858 75.9923 58.1225 76.0429 58.0517 76.0682C58.0922 76.096 58.1226 76.1289 58.1478 76.1668C58.1731 76.2048 58.1934 76.2427 58.2111 76.2806C58.2288 76.3186 58.2465 76.3565 58.2616 76.3919C58.2768 76.4273 58.2945 76.4551 58.3173 76.4779C58.3628 76.3944 58.4159 76.3186 58.4791 76.2478C58.5398 76.1769 58.6005 76.1162 58.6637 76.0606C58.7244 76.0075 58.7801 75.9645 58.8307 75.9316C58.8812 75.8988 58.9192 75.8811 58.9419 75.8735C58.9571 75.8684 58.9697 75.8608 58.9824 75.8532C58.995 75.8457 59.0001 75.8355 59.0001 75.8229H59.0456V76.5285H59.0001C58.995 76.5108 58.9849 76.488 58.9697 76.4652C58.9571 76.44 58.9318 76.4273 58.8989 76.4273C58.861 76.4273 58.8281 76.4425 58.7927 76.4728C58.7598 76.5032 58.7295 76.5411 58.7017 76.5866C58.6739 76.6322 58.6486 76.6751 58.6283 76.7207C58.6056 76.7662 58.5904 76.8041 58.5828 76.8345C58.6258 76.8901 58.6764 76.9382 58.7371 76.9837C58.7978 77.0292 58.8534 77.052 58.904 77.0545C58.947 77.0545 58.9748 77.0418 58.9849 77.014C58.995 76.9862 59.0001 76.9559 59.0001 76.923H59.0456V77.4819H59.0481ZM56.9137 76.703C56.9137 76.7788 56.9314 76.8446 56.9643 76.9002C56.9972 76.9559 57.0427 76.9988 57.0983 77.0342C57.154 77.0671 57.2147 77.0924 57.2804 77.1076C57.3462 77.1228 57.4119 77.1303 57.4751 77.1303C57.5358 77.1303 57.594 77.1202 57.6522 77.1C57.7078 77.0798 57.7609 77.0545 57.8064 77.0241C57.852 76.9938 57.8899 76.9584 57.9177 76.9205C57.9455 76.8825 57.9632 76.842 57.9708 76.8041C57.9253 76.7409 57.8924 76.6777 57.8697 76.6144C57.8469 76.5512 57.8241 76.4956 57.7963 76.445C57.7685 76.3944 57.7331 76.354 57.685 76.3236C57.6395 76.2933 57.5687 76.2781 57.4751 76.2781C57.4119 76.2781 57.3462 76.2857 57.2804 76.3009C57.2147 76.316 57.154 76.3413 57.0983 76.3742C57.0427 76.4071 56.9997 76.4526 56.9643 76.5057C56.9314 76.5563 56.9137 76.622 56.9137 76.703ZM57.5105 75.3652C57.4043 75.3652 57.3133 75.3904 57.2374 75.441C57.1616 75.4916 57.1261 75.57 57.1261 75.6762C57.1261 75.7824 57.1641 75.8634 57.2374 75.9114C57.3108 75.9595 57.4043 75.9873 57.5105 75.9873C57.6168 75.9873 57.7078 75.962 57.7837 75.9114C57.8595 75.8608 57.8949 75.7824 57.8949 75.6762C57.8949 75.57 57.857 75.4916 57.7837 75.441C57.7078 75.3904 57.6168 75.3652 57.5105 75.3652Z" fill="#334E68"/>
<path id="Vector_80" d="M63.9769 75.0541C64.1236 75.0541 64.2576 75.0668 64.3765 75.0921C64.4954 75.1174 64.5991 75.1603 64.685 75.216C64.771 75.2716 64.8368 75.345 64.8823 75.436C64.9278 75.527 64.9506 75.6383 64.9506 75.7698C64.9506 75.9721 64.8899 76.1264 64.771 76.2326C64.6522 76.3388 64.4903 76.4122 64.288 76.4476L64.8975 77.3201C64.9177 77.3504 64.943 77.3681 64.9733 77.3757C65.0011 77.3807 65.029 77.3858 65.0543 77.3858V77.4693H64.1969V77.3858C64.2248 77.3858 64.2475 77.3807 64.2678 77.3732C64.288 77.363 64.2981 77.3529 64.2981 77.3352C64.2981 77.3201 64.293 77.3024 64.2804 77.2821C64.2678 77.2619 64.2501 77.2366 64.2248 77.2012L63.719 76.4855H63.064V77.3024C63.064 77.3302 63.0741 77.3504 63.0943 77.3631C63.1146 77.3757 63.15 77.3833 63.2031 77.3833V77.4667H62.409V77.3833C62.4975 77.3833 62.543 77.3555 62.543 77.2998V75.216C62.543 75.1603 62.4975 75.1325 62.409 75.1325V75.0491H63.9769V75.0541ZM63.8555 76.1289C63.9668 76.1289 64.0579 76.1213 64.1312 76.1036C64.2045 76.0859 64.2627 76.0632 64.3057 76.0328C64.3487 76.0025 64.379 75.9671 64.3967 75.9241C64.4144 75.8836 64.4246 75.8381 64.4246 75.7901C64.4246 75.742 64.4144 75.6965 64.3967 75.6535C64.379 75.613 64.3487 75.5751 64.3057 75.5447C64.2627 75.5144 64.2045 75.4916 64.1312 75.4739C64.0579 75.4562 63.9668 75.4486 63.8555 75.4486H63.0615V76.1289H63.8555Z" fill="#334E68"/>
<path id="Vector_81" d="M68.5922 75.5498C68.5922 75.5169 68.5795 75.4917 68.5542 75.4739C68.529 75.4562 68.4834 75.4487 68.4177 75.4487H66.9307V76.0177H67.831C67.8917 76.0177 67.9397 76.0101 67.9726 75.9924C68.0055 75.9747 68.0232 75.9317 68.0232 75.8609H68.1066V76.5766H68.0232C68.0232 76.5057 68.0055 76.4602 67.9726 76.4425C67.9397 76.4223 67.8917 76.4122 67.831 76.4122H66.9307V77.0444H68.4632C68.5087 77.0444 68.5467 77.0343 68.5745 77.0115C68.6023 76.9913 68.6175 76.961 68.6175 76.9256H68.7009V77.5553H68.6175C68.6175 77.5097 68.6023 77.4844 68.5745 77.4769C68.5441 77.4718 68.5087 77.4667 68.4632 77.4667H66.3237V77.3833C66.344 77.3833 66.3642 77.3757 66.3819 77.3631C66.3996 77.3504 66.4072 77.3276 66.4072 77.3024V75.2185C66.4072 75.1907 66.3996 75.1705 66.3819 75.1578C66.3642 75.1452 66.3465 75.1376 66.3237 75.1376V75.0541H68.4152C68.4784 75.0541 68.5239 75.044 68.5517 75.0238C68.577 75.0036 68.5897 74.9783 68.5897 74.9429H68.6731V75.5473H68.5922V75.5498Z" fill="#334E68"/>
<path id="Vector_82" d="M70.1423 76.7105L70.1878 76.7332C70.1878 76.7611 70.1929 76.7863 70.2055 76.8066C70.2257 76.8445 70.2687 76.8799 70.332 76.9153C70.3952 76.9507 70.466 76.9811 70.5469 77.0089C70.6278 77.0367 70.7138 77.0595 70.8023 77.0746C70.8909 77.0923 70.9718 77.0999 71.0401 77.0999C71.0932 77.0999 71.1589 77.0949 71.2424 77.0873C71.3258 77.0797 71.4068 77.0645 71.4851 77.0392C71.5635 77.014 71.6344 76.9811 71.6925 76.9381C71.7507 76.8951 71.7785 76.8395 71.7785 76.7686C71.7785 76.6978 71.7507 76.6473 71.6976 76.6118C71.6445 76.579 71.5737 76.5537 71.4877 76.5385C71.4017 76.5233 71.3005 76.5132 71.1893 76.5082C71.078 76.5031 70.9642 76.4955 70.8479 76.4879C70.7315 76.4778 70.6177 76.4626 70.5065 76.4424C70.3952 76.4222 70.2966 76.3842 70.208 76.3337C70.1221 76.2831 70.0512 76.2148 69.9981 76.1263C69.945 76.0378 69.9172 75.924 69.9172 75.7849C69.9172 75.6913 69.94 75.5977 69.983 75.5042C70.0285 75.4131 70.0942 75.3322 70.1878 75.2614C70.2814 75.1906 70.3952 75.1349 70.5368 75.0894C70.6784 75.0439 70.8428 75.0237 71.0325 75.0237C71.1943 75.0237 71.3359 75.0363 71.4548 75.0616C71.5737 75.0869 71.6773 75.1122 71.7633 75.14C71.8493 75.1678 71.9252 75.1931 71.9833 75.2184C72.044 75.2437 72.0921 75.2563 72.1326 75.2563C72.1755 75.2563 72.2059 75.2462 72.2236 75.2285L72.2792 75.2665L71.9631 75.8405L71.9176 75.8228C71.9125 75.7798 71.8999 75.7444 71.8797 75.7166C71.8544 75.6787 71.8139 75.6433 71.7583 75.6079C71.7026 75.5725 71.6344 75.5421 71.5585 75.5143C71.4826 75.4865 71.3992 75.4637 71.3107 75.4485C71.2221 75.4308 71.1336 75.4232 71.0451 75.4232C70.9768 75.4232 70.9086 75.4283 70.8352 75.4384C70.7644 75.4485 70.6987 75.4662 70.6405 75.4865C70.5823 75.5067 70.5343 75.5371 70.4963 75.5725C70.4584 75.6079 70.4382 75.6509 70.4382 75.704C70.4382 75.7773 70.466 75.8329 70.5191 75.8683C70.5722 75.9063 70.643 75.9316 70.729 75.9518C70.815 75.9695 70.9161 75.9821 71.0274 75.9897C71.1387 75.9948 71.2525 76.0024 71.3688 76.0125C71.4852 76.0226 71.599 76.0378 71.7102 76.0605C71.8215 76.0833 71.9201 76.1212 72.0086 76.1718C72.0972 76.2224 72.1654 76.2907 72.2185 76.3767C72.2716 76.4626 72.2995 76.5739 72.2995 76.7105C72.2995 76.8698 72.2565 76.9988 72.173 77.0999C72.0896 77.2011 71.9834 77.2795 71.8594 77.3377C71.733 77.3958 71.5989 77.4337 71.4523 77.454C71.3081 77.4742 71.1716 77.4843 71.0451 77.4843C70.8706 77.4843 70.7239 77.4742 70.6076 77.454C70.4887 77.4337 70.3926 77.4085 70.3143 77.3806C70.2359 77.3528 70.1752 77.325 70.1271 77.3022C70.0816 77.2795 70.0411 77.2668 70.0083 77.2668C69.988 77.2668 69.9678 77.2795 69.9476 77.3048L69.8843 77.2668L70.1423 76.7105Z" fill="#334E68"/>
<path id="Vector_83" d="M74.9954 75.0264C75.1649 75.0264 75.3343 75.0517 75.5088 75.1022C75.6833 75.1528 75.8426 75.2287 75.9868 75.3298C76.1309 75.431 76.2473 75.5574 76.3408 75.7142C76.4344 75.871 76.4774 76.0506 76.4774 76.263C76.4774 76.4729 76.4319 76.6575 76.3408 76.8118C76.2498 76.9661 76.1309 77.095 75.9868 77.1937C75.8426 77.2948 75.6833 77.3682 75.5088 77.4137C75.3343 77.4592 75.1624 77.482 74.9954 77.482C74.826 77.482 74.6566 77.4592 74.4821 77.4137C74.3076 77.3682 74.1483 77.2948 74.0041 77.1937C73.86 77.0925 73.7436 76.9661 73.6501 76.8118C73.559 76.6575 73.5135 76.4754 73.5135 76.263C73.5135 76.0531 73.559 75.8685 73.6501 75.7142C73.7411 75.56 73.86 75.431 74.0041 75.3298C74.1483 75.2287 74.3076 75.1528 74.4821 75.1022C74.654 75.0517 74.826 75.0264 74.9954 75.0264ZM74.9954 75.4487C74.8791 75.4487 74.7628 75.4664 74.6465 75.5043C74.5301 75.5423 74.4264 75.5929 74.3329 75.6637C74.2393 75.7319 74.1634 75.8179 74.1053 75.9191C74.0471 76.0202 74.0193 76.134 74.0193 76.263C74.0193 76.392 74.0471 76.5058 74.1053 76.6069C74.1634 76.7081 74.2393 76.7941 74.3329 76.8624C74.4264 76.9307 74.5301 76.9838 74.6465 77.0217C74.7628 77.0596 74.8791 77.0773 74.9954 77.0773C75.1118 77.0773 75.2281 77.0596 75.3444 77.0217C75.4608 76.9838 75.5645 76.9332 75.658 76.8624C75.7516 76.7941 75.8275 76.7081 75.8856 76.6069C75.9438 76.5058 75.9716 76.392 75.9716 76.263C75.9716 76.134 75.9413 76.0202 75.8856 75.9191C75.8275 75.8179 75.7516 75.7319 75.658 75.6637C75.5645 75.5954 75.4608 75.5423 75.3444 75.5043C75.2256 75.4664 75.1092 75.4487 74.9954 75.4487Z" fill="#334E68"/>
<path id="Vector_84" d="M79.2946 75.0541C79.4412 75.0541 79.5753 75.0668 79.6941 75.0921C79.813 75.1174 79.9167 75.1603 80.0027 75.216C80.0886 75.2716 80.1544 75.345 80.1999 75.436C80.2454 75.527 80.2682 75.6383 80.2682 75.7698C80.2682 75.9721 80.2075 76.1264 80.0886 76.2326C79.9698 76.3388 79.8079 76.4122 79.6056 76.4476L80.2151 77.3201C80.2353 77.3504 80.2606 77.3681 80.291 77.3757C80.3188 77.3807 80.3466 77.3858 80.3719 77.3858V77.4693H79.5146V77.3858C79.5424 77.3858 79.5652 77.3807 79.5854 77.3732C79.6056 77.363 79.6157 77.3529 79.6157 77.3352C79.6157 77.3201 79.6107 77.3024 79.598 77.2821C79.5854 77.2619 79.5677 77.2366 79.5424 77.2012L79.0366 76.4855H78.3816V77.3024C78.3816 77.3302 78.3917 77.3504 78.412 77.3631C78.4322 77.3757 78.4676 77.3833 78.5207 77.3833V77.4667H77.7266V77.3833C77.8151 77.3833 77.8607 77.3555 77.8607 77.2998V75.216C77.8607 75.1603 77.8151 75.1325 77.7266 75.1325V75.0491H79.2946V75.0541ZM79.1757 76.1289C79.287 76.1289 79.378 76.1213 79.4514 76.1036C79.5247 76.0859 79.5829 76.0632 79.6259 76.0328C79.6688 76.0025 79.6992 75.9671 79.7169 75.9241C79.7346 75.8836 79.7447 75.8381 79.7447 75.7901C79.7447 75.742 79.7346 75.6965 79.7169 75.6535C79.6992 75.613 79.6688 75.5751 79.6259 75.5447C79.5829 75.5144 79.5247 75.4916 79.4514 75.4739C79.378 75.4562 79.287 75.4486 79.1757 75.4486H78.3816V76.1289H79.1757Z" fill="#334E68"/>
<path id="Vector_85" d="M82.9111 77.3023C82.9111 77.3579 82.9439 77.3857 83.0122 77.3857V77.4692H82.3066V77.3857C82.3269 77.3857 82.3471 77.3781 82.3648 77.3655C82.3825 77.3528 82.3901 77.3301 82.3901 77.3048V75.4789H81.634C81.6061 75.4789 81.5808 75.4865 81.553 75.5017C81.5277 75.5168 81.5151 75.5472 81.5151 75.5877H81.4316V74.9453H81.5151C81.5151 74.9883 81.5277 75.0161 81.553 75.0313C81.5783 75.0465 81.6061 75.0541 81.634 75.0541H83.6723C83.7001 75.0541 83.7254 75.0465 83.7532 75.0313C83.7785 75.0161 83.7911 74.9858 83.7911 74.9453H83.8746V75.5877H83.7911C83.7911 75.5447 83.7785 75.5168 83.7532 75.5017C83.7279 75.4865 83.7001 75.4789 83.6723 75.4789H82.9161V77.3023H82.9111Z" fill="#334E68"/>
<path id="Vector_86" d="M85.2046 76.7105L85.2501 76.7332C85.2501 76.7611 85.2552 76.7863 85.2678 76.8066C85.2881 76.8445 85.3311 76.8799 85.3943 76.9153C85.4575 76.9507 85.5283 76.9811 85.6092 77.0089C85.6902 77.0367 85.7761 77.0595 85.8647 77.0746C85.9532 77.0923 86.0341 77.0999 86.1024 77.0999C86.1555 77.0999 86.2212 77.0949 86.3047 77.0873C86.3881 77.0797 86.4691 77.0645 86.5475 77.0392C86.6259 77.014 86.6967 76.9811 86.7548 76.9381C86.813 76.8951 86.8408 76.8395 86.8408 76.7686C86.8408 76.6978 86.813 76.6473 86.7599 76.6118C86.7068 76.579 86.636 76.5537 86.55 76.5385C86.464 76.5233 86.3629 76.5132 86.2516 76.5082C86.1403 76.5031 86.0265 76.4955 85.9102 76.4879C85.7938 76.4778 85.68 76.4626 85.5688 76.4424C85.4575 76.4222 85.3589 76.3842 85.2704 76.3337C85.1844 76.2831 85.1136 76.2148 85.0605 76.1263C85.0073 76.0378 84.9795 75.924 84.9795 75.7849C84.9795 75.6913 85.0023 75.5977 85.0453 75.5042C85.0908 75.4131 85.1566 75.3322 85.2501 75.2614C85.3412 75.1906 85.4575 75.1349 85.5991 75.0894C85.7407 75.0439 85.9051 75.0237 86.0948 75.0237C86.2566 75.0237 86.3983 75.0363 86.5171 75.0616C86.636 75.0869 86.7397 75.1122 86.8256 75.14C86.9116 75.1678 86.9875 75.1931 87.0457 75.2184C87.1064 75.2437 87.1544 75.2563 87.1949 75.2563C87.2379 75.2563 87.2682 75.2462 87.2859 75.2285L87.3416 75.2665L87.0254 75.8405L86.9799 75.8228C86.9749 75.7798 86.9622 75.7444 86.942 75.7166C86.9167 75.6787 86.8762 75.6433 86.8206 75.6079C86.765 75.5725 86.6967 75.5421 86.6208 75.5143C86.5449 75.4865 86.4615 75.4637 86.373 75.4485C86.2845 75.4308 86.1959 75.4232 86.1074 75.4232C86.0392 75.4232 85.9709 75.4283 85.8975 75.4384C85.8267 75.4485 85.761 75.4662 85.7028 75.4865C85.6446 75.5067 85.5966 75.5371 85.5587 75.5725C85.5207 75.6079 85.5005 75.6509 85.5005 75.704C85.5005 75.7773 85.5283 75.8329 85.5814 75.8683C85.6345 75.9063 85.7053 75.9316 85.7913 75.9518C85.8773 75.9695 85.9785 75.9821 86.0897 75.9897C86.201 75.9948 86.3148 76.0024 86.4311 76.0125C86.5475 76.0226 86.6613 76.0378 86.7725 76.0605C86.8838 76.0833 86.9824 76.1212 87.071 76.1718C87.1595 76.2224 87.2277 76.2907 87.2809 76.3767C87.334 76.4626 87.3618 76.5739 87.3618 76.7105C87.3618 76.8698 87.3188 76.9988 87.2353 77.0999C87.1519 77.2011 87.0457 77.2795 86.9217 77.3377C86.7953 77.3958 86.6613 77.4337 86.5146 77.454C86.3704 77.4742 86.2339 77.4843 86.1074 77.4843C85.9329 77.4843 85.7863 77.4742 85.6699 77.454C85.5511 77.4337 85.455 77.4085 85.3766 77.3806C85.2982 77.3528 85.2375 77.325 85.1894 77.3022C85.1439 77.2795 85.1034 77.2668 85.0706 77.2668C85.0503 77.2668 85.0301 77.2795 85.0099 77.3048L84.9467 77.2668L85.2046 76.7105Z" fill="#334E68"/>
<path id="Vector_87" d="M54.3468 82.919C54.3771 82.919 54.4049 82.9115 54.4277 82.8938C54.4505 82.8761 54.4631 82.8432 54.4631 82.7901V81.2575C54.4429 81.2575 54.4176 81.2601 54.3872 81.2626C54.3569 81.2651 54.3291 81.2702 54.3013 81.2778C54.2734 81.2854 54.2482 81.2955 54.2254 81.3106C54.2026 81.3233 54.1875 81.3435 54.1773 81.3688H54.1217V80.7897H54.1773C54.1773 80.8175 54.19 80.8352 54.2178 80.8479C54.2456 80.858 54.2709 80.863 54.2962 80.863C54.3493 80.863 54.3923 80.8479 54.4277 80.815C54.4631 80.7821 54.4808 80.7442 54.4808 80.6986C54.4808 80.6557 54.4707 80.6278 54.4505 80.6152C54.4302 80.6025 54.4049 80.595 54.3695 80.5874V80.5317H55.113V80.5874C55.0751 80.5924 55.0448 80.6051 55.022 80.6202C54.9967 80.6354 54.9841 80.6582 54.9841 80.6885V82.7901C54.9841 82.8432 54.9967 82.8761 55.022 82.8938C55.0473 82.9115 55.0751 82.919 55.1055 82.919V82.9747H54.3493V82.919H54.3468Z" fill="#334E68"/>
<path id="Vector_88" d="M57.212 82.2641L57.2676 82.2919C57.2676 82.307 57.2701 82.3247 57.2752 82.3475C57.2802 82.3677 57.2878 82.388 57.3005 82.4031C57.3308 82.4436 57.3713 82.4765 57.4244 82.5068C57.4775 82.5347 57.5331 82.5599 57.5913 82.5776C57.652 82.5953 57.7102 82.608 57.7734 82.6156C57.8366 82.6232 57.8897 82.6282 57.9378 82.6282C58.4157 82.6282 58.6686 82.388 58.699 81.9075C58.57 81.9707 58.441 82.0263 58.3146 82.0719C58.1856 82.1174 58.0516 82.1401 57.91 82.1401C57.7987 82.1401 57.6874 82.1275 57.5711 82.0997C57.4547 82.0719 57.3511 82.0289 57.2575 81.9707C57.1639 81.9125 57.088 81.8367 57.0274 81.7456C56.9667 81.6546 56.9388 81.5433 56.9388 81.4143C56.9388 81.2575 56.9742 81.126 57.0425 81.0148C57.1108 80.9035 57.2018 80.815 57.3106 80.7416C57.4219 80.6708 57.5433 80.6177 57.6798 80.5823C57.8164 80.5494 57.9504 80.5317 58.087 80.5317C58.2564 80.5317 58.4081 80.5596 58.5472 80.6177C58.6863 80.6734 58.8077 80.7543 58.9064 80.8554C59.0075 80.9591 59.0859 81.0805 59.1415 81.2196C59.1972 81.3612 59.225 81.5155 59.225 81.6824C59.225 81.8822 59.1946 82.0617 59.1314 82.2211C59.0682 82.3804 58.9797 82.5195 58.8634 82.6333C58.747 82.7471 58.6079 82.8356 58.4486 82.8938C58.2868 82.9545 58.1072 82.9823 57.91 82.9823C57.7734 82.9823 57.6545 82.9722 57.5584 82.9519C57.4623 82.9317 57.3814 82.9064 57.3182 82.8786C57.255 82.8508 57.2018 82.823 57.1614 82.8002C57.1209 82.7774 57.0906 82.7648 57.0653 82.7648C57.0324 82.7648 57.0021 82.7749 56.9793 82.7926L56.9414 82.7597L57.212 82.2641ZM58.0415 80.9288C57.9681 80.9288 57.8973 80.9364 57.8265 80.949C57.7557 80.9617 57.6925 80.9869 57.6394 81.0173C57.5837 81.0502 57.5407 81.0932 57.5079 81.1463C57.475 81.1994 57.4598 81.2677 57.4598 81.3461C57.4598 81.4245 57.475 81.4927 57.5079 81.5458C57.5407 81.5989 57.5837 81.6419 57.6394 81.6748C57.695 81.7077 57.7582 81.7304 57.8265 81.7431C57.8973 81.7557 57.9681 81.7633 58.0415 81.7633C58.1148 81.7633 58.1856 81.7557 58.2564 81.7431C58.3272 81.7304 58.3904 81.7052 58.4436 81.6748C58.4992 81.6419 58.5422 81.5989 58.5751 81.5458C58.6079 81.4927 58.6231 81.4245 58.6231 81.3461C58.6231 81.2677 58.6079 81.1994 58.5751 81.1463C58.5422 81.0932 58.4992 81.0502 58.4436 81.0173C58.3879 80.9844 58.3247 80.9617 58.2564 80.949C58.1881 80.9364 58.1148 80.9288 58.0415 80.9288Z" fill="#334E68"/>
<path id="Vector_89" d="M60.6716 82.1732C60.6716 82.1783 60.6716 82.1858 60.669 82.196C60.6665 82.2061 60.6665 82.2137 60.6665 82.2238C60.6665 82.2642 60.6918 82.3072 60.7424 82.3527C60.793 82.3983 60.8562 82.4413 60.9346 82.4792C61.013 82.5171 61.1015 82.55 61.1976 82.5728C61.2962 82.598 61.3923 82.6107 61.4859 82.6107C61.5567 82.6107 61.6275 82.6031 61.7008 82.5905C61.7742 82.5778 61.8425 82.5525 61.9032 82.5197C61.9638 82.4868 62.0144 82.4413 62.0549 82.3831C62.0953 82.3249 62.1156 82.2541 62.1156 82.1681C62.1156 82.0796 62.0954 82.0063 62.0524 81.9506C62.0094 81.895 61.9588 81.8495 61.8956 81.8141C61.8323 81.7812 61.7641 81.7559 61.6857 81.7433C61.6098 81.7306 61.5365 81.723 61.4656 81.723C61.4353 81.723 61.3898 81.7256 61.3291 81.7332C61.2684 81.7382 61.2077 81.7509 61.1445 81.7686C61.0838 81.7863 61.0307 81.8065 60.9852 81.8343C60.9396 81.8621 60.9194 81.8975 60.9194 81.9456C60.9194 81.9608 60.9245 81.9759 60.932 81.9911L60.9042 82.029L60.3352 81.4702C60.3731 81.4423 60.3984 81.4221 60.4111 81.4095C60.4237 81.3968 60.4313 81.3741 60.4313 81.3437V80.7115C60.4313 80.6558 60.401 80.628 60.3453 80.628V80.5724H62.2319C62.2648 80.5724 62.2977 80.5673 62.3255 80.5597C62.3533 80.5496 62.3685 80.5269 62.3685 80.4915H62.4241V81.111H62.3685C62.3685 81.0579 62.3533 81.0276 62.3255 81.0149C62.2951 81.0023 62.2648 80.9972 62.2319 80.9972H60.8562V81.498C60.9725 81.455 61.0888 81.4221 61.2026 81.3993C61.3164 81.3766 61.4378 81.3639 61.5668 81.3639C61.6857 81.3639 61.8071 81.3791 61.931 81.4069C62.0549 81.4373 62.1687 81.4828 62.2698 81.546C62.3735 81.6092 62.457 81.6927 62.5202 81.7913C62.5834 81.89 62.6163 82.0088 62.6163 82.1479C62.6163 82.3072 62.5784 82.4413 62.505 82.5525C62.4292 82.6638 62.3356 82.7523 62.2193 82.8206C62.1029 82.8889 61.974 82.9369 61.8349 82.9622C61.6932 82.9875 61.5567 83.0002 61.4252 83.0002C61.2557 83.0002 61.1141 82.985 60.9953 82.9521C60.8764 82.9192 60.7752 82.8813 60.6893 82.8358C60.5856 82.7801 60.5148 82.7371 60.4794 82.7043C60.4414 82.6714 60.4111 82.6562 60.3883 82.6562C60.3833 82.6562 60.3731 82.6562 60.3605 82.6588C60.3479 82.6613 60.3352 82.6638 60.32 82.6663L60.2644 82.6208L60.626 82.1428L60.6716 82.1732Z" fill="#334E68"/>
<path id="Vector_90" d="M63.9768 82.2641L64.0324 82.2919C64.0324 82.307 64.035 82.3247 64.04 82.3475C64.0451 82.3677 64.0527 82.388 64.0653 82.4031C64.0957 82.4436 64.1361 82.4765 64.1892 82.5068C64.2423 82.5347 64.298 82.5599 64.3561 82.5776C64.4168 82.5953 64.475 82.608 64.5382 82.6156C64.5989 82.6232 64.6545 82.6282 64.7026 82.6282C65.1806 82.6282 65.4335 82.388 65.4638 81.9075C65.3348 81.9707 65.2059 82.0263 65.0794 82.0719C64.9504 82.1174 64.8164 82.1401 64.6748 82.1401C64.5635 82.1401 64.4522 82.1275 64.3359 82.0997C64.2196 82.0719 64.1159 82.0289 64.0223 81.9707C63.9287 81.9125 63.8529 81.8367 63.7922 81.7456C63.7315 81.6546 63.7037 81.5433 63.7037 81.4143C63.7037 81.2575 63.7391 81.126 63.8074 81.0148C63.8756 80.9035 63.9667 80.815 64.0754 80.7416C64.1867 80.6708 64.3081 80.6177 64.4446 80.5823C64.5812 80.5494 64.7152 80.5317 64.8518 80.5317C65.0212 80.5317 65.173 80.5596 65.3121 80.6177C65.4512 80.6734 65.5726 80.7543 65.6712 80.8554C65.7723 80.9591 65.8507 81.0805 65.9064 81.2196C65.962 81.3612 65.9898 81.5155 65.9898 81.6824C65.9898 81.8822 65.9595 82.0617 65.8963 82.2211C65.833 82.3804 65.7445 82.5195 65.6282 82.6333C65.5119 82.7471 65.3728 82.8356 65.2134 82.8938C65.0516 82.9545 64.872 82.9823 64.6748 82.9823C64.5382 82.9823 64.4194 82.9722 64.3233 82.9519C64.2272 82.9317 64.1462 82.9064 64.083 82.8786C64.0198 82.8508 63.9667 82.823 63.9262 82.8002C63.8858 82.7774 63.8554 82.7648 63.8301 82.7648C63.7972 82.7648 63.7669 82.7749 63.7441 82.7926L63.7062 82.7597L63.9768 82.2641ZM64.8063 80.9288C64.7329 80.9288 64.6621 80.9364 64.5913 80.949C64.5205 80.9617 64.4573 80.9869 64.4042 81.0173C64.3485 81.0502 64.3056 81.0932 64.2727 81.1463C64.2398 81.1994 64.2246 81.2677 64.2246 81.3461C64.2246 81.4245 64.2398 81.4927 64.2727 81.5458C64.3056 81.5989 64.3485 81.6419 64.4042 81.6748C64.4598 81.7077 64.523 81.7304 64.5913 81.7431C64.6621 81.7557 64.7329 81.7633 64.8063 81.7633C64.8796 81.7633 64.9504 81.7557 65.0212 81.7431C65.0921 81.7304 65.1553 81.7052 65.2084 81.6748C65.264 81.6419 65.307 81.5989 65.3399 81.5458C65.3728 81.4927 65.3879 81.4245 65.3879 81.3461C65.3879 81.2677 65.3728 81.1994 65.3399 81.1463C65.307 81.0932 65.264 81.0502 65.2084 81.0173C65.1527 80.9844 65.0895 80.9617 65.0212 80.949C64.9504 80.9364 64.8796 80.9288 64.8063 80.9288Z" fill="#334E68"/>
</g>
</g>
</g>
</svg>
