<svg width="1025" height="281" viewBox="0 0 1025 281" fill="none" xmlns="http://www.w3.org/2000/svg">
<path d="M874.229 251.496H941.168C943.876 251.496 947.458 251.025 949.946 248.106C952.174 245.628 952.174 242.488 952.174 240.73C952.174 237.542 951.732 234.411 948.803 231.712C947.026 230.147 943.876 228.562 927.242 224.077L904.337 217.796C891.756 214.425 882.997 209.921 878.282 203.419C873.557 196.927 872.664 189.033 872.664 183.223C872.664 177.364 873.557 169.518 878.282 163.007C885.226 153.364 896.673 152.663 906.805 152.663H973.984V172.87H910.839C907.939 172.87 904.558 172.87 901.629 175.127C898.488 177.595 898.277 180.534 898.277 183.674C898.277 187.026 898.488 189.955 902.08 192.874C905.451 195.544 913.759 198.013 916.909 198.925L942.522 206.137C956.678 210.161 966.359 213.311 972.169 219.602C978.239 226.094 979.381 234.862 979.381 241.374C979.381 255.731 973.984 263.174 969.47 266.757C963.401 271.232 955.996 271.674 950.397 271.674H874.229V251.496ZM831.55 271.674H857.844V152.663H831.55V271.674ZM704.626 170.862C704.626 167.242 704.875 161.873 708.448 158.051C713.404 152.452 721.49 152.663 726.657 152.663H768.635C781.005 152.663 792.481 153.787 801.912 162.334C808.212 167.943 813.591 176.913 813.591 193.316V271.674H787.315V201.163C787.315 193.316 786.642 185.681 782.378 180.053C778.527 175.127 773.149 172.87 763.497 172.87H736.75C735.195 172.87 733.61 172.87 732.265 174.224C730.921 175.808 730.921 177.595 730.921 179.17V271.674H704.626V170.862ZM495.502 197.6C495.502 184.558 497.759 171.746 507.863 163.007C518.859 153.364 534.379 152.663 543.589 152.663H561.346V172.87H550.311C543.358 172.87 534.148 173.782 527.867 181.206C522.912 187.266 521.798 195.544 521.798 204.543V271.674H495.502V197.6ZM423.397 271.674C414.398 271.674 398.686 269.897 387.901 257.095C378.028 245.427 377.135 230.579 377.135 213.763C377.135 199.597 377.357 179.17 390.6 165.484C395.546 160.529 405.659 152.663 427.008 152.663H477.995V172.87H435.527C417.788 172.87 409.26 181.638 406.321 191.77C404.545 198.012 404.305 210.613 404.305 214.214C404.305 221.148 404.977 232.625 408.127 238.906C413.966 250.353 427.008 251.496 437.985 251.496H480.684V271.674H423.397ZM597.927 242.949C605.562 251.698 617.029 252.822 626.47 252.822C636.352 252.822 646.907 251.698 654.772 242.949C662.628 234.2 662.628 222.733 662.628 212.399C662.628 203.64 663.291 190.176 655.012 180.966C647.358 172.438 635.891 171.535 626.47 171.535C617.932 171.535 605.14 172.438 597.716 180.966C590.292 189.484 590.292 204.774 590.292 212.399C590.292 222.281 590.532 234.411 597.927 242.949ZM674.527 163.89C688.232 176.702 689.797 199.136 689.797 211.746C689.797 236.889 683.296 251.919 674.527 260.245C661.745 272.125 640.184 273.047 626.47 273.047C612.304 273.047 591.416 272.125 578.403 260.245C564.247 247.213 563.113 224.759 563.113 212.62C563.113 199.136 564.698 176.702 578.403 163.89C591.416 151.77 612.304 151.328 626.47 151.328C640.635 151.328 661.504 151.77 674.527 163.89ZM267.066 130.45C272.674 117.187 278.734 112.702 292.881 112.702C306.365 112.702 313.107 117.187 318.725 130.45L378.028 271.674H346.797L330.634 231.933H254.917L238.975 271.674H207.772L267.066 130.45ZM262.552 210.843H322.97L297.376 146.843C296.492 144.586 294.907 140.322 292.881 140.322C290.883 140.322 289.289 144.586 288.406 146.843L262.552 210.843Z" fill="#334E68"/>
<path d="M866.94 115.055C866.94 126.81 857.432 136.318 845.696 136.318C833.941 136.318 824.443 126.81 824.443 115.055C824.443 103.328 833.941 93.8014 845.696 93.8014C857.432 93.8014 866.94 103.328 866.94 115.055Z" fill="#334E68"/>
<path d="M156.276 10.4978C153.539 9.07647 150.495 8.35618 147.306 7.95282C151.426 12.6011 154.576 18.9396 156.334 27.2661C159.215 40.942 158.543 59.0163 153.741 80.2888C148.756 102.512 139.556 127.002 126.341 151.636C126.326 151.697 126.303 151.732 126.272 151.77C125.302 153.7 124.438 155.612 123.42 157.561C113.384 176.538 101.984 192.97 90.3536 206.022C82.3728 215.002 74.4689 222.147 66.9587 227.458C58.8723 234.036 51.0548 239.126 43.7847 242.277C32.7595 247.107 23.146 247.914 15.4726 245.023C13.1001 244.12 10.9776 242.766 8.98962 241.172C9.4606 242.632 9.90199 244.101 10.4878 245.475C14.1181 254.176 19.6595 259.976 26.8431 262.694C34.8239 265.671 44.7927 264.865 56.2308 259.861C68.8407 254.339 82.9199 243.948 97.4793 228.62C113.057 212.217 128.471 190.867 141.935 165.782C155.65 140.188 165.205 114.757 170.382 91.7078C175.366 69.619 176.067 50.8627 173.061 36.6586C170.315 23.5686 164.478 14.7619 156.276 10.4978Z" fill="#334E68"/>
<path d="M83.1142 43.17C67.5272 59.5638 52.1227 80.9131 38.6581 106.017C33.1647 116.255 28.382 126.445 24.2428 136.481C21.0351 145.336 18.1443 154.411 15.6473 163.602L67.2487 151.607C74.8453 149.859 84.0842 136.231 87.9065 121.095L105.866 50.3825L114.288 17.2109C104.425 23.1749 93.8993 31.8183 83.1142 43.17Z" fill="#334E68"/>
<path d="M996.86 106.258C996.179 105.969 995.209 105.797 993.941 105.797H991.482V114.027H993.778C995.881 114.027 997.033 113.701 997.888 112.951C998.579 112.26 999.04 111.117 999.04 109.744C999.04 108.082 998.128 106.776 996.86 106.258ZM999.646 126.723C998.973 125.408 998.637 124.822 997.715 123.228C995.881 120.202 995.314 119.232 993.605 117.35C992.98 116.659 992.452 116.313 991.482 116.265V126.723H988.159V103.108H994.796C997.609 103.108 999.261 103.751 1000.4 104.827C1001.49 105.797 1002.52 107.41 1002.52 109.686C1002.52 113.345 1000.13 116.313 996.178 116.198C997.264 117.062 997.83 117.801 998.224 118.378C998.743 119.002 999.444 120.029 1000.23 121.288C1001.27 122.891 1003.19 125.984 1003.67 126.723H999.646ZM994.748 96.8842C984.98 96.8842 977.249 104.779 977.249 115.064C977.249 125.35 984.98 133.235 994.748 133.235C1004.46 133.235 1012.24 125.35 1012.24 115.064C1012.24 104.779 1004.46 96.8842 994.748 96.8842ZM994.748 136.318C983.146 136.318 973.485 127.175 973.485 115.064C973.485 102.944 983.146 93.8014 994.748 93.8014C1006.29 93.8014 1016.01 102.944 1016.01 115.064C1016.01 127.175 1006.29 136.318 994.748 136.318Z" fill="#334E68"/>
</svg>
