<svg width="120" height="60" viewBox="0 0 120 60" fill="none" xmlns="http://www.w3.org/2000/svg">
<path d="M10.4501 22.502C9.33605 22.727 8.15005 23.62 7.64305 24.596C7.13605 25.572 7.12805 25.811 7.12805 29.916L7.22005 34.196C7.54705 35.866 8.85305 37.173 10.5241 37.5C11.0301 37.592 17.6201 37.638 17.6201 37.537C17.6201 37.463 17.0601 35.255 17.0201 35.237C17.0101 35.219 15.8421 34.961 14.4251 34.657C11.1211 33.939 11.2221 33.957 10.9451 33.635L10.7051 33.35V26.668L10.9451 26.368C11.2211 26.038 11.1201 26.064 14.4251 25.346L17.0201 24.766C17.0481 24.738 17.6201 22.53 17.6201 22.466C17.6201 22.379 10.8921 22.42 10.4501 22.512V22.502ZM21.1171 22.516C21.1271 22.682 21.6421 24.716 21.6971 24.762C21.7151 24.79 22.9771 25.075 24.4971 25.397L27.4701 26.115C27.6321 26.2092 27.7682 26.3422 27.8661 26.502C28.0131 26.76 28.0321 27.036 28.0321 29.999L27.8661 33.496C27.7657 33.6539 27.6302 33.7864 27.4701 33.883C27.3501 33.947 26.0161 34.27 24.4971 34.601L21.6971 35.236C21.4688 35.9752 21.2753 36.7247 21.1171 37.482C21.1171 37.582 21.7801 37.602 24.6871 37.574C28.7001 37.537 28.7471 37.528 29.7671 36.838C30.501 36.333 31.0554 35.6078 31.3501 34.767C31.5621 34.15 31.5621 34.095 31.5621 30L31.3501 25.23C31.0554 24.3893 30.501 23.664 29.7671 23.159C28.7451 22.459 28.6991 22.459 24.6871 22.423C21.7791 22.395 21.1171 22.409 21.1171 22.515V22.516ZM38.2441 25.646C37.6091 26.971 36.9741 28.609 36.3211 30.596L35.0141 35.078C35.2591 35.102 35.5141 35.111 35.7501 35.106H36.4771L36.5771 34.71L36.9371 33.45L37.1851 32.576H42.2381L42.4961 33.496L42.8461 34.756L42.9381 35.106H43.6651L44.4011 35.078C44.4011 35.06 44.2171 34.378 43.9871 33.55C43.1501 30.522 42.0821 27.55 41.1801 25.672L40.7001 24.706H38.6941L38.2441 25.646ZM40.4241 27.486L41.7311 31.02C41.7311 31.038 40.8311 31.057 39.7061 31.057C38.5811 31.057 37.6811 31.02 37.6811 30.983C37.6811 30.827 38.6111 28.351 39.0611 27.283C39.4111 26.463 39.5861 26.169 39.7051 26.169C39.8241 26.169 40.0091 26.509 40.4231 27.476L40.4241 27.486ZM45.3201 29.906V35.106H46.7931V24.706H45.3201V29.906ZM48.6331 24.826C48.4605 24.9417 48.321 25.1002 48.2281 25.286C48.0811 25.599 48.0721 25.673 48.1911 25.986C48.3511 26.448 48.8471 26.7 49.3141 26.556C49.7741 26.409 49.9671 26.142 49.9671 25.663C49.9671 25.313 49.9211 25.213 49.6631 24.983C49.3411 24.698 49.0101 24.643 48.6331 24.836V24.826ZM51.3031 29.888V35.088L52.4351 35.171L54.5701 35.254C55.5001 35.254 55.6281 35.236 56.1161 34.987C56.6911 34.727 57.1221 34.224 57.2941 33.617C57.3491 33.397 57.3771 32.421 57.3581 31.087C57.3301 29.035 57.3211 28.887 57.1281 28.519C56.7681 27.856 56.2261 27.534 55.2231 27.396C54.6891 27.322 53.3631 27.396 52.9591 27.526C52.7841 27.581 52.7751 27.544 52.7751 26.156V24.71H51.3021L51.3031 29.888ZM55.4901 28.894C55.67 28.9594 55.8181 29.091 55.9041 29.262C56.0241 29.575 56.0241 32.999 55.9041 33.302C55.7661 33.679 55.3041 33.854 54.4311 33.854C54.0248 33.8585 53.6188 33.8338 53.2161 33.78L52.7741 33.716V28.958L53.3081 28.866C54.1281 28.728 55.1301 28.736 55.4881 28.894H55.4901ZM65.9361 29.897V35.097L66.8381 35.143L68.7151 35.263C69.9751 35.337 70.7671 35.133 71.2831 34.591C71.9461 33.911 71.963 33.827 71.983 31.508C72.011 29.824 71.993 29.308 71.883 28.931C71.635 28.066 70.9171 27.523 69.8211 27.394C69.2691 27.33 67.8241 27.404 67.5291 27.524C67.4371 27.552 67.4091 27.239 67.4091 26.144V24.717H65.9361V29.897ZM70.0681 28.852C70.2241 28.907 70.3981 29.027 70.4451 29.119C70.5451 29.303 70.5751 33.149 70.4821 33.399C70.3261 33.804 69.0821 33.979 67.8501 33.776L67.4081 33.712V28.96L67.9421 28.868C68.6781 28.748 69.7181 28.738 70.0681 28.854V28.852ZM84.6921 24.798C83.7721 24.964 83.2921 25.185 82.8241 25.663C82.0881 26.399 82.0421 26.666 82.0421 29.998C82.0421 33.33 82.088 33.596 82.842 34.342C83.229 34.738 83.4421 34.857 83.9921 35.042C84.5921 35.226 84.8661 35.254 86.1001 35.254C87.1681 35.254 87.72 35.208 88.272 35.079C88.5658 35.0205 88.8549 34.9407 89.137 34.84C89.211 34.794 89.201 34.628 89.091 34.187C89.0392 33.9637 88.9683 33.7452 88.8791 33.534C88.8421 33.497 88.612 33.524 88.373 33.598C87.553 33.846 86.1181 33.948 85.2251 33.838C84.3321 33.728 84.0011 33.58 83.7251 33.221C83.5411 32.981 83.5321 32.881 83.5321 30.009C83.5321 27.137 83.5421 27.036 83.7251 26.797C84.0101 26.437 84.3321 26.3 85.2251 26.18C86.1181 26.06 87.553 26.17 88.373 26.42L88.87 26.558C88.944 26.558 89.2661 25.278 89.2101 25.224C89.1821 25.196 88.842 25.094 88.437 24.984C87.637 24.772 85.4641 24.671 84.7001 24.809L84.6921 24.798ZM90.508 29.906V35.106H91.888V24.706H90.508V29.906ZM111.408 26.086V27.466L110.883 27.411L110.147 27.319C109.834 27.264 108.674 27.449 108.343 27.614C107.915 27.8417 107.563 28.1905 107.331 28.617C107.147 28.957 107.129 29.151 107.101 31.017C107.064 33.529 107.138 33.897 107.801 34.551C108.399 35.131 109.108 35.324 110.313 35.251L112.025 35.151L112.872 35.096V24.716H111.4L111.408 26.086ZM111.252 28.893C111.399 28.957 111.408 29.16 111.408 31.341V33.715L111.068 33.779C110.468 33.899 109.356 33.871 109.034 33.733C108.868 33.659 108.694 33.531 108.647 33.438C108.6 33.345 108.555 32.37 108.555 31.266C108.555 29.066 108.573 29.002 109.061 28.846C109.356 28.754 110.975 28.791 111.261 28.892L111.252 28.893ZM60.7921 27.38C60.3803 27.4351 59.9717 27.5119 59.5681 27.61C59.0711 27.73 58.9511 27.794 58.9881 27.914C59.0161 27.997 59.0801 28.264 59.1441 28.521C59.2081 28.778 59.2741 29.009 59.3101 29.036C59.3461 29.063 59.7431 29.018 60.1941 28.936C61.7311 28.614 62.7711 28.761 62.9181 29.313C62.9645 29.5587 62.9892 29.808 62.9921 30.058L63.0021 30.573L62.1281 30.527C59.7901 30.407 58.3821 31.282 58.3641 32.855C58.3541 33.6 58.5941 34.18 59.0911 34.64C59.6711 35.174 60.2871 35.34 61.4751 35.257L63.3981 35.157L64.3921 35.093L64.3371 28.908L64.0791 28.475C63.5641 27.605 62.3391 27.2 60.7931 27.398L60.7921 27.38ZM62.9361 32.037C63.0281 32.092 63.0191 33.721 62.9261 33.721C62.8801 33.721 62.4111 33.767 61.8761 33.821C60.3391 33.968 59.7781 33.738 59.7781 32.947C59.7781 32.607 59.8241 32.505 60.0541 32.303C60.2541 32.148 60.5121 32.05 60.7721 32.018L61.3421 31.926C61.5081 31.889 62.8421 31.976 62.9341 32.041L62.9361 32.037ZM75.4711 27.367L74.247 27.607C73.63 27.754 73.575 27.791 73.621 27.967L73.787 28.647C73.887 29.107 73.9071 29.135 74.1271 29.08C75.3601 28.758 76.5471 28.666 77.0271 28.84C77.4601 29.006 77.552 29.19 77.552 29.89V30.553H76.41C74.965 30.553 74.3021 30.737 73.6671 31.308C73.4036 31.5305 73.2005 31.8158 73.0765 32.1376C72.9526 32.4594 72.9119 32.8073 72.9581 33.149C73.1141 34.649 74.1821 35.376 76.0961 35.257L78.0191 35.157L79.0131 35.093L78.9851 32.047C78.9571 29.12 78.9481 28.982 78.7551 28.623C78.2301 27.638 77.0431 27.196 75.4601 27.381L75.4711 27.367ZM77.2931 31.967H77.5411V33.707L77.0161 33.771C76.0041 33.901 75.019 33.871 74.761 33.697C74.246 33.357 74.264 32.464 74.789 32.197C75.149 32.013 76.0041 31.884 76.5741 31.939L77.2921 31.976L77.2931 31.967ZM95.1291 27.365C94.5704 27.4866 94.0683 27.791 93.702 28.23C93.232 28.847 93.187 29.15 93.187 31.36C93.187 33.624 93.251 33.89 93.859 34.526C94.459 35.143 94.743 35.226 96.132 35.226C97.559 35.226 97.882 35.126 98.47 34.426C99.03 33.763 99.096 33.432 99.07 31.104C99.042 29.208 99.024 29.024 98.84 28.674C98.5678 28.1719 98.1464 27.7666 97.634 27.514C97.164 27.302 95.7841 27.21 95.1401 27.348L95.1291 27.365ZM97.1541 28.893C97.6241 29.133 97.6971 29.463 97.6971 31.277C97.6971 32.997 97.6331 33.32 97.2371 33.67C96.9521 33.928 95.6541 33.992 95.1851 33.762C94.6331 33.504 94.568 33.237 94.568 31.277C94.568 29.4 94.6231 29.151 95.1021 28.893C95.4521 28.7 96.7861 28.7 97.1541 28.893ZM48.3671 31.277V35.097H49.7471V27.457H48.3671V31.277ZM100.217 27.577C100.189 27.651 100.18 29.031 100.199 30.642C100.227 33.292 100.245 33.605 100.401 33.9C100.944 34.922 101.864 35.345 103.364 35.244L105.98 35.087V27.467H104.58V33.717L104.147 33.781C103.347 33.911 102.352 33.864 102.03 33.698L101.708 33.514C101.698 33.504 101.662 32.152 101.634 30.514L101.588 27.514L100.916 27.486C100.41 27.468 100.236 27.486 100.198 27.586L100.217 27.577ZM17.0101 29.804C16.9801 29.9025 16.9739 30.0067 16.9921 30.108C17.0201 30.264 17.1851 30.274 19.3481 30.301L21.6681 30.319V29.675H19.3681C17.4451 29.675 17.0481 29.693 17.0121 29.805L17.0101 29.804Z" fill="#334E68"/>
</svg>
