<svg width="256" height="153" viewBox="0 0 256 153" fill="none" xmlns="http://www.w3.org/2000/svg">
<g clip-path="url(#clip0_20_29)">
<path d="M72.3922 55.4384C72.3922 58.5748 72.7312 61.1179 73.3246 62.9828C74.0027 64.8477 74.8504 66.8821 76.0372 69.0861C76.461 69.7642 76.6306 70.4424 76.6306 71.0358C76.6306 71.8834 76.122 72.7311 75.02 73.5788L69.6796 77.1391C68.9167 77.6477 68.1537 77.902 67.4756 77.902C66.6279 77.902 65.7802 77.4782 64.9325 76.7152C63.7458 75.4437 62.7286 74.0874 61.8809 72.7311C61.0332 71.2901 60.1855 69.6795 59.2531 67.7298C52.6412 75.5285 44.3339 79.4278 34.3312 79.4278C27.2107 79.4278 21.5312 77.3934 17.3776 73.3245C13.2239 69.2556 11.1047 63.8305 11.1047 57.049C11.1047 49.8437 13.6478 43.9947 18.8186 39.5868C23.9895 35.1788 30.8557 32.9748 39.5869 32.9748C42.469 32.9748 45.4359 33.2292 48.5723 33.653C51.7087 34.0768 54.9299 34.755 58.3206 35.5179V29.3298C58.3206 22.8874 56.9643 18.3947 54.3365 15.7669C51.6239 13.1391 47.0465 11.8676 40.5193 11.8676C37.5524 11.8676 34.5008 12.2066 31.3643 12.9695C28.2279 13.7325 25.1763 14.6649 22.2094 15.8517C20.8531 16.445 19.8359 16.7841 19.2425 16.9537C18.6491 17.1232 18.2253 17.208 17.8862 17.208C16.6994 17.208 16.1061 16.3603 16.1061 14.5801V10.4265C16.1061 9.07021 16.2756 8.05299 16.6994 7.45961C17.1233 6.86623 17.8862 6.27286 19.0729 5.67948C22.0398 4.15365 25.6001 2.88213 29.7537 1.86491C33.9074 0.762924 38.3153 0.254314 42.9776 0.254314C53.065 0.254314 60.4398 2.54306 65.1869 7.12054C69.8491 11.698 72.2226 18.649 72.2226 27.9735V55.4384H72.3922ZM37.9763 68.3232C40.7736 68.3232 43.6557 67.8146 46.7074 66.7974C49.759 65.7801 52.4716 63.9152 54.7604 61.3722C56.1167 59.7616 57.1339 57.9815 57.6425 55.947C58.1511 53.9126 58.4902 51.4543 58.4902 48.5722V45.0119C56.0319 44.4186 53.4041 43.9099 50.6915 43.5709C47.9789 43.2318 45.3511 43.0623 42.7233 43.0623C37.0438 43.0623 32.8902 44.1642 30.0928 46.453C27.2955 48.7417 25.9392 51.9629 25.9392 56.2013C25.9392 60.1854 26.9564 63.1523 29.0756 65.1868C31.11 67.306 34.0769 68.3232 37.9763 68.3232ZM106.045 77.4782C104.519 77.4782 103.502 77.2238 102.824 76.6305C102.146 76.1219 101.552 74.9351 101.044 73.3245L81.1233 7.79869C80.6147 6.10332 80.3604 5.00133 80.3604 4.40796C80.3604 3.05167 81.0385 2.28875 82.3948 2.28875H90.7021C92.3127 2.28875 93.4147 2.54306 94.008 3.13643C94.6862 3.64504 95.1948 4.8318 95.7034 6.44239L109.944 62.559L123.168 6.44239C123.592 4.74703 124.101 3.64504 124.779 3.13643C125.457 2.62782 126.644 2.28875 128.17 2.28875H134.951C136.562 2.28875 137.664 2.54306 138.342 3.13643C139.02 3.64504 139.613 4.8318 139.952 6.44239L153.346 63.2371L168.011 6.44239C168.519 4.74703 169.113 3.64504 169.706 3.13643C170.384 2.62782 171.486 2.28875 173.012 2.28875H180.895C182.252 2.28875 183.015 2.9669 183.015 4.40796C183.015 4.8318 182.93 5.25564 182.845 5.76425C182.76 6.27286 182.591 6.951 182.252 7.88345L161.823 73.4093C161.314 75.1046 160.721 76.2066 160.042 76.7152C159.364 77.2238 158.262 77.5629 156.821 77.5629H149.531C147.921 77.5629 146.819 77.3086 146.141 76.7152C145.462 76.1219 144.869 75.0199 144.53 73.3245L131.391 18.649L118.337 73.2397C117.913 74.9351 117.404 76.0371 116.726 76.6305C116.048 77.2238 114.861 77.4782 113.335 77.4782H106.045ZM214.972 79.7669C210.564 79.7669 206.156 79.2583 201.918 78.2411C197.68 77.2238 194.374 76.1219 192.17 74.8503C190.813 74.0874 189.881 73.2397 189.542 72.4768C189.203 71.7139 189.033 70.8662 189.033 70.1033V65.7801C189.033 64 189.711 63.1523 190.983 63.1523C191.492 63.1523 192 63.2371 192.509 63.4066C193.017 63.5762 193.78 63.9152 194.628 64.2543C197.51 65.5258 200.646 66.5431 203.952 67.2212C207.343 67.8993 210.649 68.2384 214.04 68.2384C219.38 68.2384 223.534 67.306 226.416 65.4411C229.298 63.5762 230.824 60.8636 230.824 57.3881C230.824 55.0146 230.061 53.0649 228.535 51.4543C227.009 49.8437 224.127 48.4027 219.974 47.0464L207.682 43.2318C201.494 41.2821 196.917 38.4 194.119 34.5854C191.322 30.8556 189.881 26.702 189.881 22.294C189.881 18.7338 190.644 15.5974 192.17 12.8848C193.695 10.1722 195.73 7.79869 198.273 5.93378C200.816 3.98412 203.698 2.54306 207.089 1.52584C210.48 0.508619 214.04 0.0847778 217.77 0.0847778C219.635 0.0847778 221.584 0.169546 223.449 0.423851C225.399 0.678155 227.179 1.01723 228.959 1.3563C230.654 1.78014 232.265 2.20398 233.791 2.71259C235.317 3.2212 236.503 3.72981 237.351 4.23842C238.538 4.91657 239.386 5.59471 239.894 6.35763C240.403 7.03577 240.657 7.96822 240.657 9.15498V13.1391C240.657 14.9192 239.979 15.8517 238.707 15.8517C238.029 15.8517 236.927 15.5126 235.486 14.8344C230.654 12.6305 225.229 11.5285 219.211 11.5285C214.379 11.5285 210.564 12.2914 207.937 13.902C205.309 15.5126 203.952 17.9709 203.952 21.4464C203.952 23.8199 204.8 25.8543 206.495 27.4649C208.191 29.0755 211.327 30.6861 215.82 32.1272L227.857 35.9417C233.96 37.8914 238.368 40.604 240.996 44.0795C243.624 47.555 244.895 51.5391 244.895 55.947C244.895 59.5921 244.133 62.898 242.691 65.7801C241.166 68.6623 239.131 71.2053 236.503 73.2397C233.876 75.359 230.739 76.8848 227.094 77.9868C223.28 79.1735 219.295 79.7669 214.972 79.7669Z" fill="#334E68"/>
<path d="M230.993 120.964C203.105 141.563 162.585 152.498 127.746 152.498C78.9193 152.498 34.9245 134.442 1.69541 104.434C-0.932403 102.061 1.44111 98.8398 4.57753 100.705C40.5193 121.558 84.853 134.188 130.713 134.188C161.653 134.188 195.645 127.746 226.925 114.522C231.587 112.403 235.571 117.574 230.993 120.964ZM242.607 107.74C239.046 103.163 219.041 105.536 209.971 106.638C207.258 106.978 206.834 104.604 209.293 102.824C225.229 91.6345 251.423 94.8557 254.474 98.5855C257.526 102.4 253.627 128.593 238.707 141.139C236.419 143.089 234.215 142.072 235.232 139.529C238.623 131.136 246.167 112.233 242.607 107.74Z" fill="#334E68"/>
</g>
<defs>
<clipPath id="clip0_20_29">
<rect width="256" height="153" fill="white"/>
</clipPath>
</defs>
</svg>
