<svg width="200" height="58" viewBox="0 0 200 58" fill="none" xmlns="http://www.w3.org/2000/svg">
<g clip-path="url(#clip0_20_33)">
<path d="M34.4142 54.5415C43.9715 52.8532 51.8653 51.4562 51.9559 51.4369L52.1208 51.402L43.0978 40.6694C38.1351 34.7665 34.0748 29.9139 34.0748 29.886C34.0748 29.833 43.3918 4.17595 43.4442 4.08467C43.4617 4.05415 49.8022 15.0009 58.814 30.6202C67.251 45.2434 74.2069 57.3002 74.2715 57.4132L74.3891 57.6186L45.7132 57.6149L17.0374 57.6112L34.4142 54.5415ZM144.383 51.9459C140.018 51.6661 137.479 49.1805 136.806 44.5281C136.627 43.2905 136.627 43.2584 136.608 35.2239L136.591 27.4478H138.522H140.454L140.47 34.9693C140.483 41.7482 140.492 42.543 140.557 43.0199C140.82 44.9552 141.343 46.2567 142.235 47.1909C142.948 47.9385 143.784 48.3763 144.94 48.6086C145.485 48.7182 147.037 48.7184 147.534 48.6091C148.706 48.3511 149.646 47.841 150.475 47.0126C151.419 46.0683 152.118 44.7286 152.456 43.2136L152.57 42.703L152.583 35.1179L152.596 27.5328H154.568H156.54V39.4568V51.3808H154.588H152.636V49.489C152.636 48.2035 152.622 47.6018 152.592 47.6118C152.568 47.6198 152.468 47.7732 152.37 47.9526C151.697 49.1793 150.576 50.3012 149.348 50.9771C147.876 51.7873 146.4 52.0753 144.383 51.9459ZM188.688 51.9267C187.147 51.8108 185.525 51.2811 184.199 50.4608C181.404 48.7319 179.75 45.8821 179.266 41.9603C179.098 40.6032 179.078 38.7803 179.218 37.6272C179.53 35.0505 180.543 32.521 181.985 30.7152C182.354 30.2523 183.193 29.4138 183.656 29.0442C184.906 28.0462 186.368 27.3482 187.92 27.0086C188.825 26.8108 190.418 26.7178 191.379 26.8069C193.793 27.0307 196.005 28.1673 197.509 29.9563C199.037 31.7739 199.877 34.3137 199.984 37.4411C200.001 37.9312 200.005 38.7905 199.993 39.3506L199.972 40.3691L191.517 40.3798L183.062 40.3905V40.7678C183.062 41.9164 183.341 43.2246 183.824 44.3377C184.24 45.2975 184.957 46.3456 185.543 46.8529C186.746 47.8929 188.219 48.5154 189.83 48.6652C190.427 48.7207 191.95 48.6622 192.631 48.5576C194.573 48.2591 196.42 47.4973 197.911 46.3793C198.086 46.2477 198.254 46.1248 198.284 46.1062C198.327 46.0789 198.338 46.4225 198.337 47.8672L198.335 49.6622L197.936 49.9093C196.249 50.9526 194.316 51.6226 192.27 51.8734C191.659 51.9482 189.418 51.9816 188.688 51.9267ZM196.047 36.7878C196.047 34.8639 195.236 32.7265 194.088 31.626C193.27 30.8406 192.28 30.3606 191.103 30.1783C190.546 30.0921 189.373 30.1253 188.786 30.2439C187.545 30.4946 186.519 31.0401 185.624 31.9246C184.682 32.8555 183.975 33.9862 183.531 35.2745C183.371 35.7377 183.185 36.4982 183.127 36.9213L183.099 37.1228H189.573H196.047V36.7878ZM81.3555 51.3277C81.3654 51.2985 84.2365 43.7559 87.7358 34.5663L94.0981 17.8579L96.1423 17.8578L98.1866 17.8577L98.3562 18.2926C98.8745 19.6218 111.093 51.3445 111.093 51.361C111.093 51.3719 110.114 51.3806 108.918 51.3804L106.744 51.38L104.983 46.6914L103.221 42.0028L96.1308 42.0027L89.0401 42.0027L88.9785 42.1618C88.9446 42.2493 88.1922 44.359 87.3065 46.85L85.6961 51.3792L83.5168 51.3799C81.7918 51.3805 81.3413 51.3697 81.3555 51.3277ZM101.927 38.4248C101.927 38.4173 100.742 35.2045 99.2937 31.2852C96.5839 23.9528 96.4323 23.5116 96.2182 22.3345C96.1178 21.7825 96.067 21.7671 96.0074 22.2708C95.9648 22.6308 95.7801 23.4365 95.6377 23.8833C95.5671 24.105 94.3468 27.4543 92.926 31.3261C91.5052 35.1979 90.3427 38.382 90.3427 38.402C90.3427 38.422 92.9492 38.4383 96.135 38.4383C99.3207 38.4383 101.927 38.4322 101.927 38.4248ZM112.409 50.7701V50.1595L119.473 40.448L126.538 30.7365L120.141 30.7152L113.745 30.694L113.734 29.0709L113.723 27.4478H122.974H132.225V27.996V28.5442L125.16 38.3087C121.274 43.6792 118.095 48.0822 118.095 48.0932C118.095 48.1043 121.236 48.1133 125.075 48.1133H132.056V49.747V51.3808H122.232H112.409V50.7701ZM164.249 51.3525C164.234 51.3369 164.221 45.952 164.221 39.386V27.4478H166.152H168.082V29.909C168.082 31.2626 168.099 32.3702 168.119 32.3702C168.139 32.3702 168.233 32.1486 168.328 31.8778C168.762 30.6368 169.515 29.4772 170.485 28.5556C171.358 27.7254 172.357 27.2289 173.535 27.0389C173.866 26.9855 174.146 26.9754 174.808 26.9926C175.64 27.0142 176.074 27.075 176.58 27.2403L176.739 27.2923V29.2964V31.3005L176.283 31.0722C175.477 30.6688 174.682 30.5092 173.726 30.5589C173.104 30.5912 172.696 30.6711 172.198 30.8578C171.175 31.2418 170.345 31.9196 169.765 32.8448C168.926 34.1842 168.327 35.9059 168.15 37.4883C168.119 37.7723 168.1 40.085 168.093 44.6443L168.082 51.3808H166.179C165.133 51.3808 164.265 51.368 164.249 51.3525ZM0 51.2686C0 51.2535 4.2516 43.8731 9.44799 34.8677L18.896 18.4941L29.9065 9.25408C35.9623 4.17205 40.9334 0.00780333 40.9533 0.000208752C40.9732 -0.00738432 40.8936 0.193117 40.7763 0.445769C40.659 0.698421 35.2788 12.2383 28.8204 26.0899L17.0777 51.2747L8.53887 51.2854C3.84249 51.2913 0 51.2837 0 51.2686Z" fill="#334E68"/>
</g>
<defs>
<clipPath id="clip0_20_33">
<rect width="200" height="57.6186" fill="white"/>
</clipPath>
</defs>
</svg>
