<svg width="300" height="80" viewBox="0 0 300 80" fill="none" xmlns="http://www.w3.org/2000/svg">
<path d="M2 42.747L12.3022 41.7825C12.9382 45.2404 14.1983 47.7906 16.0945 49.421C17.9997 51.0395 20.5737 51.8458 23.8077 51.8458C27.2239 51.8458 29.8039 51.1142 31.5567 49.6778C33.2887 48.2087 34.1457 46.5334 34.1457 44.6163C34.1457 43.3711 33.7784 42.2872 33.0588 41.4152C32.3272 40.5582 31.0551 39.7818 29.2455 39.1667C27.9943 38.6889 25.1634 37.9274 20.7529 36.8076C15.0643 35.4071 11.0689 33.6543 8.79644 31.5968C5.57141 28.6704 3.95293 25.105 3.95293 20.9303C3.95293 18.2428 4.69648 15.7016 6.23732 13.3844C7.7483 11.0313 9.95207 9.24262 12.8217 8.00039C15.6825 6.80594 19.1075 6.18184 23.1896 6.18184C29.786 6.18184 34.7519 7.64206 38.1023 10.5446C41.4438 13.5009 43.1847 17.3798 43.349 22.2472L32.6825 22.6056C32.2107 19.9479 31.2671 17.989 29.7561 16.7886C28.275 15.5971 26.0324 14.9999 23.0642 14.9999C19.9855 14.9999 17.5667 15.6329 15.8347 16.923C14.7 17.7531 14.1416 18.8191 14.1416 20.1808C14.1416 21.4499 14.6612 22.4951 15.7183 23.3879C17.0471 24.5406 20.311 25.7141 25.471 26.9205C30.643 28.1508 34.4533 29.4229 36.9198 30.7398C39.3923 32.0567 41.3363 33.8513 42.7338 36.1417C44.1194 38.3753 44.842 41.2301 44.842 44.5835C44.842 47.6055 43.994 50.4662 42.3187 53.097C40.6435 55.7277 38.2666 57.7165 35.2058 59.0095C32.1331 60.2667 28.3138 60.9385 23.739 60.9385C17.077 60.9385 11.9468 59.3828 8.38136 56.2682C4.82189 53.1716 2.69278 48.6596 2 42.747Z" fill="#334E68"/>
<path d="M43.4932 21.641H54.1895L63.3271 48.8417L72.2317 21.641H82.6563L69.2575 58.4779L66.8029 65.1997C65.916 67.4423 65.0799 69.1414 64.2796 70.3179C63.4793 71.5183 62.5566 72.4859 61.5175 73.2055C60.4574 73.9192 59.1763 74.4955 57.6833 74.9046C56.1544 75.3197 54.4403 75.5496 52.5232 75.5496C50.5912 75.5496 48.6831 75.3197 46.8048 74.9046L45.9687 66.9466C47.5364 67.278 48.9608 67.4423 50.2239 67.4423C52.5531 67.4423 54.288 66.7555 55.4019 65.3848C56.5276 63.9754 57.3876 62.1956 57.9819 60.0635L43.4932 21.641Z" fill="#334E68"/>
<path d="M117.731 59.959H107.659V40.4536C107.659 36.3447 107.45 33.696 107.005 32.4717C106.563 31.2623 105.879 30.3187 104.888 29.6438C103.914 28.9779 102.72 28.6405 101.355 28.6405C99.5844 28.6405 98.0137 29.1302 96.5983 30.0947C95.1829 31.0473 94.2303 32.3105 93.7107 33.8692C93.2001 35.4698 92.9313 38.3753 92.9313 42.6664V59.959H82.88V21.641H92.1908V27.2519C95.5412 23.0087 99.7457 20.9124 104.819 20.9124C107.074 20.9124 109.113 21.3245 110.974 22.0949C112.831 22.925 114.246 23.9224 115.178 25.1855C116.125 26.4367 116.788 27.8522 117.164 29.4199C117.537 30.9816 117.731 33.275 117.731 36.2163V59.959Z" fill="#334E68"/>
<path d="M128.099 40.9075C128.099 44.7327 128.995 47.6562 130.814 49.639C132.626 51.6845 134.848 52.7027 137.506 52.7027C140.163 52.7027 142.388 51.6845 144.198 49.639C145.977 47.6562 146.873 44.6999 146.873 40.8597C146.873 37.0733 145.977 34.1798 144.198 32.1761C142.388 30.1724 140.163 29.1332 137.506 29.1332C134.848 29.1332 132.626 30.1724 130.814 32.1761C128.995 34.1798 128.099 37.1062 128.099 40.9075ZM117.788 40.3969C117.788 36.9987 118.627 33.7736 120.282 30.6054C121.936 27.4669 124.286 25.0601 127.329 23.3879C130.372 21.7246 133.77 20.9154 137.515 20.9154C143.32 20.9154 148.059 22.7906 151.752 26.5532C155.458 30.3187 157.319 35.0756 157.319 40.812C157.319 46.608 155.443 51.3918 151.705 55.2111C147.972 59.0094 143.254 60.9415 137.583 60.9415C134.078 60.9415 130.736 60.1322 127.541 58.5466C124.355 56.958 121.936 54.6348 120.282 51.5561C118.627 48.5102 117.788 44.7865 117.788 40.3969Z" fill="#334E68"/>
<path d="M169.678 1.99525V51.4665C169.678 53.8255 169.852 55.3873 170.183 56.1338C170.53 56.9162 171.046 57.4925 171.748 57.8837C172.462 58.2749 173.781 58.4779 175.687 58.4779V59.959H157.405V58.4779C159.119 58.4779 160.284 58.3017 160.941 57.9285C161.544 57.5612 162.034 57.0028 162.389 56.1756C162.748 55.3664 162.912 53.7987 162.912 51.4665V17.7083C162.912 13.459 162.825 10.8611 162.643 9.87863C162.47 8.90515 162.159 8.25418 161.756 7.90779C161.341 7.54049 160.825 7.33743 160.195 7.33743C159.514 7.33743 158.636 7.58827 157.588 8.00335L156.892 6.55507L167.872 1.99525H169.678Z" fill="#334E68"/>
<path d="M192.585 24.2629C191.14 24.2629 189.697 24.6362 188.243 25.5141C186.789 26.3771 185.606 27.8522 184.708 29.9724C183.815 32.1344 183.364 34.8697 183.364 38.2261C183.364 43.6519 184.46 48.2774 186.604 52.24C188.772 56.1339 191.612 58.1197 195.135 58.1197C197.793 58.1197 199.958 57.0088 201.654 54.8648C203.377 52.7028 204.237 48.9851 204.237 43.6907C204.237 37.0734 202.81 31.9044 199.958 28.1031C198.026 25.5201 195.568 24.2629 192.585 24.2629ZM193.836 21.5187C199.507 21.5187 204.043 23.6657 207.477 27.9597C210.385 31.6178 211.84 35.8222 211.84 40.5702C211.84 43.9206 211.051 47.3009 209.442 50.7051C207.832 54.1212 205.629 56.7042 202.798 58.4362C199.979 60.1771 196.858 61.0461 193.403 61.0461C187.754 61.0461 183.274 58.8035 179.963 54.3392C177.162 50.5767 175.755 46.3364 175.755 41.6273C175.755 38.1992 176.603 34.8219 178.296 31.4595C180.013 28.0553 182.244 25.5798 185.027 23.9225C187.801 22.3339 190.737 21.5187 193.836 21.5187Z" fill="#334E68"/>
<path d="M227.12 23.5759C225.116 23.5759 223.462 24.412 222.1 26.0036C220.756 27.5923 220.09 29.9782 220.09 33.2808C220.09 37.5331 221.004 40.8298 222.835 43.1888C224.247 44.9626 226.012 45.8495 228.159 45.8495C230.207 45.8495 231.903 45.0641 233.211 43.5293C234.531 41.9914 235.185 39.5965 235.185 36.3237C235.185 32.0177 234.271 28.6792 232.414 26.2605C231.017 24.5016 229.264 23.5759 227.12 23.5759ZM219.687 59.9589C218.445 61.3027 217.519 62.5957 216.874 63.8111C216.229 64.9458 215.931 66.0596 215.931 67.0301C215.931 68.3649 216.701 69.4787 218.272 70.4522C220.986 72.1095 224.904 72.9725 230.019 72.9725C234.887 72.9725 238.467 72.1095 240.799 70.3955C243.128 68.6994 244.275 66.8838 244.275 64.9458C244.275 63.5692 243.582 62.5688 242.194 61.9716C240.778 61.3714 237.989 61.025 233.788 60.9384C227.678 60.7562 222.966 60.4009 219.687 59.9589ZM220.022 46.2795C217.752 45.1238 216.026 43.6039 214.796 41.6122C213.592 39.5965 212.983 37.4107 212.983 35.0128C212.983 31.316 214.354 28.1268 217.125 25.5109C219.908 22.8563 223.471 21.5155 227.803 21.5155C231.342 21.5155 234.415 22.3516 237.013 24.0955H244.902C246.076 24.0955 246.747 24.1343 246.951 24.2C247.127 24.2896 247.246 24.412 247.345 24.5464C247.5 24.8002 247.593 25.2332 247.593 25.8484C247.593 26.5591 247.518 27.0816 247.383 27.3295C247.3 27.4669 247.163 27.5923 246.951 27.646C246.747 27.7266 246.076 27.7625 244.89 27.7625H240.029C241.569 29.7244 242.331 32.2327 242.331 35.2845C242.331 38.7485 240.984 41.7406 238.341 44.1981C235.684 46.6736 232.124 47.9248 227.678 47.9248C225.83 47.9248 223.948 47.6531 222.016 47.0469C220.882 48.116 220.108 49.0058 219.726 49.7792C219.311 50.5735 219.108 51.2185 219.108 51.7411C219.108 52.2398 219.329 52.6668 219.792 53.1237C220.225 53.5447 221.112 53.8643 222.41 54.0404C223.151 54.1808 225.068 54.2853 228.09 54.3719C233.662 54.5481 237.284 54.7601 238.921 55.0378C241.444 55.3872 243.466 56.3368 244.968 57.8328C246.47 59.3408 247.219 61.1833 247.219 63.384C247.219 66.409 245.777 69.2906 242.91 71.9542C238.709 75.875 233.202 77.8399 226.415 77.8399C221.198 77.8399 216.788 76.6902 213.189 74.3312C211.156 72.9725 210.155 71.578 210.155 70.1028C210.155 69.4787 210.302 68.8128 210.579 68.1618C211.03 67.1406 211.965 65.8028 213.368 64.0081C213.554 63.7513 214.921 62.2971 217.433 59.6335C216.035 58.7555 215.038 58.015 214.47 57.3282C213.888 56.6623 213.592 55.8948 213.592 55.0617C213.592 54.0942 213.966 52.9863 214.727 51.7172C215.498 50.4183 217.268 48.5907 220.022 46.2795Z" fill="#334E68"/>
<path d="M248.748 22.6057H266.202V24.0987H265.357C264.124 24.0987 263.21 24.3854 262.595 24.8901C261.986 25.4365 261.69 26.0935 261.69 26.8609C261.69 27.9419 262.123 29.3961 263.037 31.2625L272.136 50.1408L280.464 29.5156C280.924 28.3809 281.157 27.2939 281.157 26.1681C281.157 25.6844 281.04 25.329 280.87 25.0901C280.646 24.8005 280.309 24.5437 279.846 24.3854C279.392 24.2033 278.568 24.0987 277.412 24.0987V22.6057H289.485V24.0987C288.482 24.2033 287.705 24.4332 287.165 24.7527C286.612 25.0901 286.018 25.6844 285.373 26.5593C285.122 26.9535 284.639 27.9777 283.976 29.6918L268.854 66.899C267.379 70.5271 265.453 73.2385 263.058 75.0869C260.669 76.9503 258.367 77.8401 256.154 77.8401C254.544 77.8401 253.227 77.4101 252.176 76.4606C251.146 75.5498 250.63 74.4957 250.63 73.2863C250.63 72.1575 251 71.2766 251.752 70.5689C252.502 69.8493 253.553 69.5297 254.855 69.5297C255.76 69.5297 257.002 69.8224 258.552 70.3987C259.639 70.772 260.331 71.0109 260.612 71.0109C261.43 71.0109 262.305 70.5689 263.288 69.7328C264.249 68.9027 265.223 67.2782 266.196 64.8863L268.833 58.3885L255.401 30.3189C254.992 29.4678 254.335 28.4286 253.448 27.1685C252.765 26.2279 252.206 25.5828 251.773 25.2335C251.146 24.8274 250.134 24.4332 248.748 24.0987V22.6057Z" fill="#334E68"/>
<path d="M290.399 15.9734H292.504C292.949 15.9734 293.307 15.9466 293.555 15.8182C293.815 15.7644 294 15.5793 294.131 15.3852C294.278 15.1702 294.338 14.9402 294.338 14.7013C294.338 14.3639 294.212 14.0772 293.949 13.8443C293.701 13.6204 293.295 13.5069 292.758 13.5069H290.399V15.9734ZM289.416 20.1331V12.6618H292.698C293.364 12.6618 293.863 12.7454 294.221 12.9007C294.579 13.0231 294.824 13.2561 295.039 13.5756C295.251 13.9399 295.344 14.3161 295.344 14.7013C295.344 15.2508 295.183 15.6957 294.824 16.0421C294.499 16.4154 293.97 16.6573 293.257 16.7528C293.528 16.8782 293.719 17.0126 293.845 17.1201C294.131 17.3799 294.403 17.7054 294.654 18.0906L295.953 20.1331H294.729L293.737 18.5893C293.451 18.1682 293.209 17.8009 293.024 17.571C292.824 17.3172 292.68 17.1679 292.525 17.0395C292.388 16.9529 292.238 16.9171 292.083 16.8693C291.97 16.8364 291.775 16.8185 291.522 16.8185H290.399V20.1331H289.416Z" fill="#334E68"/>
<path d="M297.733 16.1166C297.733 19.0998 295.305 21.5544 292.331 21.5544C289.336 21.5544 286.911 19.0998 286.911 16.1166C286.911 13.1126 289.336 10.7058 292.331 10.7058C295.305 10.7058 297.733 13.1126 297.733 16.1166Z" stroke="#334E68" stroke-width="0.534518"/>
</svg>
