<svg width="420" height="76" viewBox="0 0 420 76" fill="none" xmlns="http://www.w3.org/2000/svg">
<g clip-path="url(#clip0_20_60)">
<path d="M77.22 1.53999C73.84 -0.300006 69.69 1.09999 67.95 4.65999L43.12 58.12C42.54 59.27 42.04 60.06 40.72 60.06C39.4 60.06 38.89 59.27 38.32 58.12L13.5 4.64999C11.76 1.08999 7.60998 -0.300006 4.22998 1.52999C0.849983 3.36999 -0.470016 7.73999 1.26998 11.29L25.52 60.77L28.28 66.39C30.69 71.32 35.46 74.38 40.73 74.38C45.99 74.38 50.76 71.32 53.18 66.39L55.94 60.77L80.19 11.29C81.92 7.74999 80.59 3.37999 77.22 1.53999Z" fill="#334E68"/>
<path d="M406.67 0.730001C402 0.710001 397.91 3.63 395.95 7.64C389.64 20.51 371.09 58.8 371.01 58.93C370.87 59.17 370.48 60.06 369.68 60.06C368.93 60.06 368.49 59.22 368.35 58.92C362.2 46.21 350.07 21.11 343.7 8.12C341.25 3.11 337.14 0.720001 332.7 0.720001H332.69C325.86 0.720001 320.33 6.49 320.33 14.34V66.97C320.33 70.17 322.16 73.13 324.97 74.06C329.55 75.56 333.48 71.56 333.48 66.83L332.52 15.53C332.52 15 333.16 14.81 333.4 15.27L358.73 66.54C361.08 71.45 365.16 74.38 369.68 74.38C374.19 74.38 378.27 71.45 380.63 66.54L405.97 15.28C406.22 14.8 406.88 14.99 406.88 15.55L405.91 67.14C405.91 71.22 408.96 74.51 412.69 74.38C416.29 74.26 419.06 70.8 419.06 66.83C419.06 66.83 419.06 27.47 419.06 14.36C419.07 6.43 413.52 0.760001 406.67 0.730001Z" fill="#334E68"/>
<path d="M311.92 63.69L284.01 8.63C281.59 3.73 276.83 0.690002 271.59 0.690002C268.3 0.690002 265.21 1.88 262.76 3.98C261.29 5.23 260.05 6.81 259.15 8.64L231.38 63.44C231.35 63.5 231.33 63.56 231.3 63.61L231.26 63.69C229.97 66.24 230.28 69.24 231.81 71.42C231.85 71.48 231.89 71.53 231.93 71.59C231.97 71.65 232.02 71.71 232.07 71.77C232.57 72.42 233.17 72.98 233.9 73.42C236.25 74.84 239.03 74.63 241.13 73.17C241.16 73.15 241.19 73.13 241.21 73.11C241.36 73 241.51 72.89 241.65 72.77C241.77 72.67 241.88 72.56 241.99 72.45C242.04 72.4 242.09 72.36 242.14 72.31C242.64 71.8 243.07 71.21 243.41 70.53L244.44 68.35L250.25 56.17C250.4 55.86 250.7 55.66 251.03 55.66H276.68C276.68 55.66 276.68 55.66 276.69 55.66C280.12 55.66 282.91 52.72 282.91 49.11C282.91 45.49 280.12 42.56 276.69 42.56H261.3H257.53C257.12 42.56 256.86 42.12 257.01 41.73L258.44 38.7L268.93 17.56L268.97 17.47C268.99 17.43 269.01 17.39 269.03 17.35C269.2 17 269.76 15.49 270.78 15.18C271.34 15.01 271.93 15.03 272.33 15.15C273.39 15.47 273.87 16.78 274.33 17.74L299.77 70.56C301.01 73 303.39 74.4 305.85 74.4C306.63 74.4 307.42 74.25 308.19 73.96C308.24 73.94 308.29 73.93 308.33 73.91C308.52 73.83 308.7 73.74 308.88 73.64C308.95 73.61 309.02 73.58 309.08 73.54C309.12 73.52 309.15 73.49 309.19 73.47C309.24 73.44 309.3 73.42 309.35 73.38C309.43 73.33 309.5 73.27 309.58 73.22C309.65 73.17 309.71 73.13 309.77 73.08C309.87 73 309.97 72.93 310.07 72.85C310.18 72.76 310.29 72.66 310.4 72.56C310.43 72.53 310.46 72.51 310.48 72.48C312.76 70.26 313.43 66.67 311.92 63.69Z" fill="#334E68"/>
<path d="M95.95 45.53H142.92C143.81 45.52 151.08 44.93 151.08 36.71C151.09 16.47 135.44 0 116.21 0C96.99 0 81.35 16.47 81.35 36.72C81.35 37.18 81.38 38.46 81.38 38.65C81.35 61.77 96.21 74.21 115.87 75.36C116.81 75.41 117.73 75.44 118.63 75.44C126.19 75.44 132.57 73.48 139.5 69.1C140.21 68.66 142.98 66.81 145.81 63.16C148.06 60.26 148.26 55.91 145.81 53.65C142.28 50.39 138.65 52.15 135.41 54.91C130.32 59.24 126.38 62.62 116.23 62.63C106.66 62.63 97.61 57.17 95.46 46.26C95.38 45.88 95.6 45.53 95.95 45.53ZM95.43 31.98C96.74 21.38 104.03 11.98 116.19 11.98C128.35 11.98 136.05 21.19 137.27 31.98C137.31 32.37 137.06 32.74 136.68 32.74H96.02C95.64 32.74 95.38 32.38 95.43 31.98Z" fill="#334E68"/>
<path d="M173.22 45.53H220.19C221.08 45.52 228.35 44.93 228.35 36.71C228.35 16.47 212.7 0 193.48 0C174.25 0 158.61 16.47 158.61 36.72C158.61 37.18 158.64 38.46 158.64 38.65C158.61 61.77 173.47 74.21 193.13 75.36C194.07 75.41 194.99 75.44 195.89 75.44C203.45 75.44 209.83 73.48 216.76 69.1C217.47 68.66 220.24 66.81 223.07 63.16C225.32 60.26 225.52 55.91 223.07 53.65C219.54 50.39 215.91 52.15 212.67 54.91C207.58 59.24 203.64 62.62 193.49 62.63C183.92 62.63 174.87 57.17 172.72 46.26C172.64 45.88 172.86 45.53 173.22 45.53ZM172.69 31.98C174 21.38 181.29 11.98 193.45 11.98C205.61 11.98 213.31 21.19 214.53 31.98C214.57 32.37 214.32 32.74 213.94 32.74H173.27C172.9 32.74 172.64 32.38 172.69 31.98Z" fill="#334E68"/>
</g>
<defs>
<clipPath id="clip0_20_60">
<rect width="418.57" height="75.44" fill="white" transform="translate(0.5)"/>
</clipPath>
</defs>
</svg>
