<svg width="332" height="85" viewBox="0 0 332 85" fill="none" xmlns="http://www.w3.org/2000/svg">
<g clip-path="url(#clip0_23_36)">
<mask id="mask0_23_36" style="mask-type:luminance" maskUnits="userSpaceOnUse" x="-226" y="-765" width="768" height="1076">
<path fill-rule="evenodd" clip-rule="evenodd" d="M-225.912 310.965H541.588V-764.035H-225.912V310.965Z" fill="white"/>
</mask>
<g mask="url(#mask0_23_36)">
<path fill-rule="evenodd" clip-rule="evenodd" d="M158.801 81.7197L143.167 81.3643L159.985 56.9656L147.236 22.595L163.343 22.3581C165.475 28.5165 167.921 36.1207 170.171 42.398C170.408 42.398 170.645 42.5157 171 42.6346L183.632 22.595H199.385" fill="#334E68"/>
<path fill-rule="evenodd" clip-rule="evenodd" d="M325.867 63.7166C322.196 63.5986 318.524 63.7781 314.853 63.7781L302.468 45.1219L301.521 45.0039L297.731 63.9541H285.9L296.902 10.0645L290.625 9.8279L290.979 7.222L310.049 5.44527L303.06 38.2525L304.778 38.3888L314.668 29.1327C321.301 22.4999 319.524 23.2112 328.762 22.8557L327.933 26.3579C322.011 28.8459 313.364 33.6333 309.93 39.0814C318.576 51.5178 318.576 51.5178 325.801 60.9931C325.92 62.6509 326.459 62.6508 325.867 63.7166Z" fill="#334E68"/>
<path fill-rule="evenodd" clip-rule="evenodd" d="M4.00002 63.0061C11.9351 63.0061 19.9892 63.0061 28.0432 63.0061C28.0432 63.3619 4.00002 63.3619 4.00002 63.0061Z" fill="#334E68"/>
<path fill-rule="evenodd" clip-rule="evenodd" d="M60.4956 63.0061C65.3517 63.0061 70.2084 63.0061 75.0645 63.0061C75.0645 63.3619 60.4956 63.3619 60.4956 63.0061Z" fill="#334E68"/>
<path fill-rule="evenodd" clip-rule="evenodd" d="M123.269 63.0061C128.244 63.0061 133.218 63.0061 138.193 63.0061C138.193 63.3619 123.269 63.3619 123.269 63.0061Z" fill="#334E68"/>
<path fill-rule="evenodd" clip-rule="evenodd" d="M60.4955 63.0059L68.3127 22.8553C71.8661 22.8553 75.4189 22.8553 78.9723 22.8553C79.5647 22.8553 81.2234 22.6755 81.8157 22.6755L80.6214 28.9572C83.2274 23.2722 90.5798 23.0918 96.0282 22.4994C95.317 27.2375 94.607 31.9747 93.8957 36.8308C76.6033 28.1844 76.7222 52.8196 75.0644 63.0059" fill="#334E68"/>
<path fill-rule="evenodd" clip-rule="evenodd" d="M126.585 24.3953C127.296 25.1056 128.125 25.8165 128.954 26.5268L129.665 22.595H144.352L138.192 63.0061C133.218 63.0061 127.884 63.0061 122.909 63.0061C122.909 62.0583 123.269 61.2294 123.387 60.4005C121.492 61.3483 119.716 62.2952 117.939 63.243C82.5041 71.1163 93.1979 11.533 126.585 24.3953ZM118.135 34.6222C123.252 34.6222 127.426 38.6515 127.426 43.5929C127.426 48.5335 123.252 52.5631 118.135 52.5631C113.019 52.5631 108.844 48.5335 108.844 43.5929C108.844 38.6515 113.019 34.6222 118.135 34.6222Z" fill="#334E68"/>
<path fill-rule="evenodd" clip-rule="evenodd" d="M3.99999 63.0059L12.7643 3.99966L26.6018 4.57523C48.075 5.46778 64.4557 17.5698 56.9834 39.7841C52.7293 52.4291 42.5853 59.7744 28.0432 63.0059H3.99999ZM21.5293 49.3851L26.1485 18.4725C53.7079 19.8991 45.4157 51.8104 21.5293 49.3851Z" fill="#334E68"/>
<path fill-rule="evenodd" clip-rule="evenodd" d="M259.356 28.54C274.183 14.7169 290.476 28.8253 277.552 39.213C271.649 43.9564 267.169 43.2101 260.067 43.4634C257.495 59.265 265.941 59.8952 277.833 53.0575C278.781 54.4788 278.781 54.4788 278.898 55.3077C251.825 76.2293 236.635 49.9177 259.356 28.54ZM261.015 40.6209C261.362 38.9041 261.921 37.335 262.572 35.8098C264.047 32.3567 265.355 30.0317 268.408 27.7049C275.581 22.2347 275.984 31.5691 271.187 37.1292C268.12 40.6845 265.272 40.1205 261.015 40.6209Z" fill="#334E68"/>
<path fill-rule="evenodd" clip-rule="evenodd" d="M214.468 12.6701C210.44 15.1571 209.73 16.8152 207.716 20.961H204.874L207.48 8.52432L258.054 8.28773L256.277 21.0786C255.093 20.961 253.908 20.961 252.723 20.961C252.25 16.6973 252.132 15.1571 248.815 12.6701C245.025 12.6701 241.235 12.6701 237.563 12.6701C236.961 14.277 231.418 44.3333 229.458 53.7195C228.819 56.7768 227.672 59.7944 232.259 59.9465L235.194 60.0452L234.958 63.5986H208.072L208.546 60.2544L211.608 60.0697C216.162 59.7953 216.481 56.628 217.229 53.0085C220.02 39.5036 222.822 26.0868 225.719 12.6701C221.93 12.6701 218.14 12.6701 214.468 12.6701Z" fill="#334E68"/>
</g>
</g>
<defs>
<clipPath id="clip0_23_36">
<rect width="331.76" height="84.72" fill="white"/>
</clipPath>
</defs>
</svg>
