<svg width="1024" height="124" viewBox="0 0 1024 124" fill="none" xmlns="http://www.w3.org/2000/svg">
<path d="M663.191 119.226H635.188V4.94482L725.248 5.019C725.248 5.019 741.737 4.40394 752.226 14.7667C752.226 14.7667 762.932 23.707 762.932 45.5589V119.208H735.002V43.6553C735.002 43.6553 735.347 35.949 732.721 33.2446C732.721 33.2446 730.399 30.3072 725.986 30.3072H663.122L663.181 119.185L663.191 119.226ZM782.395 119.206V12.2113V5.03016H894.772V30.4267L810.227 30.4201V49.8367H868.962V74.3602H810.227V93.8425H895.298V119.246H782.329L782.395 119.206ZM586.391 119.206V12.2113V5.03016H614.275V119.246H586.391V119.206ZM934.912 119.206V30.3938H908.59V4.99734H1013.29V30.3938H962.816V119.206H934.932H934.912ZM494.297 119.206V30.3938H467.974V4.99734H572.672V30.3938H522.201V119.206H494.316H494.297ZM410.21 49.758C417.024 49.7054 421.1 49.7645 422.741 48.7655C422.741 48.7655 425.605 47.1822 425.637 43.7846L425.644 36.3147C425.644 32.9013 422.748 31.3338 422.748 31.3338C420.574 30.1523 416.889 30.3742 408.143 30.3656H353.818V49.756H411.458L410.21 49.758ZM425.236 119.206V80.2285C425.236 76.7246 422.307 75.2562 422.307 75.2562C420.986 74.4357 417.031 74.288 411.207 74.288H412.56H353.818V119.2H325.934V12.2047V5.02359H412.974C428.006 5.06954 438.384 7.28033 445.532 14.2199C452.555 21.3748 453.487 30.7352 453.527 40.4763V48.6092C453.617 56.8866 449.268 64.4353 444.081 68.8332L445.124 69.3505C447.24 70.3758 448.398 71.8284 448.398 71.8284C452.344 76.8664 452.295 81.202 452.287 86.532V119.228H425.236L425.236 119.206ZM3.55768 4.99077V12.1785V119.173H31.442V74.3011H115.922V49.7645H31.442V30.361H129.641V4.96452H3.54456L3.55768 4.99077Z" fill="#334E68"/>
<path d="M1003.87 99.0082V104.252H1008.75C1010.07 104.252 1011.35 103.891 1011.55 101.929C1011.83 99.3285 1009.95 99.0082 1008.75 99.0082H1003.87ZM1001.91 97.2851H1008.71C1011.07 97.2851 1013.35 97.7282 1013.55 101.166C1013.63 103.135 1013.03 103.849 1011.55 104.973C1013.11 105.974 1013.15 106.212 1013.39 108.854C1013.55 110.856 1013.27 111.176 1014.11 112.497H1011.79L1011.47 110.577C1011.15 108.772 1012.03 105.974 1008.87 105.974H1003.87V112.497H1001.91L1001.91 97.2851ZM1007.03 93.0841C1000.31 93.0841 994.825 98.5651 994.871 105.333C994.871 112.054 1000.31 117.535 1007.07 117.503C1013.8 117.503 1019.28 112.054 1019.28 105.293C1019.28 98.5651 1013.79 93.0841 1007.03 93.0841ZM1007.07 119.091C999.433 119.091 993.262 112.929 993.262 105.293C993.23 97.6855 999.433 91.4824 1007.07 91.4824C1014.68 91.4824 1020.88 97.6855 1020.88 105.293C1020.88 112.934 1014.68 119.065 1007.07 119.091Z" fill="#334E68"/>
<path d="M287.593 120.342C296.652 117.264 303.701 106.833 305.395 93.7177V89.9269H258.954V120.345H287.586L287.593 120.342ZM305.401 34.155V30.7253C303.621 17.0391 296.048 6.25431 286.392 3.72057H258.96V34.1517L305.401 34.155ZM141.955 89.9302V93.6882C143.637 106.816 150.686 117.266 159.77 120.345H188.258V89.9269L141.955 89.9302ZM160.958 3.74354C151.316 6.2786 143.721 17.0687 141.955 30.7745V34.18H188.258V3.74879L160.958 3.74354ZM305.434 46.8434H258.993V77.2746H305.434V46.8434ZM200.934 120.361H246.364V89.9433H200.934V120.361ZM246.364 3.71729H200.934V34.1485H246.364V3.71729ZM141.995 77.2352H188.298V46.8041H141.995V77.2352Z" fill="#334E68"/>
</svg>
