<svg width="1042" height="180" viewBox="0 0 1042 180" fill="none" xmlns="http://www.w3.org/2000/svg">
<g clip-path="url(#clip0_23_59)">
<path d="M646.69 53.92V63.96C646.69 65.83 645.15 67.33 643.28 67.26C640.43 67.15 636.45 67.01 634.01 66.97C620.38 66.97 612.86 75.1 612.86 89.87V126.47C612.86 128.29 611.38 129.77 609.56 129.77H597.6C595.78 129.77 594.31 128.29 594.31 126.47V52.98C594.31 51.16 595.79 49.68 597.6 49.68H608.99C610.81 49.68 612.29 51.15 612.29 52.98V57.66C617.74 52.01 626.43 48.97 637.17 48.97C638.95 48.97 641.2 49.22 642.77 49.44C645.01 49.75 646.69 51.67 646.69 53.92ZM524.34 84.87C523.69 84.05 523.77 82.86 524.52 82.12L553.94 53.22C555.26 51.92 554.34 49.69 552.49 49.69H535.37C534.54 49.69 533.75 50 533.14 50.56L500.01 80.97C498.69 82.19 496.55 81.25 496.55 79.45V52.98C496.55 51.16 495.07 49.68 493.25 49.68H481.3C479.48 49.68 478 51.15 478 52.98V126.46C478 128.28 479.48 129.76 481.3 129.76H493.23C495.06 129.76 496.54 128.27 496.53 126.44L496.42 109.39C496.41 108.47 496.8 107.58 497.48 106.95L507.79 97.39C508.66 96.58 510.05 96.68 510.8 97.61L535.7 128.53C536.33 129.31 537.27 129.76 538.27 129.76H555.45C557.17 129.76 558.13 127.78 557.07 126.42L524.34 84.87ZM426.74 49.69H414.78C412.96 49.69 411.48 51.16 411.48 52.99V126.47C411.48 128.29 412.96 129.77 414.78 129.77H426.74C428.56 129.77 430.04 128.29 430.04 126.47V52.98C430.04 51.16 428.56 49.69 426.74 49.69ZM855.17 49.69H782.97C781.16 49.69 779.67 51.17 779.67 52.99V63.68C779.67 65.5 781.15 66.98 782.97 66.98H807.52C808.66 66.98 809.58 67.9 809.58 69.04V126.47C809.58 128.29 811.06 129.77 812.88 129.77H825.26C827.08 129.77 828.56 128.29 828.56 126.47V69.03C828.56 67.89 829.48 66.97 830.62 66.97H855.17C856.99 66.97 858.47 65.49 858.47 63.67V52.98C858.47 51.16 856.99 49.69 855.17 49.69ZM754.7 89.72C754.7 113.41 737.27 130.61 713.25 130.61C689.15 130.61 671.66 113.41 671.66 89.72C671.66 66.11 689.15 48.98 713.25 48.98C737.27 48.98 754.7 66.11 754.7 89.72ZM736.01 89.72C736.01 75.43 726.86 65.83 713.25 65.83C699.77 65.83 690.36 75.65 690.36 89.72C690.36 103.87 699.77 113.75 713.25 113.75C726.65 113.76 736.01 103.87 736.01 89.72ZM910.95 49.69H898.99C897.18 49.69 895.69 51.17 895.69 52.99V126.47C895.69 128.29 897.17 129.77 898.99 129.77H910.95C912.77 129.77 914.25 128.29 914.25 126.47V52.98C914.25 51.16 912.77 49.69 910.95 49.69ZM330.28 48.98C319.5 48.98 309.8 52.7 303.18 59.27C302.29 60.15 300.92 60.08 300.11 59.14C294.45 52.57 285.75 48.98 275.28 48.98C265.68 48.98 257.47 51.83 251.81 57.1V52.98C251.81 51.16 250.33 49.68 248.51 49.68H237.12C235.3 49.68 233.82 51.15 233.82 52.98V126.46C233.82 128.28 235.3 129.76 237.12 129.76H249.08C250.9 129.76 252.37 128.28 252.37 126.46V88.59C252.37 74.3 259.69 66.11 272.44 66.11C283.68 66.11 289.38 72.67 289.38 85.61V126.46C289.38 128.28 290.86 129.76 292.68 129.76H304.64C306.46 129.76 307.94 128.28 307.94 126.46V88.59C307.94 74.3 315.25 66.11 328 66.11C339.25 66.11 344.95 72.67 344.95 85.61V126.46C344.95 128.28 346.43 129.76 348.25 129.76H360.21C362.03 129.76 363.51 128.28 363.51 126.46V84.06C363.52 61.77 351.4 48.98 330.28 48.98ZM1041.29 126.42L1008.55 84.87C1007.9 84.04 1007.98 82.86 1008.73 82.12L1038.15 53.21C1039.47 51.92 1038.55 49.68 1036.7 49.68H1019.58C1018.76 49.68 1017.96 49.99 1017.35 50.55L984.22 80.96C982.9 82.17 980.76 81.24 980.76 79.44V52.98C980.76 51.16 979.28 49.68 977.46 49.68H965.5C963.68 49.68 962.2 51.16 962.2 52.98V126.46C962.2 128.28 963.68 129.76 965.5 129.76H977.43C979.26 129.76 980.74 128.27 980.73 126.44L980.62 109.4C980.62 108.47 981 107.59 981.68 106.96L992 97.39C992.87 96.58 994.26 96.68 995.01 97.61L1019.91 128.52C1020.54 129.3 1021.48 129.75 1022.48 129.75H1039.66C1041.39 129.76 1042.35 127.78 1041.29 126.42ZM166.87 46.31C166.65 45.81 166.42 45.33 166.16 44.9C165.9 44.47 165.59 44.04 165.24 43.62C163.43 41.4 160.48 39.22 156.71 37.15L126.38 20.53L96.05 3.89C92.28 1.82 88.82 0.49 85.89 0.11C85.33 0.04 84.78 0 84.26 0C81.02 0 76.96 1.43 72.46 3.89L42.13 20.52L11.8 37.14C8.03 39.21 5.08 41.38 3.27 43.61C2.92 44.04 2.61 44.47 2.35 44.89C2.09 45.32 1.86 45.8 1.64 46.3C0.52 48.91 0 52.41 0 56.54V123.04C0 127.97 0.73 132.02 2.35 134.69C3.97 137.36 7.3 139.98 11.8 142.44L42.13 159.07L72.46 175.69C76.23 177.75 79.69 179.09 82.62 179.47C83.18 179.54 83.73 179.59 84.25 179.59C84.77 179.59 85.32 179.55 85.88 179.47C88.81 179.09 92.27 177.76 96.04 175.69L156.7 142.44C161.19 139.98 164.53 137.36 166.15 134.69C166.41 134.26 166.64 133.78 166.86 133.28C167.98 130.68 168.5 127.17 168.5 123.04V56.54C168.51 52.41 167.99 48.91 166.87 46.31ZM48.58 124.33C48.58 125.84 46.96 126.81 45.63 126.08L34.78 120.13C32.23 118.73 30.64 116.05 30.64 113.14V81C30.64 79.49 32.26 78.53 33.59 79.25L46.52 86.33C47.8 87.03 48.59 88.37 48.59 89.83V124.33H48.58ZM137.87 113.14C137.87 116.05 136.28 118.74 133.73 120.14L122.88 126.08C121.55 126.81 119.93 125.85 119.93 124.33V81.75C119.93 80.24 118.31 79.27 116.98 80L97.38 90.74C94.83 92.14 93.24 94.82 93.24 97.73V139.97C93.24 141.43 92.45 142.77 91.17 143.47L88.09 145.15C85.7 146.46 82.81 146.46 80.42 145.15L77.36 143.47C76.08 142.77 75.29 141.43 75.29 139.97V97.74C75.29 94.83 73.7 92.15 71.15 90.75L30.64 68.55V66.45C30.64 63.54 32.23 60.86 34.78 59.46L39.25 57C41.64 55.69 44.53 55.69 46.91 57L80.42 75.36C82.81 76.67 85.7 76.67 88.08 75.36L103.56 66.87C104.94 66.11 104.94 64.13 103.56 63.37L68.78 44.31C67.4 43.55 67.4 41.57 68.78 40.81L80.42 34.43C82.81 33.12 85.7 33.12 88.09 34.43L133.73 59.44C136.29 60.84 137.88 63.52 137.88 66.44V113.14H137.87Z" fill="#334E68"/>
</g>
<defs>
<clipPath id="clip0_23_59">
<rect width="1041.73" height="179.59" fill="white"/>
</clipPath>
</defs>
</svg>
