<svg width="204" height="37" viewBox="0 0 204 37" fill="none" xmlns="http://www.w3.org/2000/svg">
<path d="M3.585 28.8222H18.653C21.279 28.8222 22.717 28.5742 23.56 28.0292C24.601 27.3832 25.196 26.2962 25.196 25.0072C25.196 23.4702 24.402 22.1312 23.065 21.4862C22.372 21.0902 21.081 20.8912 19.495 20.8912H13.398C9.434 20.8912 6.856 20.1972 5.122 18.7102C3.139 16.9742 2 14.2982 2 11.4242C2 7.21116 4.329 3.54316 7.749 2.35316C9.236 1.80716 10.97 1.66016 14.837 1.66016H31.193V7.55816H16.422C13.299 7.60716 13.051 7.60716 12.011 7.85516C10.624 8.20116 9.781 9.49016 9.781 11.2242C9.781 12.7132 10.474 13.9022 11.665 14.4472C12.656 14.8942 13.449 14.9922 15.829 14.9922H21.132C25.99 14.9922 28.616 15.7362 30.55 17.7192C32.037 19.2052 33.029 22.1312 33.029 25.0072C33.029 28.5262 31.393 31.7962 28.816 33.3832C27.181 34.4232 25.1 34.7202 20.191 34.7202H3.585V28.8222Z" fill="#334E68"/>
<path d="M51.912 1.41016C47.253 1.41016 43.188 2.55116 40.611 4.63316C37.34 7.21116 35.606 12.0202 35.606 18.3652C35.606 22.7752 36.545 26.3962 38.48 29.1212C41.057 32.8402 46.065 34.9232 52.409 34.9232C56.87 34.9232 60.638 33.8302 63.117 31.8482C66.388 29.2232 68.225 24.4602 68.225 18.6602L68.21 17.7142L68.17 16.7832L68.104 15.8772L68.015 14.9882L67.899 14.1212L67.755 13.2812L67.59 12.4682L67.399 11.6812L67.295 11.2972L67.184 10.9222L67.068 10.5512L66.947 10.1942L66.822 9.83816L66.688 9.49316L66.548 9.15916L66.402 8.82716L66.255 8.51116L66.1 8.19916L65.939 7.89616L65.773 7.60516L65.599 7.32016L65.424 7.04316L65.241 6.77916L65.053 6.52516C62.523 3.24616 57.811 1.41016 51.912 1.41016ZM51.96 7.00916C57.859 7.00916 60.486 10.4822 60.486 18.2132C60.486 25.8472 57.809 29.3662 51.96 29.3662C46.013 29.3662 43.335 25.8452 43.335 18.1142L43.339 17.7882L43.343 17.4662L43.348 17.1502L43.361 16.8382L43.375 16.5332L43.389 16.2302L43.407 15.9352L43.429 15.6442L43.455 15.3572L43.482 15.0802L43.513 14.8092L43.548 14.5412L43.584 14.2772L43.624 14.0172L43.669 13.7672L43.714 13.5172L43.764 13.2772L43.818 13.0452L43.872 12.8132L43.931 12.5892L43.993 12.3692L44.055 12.1542L44.121 11.9492L44.193 11.7482L44.269 11.5522L44.345 11.3602L44.426 11.1772L44.511 10.9942L44.595 10.8202L44.684 10.6542L44.778 10.4922L44.872 10.3372C46.211 8.20316 48.739 7.00916 51.96 7.00916Z" fill="#334E68"/>
<path d="M71.99 1.66016V34.7222H79.024V23.1682H90.33C94.097 23.1682 95.876 22.6762 97.81 21.0402C100.09 19.1082 101.479 15.8862 101.479 12.4152C101.479 9.49116 100.439 6.76316 98.506 4.68116C96.326 2.25216 94.291 1.66016 88.492 1.66016H71.99ZM79.024 7.55916H88.739C89.879 7.55916 90.772 7.65616 91.317 7.85516C92.855 8.40016 93.748 9.98616 93.748 12.1662C93.748 14.0012 93.201 15.5882 92.31 16.3322L92.239 16.3942L92.167 16.4552L92.091 16.5142L92.016 16.5732L91.935 16.6262L91.855 16.6762L91.77 16.7252L91.681 16.7712L91.591 16.8142L91.497 16.8592L91.403 16.8962L91.305 16.9352L91.201 16.9712L91.098 17.0002L90.991 17.0322L90.879 17.0632L90.764 17.0882L90.648 17.1092L90.527 17.1312L90.402 17.1532L90.273 17.1712L90.143 17.1892L90.004 17.2032L89.865 17.2212L89.722 17.2312L89.57 17.2402L89.418 17.2502L89.262 17.2592L89.1 17.2622L88.934 17.2672H88.764L88.589 17.2712H79.022V7.55916H79.024Z" fill="#334E68"/>
<path d="M131.566 34.7182H124.527V21.0892H111.789V34.7182H104.75V1.66016H111.789V15.1912H124.527V1.66016H131.566V34.7182Z" fill="#334E68"/>
<path d="M152.088 1.41016C147.43 1.41016 143.365 2.55116 140.787 4.63316C137.516 7.21116 135.777 12.0202 135.777 18.3652C135.777 22.7752 136.72 26.3962 138.656 29.1212C141.23 32.8402 146.238 34.9232 152.584 34.9232C157.047 34.9232 160.811 33.8302 163.287 31.8482C166.558 29.2232 168.394 24.4602 168.394 18.6602L168.38 17.7142L168.341 16.7832L168.275 15.8772L168.185 14.9882L168.068 14.1212L167.925 13.2812L167.759 12.4682L167.571 11.6812L167.464 11.2972L167.357 10.9222L167.242 10.5512L167.117 10.1942L166.992 9.83816L166.857 9.49316L166.718 9.15916L166.575 8.82716L166.423 8.51116L166.267 8.19916L166.107 7.89616L165.941 7.60516L165.767 7.32016L165.593 7.04316L165.407 6.77916L165.219 6.52516C162.693 3.24616 157.988 1.41016 152.088 1.41016ZM152.139 7.00916C158.035 7.00916 160.664 10.4822 160.664 18.2132C160.664 25.8472 157.986 29.3662 152.139 29.3662C146.192 29.3662 143.514 25.8452 143.514 18.1142V17.7882L143.518 17.4662L143.528 17.1502L143.536 16.8382L143.55 16.5332L143.57 16.2302L143.588 15.9352L143.609 15.6442L143.63 15.3572L143.657 15.0802L143.692 14.8092L143.723 14.5412L143.758 14.2772L143.799 14.0172L143.842 13.7672L143.889 13.5172L143.938 13.2772L143.991 13.0452L144.046 12.8132L144.105 12.5892L144.167 12.3692L144.229 12.1542L144.299 11.9492L144.369 11.7482L144.441 11.5522L144.517 11.3602L144.597 11.1772L144.683 10.9942L144.767 10.8202L144.857 10.6542L144.951 10.4922L145.051 10.3372C146.387 8.20316 148.916 7.00916 152.139 7.00916Z" fill="#334E68"/>
<path d="M172.559 28.8222H187.627C190.252 28.8222 191.689 28.5742 192.533 28.0292C193.572 27.3832 194.168 26.2962 194.168 25.0072C194.168 23.4702 193.375 22.1312 192.037 21.4862C191.342 21.0902 190.055 20.8912 188.469 20.8912H182.371C178.406 20.8912 175.828 20.1972 174.094 18.7102C172.112 16.9742 170.971 14.2982 170.971 11.4242C170.971 7.21116 173.299 3.54316 176.721 2.35316C178.207 1.80716 179.944 1.66016 183.809 1.66016H200.166V7.55816H185.395C182.272 7.60716 182.024 7.60716 180.985 7.85516C179.596 8.20116 178.753 9.49016 178.753 11.2242C178.753 12.7132 179.448 13.9022 180.64 14.4472C181.628 14.8942 182.421 14.9922 184.802 14.9922H190.105C194.962 14.9922 197.589 15.7362 199.525 17.7192C201.01 19.2052 202 22.1302 202 25.0062C202 28.5252 200.365 31.7952 197.787 33.3822C196.152 34.4222 194.07 34.7192 189.162 34.7192H172.558V28.8222H172.559Z" fill="#334E68"/>
</svg>
